<svg xmlns="http://www.w3.org/2000/svg" xmlns:xlink="http://www.w3.org/1999/xlink" width="500" zoomAndPan="magnify" viewBox="0 0 375 374.999991" height="500" preserveAspectRatio="xMidYMid meet" version="1.0"><path fill="#e6e6e6" d="M 214.1875 28.382812 L 217.957031 29.910156 C 219.972656 30.726562 220.839844 33.105469 219.820312 35.027344 L 217.917969 38.621094 C 216.300781 41.671875 219.410156 45.0625 222.589844 43.714844 L 226.324219 42.132812 C 228.328125 41.285156 230.625 42.355469 231.265625 44.433594 L 232.460938 48.316406 C 233.476562 51.617188 238.066406 51.816406 239.367188 48.617188 L 240.894531 44.851562 C 241.710938 42.839844 244.089844 41.972656 246.011719 42.992188 L 249.601562 44.894531 C 252.652344 46.507812 256.042969 43.402344 254.699219 40.222656 L 253.117188 36.480469 C 252.269531 34.480469 253.339844 32.183594 255.417969 31.546875 L 259.300781 30.351562 C 262.597656 29.335938 262.796875 24.742188 259.601562 23.445312 L 255.835938 21.917969 C 253.824219 21.097656 252.957031 18.722656 253.976562 16.800781 L 255.878906 13.207031 C 257.492188 10.15625 254.386719 6.769531 251.207031 8.113281 L 247.464844 9.695312 C 245.460938 10.542969 243.167969 9.472656 242.527344 7.394531 L 241.332031 3.503906 C 240.320312 0.207031 235.726562 0.00390625 234.429688 3.203125 L 232.902344 6.972656 C 232.085938 8.984375 229.707031 9.851562 227.785156 8.835938 L 224.1875 6.929688 C 221.136719 5.316406 217.75 8.421875 219.09375 11.601562 L 220.679688 15.34375 C 221.527344 17.347656 220.457031 19.644531 218.378906 20.28125 L 214.488281 21.476562 C 211.191406 22.492188 210.992188 27.085938 214.1875 28.382812 Z M 228.832031 21.726562 C 229.613281 20.019531 231.003906 18.628906 232.710938 17.847656 C 240.820312 14.128906 248.683594 21.992188 244.964844 30.101562 C 244.183594 31.808594 242.792969 33.199219 241.085938 33.980469 C 232.976562 37.699219 225.113281 29.835938 228.832031 21.726562 Z M 228.832031 21.726562 " fill-opacity="1" fill-rule="nonzero"/><path fill="#e6e6e6" d="M 371.707031 150.617188 C 371.253906 150.132812 370.757812 149.710938 370.230469 149.351562 L 369.542969 148.890625 L 336.164062 125.421875 C 335.394531 124.460938 334.289062 123.667969 333.054688 123.203125 C 328.152344 121.34375 323.742188 119.871094 319.21875 118.910156 L 317.597656 108.949219 C 317.59375 108.921875 317.601562 108.894531 317.597656 108.863281 L 316.035156 99.359375 C 316.296875 99.449219 316.578125 99.492188 316.875 99.460938 C 319.671875 99.171875 321.804688 97.453125 322.261719 95.042969 C 322.457031 93.996094 322.417969 92.976562 322.191406 92.0625 C 323.144531 89.355469 323.402344 86.492188 322.988281 83.730469 C 328.285156 86.25 334.738281 84.390625 337.835938 79.257812 C 341.128906 73.792969 339.371094 66.691406 333.90625 63.394531 C 330.082031 61.089844 325.460938 61.265625 321.898438 63.449219 L 321.527344 62.273438 C 320.550781 59.175781 322.46875 55.914062 325.648438 55.257812 L 331.59375 54.03125 C 336.640625 52.988281 337.585938 46.183594 333.015625 43.800781 L 327.632812 41 C 324.753906 39.5 323.800781 35.839844 325.585938 33.125 L 328.925781 28.050781 C 331.757812 23.746094 327.617188 18.261719 322.699219 19.8125 L 316.90625 21.640625 C 313.808594 22.617188 310.546875 20.699219 309.890625 17.519531 L 308.664062 11.566406 C 307.625 6.519531 300.820312 5.570312 298.4375 10.144531 L 295.632812 15.535156 C 294.136719 18.414062 290.476562 19.367188 287.765625 17.582031 L 282.679688 14.238281 C 278.371094 11.40625 272.894531 15.550781 274.445312 20.46875 L 276.273438 26.257812 C 277.25 29.355469 275.335938 32.621094 272.15625 33.273438 L 266.203125 34.5 C 261.152344 35.542969 260.203125 42.347656 264.777344 44.726562 L 270.167969 47.53125 C 272.5625 48.777344 273.617188 51.519531 272.882812 53.96875 C 272.59375 53.957031 272.304688 53.945312 272.015625 53.945312 L 159.726562 53.945312 L 159.78125 40.964844 L 159.820312 40.964844 L 159.820312 32.039062 C 159.820312 27.988281 156.53125 24.699219 152.480469 24.699219 L 87.410156 24.699219 C 84.625 24.699219 82.199219 26.253906 80.957031 28.542969 C 80.890625 28.664062 80.835938 28.792969 80.773438 28.921875 C 80.734375 29.007812 80.6875 29.09375 80.648438 29.183594 C 80.277344 30.0625 80.070312 31.027344 80.070312 32.039062 L 80.058594 34.882812 C 72.820312 36.757812 67.511719 42.941406 67.511719 51.375 C 67.511719 53.246094 67.660156 55.046875 67.902344 56.785156 C 67.902344 56.785156 67.902344 56.785156 67.90625 56.785156 C 66.828125 57.742188 66.074219 59.296875 65.96875 61.089844 C 65.953125 61.382812 65.960938 61.671875 65.996094 61.953125 C 66.011719 62.089844 66.050781 62.21875 66.078125 62.355469 C 66.109375 62.496094 66.128906 62.636719 66.171875 62.777344 C 66.226562 62.957031 66.304688 63.132812 66.378906 63.308594 C 66.414062 63.386719 66.441406 63.472656 66.476562 63.546875 C 66.582031 63.757812 66.707031 63.957031 66.839844 64.152344 C 66.863281 64.1875 66.882812 64.226562 66.910156 64.261719 C 67.0625 64.480469 67.242188 64.6875 67.429688 64.890625 C 67.4375 64.898438 67.445312 64.90625 67.453125 64.914062 C 68.058594 65.542969 68.832031 66.058594 69.730469 66.429688 L 67.46875 85.992188 C 59.8125 86.761719 55.042969 87.699219 55.042969 87.699219 C 46.578125 90.179688 40.585938 93.28125 36.53125 94.96875 C 36.128906 95.136719 35.792969 95.394531 35.523438 95.707031 C 32.417969 97.871094 30.234375 101.328125 29.839844 105.390625 L 28.023438 140.675781 L 27.984375 140.675781 C 27.980469 140.675781 27.980469 140.675781 27.980469 140.675781 C 27.730469 140.675781 27.523438 140.875 27.519531 141.128906 C 27.519531 141.234375 27.5625 141.332031 27.625 141.410156 C 27.273438 141.632812 27.03125 142.015625 27.007812 142.457031 L 25.972656 157.707031 L 35.21875 141.664062 L 25.691406 158.191406 C 23.699219 164.722656 27.382812 171.636719 33.917969 173.628906 C 36.699219 174.472656 39.542969 174.285156 42.050781 173.296875 C 42.027344 173.550781 42.011719 173.816406 41.984375 174.070312 C 41.78125 175.992188 42.628906 177.820312 44.109375 178.921875 C 43.386719 189.773438 43.261719 201.671875 43.75 211.761719 L 45.71875 248.90625 L 7.382812 248.90625 C 4.34375 248.90625 1.738281 250.753906 0.625 253.390625 C 0.582031 253.492188 0.546875 253.597656 0.507812 253.703125 C 0.464844 253.824219 0.414062 253.941406 0.378906 254.0625 C 0.160156 254.75 0.046875 255.484375 0.046875 256.246094 L 0.046875 311.226562 C 0.046875 315.277344 3.332031 319.296875 7.382812 319.296875 L 47.054688 318.933594 C 48.589844 329.09375 50.578125 341.105469 51.773438 348.234375 L 54.96875 348.234375 L 54.96875 351.714844 C 54.113281 352.230469 53.4375 352.921875 53.050781 353.824219 C 51.425781 357.597656 49.652344 360.226562 47.210938 364.046875 C 44.988281 367.53125 44.238281 370.375 44.253906 372.699219 C 44.257812 373.847656 45.210938 374.761719 46.359375 374.761719 L 74.472656 374.761719 C 75.617188 374.761719 76.578125 373.847656 76.582031 372.703125 C 76.59375 366.332031 74.105469 360.320312 73.195312 356.339844 C 72.804688 354.636719 72.722656 353.175781 72.058594 352.722656 C 72.003906 352.683594 71.960938 352.671875 71.910156 352.644531 C 71.757812 350.96875 71.664062 349.507812 71.613281 348.230469 L 74.160156 348.230469 L 74.785156 318.675781 L 87.363281 318.5625 C 87.601562 318.5625 87.835938 318.546875 88.066406 318.527344 C 90.347656 331.074219 93.257812 342.125 95.097656 348.230469 L 97.726562 348.230469 C 97.851562 349.910156 97.960938 351.28125 98.054688 352.410156 C 97.773438 352.285156 97.46875 352.246094 97.074219 352.359375 C 94.488281 353.097656 94.410156 363.761719 94.410156 372.824219 C 94.410156 374.015625 95.375 374.976562 96.570312 374.976562 L 136.863281 374.976562 C 138.152344 374.976562 139.160156 373.859375 139.007812 372.578125 C 138.691406 369.878906 137.484375 365.613281 133.117188 363.667969 C 126.464844 360.707031 122.042969 357.667969 120.074219 353.503906 C 119.082031 351.40625 116.863281 350.492188 114.652344 350.453125 C 114.523438 349.621094 114.417969 348.890625 114.328125 348.230469 L 116.644531 348.230469 L 114.992188 264.929688 L 108.542969 187.492188 C 110.671875 187.121094 111.097656 184.921875 111.441406 182.550781 L 116.453125 124.976562 C 116.546875 124.949219 116.628906 124.890625 116.6875 124.8125 L 124.769531 132.695312 C 124.503906 133.199219 124.578125 133.835938 125.015625 134.257812 L 135.953125 144.84375 C 136.289062 145.171875 136.753906 145.257812 137.179688 145.152344 L 137.179688 353.445312 C 137.179688 364.9375 146.496094 374.253906 157.988281 374.253906 L 212.539062 374.253906 C 212.554688 374.570312 212.59375 374.765625 212.59375 374.765625 L 251.699219 374.765625 C 251.734375 374.585938 251.753906 374.425781 251.785156 374.253906 L 272.019531 374.253906 C 283.507812 374.253906 292.824219 364.9375 292.824219 353.445312 L 292.824219 351.675781 L 314.960938 352.265625 L 298.464844 351.824219 C 298.210938 352.589844 298.046875 353.398438 298 354.242188 L 297.925781 355.710938 C 297.253906 363.492188 297.386719 369.128906 297.386719 374.765625 L 329.453125 374.765625 C 329.585938 368.457031 316.304688 364.386719 316.304688 358.238281 L 316.304688 354.726562 C 316.304688 353.882812 316.179688 353.066406 315.964844 352.292969 L 331.136719 352.695312 C 331.148438 352.695312 332.6875 344.296875 333.210938 341.492188 L 333.339844 341.492188 C 333.589844 341.492188 333.796875 341.285156 333.796875 341.03125 C 333.796875 340.792969 333.613281 340.605469 333.382812 340.585938 C 336.902344 303.804688 344.675781 221.597656 344.675781 212.664062 C 344.675781 204.667969 344.269531 196.867188 342.015625 189.347656 C 343.59375 188.605469 345.449219 187.707031 346.050781 187.058594 C 346.464844 186.609375 346.707031 186.121094 346.828125 185.609375 L 371.289062 162.96875 C 374.8125 159.671875 375 154.144531 371.707031 150.617188 Z M 60.824219 350.460938 C 60.707031 350.460938 60.59375 350.464844 60.476562 350.464844 C 60.59375 350.464844 60.707031 350.460938 60.824219 350.460938 Z M 56.445312 351.046875 C 56.378906 351.066406 56.320312 351.09375 56.257812 351.113281 C 56.320312 351.09375 56.378906 351.066406 56.445312 351.046875 Z M 59.007812 350.527344 C 58.980469 350.53125 58.957031 350.53125 58.929688 350.535156 C 58.957031 350.53125 58.980469 350.53125 59.007812 350.527344 Z M 58.257812 350.625 C 58.160156 350.636719 58.0625 350.652344 57.96875 350.667969 C 58.0625 350.652344 58.160156 350.636719 58.257812 350.625 Z M 57.335938 350.796875 C 57.242188 350.820312 57.148438 350.84375 57.058594 350.867188 C 57.148438 350.84375 57.242188 350.820312 57.335938 350.796875 Z M 67.429688 351.808594 C 67.6875 351.921875 67.933594 352.039062 68.160156 352.164062 C 67.933594 352.039062 67.6875 351.921875 67.429688 351.808594 Z M 61.425781 350.484375 C 61.578125 350.492188 61.730469 350.503906 61.878906 350.511719 C 61.730469 350.503906 61.578125 350.492188 61.425781 350.484375 Z M 62.433594 350.5625 C 62.609375 350.582031 62.78125 350.601562 62.957031 350.625 C 62.78125 350.601562 62.609375 350.582031 62.433594 350.5625 Z M 63.445312 350.691406 C 63.707031 350.734375 63.96875 350.78125 64.226562 350.832031 C 63.96875 350.78125 63.707031 350.734375 63.445312 350.691406 Z M 64.628906 350.917969 C 64.878906 350.972656 65.125 351.03125 65.363281 351.09375 C 65.125 351.03125 64.878906 350.972656 64.628906 350.917969 Z M 65.703125 351.191406 C 65.902344 351.25 66.101562 351.308594 66.292969 351.371094 C 66.101562 351.308594 65.902344 351.25 65.703125 351.191406 Z M 66.613281 351.484375 C 66.808594 351.554688 66.996094 351.628906 67.179688 351.703125 C 66.996094 351.628906 66.808594 351.554688 66.613281 351.484375 Z M 71.65625 352.539062 C 71.570312 352.519531 71.484375 352.507812 71.40625 352.519531 C 71.484375 352.507812 71.570312 352.515625 71.65625 352.539062 Z M 110.070312 351.871094 C 110.019531 351.914062 109.960938 351.953125 109.910156 351.996094 C 109.960938 351.953125 110.019531 351.914062 110.070312 351.871094 Z M 101.277344 354.089844 C 101.503906 354.121094 101.746094 354.144531 102.015625 354.144531 C 101.746094 354.144531 101.503906 354.121094 101.277344 354.089844 Z M 99.183594 353.214844 C 99.234375 353.253906 99.289062 353.289062 99.34375 353.332031 C 99.289062 353.289062 99.234375 353.253906 99.183594 353.214844 Z M 99.507812 353.445312 C 99.625 353.523438 99.75 353.59375 99.882812 353.664062 C 99.75 353.59375 99.625 353.523438 99.507812 353.445312 Z M 100.019531 353.730469 C 100.152344 353.792969 100.296875 353.851562 100.449219 353.90625 C 100.296875 353.851562 100.152344 353.792969 100.019531 353.730469 Z M 100.523438 353.933594 C 100.703125 353.988281 100.902344 354.03125 101.113281 354.066406 C 100.902344 354.03125 100.703125 353.988281 100.523438 353.933594 Z M 109.554688 352.382812 C 109.511719 352.433594 109.460938 352.476562 109.421875 352.527344 C 109.460938 352.476562 109.511719 352.433594 109.554688 352.382812 Z M 112.019531 350.832031 C 112.035156 350.828125 112.050781 350.824219 112.066406 350.820312 C 112.050781 350.824219 112.035156 350.828125 112.019531 350.832031 Z M 110.519531 351.53125 C 110.5625 351.503906 110.613281 351.480469 110.660156 351.453125 C 110.613281 351.480469 110.5625 351.503906 110.519531 351.53125 Z M 111.226562 351.144531 C 111.257812 351.128906 111.292969 351.117188 111.328125 351.101562 C 111.296875 351.117188 111.257812 351.128906 111.226562 351.144531 Z M 300.527344 269.019531 C 300.511719 268.96875 300.5 268.914062 300.5 268.855469 C 300.5 268.914062 300.511719 268.96875 300.527344 269.019531 Z M 300.703125 269.238281 C 300.695312 269.234375 300.6875 269.230469 300.679688 269.222656 C 300.6875 269.230469 300.695312 269.234375 300.703125 269.238281 Z M 300.601562 269.148438 C 300.585938 269.128906 300.574219 269.109375 300.5625 269.085938 C 300.574219 269.109375 300.585938 269.128906 300.601562 269.148438 Z M 81.332031 80.289062 C 81.53125 80.40625 81.726562 80.519531 81.933594 80.625 C 81.730469 80.519531 81.53125 80.40625 81.332031 80.289062 Z M 89.128906 81.929688 C 88.835938 81.960938 88.539062 81.984375 88.242188 81.992188 C 88.539062 81.984375 88.835938 81.960938 89.128906 81.929688 Z M 71.90625 66.210938 C 71.914062 66.203125 71.921875 66.195312 71.933594 66.1875 C 71.949219 66.171875 71.96875 66.160156 71.988281 66.140625 C 71.960938 66.167969 71.929688 66.191406 71.898438 66.214844 C 71.898438 66.214844 71.902344 66.214844 71.90625 66.210938 Z M 72.355469 65.664062 C 72.375 65.621094 72.390625 65.578125 72.410156 65.535156 C 72.425781 65.503906 72.441406 65.46875 72.453125 65.433594 C 72.421875 65.515625 72.390625 65.597656 72.347656 65.671875 C 72.351562 65.667969 72.351562 65.667969 72.355469 65.664062 Z M 72.570312 64.945312 C 72.570312 64.921875 72.582031 64.90625 72.582031 64.882812 C 72.578125 64.90625 72.574219 64.921875 72.570312 64.945312 Z M 72.546875 65.078125 C 72.554688 65.035156 72.566406 64.992188 72.570312 64.945312 C 72.558594 65.070312 72.539062 65.1875 72.507812 65.300781 C 72.527344 65.230469 72.535156 65.15625 72.546875 65.078125 Z M 72.257812 65.824219 C 72.21875 65.878906 72.179688 65.933594 72.136719 65.980469 C 72.175781 65.933594 72.21875 65.878906 72.257812 65.824219 Z M 47.546875 169.027344 C 47.460938 169.144531 47.371094 169.261719 47.28125 169.375 C 47.371094 169.261719 47.460938 169.144531 47.546875 169.027344 Z M 48.878906 166.683594 C 48.824219 166.8125 48.757812 166.933594 48.699219 167.058594 C 48.757812 166.933594 48.824219 166.8125 48.878906 166.683594 Z M 48.277344 167.894531 C 48.199219 168.027344 48.117188 168.15625 48.035156 168.285156 C 48.117188 168.15625 48.199219 168.027344 48.277344 167.894531 Z M 46.433594 170.359375 C 46.519531 170.269531 46.601562 170.175781 46.683594 170.085938 C 46.601562 170.175781 46.519531 170.269531 46.433594 170.359375 Z M 89.605469 81.867188 C 89.722656 81.851562 89.84375 81.835938 89.964844 81.8125 C 89.84375 81.835938 89.722656 81.851562 89.605469 81.867188 Z M 90.585938 81.691406 C 90.640625 81.679688 90.691406 81.667969 90.742188 81.65625 C 90.6875 81.667969 90.640625 81.679688 90.585938 81.691406 Z M 321.050781 89.832031 C 321.035156 89.8125 321.019531 89.792969 321.003906 89.777344 C 321.019531 89.792969 321.035156 89.8125 321.050781 89.832031 Z M 144.210938 73.5 C 144.222656 73.367188 144.238281 73.238281 144.253906 73.109375 C 144.238281 73.238281 144.222656 73.367188 144.210938 73.5 Z M 144.386719 72.25 C 144.410156 72.113281 144.433594 71.972656 144.460938 71.835938 C 144.433594 71.972656 144.410156 72.113281 144.386719 72.25 Z M 144.734375 70.773438 C 144.792969 70.582031 144.863281 70.398438 144.925781 70.210938 C 144.859375 70.398438 144.792969 70.582031 144.734375 70.773438 Z M 145.113281 69.707031 C 145.195312 69.488281 145.289062 69.273438 145.382812 69.0625 C 145.285156 69.273438 145.199219 69.488281 145.113281 69.707031 Z M 285.738281 73.035156 C 285.753906 73.183594 285.777344 73.328125 285.789062 73.476562 C 285.777344 73.328125 285.753906 73.183594 285.738281 73.035156 Z M 312.644531 86.644531 C 312.644531 86.714844 312.648438 86.785156 312.652344 86.855469 C 312.648438 86.785156 312.648438 86.714844 312.644531 86.644531 Z M 311.398438 85.917969 C 311.429688 85.917969 311.464844 85.917969 311.5 85.917969 C 311.898438 85.925781 312.292969 85.925781 312.664062 85.929688 C 312.261719 85.929688 311.835938 85.925781 311.398438 85.917969 Z M 306.265625 85.617188 C 306.5625 85.648438 306.859375 85.683594 307.152344 85.707031 C 307.210938 85.714844 307.269531 85.71875 307.328125 85.722656 C 307.761719 85.761719 308.191406 85.792969 308.617188 85.816406 C 308.675781 85.820312 308.734375 85.824219 308.796875 85.828125 C 309.039062 85.839844 309.273438 85.847656 309.507812 85.859375 C 308.464844 85.8125 307.378906 85.738281 306.265625 85.617188 Z M 305.667969 85.550781 C 305.71875 85.558594 305.769531 85.566406 305.820312 85.570312 C 305.769531 85.566406 305.71875 85.558594 305.667969 85.550781 Z M 304.175781 85.339844 C 304.214844 85.34375 304.25 85.351562 304.289062 85.355469 C 304.441406 85.382812 304.597656 85.398438 304.75 85.421875 C 304.558594 85.394531 304.367188 85.371094 304.175781 85.339844 Z M 299.804688 84.25 C 299.824219 84.257812 299.847656 84.265625 299.867188 84.273438 C 300.792969 84.59375 301.75 84.855469 302.722656 85.0625 C 302.734375 85.066406 302.746094 85.066406 302.753906 85.070312 C 302.949219 85.113281 303.144531 85.144531 303.339844 85.179688 C 302.132812 84.945312 300.941406 84.648438 299.804688 84.25 Z M 301.816406 115.683594 C 301.800781 115.664062 301.789062 115.644531 301.773438 115.625 C 301.789062 115.644531 301.800781 115.664062 301.816406 115.683594 Z M 300.925781 114.023438 C 300.910156 113.984375 300.894531 113.945312 300.878906 113.90625 C 300.894531 113.945312 300.910156 113.984375 300.925781 114.023438 Z M 300.613281 113.011719 C 300.597656 112.953125 300.585938 112.898438 300.570312 112.839844 C 300.585938 112.894531 300.597656 112.953125 300.613281 113.011719 Z M 304.09375 117.363281 C 304.082031 117.359375 304.070312 117.355469 304.058594 117.347656 C 304.070312 117.355469 304.082031 117.359375 304.09375 117.363281 Z M 302.4375 116.363281 C 302.429688 116.355469 302.417969 116.347656 302.414062 116.339844 C 302.421875 116.347656 302.429688 116.355469 302.4375 116.363281 Z M 309.726562 117.453125 C 309.5 117.523438 309.273438 117.582031 309.050781 117.636719 C 309.273438 117.582031 309.5 117.523438 309.726562 117.453125 Z M 311.390625 116.792969 C 311.25 116.859375 311.105469 116.921875 310.964844 116.980469 C 311.105469 116.921875 311.25 116.859375 311.390625 116.792969 Z M 310.558594 117.15625 C 310.402344 117.214844 310.25 117.269531 310.09375 117.324219 C 310.25 117.269531 310.402344 117.214844 310.558594 117.15625 Z M 310.042969 85.882812 C 310.09375 85.886719 310.140625 85.886719 310.191406 85.886719 C 310.542969 85.898438 310.882812 85.90625 311.214844 85.914062 C 310.835938 85.90625 310.445312 85.898438 310.042969 85.882812 Z M 313.007812 115.882812 C 312.886719 115.964844 312.761719 116.042969 312.636719 116.117188 C 312.761719 116.042969 312.886719 115.964844 313.007812 115.882812 Z M 312.210938 116.363281 C 312.078125 116.441406 311.945312 116.511719 311.808594 116.582031 C 311.945312 116.511719 312.078125 116.441406 312.210938 116.363281 Z M 312.691406 87.5625 C 312.695312 87.621094 312.699219 87.675781 312.707031 87.734375 C 312.765625 88.367188 312.882812 89.0625 313.058594 89.773438 C 312.863281 88.992188 312.746094 88.238281 312.691406 87.5625 Z M 313.089844 89.898438 C 313.1875 90.28125 313.304688 90.664062 313.445312 91.046875 C 313.296875 90.644531 313.175781 90.238281 313.074219 89.839844 C 313.078125 89.859375 313.082031 89.878906 313.089844 89.898438 Z M 298.507812 83.738281 C 297.945312 83.492188 297.40625 83.210938 296.886719 82.90625 C 296.949219 82.941406 297.007812 82.984375 297.070312 83.023438 C 297.113281 83.046875 297.15625 83.070312 297.199219 83.09375 C 297.585938 83.308594 297.984375 83.507812 298.398438 83.691406 C 298.433594 83.707031 298.472656 83.722656 298.507812 83.738281 Z M 294.742188 81.335938 C 294.773438 81.363281 294.804688 81.394531 294.835938 81.421875 C 295.15625 81.710938 295.492188 81.984375 295.847656 82.238281 C 295.886719 82.265625 295.925781 82.296875 295.964844 82.324219 C 295.527344 82.015625 295.117188 81.679688 294.730469 81.320312 C 294.734375 81.324219 294.738281 81.332031 294.742188 81.335938 Z M 292.824219 107.539062 C 294.085938 109.082031 295.738281 110.339844 297.714844 111.128906 C 298.566406 111.46875 299.433594 111.695312 300.304688 111.832031 L 300.789062 117.917969 C 298.3125 118.132812 295.671875 118.472656 292.824219 118.949219 Z M 298.699219 184.007812 C 298.488281 183.898438 298.285156 183.78125 298.078125 183.660156 C 298.285156 183.78125 298.492188 183.898438 298.699219 184.007812 Z M 301.828125 185.230469 C 301.496094 185.144531 301.171875 185.050781 300.855469 184.945312 C 301.171875 185.050781 301.496094 185.144531 301.828125 185.230469 Z M 300.207031 184.703125 C 299.980469 184.613281 299.757812 184.519531 299.539062 184.421875 C 299.757812 184.519531 299.980469 184.613281 300.207031 184.703125 Z M 302.589844 185.40625 C 302.550781 185.402344 302.515625 185.390625 302.476562 185.382812 C 302.515625 185.390625 302.550781 185.394531 302.589844 185.402344 C 302.589844 185.402344 302.589844 185.40625 302.589844 185.40625 Z M 296.667969 182.71875 C 296.894531 182.890625 297.128906 183.050781 297.363281 183.210938 C 297.128906 183.054688 296.894531 182.890625 296.667969 182.71875 Z M 303.511719 185.558594 C 303.53125 185.5625 303.546875 185.566406 303.5625 185.566406 C 303.546875 185.566406 303.53125 185.566406 303.511719 185.5625 C 303.515625 185.5625 303.511719 185.5625 303.511719 185.558594 Z M 305.53125 185.707031 C 305.054688 185.707031 304.589844 185.671875 304.132812 185.628906 C 304.589844 185.667969 305.054688 185.707031 305.53125 185.707031 Z M 307.753906 185.570312 C 307.582031 185.589844 307.414062 185.613281 307.238281 185.628906 C 307.414062 185.613281 307.582031 185.589844 307.753906 185.570312 Z M 314.300781 183.53125 C 314.167969 183.605469 314.039062 183.679688 313.90625 183.746094 C 314.039062 183.679688 314.167969 183.601562 314.300781 183.53125 Z M 311.007812 184.914062 C 310.859375 184.960938 310.703125 184.996094 310.550781 185.039062 C 310.703125 184.996094 310.859375 184.960938 311.007812 184.914062 Z M 309.449219 185.304688 C 309.265625 185.34375 309.082031 185.375 308.898438 185.410156 C 309.082031 185.375 309.265625 185.34375 309.449219 185.304688 Z M 313.433594 115.601562 C 313.546875 115.523438 313.65625 115.441406 313.765625 115.359375 C 313.65625 115.441406 313.546875 115.523438 313.433594 115.601562 Z M 314.199219 115.03125 C 314.238281 115 314.273438 114.964844 314.308594 114.933594 C 314.273438 114.964844 314.238281 115 314.199219 115.03125 Z M 315.289062 114.039062 C 315.355469 113.964844 315.429688 113.898438 315.496094 113.828125 C 315.429688 113.898438 315.355469 113.964844 315.289062 114.039062 Z M 315.695312 182.699219 C 315.554688 182.792969 315.417969 182.878906 315.277344 182.96875 C 315.417969 182.878906 315.554688 182.789062 315.695312 182.699219 Z M 313.472656 91.121094 C 313.605469 91.476562 313.753906 91.832031 313.921875 92.183594 C 313.753906 91.832031 313.605469 91.476562 313.472656 91.121094 Z M 314.113281 92.515625 C 314.25 92.769531 314.382812 93.023438 314.539062 93.261719 C 314.382812 93.023438 314.25 92.769531 314.113281 92.515625 Z M 283.785156 67.5 C 283.613281 67.222656 283.433594 66.953125 283.246094 66.6875 C 283.433594 66.953125 283.613281 67.222656 283.785156 67.5 Z M 285.617188 72.242188 C 285.582031 72.0625 285.546875 71.882812 285.507812 71.707031 C 285.546875 71.882812 285.582031 72.0625 285.617188 72.242188 Z M 285.34375 71.070312 C 285.289062 70.871094 285.238281 70.671875 285.171875 70.472656 C 285.234375 70.671875 285.289062 70.871094 285.34375 71.070312 Z M 285.050781 70.148438 C 284.859375 69.609375 284.640625 69.085938 284.390625 68.582031 C 284.640625 69.089844 284.863281 69.609375 285.050781 70.148438 Z M 284.332031 68.460938 C 284.1875 68.183594 284.03125 67.910156 283.871094 67.640625 C 284.03125 67.910156 284.1875 68.183594 284.332031 68.460938 Z M 146.351562 67.28125 C 146.050781 67.75 145.78125 68.242188 145.535156 68.746094 C 145.78125 68.242188 146.050781 67.75 146.351562 67.28125 Z M 277.980469 341.488281 L 277.75 341.488281 C 277.972656 340.9375 278.113281 340.597656 278.117188 340.601562 C 278.304688 340.660156 278.4375 340.828125 278.4375 341.03125 C 278.4375 341.285156 278.234375 341.488281 277.980469 341.488281 Z M 296.148438 182.320312 C 295.867188 182.09375 295.589844 181.855469 295.320312 181.609375 C 295.59375 181.855469 295.867188 182.09375 296.148438 182.320312 Z M 294.851562 181.164062 C 294.601562 180.921875 294.359375 180.671875 294.117188 180.414062 C 294.359375 180.671875 294.601562 180.921875 294.851562 181.164062 Z M 293.644531 179.878906 C 293.445312 179.652344 293.253906 179.417969 293.0625 179.179688 C 293.253906 179.417969 293.445312 179.652344 293.644531 179.878906 Z M 316.648438 182.027344 C 316.757812 181.945312 316.867188 181.867188 316.976562 181.785156 C 316.867188 181.867188 316.757812 181.945312 316.648438 182.027344 Z M 319.367188 179.613281 C 319.460938 179.515625 319.546875 179.417969 319.640625 179.320312 C 319.546875 179.417969 319.460938 179.515625 319.367188 179.613281 Z M 332.742188 189.132812 C 332.734375 189.117188 332.726562 189.101562 332.714844 189.085938 C 332.722656 189.101562 332.734375 189.117188 332.742188 189.132812 Z M 332.613281 187.449219 C 332.613281 187.449219 332.613281 187.449219 332.613281 187.445312 C 332.613281 187.449219 332.613281 187.449219 332.613281 187.449219 Z M 330.433594 183.753906 C 330.46875 183.71875 330.496094 183.6875 330.53125 183.652344 C 330.496094 183.6875 330.46875 183.71875 330.433594 183.753906 Z M 330.753906 183.417969 C 330.785156 183.382812 330.8125 183.355469 330.839844 183.324219 C 330.8125 183.355469 330.785156 183.382812 330.753906 183.417969 Z M 331.023438 183.121094 C 331.050781 183.089844 331.074219 183.066406 331.097656 183.035156 C 331.074219 183.066406 331.050781 183.089844 331.023438 183.121094 Z M 331.464844 182.601562 C 331.472656 182.59375 331.480469 182.582031 331.488281 182.574219 C 331.480469 182.582031 331.472656 182.59375 331.464844 182.601562 Z M 331.257812 182.851562 C 331.277344 182.832031 331.292969 182.8125 331.3125 182.789062 C 331.292969 182.8125 331.277344 182.828125 331.257812 182.851562 Z M 329.4375 181.648438 C 329.480469 181.628906 329.519531 181.609375 329.5625 181.589844 C 329.519531 181.609375 329.480469 181.628906 329.4375 181.648438 Z M 330.007812 181.382812 C 330.019531 181.375 330.027344 181.375 330.035156 181.371094 C 330.027344 181.375 330.019531 181.378906 330.007812 181.382812 Z M 332.859375 189.289062 C 332.878906 189.308594 332.898438 189.332031 332.917969 189.355469 C 332.898438 189.332031 332.878906 189.3125 332.859375 189.289062 Z M 333.125 189.542969 C 333.097656 189.519531 333.070312 189.496094 333.042969 189.472656 C 333.070312 189.496094 333.09375 189.519531 333.125 189.542969 Z M 337.675781 189.945312 C 337.628906 189.867188 337.589844 189.789062 337.558594 189.707031 C 337.589844 189.789062 337.628906 189.867188 337.675781 189.945312 Z M 341.90625 176.992188 C 341.9375 177.015625 341.972656 177.039062 342.003906 177.066406 C 341.972656 177.039062 341.9375 177.015625 341.90625 176.992188 Z M 339.578125 175.488281 C 339.597656 175.5 339.617188 175.507812 339.632812 175.519531 C 339.617188 175.507812 339.597656 175.5 339.578125 175.488281 Z M 341.179688 176.46875 C 341.21875 176.496094 341.253906 176.519531 341.292969 176.546875 C 341.253906 176.519531 341.21875 176.496094 341.179688 176.46875 Z M 325.640625 170.175781 C 325.679688 170.101562 325.714844 170.023438 325.75 169.949219 C 325.714844 170.023438 325.679688 170.101562 325.640625 170.175781 Z M 320.492188 178.359375 C 320.589844 178.242188 320.6875 178.125 320.78125 178.007812 C 320.6875 178.125 320.589844 178.242188 320.492188 178.359375 Z M 321.625 176.925781 C 321.691406 176.835938 321.761719 176.75 321.824219 176.660156 C 321.761719 176.75 321.691406 176.835938 321.625 176.925781 Z M 323.796875 173.640625 C 323.855469 173.546875 323.910156 173.445312 323.964844 173.347656 C 323.910156 173.445312 323.855469 173.542969 323.796875 173.640625 Z M 324.710938 172.003906 C 324.777344 171.886719 324.839844 171.765625 324.902344 171.644531 C 324.839844 171.765625 324.777344 171.886719 324.710938 172.003906 Z M 316.078125 113.144531 C 316.011719 113.230469 315.9375 113.316406 315.863281 113.402344 C 315.9375 113.316406 316.007812 113.230469 316.078125 113.144531 Z M 317.496094 110.253906 C 317.480469 110.320312 317.476562 110.386719 317.457031 110.453125 C 317.476562 110.386719 317.480469 110.320312 317.496094 110.253906 Z M 317.300781 110.957031 C 317.269531 111.046875 317.242188 111.136719 317.207031 111.226562 C 317.242188 111.136719 317.269531 111.046875 317.300781 110.957031 Z M 316.992188 111.703125 C 316.945312 111.796875 316.898438 111.886719 316.847656 111.980469 C 316.898438 111.886719 316.945312 111.792969 316.992188 111.703125 Z M 316.578125 112.433594 C 316.519531 112.527344 316.457031 112.617188 316.394531 112.707031 C 316.457031 112.617188 316.519531 112.527344 316.578125 112.433594 Z M 320.152344 89.078125 C 320.113281 89.050781 320.070312 89.03125 320.027344 89.007812 C 320.070312 89.03125 320.113281 89.050781 320.152344 89.078125 Z M 319.664062 88.832031 C 319.617188 88.8125 319.570312 88.792969 319.523438 88.777344 C 319.570312 88.792969 319.617188 88.8125 319.664062 88.832031 Z M 321.382812 90.25 C 321.394531 90.265625 321.40625 90.28125 321.414062 90.296875 C 321.40625 90.28125 321.394531 90.265625 321.382812 90.25 Z M 287.496094 36.898438 C 288.902344 34.46875 291.164062 32.601562 293.8125 31.679688 C 306.402344 27.296875 316.980469 40.097656 310.308594 51.636719 C 308.902344 54.066406 306.640625 55.933594 303.992188 56.855469 C 291.402344 61.242188 280.820312 48.4375 287.496094 36.898438 Z M 188.753906 64.792969 C 188.804688 65.035156 188.894531 65.257812 189.003906 65.472656 C 188.894531 65.257812 188.804688 65.035156 188.753906 64.792969 Z M 189.351562 66 C 189.464844 66.132812 189.589844 66.253906 189.726562 66.367188 C 189.589844 66.253906 189.464844 66.132812 189.351562 66 Z M 190.074219 66.605469 C 190.480469 66.84375 190.945312 66.988281 191.449219 66.988281 C 191.949219 66.988281 192.414062 66.84375 192.820312 66.605469 C 192.414062 66.84375 191.949219 66.988281 191.449219 66.988281 C 190.945312 66.988281 190.480469 66.84375 190.074219 66.605469 Z M 199.742188 63.03125 L 240.144531 63.03125 C 240.582031 63.03125 240.957031 63.296875 241.117188 63.675781 C 240.957031 63.296875 240.582031 63.03125 240.144531 63.03125 L 199.742188 63.03125 C 199.304688 63.03125 198.929688 63.296875 198.769531 63.675781 C 198.929688 63.296875 199.304688 63.03125 199.742188 63.03125 Z M 194.199219 64.238281 C 194.199219 64.429688 194.179688 64.613281 194.140625 64.792969 C 194.070312 65.152344 193.925781 65.484375 193.726562 65.777344 C 193.574219 66.003906 193.382812 66.195312 193.167969 66.367188 C 193.382812 66.195312 193.574219 66.003906 193.726562 65.777344 C 193.925781 65.484375 194.070312 65.152344 194.140625 64.792969 C 194.179688 64.613281 194.199219 64.429688 194.199219 64.238281 C 194.199219 64.050781 194.179688 63.863281 194.140625 63.683594 C 194.082031 63.390625 193.964844 63.117188 193.816406 62.867188 C 193.964844 63.121094 194.082031 63.390625 194.140625 63.683594 C 194.179688 63.863281 194.199219 64.046875 194.199219 64.238281 Z M 69.183594 56 C 69.164062 56.007812 69.144531 56.015625 69.125 56.023438 C 69.144531 56.015625 69.164062 56.007812 69.183594 56 Z M 69.917969 55.816406 C 69.882812 55.820312 69.84375 55.824219 69.8125 55.828125 C 69.847656 55.824219 69.882812 55.820312 69.917969 55.816406 Z M 39.40625 126.4375 C 39.386719 126.472656 39.363281 126.511719 39.34375 126.546875 C 39.363281 126.511719 39.386719 126.472656 39.40625 126.4375 Z M 39.125 127.035156 Z M 38.996094 127.550781 C 38.988281 127.59375 38.980469 127.640625 38.976562 127.683594 C 38.980469 127.640625 38.988281 127.59375 38.996094 127.550781 Z M 35.304688 141.507812 L 35.34375 141.441406 L 36.863281 138.808594 Z M 45.671875 171.082031 C 45.613281 171.136719 45.558594 171.1875 45.496094 171.238281 C 45.558594 171.1875 45.613281 171.132812 45.671875 171.082031 Z M 45.777344 179.75 C 45.46875 179.660156 45.175781 179.542969 44.898438 179.402344 C 45.175781 179.542969 45.46875 179.660156 45.777344 179.75 Z M 76.945312 216.984375 C 76.945312 216.984375 76.949219 216.984375 76.949219 216.984375 C 77.199219 216.984375 77.40625 216.78125 77.40625 216.53125 L 77.613281 198.160156 L 77.488281 209.34375 L 82.96875 248.90625 L 76.269531 248.90625 Z M 115.601562 88.714844 C 111.644531 87.277344 107.089844 86.289062 100.503906 85.515625 C 97.378906 85.269531 94.3125 85.125 91.339844 85.054688 L 91.453125 81.472656 C 91.65625 81.414062 91.859375 81.355469 92.058594 81.285156 C 94.066406 80.59375 95.867188 79.417969 97.308594 77.894531 C 97.53125 77.65625 97.742188 77.410156 97.941406 77.152344 C 98.269531 76.753906 98.578125 76.34375 98.855469 75.90625 C 99.984375 74.121094 100.699219 72.039062 100.851562 69.78125 C 100.851562 69.796875 100.847656 69.8125 100.847656 69.828125 C 100.847656 69.8125 100.851562 69.800781 100.851562 69.78125 L 101.019531 67.28125 L 138.570312 67.28125 C 137.675781 69.601562 137.179688 72.117188 137.179688 74.753906 L 137.179688 109.125 L 121.441406 92.039062 C 119.75 90.390625 117.730469 89.289062 115.601562 88.714844 Z M 292.824219 294.417969 L 300.824219 269.300781 C 300.859375 269.3125 300.894531 269.324219 300.933594 269.324219 L 292.824219 349.851562 Z M 333.253906 189.632812 C 333.289062 189.652344 333.324219 189.675781 333.363281 189.695312 C 333.324219 189.675781 333.289062 189.652344 333.253906 189.632812 Z M 333.492188 189.757812 C 333.535156 189.773438 333.582031 189.789062 333.625 189.804688 C 333.582031 189.789062 333.535156 189.773438 333.492188 189.757812 Z M 333.757812 189.84375 C 333.808594 189.855469 333.859375 189.863281 333.910156 189.871094 C 333.859375 189.863281 333.808594 189.855469 333.757812 189.84375 Z M 334.042969 189.882812 C 334.097656 189.886719 334.15625 189.882812 334.214844 189.882812 C 334.15625 189.882812 334.097656 189.886719 334.042969 189.882812 Z M 334.972656 189.683594 C 335.082031 189.632812 335.1875 189.570312 335.292969 189.5 C 335.1875 189.570312 335.082031 189.632812 334.972656 189.683594 Z M 334.34375 189.871094 C 334.40625 189.867188 334.46875 189.851562 334.53125 189.835938 C 334.46875 189.851562 334.40625 189.867188 334.34375 189.871094 Z M 334.65625 189.808594 C 334.726562 189.789062 334.796875 189.757812 334.867188 189.726562 C 334.796875 189.757812 334.726562 189.789062 334.65625 189.808594 Z M 337.589844 188.488281 C 337.546875 188.585938 337.519531 188.683594 337.496094 188.777344 C 337.519531 188.683594 337.546875 188.585938 337.589844 188.488281 Z M 337.480469 188.871094 C 337.46875 188.9375 337.460938 189.003906 337.457031 189.066406 C 337.460938 189.003906 337.46875 188.9375 337.480469 188.871094 Z M 337.457031 189.167969 C 337.457031 189.230469 337.460938 189.292969 337.46875 189.355469 C 337.460938 189.292969 337.457031 189.234375 337.457031 189.167969 Z M 337.542969 189.65625 C 337.519531 189.589844 337.5 189.519531 337.484375 189.445312 C 337.5 189.519531 337.519531 189.589844 337.542969 189.65625 Z M 337.714844 190 C 337.75 190.054688 337.789062 190.105469 337.832031 190.15625 C 337.789062 190.105469 337.75 190.054688 337.714844 190 Z M 337.894531 190.222656 C 337.933594 190.265625 337.980469 190.304688 338.023438 190.34375 C 337.980469 190.304688 337.933594 190.265625 337.894531 190.222656 Z M 338.097656 190.398438 C 338.148438 190.4375 338.203125 190.46875 338.261719 190.5 C 338.203125 190.46875 338.148438 190.4375 338.097656 190.398438 Z M 338.320312 190.535156 C 338.402344 190.574219 338.484375 190.605469 338.570312 190.628906 C 338.484375 190.605469 338.402344 190.574219 338.320312 190.535156 Z M 338.621094 190.636719 C 338.691406 190.652344 338.765625 190.667969 338.839844 190.671875 C 338.765625 190.664062 338.691406 190.652344 338.621094 190.636719 Z M 338.933594 190.675781 C 338.996094 190.675781 339.0625 190.671875 339.125 190.664062 C 339.0625 190.671875 338.996094 190.675781 338.933594 190.675781 Z M 339.527344 190.566406 C 339.628906 190.527344 339.730469 190.484375 339.828125 190.421875 C 339.921875 190.367188 340.042969 190.300781 340.175781 190.234375 C 340.042969 190.300781 339.921875 190.367188 339.828125 190.421875 C 339.730469 190.484375 339.628906 190.527344 339.527344 190.566406 Z M 339.230469 190.648438 C 339.296875 190.636719 339.367188 190.617188 339.433594 190.597656 C 339.367188 190.621094 339.296875 190.636719 339.230469 190.648438 Z M 341.566406 189.558594 C 341.59375 189.546875 341.617188 189.535156 341.644531 189.523438 C 341.617188 189.535156 341.59375 189.546875 341.566406 189.558594 Z M 340.28125 190.179688 C 340.414062 190.113281 340.550781 190.042969 340.707031 189.964844 C 340.550781 190.042969 340.414062 190.113281 340.28125 190.179688 Z M 340.734375 189.953125 C 340.90625 189.871094 341.089844 189.78125 341.285156 189.691406 C 341.089844 189.785156 340.90625 189.871094 340.734375 189.953125 Z M 342.625 177.570312 C 342.660156 177.601562 342.695312 177.632812 342.730469 177.664062 C 342.695312 177.632812 342.660156 177.601562 342.625 177.570312 Z M 343.175781 178.078125 C 343.21875 178.121094 343.265625 178.164062 343.308594 178.210938 C 343.265625 178.164062 343.21875 178.121094 343.175781 178.078125 Z M 346.914062 184.742188 C 346.914062 184.707031 346.910156 184.671875 346.910156 184.636719 C 346.910156 184.671875 346.914062 184.707031 346.914062 184.742188 Z M 343.757812 178.695312 C 343.851562 178.8125 343.949219 178.929688 344.050781 179.054688 C 343.949219 178.929688 343.851562 178.808594 343.757812 178.695312 Z M 344.171875 179.199219 C 344.234375 179.277344 344.296875 179.355469 344.363281 179.4375 C 344.296875 179.355469 344.234375 179.277344 344.171875 179.199219 Z M 344.519531 179.640625 C 344.574219 179.710938 344.625 179.78125 344.679688 179.851562 C 344.628906 179.78125 344.574219 179.710938 344.519531 179.640625 Z M 344.863281 180.09375 C 344.90625 180.152344 344.945312 180.207031 344.988281 180.265625 C 344.945312 180.207031 344.90625 180.148438 344.863281 180.09375 Z M 345.734375 181.378906 C 345.746094 181.398438 345.757812 181.417969 345.769531 181.4375 C 345.757812 181.417969 345.746094 181.398438 345.734375 181.378906 Z M 345.984375 181.8125 C 346.003906 181.847656 346.023438 181.886719 346.042969 181.921875 C 346.023438 181.886719 346.003906 181.851562 345.984375 181.8125 Z M 346.902344 185.121094 C 346.898438 185.15625 346.894531 185.191406 346.890625 185.226562 C 346.894531 185.191406 346.898438 185.15625 346.902344 185.121094 Z M 346.242188 182.300781 C 346.257812 182.335938 346.273438 182.371094 346.289062 182.402344 C 346.273438 182.371094 346.257812 182.335938 346.242188 182.300781 Z M 346.46875 182.8125 C 346.472656 182.816406 346.472656 182.820312 346.472656 182.824219 C 346.472656 182.820312 346.472656 182.816406 346.46875 182.8125 Z M 346.867188 184.191406 C 346.867188 184.207031 346.871094 184.222656 346.875 184.238281 C 346.871094 184.222656 346.867188 184.207031 346.867188 184.191406 Z M 337.9375 174.710938 C 337.015625 174.34375 336.128906 174.113281 335.402344 174.117188 C 334.921875 174.117188 334.5 174.179688 334.105469 174.261719 C 331.960938 171.828125 329.425781 169.746094 326.585938 168.132812 C 329.21875 162.113281 331.191406 155.097656 332.898438 147.984375 C 333.015625 147.964844 333.132812 147.90625 333.203125 147.796875 L 350.667969 158.996094 Z M 337.9375 174.710938 " fill-opacity="1" fill-rule="nonzero"/><path fill="#7f56d9" d="M 150.570312 89.121094 L 277.847656 89.121094 L 277.847656 313.113281 L 150.570312 313.113281 Z M 150.570312 89.121094 " fill-opacity="1" fill-rule="evenodd"/><path fill="#e6e6e6" d="M 333.015625 43.804688 L 327.632812 41 C 324.753906 39.5 323.804688 35.839844 325.585938 33.128906 L 328.925781 28.054688 C 331.757812 23.746094 327.617188 18.265625 322.699219 19.816406 L 316.90625 21.644531 C 313.8125 22.617188 310.546875 20.703125 309.894531 17.523438 L 308.667969 11.570312 C 307.625 6.519531 300.820312 5.574219 298.441406 10.148438 L 295.632812 15.539062 C 294.136719 18.417969 290.476562 19.367188 287.765625 17.585938 L 282.679688 14.242188 C 278.371094 11.410156 272.894531 15.554688 274.445312 20.46875 L 276.273438 26.261719 C 277.253906 29.359375 275.335938 32.621094 272.15625 33.277344 L 266.203125 34.503906 C 261.152344 35.546875 260.207031 42.351562 264.78125 44.730469 L 270.167969 47.535156 C 273.046875 49.03125 274 52.695312 272.214844 55.410156 L 268.875 60.484375 C 268.785156 60.628906 268.71875 60.773438 268.640625 60.917969 L 255.355469 60.917969 C 254.683594 60.917969 254.136719 61.460938 254.136719 62.132812 L 254.136719 63.976562 C 254.136719 68.726562 250.289062 72.574219 245.539062 72.574219 L 184.464844 72.574219 C 179.714844 72.574219 175.867188 68.726562 175.867188 63.976562 L 175.867188 62.132812 C 175.867188 61.460938 175.320312 60.917969 174.648438 60.917969 L 159.628906 60.917969 C 159.671875 60.597656 159.703125 60.273438 159.703125 59.941406 L 159.820312 32.042969 C 159.820312 27.992188 156.535156 24.703125 152.480469 24.703125 L 87.410156 24.703125 C 83.355469 24.703125 80.070312 27.992188 80.070312 32.042969 L 79.957031 59.941406 C 79.957031 63.996094 83.242188 67.28125 87.292969 67.28125 L 146.351562 67.28125 C 144.960938 69.4375 144.148438 72 144.148438 74.753906 L 144.148438 353.445312 C 144.148438 361.089844 150.34375 367.285156 157.988281 367.285156 L 272.015625 367.285156 C 279.660156 367.285156 285.855469 361.089844 285.855469 353.445312 L 285.855469 74.753906 C 285.855469 71.742188 284.882812 68.960938 283.246094 66.6875 C 285.480469 66.980469 287.417969 68.644531 287.90625 71.015625 L 289.136719 76.960938 C 290.179688 82.007812 296.980469 82.953125 299.363281 78.382812 L 302.167969 73 C 303.667969 70.121094 307.328125 69.167969 310.039062 70.953125 L 315.113281 74.289062 C 319.421875 77.125 324.902344 72.984375 323.351562 68.066406 L 321.527344 62.277344 C 320.550781 59.179688 322.46875 55.917969 325.648438 55.261719 L 331.59375 54.03125 C 336.640625 52.988281 337.585938 46.1875 333.015625 43.804688 Z M 272.605469 96.890625 L 272.625 156.996094 L 155.609375 157.039062 L 155.585938 96.933594 Z M 189.210938 340.769531 C 186.386719 340.769531 184.101562 338.480469 184.101562 335.660156 C 184.101562 332.835938 186.386719 330.550781 189.210938 330.550781 C 192.035156 330.550781 194.320312 332.835938 194.320312 335.660156 C 194.320312 338.480469 192.035156 340.769531 189.210938 340.769531 Z M 217.695312 343.390625 C 213.425781 343.390625 209.964844 339.929688 209.964844 335.660156 C 209.964844 331.390625 213.425781 327.929688 217.695312 327.929688 C 221.964844 327.929688 225.425781 331.390625 225.425781 335.660156 C 225.425781 339.929688 221.964844 343.390625 217.695312 343.390625 Z M 235.730469 288.273438 L 154.703125 288.273438 L 154.703125 203.269531 L 235.730469 203.269531 Z M 246.179688 340.769531 C 243.355469 340.769531 241.070312 338.480469 241.070312 335.660156 C 241.070312 332.835938 243.359375 330.550781 246.179688 330.550781 C 249.003906 330.550781 251.289062 332.835938 251.289062 335.660156 C 251.289062 338.480469 249.003906 340.769531 246.179688 340.769531 Z M 266.179688 288.273438 L 245.382812 288.273438 L 245.382812 203.269531 L 266.179688 203.269531 Z M 155.609375 192.664062 L 155.605469 185.230469 L 272.625 185.1875 L 272.625 192.621094 Z M 155.609375 174.851562 L 155.605469 167.417969 L 272.625 167.375 L 272.625 174.808594 Z M 310.308594 51.636719 C 308.902344 54.066406 306.640625 55.9375 303.992188 56.859375 C 291.402344 61.242188 280.820312 48.4375 287.496094 36.898438 C 288.898438 34.46875 291.160156 32.601562 293.8125 31.679688 C 306.402344 27.296875 316.980469 40.097656 310.308594 51.636719 Z M 214.1875 28.382812 L 217.957031 29.910156 C 219.972656 30.726562 220.839844 33.105469 219.820312 35.027344 L 217.917969 38.621094 C 216.300781 41.671875 219.410156 45.0625 222.589844 43.714844 L 226.324219 42.132812 C 228.328125 41.285156 230.625 42.355469 231.265625 44.433594 L 232.460938 48.316406 C 233.476562 51.617188 238.066406 51.816406 239.367188 48.617188 L 240.894531 44.851562 C 241.710938 42.839844 244.089844 41.972656 246.011719 42.992188 L 249.601562 44.894531 C 252.652344 46.507812 256.042969 43.402344 254.699219 40.222656 L 253.117188 36.480469 C 252.269531 34.480469 253.339844 32.183594 255.417969 31.546875 L 259.300781 30.351562 C 262.597656 29.335938 262.796875 24.742188 259.601562 23.445312 L 255.835938 21.917969 C 253.824219 21.097656 252.957031 18.722656 253.976562 16.800781 L 255.878906 13.207031 C 257.492188 10.15625 254.386719 6.769531 251.207031 8.113281 L 247.464844 9.695312 C 245.460938 10.542969 243.167969 9.472656 242.527344 7.394531 L 241.332031 3.503906 C 240.320312 0.207031 235.726562 0.00390625 234.429688 3.203125 L 232.902344 6.972656 C 232.085938 8.984375 229.707031 9.851562 227.785156 8.835938 L 224.1875 6.929688 C 221.136719 5.316406 217.75 8.421875 219.09375 11.601562 L 220.679688 15.34375 C 221.527344 17.347656 220.457031 19.644531 218.378906 20.28125 L 214.488281 21.476562 C 211.191406 22.492188 210.992188 27.085938 214.1875 28.382812 Z M 228.832031 21.726562 C 229.613281 20.019531 231.003906 18.628906 232.710938 17.847656 C 240.820312 14.128906 248.683594 21.992188 244.964844 30.101562 C 244.183594 31.808594 242.792969 33.199219 241.085938 33.980469 C 232.976562 37.699219 225.113281 29.835938 228.832031 21.726562 Z M 94.703125 256.246094 L 94.703125 311.226562 C 94.703125 315.277344 91.417969 318.5625 87.363281 318.5625 L 7.382812 319.296875 C 3.332031 319.296875 0.046875 315.277344 0.046875 311.226562 L 0.046875 256.246094 C 0.046875 252.191406 3.332031 248.90625 7.382812 248.90625 L 87.363281 248.90625 C 91.417969 248.90625 94.703125 252.191406 94.703125 256.246094 Z M 300.960938 269.328125 C 300.953125 269.328125 300.949219 269.328125 300.945312 269.328125 C 300.691406 269.320312 300.492188 269.109375 300.5 268.855469 L 302.464844 205.554688 L 295.507812 197.4375 C 295.34375 197.246094 295.367188 196.957031 295.558594 196.792969 C 295.75 196.628906 296.039062 196.652344 296.207031 196.84375 L 303.277344 205.09375 C 303.351562 205.179688 303.390625 205.289062 303.386719 205.40625 L 301.417969 268.886719 C 301.410156 269.132812 301.207031 269.328125 300.960938 269.328125 Z M 333.792969 341.03125 C 333.792969 340.777344 333.589844 340.574219 333.335938 340.574219 L 296.722656 340.574219 C 296.46875 340.574219 296.265625 340.777344 296.265625 341.03125 C 296.265625 341.285156 296.46875 341.488281 296.722656 341.488281 L 333.335938 341.488281 C 333.589844 341.488281 333.792969 341.285156 333.792969 341.03125 Z M 278.4375 341.03125 C 278.4375 340.777344 278.234375 340.574219 277.980469 340.574219 L 236.496094 340.574219 C 236.242188 340.574219 236.039062 340.777344 236.039062 341.03125 C 236.039062 341.285156 236.242188 341.488281 236.496094 341.488281 L 277.980469 341.488281 C 278.234375 341.488281 278.4375 341.285156 278.4375 341.03125 Z M 77.40625 216.53125 L 77.613281 198.160156 L 85.078125 196.171875 C 85.324219 196.105469 85.46875 195.851562 85.402344 195.609375 C 85.335938 195.367188 85.089844 195.222656 84.84375 195.285156 L 77.039062 197.367188 C 76.839844 197.421875 76.703125 197.597656 76.699219 197.804688 L 76.492188 216.519531 C 76.488281 216.773438 76.691406 216.980469 76.945312 216.984375 C 76.945312 216.984375 76.949219 216.984375 76.949219 216.984375 C 77.199219 216.984375 77.40625 216.78125 77.40625 216.53125 Z M 77.40625 216.53125 " fill-opacity="1" fill-rule="evenodd"/><path fill="#e6e6e6" d="M 210.914062 273.183594 L 165.023438 273.183594 C 164.265625 273.183594 163.648438 273.796875 163.648438 274.554688 C 163.648438 275.3125 164.265625 275.929688 165.023438 275.929688 L 210.914062 275.929688 C 211.671875 275.929688 212.289062 275.3125 212.289062 274.554688 C 212.289062 273.796875 211.671875 273.183594 210.914062 273.183594 Z M 210.914062 273.183594 " fill-opacity="1" fill-rule="evenodd"/><path fill="#e6e6e6" d="M 194.199219 64.238281 C 194.199219 64.601562 194.128906 64.953125 193.988281 65.289062 C 193.847656 65.628906 193.652344 65.925781 193.394531 66.183594 C 193.136719 66.441406 192.835938 66.640625 192.5 66.777344 C 192.164062 66.917969 191.8125 66.988281 191.449219 66.988281 C 191.085938 66.988281 190.734375 66.917969 190.398438 66.777344 C 190.058594 66.640625 189.761719 66.441406 189.503906 66.183594 C 189.246094 65.925781 189.046875 65.628906 188.910156 65.289062 C 188.769531 64.953125 188.699219 64.601562 188.699219 64.238281 C 188.699219 63.875 188.769531 63.523438 188.910156 63.1875 C 189.046875 62.851562 189.246094 62.550781 189.503906 62.292969 C 189.761719 62.035156 190.058594 61.839844 190.398438 61.699219 C 190.734375 61.558594 191.085938 61.488281 191.449219 61.488281 C 191.8125 61.488281 192.164062 61.558594 192.5 61.699219 C 192.835938 61.839844 193.136719 62.035156 193.394531 62.292969 C 193.652344 62.550781 193.847656 62.851562 193.988281 63.1875 C 194.128906 63.523438 194.199219 63.875 194.199219 64.238281 Z M 194.199219 64.238281 " fill-opacity="1" fill-rule="nonzero"/><path fill="#e6e6e6" d="M 240.144531 65.144531 L 199.742188 65.144531 C 199.15625 65.144531 198.683594 64.671875 198.683594 64.085938 C 198.683594 63.503906 199.15625 63.03125 199.742188 63.03125 L 240.144531 63.03125 C 240.730469 63.03125 241.203125 63.503906 241.203125 64.085938 C 241.203125 64.671875 240.730469 65.144531 240.144531 65.144531 Z M 240.144531 65.144531 " fill-opacity="1" fill-rule="nonzero"/><path fill="#7f56d9" d="M 272.015625 53.949219 L 157.988281 53.949219 C 146.496094 53.949219 137.179688 63.265625 137.179688 74.757812 L 137.179688 353.445312 C 137.179688 364.9375 146.496094 374.253906 157.988281 374.253906 L 272.015625 374.253906 C 283.507812 374.253906 292.824219 364.9375 292.824219 353.445312 L 292.824219 74.753906 C 292.824219 63.265625 283.507812 53.949219 272.015625 53.949219 Z M 199.742188 63.03125 L 240.144531 63.03125 C 240.730469 63.03125 241.203125 63.503906 241.203125 64.085938 C 241.203125 64.671875 240.730469 65.144531 240.144531 65.144531 L 199.742188 65.144531 C 199.15625 65.144531 198.683594 64.671875 198.683594 64.085938 C 198.683594 63.503906 199.15625 63.03125 199.742188 63.03125 Z M 191.449219 61.488281 C 192.964844 61.488281 194.199219 62.71875 194.199219 64.238281 C 194.199219 65.757812 192.96875 66.988281 191.449219 66.988281 C 189.929688 66.988281 188.699219 65.757812 188.699219 64.238281 C 188.699219 62.71875 189.929688 61.488281 191.449219 61.488281 Z M 285.855469 353.445312 C 285.855469 361.089844 279.660156 367.285156 272.015625 367.285156 L 157.988281 367.285156 C 150.34375 367.285156 144.148438 361.089844 144.148438 353.445312 L 144.148438 74.753906 C 144.148438 67.113281 150.34375 60.917969 157.988281 60.917969 L 174.648438 60.917969 C 175.320312 60.917969 175.867188 61.460938 175.867188 62.132812 L 175.867188 63.976562 C 175.867188 68.726562 179.714844 72.574219 184.464844 72.574219 L 245.539062 72.574219 C 250.289062 72.574219 254.136719 68.726562 254.136719 63.976562 L 254.136719 62.132812 C 254.136719 61.460938 254.683594 60.917969 255.355469 60.917969 L 272.015625 60.917969 C 279.660156 60.917969 285.855469 67.113281 285.855469 74.753906 Z M 152.480469 24.703125 L 87.410156 24.703125 C 83.355469 24.703125 80.070312 27.988281 80.070312 32.039062 L 80.070312 40.964844 L 159.820312 40.964844 L 159.820312 32.039062 C 159.816406 27.988281 156.53125 24.703125 152.480469 24.703125 Z M 150.667969 35.289062 C 149.3125 35.289062 148.214844 34.191406 148.214844 32.835938 C 148.214844 31.480469 149.3125 30.382812 150.667969 30.382812 C 152.023438 30.382812 153.121094 31.480469 153.121094 32.835938 C 153.121094 34.191406 152.023438 35.289062 150.667969 35.289062 Z M 137.535156 53.433594 L 101.480469 53.433594 C 100.667969 53.433594 100.011719 52.777344 100.011719 51.964844 C 100.011719 51.15625 100.667969 50.496094 101.480469 50.496094 L 137.535156 50.496094 C 138.347656 50.496094 139.003906 51.15625 139.003906 51.964844 C 139.003906 52.777344 138.34375 53.433594 137.535156 53.433594 Z M 194.320312 335.660156 C 194.320312 338.480469 192.035156 340.769531 189.210938 340.769531 C 186.386719 340.769531 184.101562 338.480469 184.101562 335.660156 C 184.101562 332.835938 186.386719 330.550781 189.210938 330.550781 C 192.035156 330.550781 194.320312 332.835938 194.320312 335.660156 Z M 225.425781 335.660156 C 225.425781 339.929688 221.964844 343.390625 217.695312 343.390625 C 213.425781 343.390625 209.964844 339.929688 209.964844 335.660156 C 209.964844 331.390625 213.425781 327.929688 217.695312 327.929688 C 221.964844 327.929688 225.425781 331.390625 225.425781 335.660156 Z M 251.289062 335.660156 C 251.289062 338.480469 249.003906 340.769531 246.179688 340.769531 C 243.355469 340.769531 241.070312 338.480469 241.070312 335.660156 C 241.070312 332.835938 243.359375 330.550781 246.179688 330.550781 C 249.003906 330.550781 251.289062 332.835938 251.289062 335.660156 Z M 83.515625 294.117188 L 11.234375 294.117188 C 10.421875 294.117188 9.765625 293.460938 9.765625 292.648438 C 9.765625 291.839844 10.421875 291.179688 11.234375 291.179688 L 83.515625 291.179688 C 84.328125 291.179688 84.984375 291.839844 84.984375 292.648438 C 84.984375 293.460938 84.328125 294.117188 83.515625 294.117188 Z M 83.515625 279.617188 L 11.234375 279.617188 C 10.421875 279.617188 9.765625 278.960938 9.765625 278.148438 C 9.765625 277.339844 10.421875 276.679688 11.234375 276.679688 L 83.515625 276.679688 C 84.328125 276.679688 84.984375 277.339844 84.984375 278.148438 C 84.984375 278.960938 84.328125 279.617188 83.515625 279.617188 Z M 87.363281 248.90625 L 7.382812 248.90625 C 3.332031 248.90625 0.046875 252.191406 0.046875 256.246094 L 0.046875 265.167969 L 94.703125 265.167969 L 94.703125 256.246094 C 94.703125 252.191406 91.417969 248.90625 87.363281 248.90625 Z M 8.777344 259.492188 C 7.421875 259.492188 6.324219 258.394531 6.324219 257.039062 C 6.324219 255.683594 7.421875 254.585938 8.777344 254.585938 C 10.132812 254.585938 11.230469 255.683594 11.230469 257.039062 C 11.230469 258.394531 10.132812 259.492188 8.777344 259.492188 Z M 8.777344 259.492188 " fill-opacity="1" fill-rule="evenodd"/><path fill="#e6e6e6" d="M 162.683594 104.730469 L 211.835938 104.746094 L 211.820312 149.222656 L 162.667969 149.203125 Z M 263.175781 116.992188 L 221.273438 116.992188 C 220.515625 116.992188 219.898438 117.609375 219.898438 118.367188 C 219.898438 119.125 220.515625 119.738281 221.273438 119.738281 L 263.175781 119.738281 C 263.933594 119.738281 264.546875 119.125 264.546875 118.367188 C 264.546875 117.609375 263.933594 116.992188 263.175781 116.992188 Z M 263.175781 106.433594 L 221.273438 106.433594 C 220.515625 106.433594 219.898438 107.046875 219.898438 107.804688 C 219.898438 108.5625 220.515625 109.179688 221.273438 109.179688 L 263.175781 109.179688 C 263.933594 109.179688 264.546875 108.5625 264.546875 107.804688 C 264.546875 107.046875 263.933594 106.433594 263.175781 106.433594 Z M 254.347656 144.414062 L 221.425781 144.414062 C 220.664062 144.414062 220.050781 145.027344 220.050781 145.785156 C 220.050781 146.542969 220.664062 147.160156 221.425781 147.160156 L 254.347656 147.160156 C 255.105469 147.160156 255.71875 146.542969 255.71875 145.785156 C 255.71875 145.027344 255.105469 144.414062 254.347656 144.414062 Z M 221.273438 130.296875 L 254.195312 130.296875 C 254.953125 130.296875 255.570312 129.683594 255.570312 128.921875 C 255.570312 128.164062 254.953125 127.550781 254.195312 127.550781 L 221.273438 127.550781 C 220.515625 127.550781 219.898438 128.164062 219.898438 128.921875 C 219.898438 129.683594 220.515625 130.296875 221.273438 130.296875 Z M 228.246094 243.394531 L 228.246094 210.5625 L 163.1875 210.5625 L 163.1875 243.394531 Z M 224.804688 253.441406 C 224.804688 252.683594 224.1875 252.066406 223.429688 252.066406 L 165.023438 252.066406 C 164.265625 252.066406 163.648438 252.683594 163.648438 253.441406 C 163.648438 254.199219 164.265625 254.8125 165.023438 254.8125 L 223.429688 254.8125 C 224.1875 254.8125 224.804688 254.199219 224.804688 253.441406 Z M 224.804688 263.996094 C 224.804688 263.238281 224.1875 262.625 223.429688 262.625 L 165.023438 262.625 C 164.265625 262.625 163.648438 263.238281 163.648438 263.996094 C 163.648438 264.753906 164.265625 265.371094 165.023438 265.371094 L 223.429688 265.371094 C 224.1875 265.371094 224.804688 264.753906 224.804688 263.996094 Z M 212.289062 274.554688 C 212.289062 273.796875 211.671875 273.183594 210.914062 273.183594 L 165.023438 273.183594 C 164.265625 273.183594 163.648438 273.796875 163.648438 274.554688 C 163.648438 275.3125 164.265625 275.929688 165.023438 275.929688 L 210.914062 275.929688 C 211.671875 275.929688 212.289062 275.3125 212.289062 274.554688 Z M 212.289062 274.554688 " fill-opacity="1" fill-rule="evenodd"/><path fill="#7f56d9" d="M 195.15625 116.527344 C 194.457031 112.820312 197.648438 109.632812 201.355469 110.335938 C 203.425781 110.730469 205.09375 112.402344 205.484375 114.472656 C 206.1875 118.179688 202.996094 121.367188 199.289062 120.664062 C 197.21875 120.269531 195.550781 118.597656 195.15625 116.527344 Z M 211.824219 139.660156 L 197.25 124.070312 L 191.242188 130.488281 L 180.335938 115.691406 L 162.671875 139.621094 L 182.683594 139.628906 L 182.664062 139.648438 Z M 192.492188 215.863281 L 184.816406 215.863281 L 183.332031 219.09375 L 183.324219 219.09375 L 183.324219 236.824219 L 209.179688 236.824219 L 209.179688 219.09375 L 193.972656 219.09375 Z M 192.492188 215.863281 " fill-opacity="1" fill-rule="nonzero"/><path fill="#f5c0a2" d="M 86.902344 81.972656 C 86.542969 81.945312 86.191406 81.910156 85.84375 81.855469 C 85.496094 81.804688 85.152344 81.738281 84.816406 81.664062 C 83.804688 81.429688 82.839844 81.078125 81.933594 80.625 C 81.730469 80.519531 81.53125 80.40625 81.332031 80.289062 C 80.839844 80.011719 80.371094 79.699219 79.921875 79.363281 C 80.285156 79.636719 80.660156 79.898438 81.054688 80.136719 C 80.179688 79.613281 79.375 78.984375 78.648438 78.28125 C 75.917969 75.796875 72.882812 71.800781 70.667969 66.660156 C 71.132812 66.664062 71.5625 66.5 71.90625 66.210938 C 71.921875 66.195312 71.941406 66.183594 71.957031 66.167969 C 72.027344 66.105469 72.085938 66.042969 72.144531 65.972656 C 72.167969 65.941406 72.191406 65.910156 72.21875 65.875 C 72.265625 65.808594 72.316406 65.738281 72.355469 65.664062 C 72.375 65.625 72.394531 65.582031 72.410156 65.539062 C 72.472656 65.394531 72.519531 65.242188 72.546875 65.082031 C 72.554688 65.035156 72.566406 64.992188 72.570312 64.945312 C 72.574219 64.925781 72.582031 64.90625 72.582031 64.882812 C 72.582031 64.882812 72.613281 64.125 72.597656 63.046875 C 72.597656 62.890625 72.59375 62.726562 72.589844 62.558594 C 72.589844 62.550781 72.589844 62.539062 72.585938 62.53125 C 72.578125 62.191406 72.566406 61.832031 72.542969 61.460938 C 72.542969 61.441406 72.542969 61.425781 72.542969 61.40625 C 72.519531 61.035156 72.492188 60.652344 72.457031 60.269531 C 72.457031 60.257812 72.453125 60.25 72.453125 60.242188 C 72.4375 60.054688 72.414062 59.867188 72.394531 59.679688 C 72.390625 59.675781 72.390625 59.667969 72.390625 59.660156 C 72.34375 59.277344 72.285156 58.898438 72.21875 58.539062 C 72.214844 58.53125 72.214844 58.523438 72.210938 58.515625 C 72.035156 57.605469 71.785156 56.816406 71.421875 56.320312 C 71.1875 56 70.910156 55.804688 70.578125 55.785156 C 68.210938 55.644531 66.148438 58.023438 65.972656 61.09375 C 65.839844 63.386719 67.328125 65.4375 69.734375 66.429688 L 67.195312 88.355469 C 66.496094 94.722656 70.855469 100.550781 77.625 101.28125 C 84.398438 102.011719 90.453125 97.445312 91.152344 91.082031 L 91.453125 81.476562 C 90.425781 81.777344 89.351562 81.960938 88.242188 81.996094 C 87.796875 82.007812 87.351562 82 86.902344 81.972656 Z M 86.902344 81.972656 " fill-opacity="1" fill-rule="nonzero"/><path fill="#f5c0a2" d="M 54.96875 348.234375 L 54.96875 351.714844 C 58.453125 349.601562 65.007812 350.429688 68.160156 352.164062 C 69.152344 352.710938 70.285156 352.71875 71.40625 352.519531 C 71.558594 352.492188 71.726562 352.546875 71.910156 352.644531 C 71.757812 350.96875 71.664062 349.507812 71.613281 348.234375 Z M 54.96875 348.234375 " fill-opacity="1" fill-rule="nonzero"/><path fill="#f5c0a2" d="M 58.09375 135.921875 C 58.914062 135.453125 59.59375 135.054688 59.847656 134.875 C 60.675781 134.289062 61.980469 133.398438 61.503906 131.863281 C 61.253906 131.058594 60.597656 130.714844 59.882812 130.609375 C 61.191406 129.695312 61.238281 128.277344 60.972656 127.734375 C 60.492188 126.746094 59.910156 126.65625 58.742188 126.796875 C 57.570312 126.941406 51.195312 127.683594 51.179688 127.6875 C 50.980469 127.699219 50.785156 127.726562 50.589844 127.78125 L 49.902344 127.988281 C 49.5625 127.753906 49.199219 127.554688 48.820312 127.382812 L 50.152344 126.449219 C 51.800781 126.335938 54.53125 126.136719 56.09375 125.976562 C 58.433594 125.738281 59.152344 124.171875 59.167969 123.460938 C 59.1875 122.359375 58.339844 122.257812 57.226562 121.929688 L 49.902344 120.964844 C 49.1875 120.886719 48.488281 121.003906 47.898438 121.28125 C 47.878906 121.289062 47.863281 121.300781 47.84375 121.308594 C 47.710938 121.375 47.585938 121.449219 47.464844 121.53125 L 40.320312 125.449219 C 39.417969 126.085938 38.90625 127.125 38.949219 128.226562 L 36.863281 138.808594 L 25.691406 158.1875 C 23.703125 164.722656 27.386719 171.636719 33.917969 173.625 C 40.453125 175.617188 47.363281 171.933594 49.355469 165.398438 L 51.597656 144.386719 C 52.460938 144.015625 53.34375 143.636719 53.347656 143.632812 C 53.5 143.582031 53.652344 143.511719 53.792969 143.429688 L 58.433594 139.972656 C 61.433594 137.667969 59.503906 135.566406 58.09375 135.921875 Z M 58.09375 135.921875 " fill-opacity="1" fill-rule="nonzero"/><path fill="#f5c0a2" d="M 91.800781 70.230469 C 91.472656 70.253906 91.148438 70.269531 90.832031 70.269531 C 88.058594 70.269531 84.621094 69.136719 84.621094 71.726562 C 84.621094 72.859375 85.140625 73.894531 86.003906 74.703125 C 87.394531 76 89.777344 75.011719 89.792969 73.109375 C 89.792969 73.097656 89.792969 73.089844 89.792969 73.078125 C 89.792969 73.074219 89.828125 73.074219 89.878906 73.074219 C 89.890625 73.074219 89.914062 73.070312 89.929688 73.070312 C 89.976562 73.070312 90.03125 73.070312 90.101562 73.070312 C 90.121094 73.070312 90.140625 73.066406 90.160156 73.066406 C 90.238281 73.066406 90.324219 73.066406 90.414062 73.066406 C 90.441406 73.066406 90.464844 73.0625 90.492188 73.0625 C 90.597656 73.0625 90.703125 73.0625 90.8125 73.058594 C 90.820312 73.058594 90.832031 73.058594 90.839844 73.058594 C 91.359375 73.054688 91.875 73.050781 91.875 73.050781 C 91.875 73.058594 91.871094 73.066406 91.871094 73.078125 L 91.871094 73.113281 C 91.890625 75.011719 94.273438 76.003906 95.660156 74.703125 C 96.527344 73.894531 97.046875 72.859375 97.046875 71.730469 C 97.046875 69.433594 94.347656 70.058594 91.800781 70.230469 Z M 91.800781 70.230469 " fill-opacity="1" fill-rule="nonzero"/><path fill="#f5c0a2" d="M 91.4375 67.410156 C 97.636719 67.410156 100.046875 66.144531 101.410156 61.480469 L 100.851562 69.78125 C 100.847656 69.796875 100.847656 69.8125 100.84375 69.828125 C 100.847656 69.8125 100.851562 69.800781 100.851562 69.78125 L 101.96875 53.210938 C 102 52.675781 101.996094 52.132812 101.976562 51.582031 C 101.960938 51.101562 101.917969 50.617188 101.859375 50.132812 C 101.832031 49.933594 101.808594 49.730469 101.773438 49.53125 C 101.75 49.378906 101.722656 49.222656 101.691406 49.070312 C 101.621094 48.691406 101.539062 48.316406 101.4375 47.945312 C 101.308594 47.46875 101.152344 47.011719 100.984375 46.558594 C 100.90625 46.359375 100.820312 46.164062 100.738281 45.964844 C 100.644531 45.738281 100.542969 45.511719 100.4375 45.292969 C 100.316406 45.039062 100.191406 44.789062 100.054688 44.546875 C 99.984375 44.414062 99.910156 44.285156 99.832031 44.152344 C 99.667969 43.867188 99.496094 43.585938 99.316406 43.3125 C 97.5625 44.449219 95.355469 44.878906 90.996094 45.324219 C 87.601562 45.671875 81.925781 45.65625 78.875 44.640625 C 75.703125 48.929688 78.921875 53.964844 75.351562 56.578125 C 77.015625 65.679688 82.457031 67.410156 91.4375 67.410156 Z M 91.4375 67.410156 " fill-opacity="1" fill-rule="nonzero"/><path fill="#f5c0a2" d="M 343.757812 178.695312 C 342.074219 176.675781 337.855469 174.109375 335.40625 174.117188 C 332.953125 174.125 331.628906 175.441406 331.628906 175.441406 C 330.136719 176.519531 327.582031 178.558594 327.054688 178.925781 C 324.511719 180.703125 326.636719 183.164062 328.847656 181.957031 C 330.53125 181.035156 331.519531 180.871094 333.957031 179.625 C 331.609375 182.015625 332.273438 181.933594 330.058594 184.132812 C 327.710938 186.460938 330.1875 189.164062 332.277344 187.480469 C 332.445312 187.347656 332.632812 187.195312 332.820312 187.042969 C 331.65625 188.84375 333.527344 190.722656 335.292969 189.496094 C 336.355469 188.761719 337.9375 187.714844 339.546875 186.660156 C 339.550781 186.660156 339.554688 186.664062 339.558594 186.667969 C 339.199219 186.9375 339.433594 186.757812 338.347656 187.574219 C 336.34375 189.085938 338.082031 191.46875 339.832031 190.421875 C 340.945312 189.757812 345.09375 188.089844 346.046875 187.058594 C 348.40625 184.507812 345.441406 180.71875 343.757812 178.695312 Z M 343.757812 178.695312 " fill-opacity="1" fill-rule="nonzero"/><path fill="#f5c0a2" d="M 319.007812 88.632812 C 316.625 88.179688 316.035156 90.425781 315.742188 91.976562 L 315.308594 94.246094 C 313.03125 91.769531 312.519531 87.816406 312.664062 85.929688 C 306.296875 85.910156 295.421875 85.386719 292.300781 77.839844 C 291.402344 79.640625 290.847656 81.644531 290.75 83.78125 L 290.046875 99.242188 C 289.828125 104.28125 292.765625 109.152344 297.714844 111.128906 C 298.589844 111.476562 299.480469 111.707031 300.371094 111.847656 C 300.96875 115.539062 302.621094 117.875 307.265625 117.875 C 311.410156 117.875 317.988281 113.449219 317.597656 108.863281 L 316.035156 99.359375 C 316.296875 99.449219 316.578125 99.492188 316.875 99.464844 C 319.671875 99.171875 321.804688 97.453125 322.261719 95.046875 C 322.847656 91.953125 321.390625 89.082031 319.007812 88.632812 Z M 319.007812 88.632812 " fill-opacity="1" fill-rule="nonzero"/><path fill="#f5c0a2" d="M 207.71875 98.179688 C 208.507812 97.199219 207.484375 95.695312 204.636719 95.261719 C 201.167969 94.734375 198.75 94.492188 190.355469 94.546875 C 190.777344 94.417969 191.171875 94.296875 191.511719 94.203125 C 194.222656 93.4375 191.460938 89.667969 186.929688 90.449219 C 183.367188 91.058594 177.617188 92.007812 177.617188 92.007812 C 173.453125 91.867188 167.683594 93.324219 165.65625 99.414062 L 148.597656 121.550781 C 148.539062 121.75 148.453125 121.941406 148.300781 122.101562 L 138.183594 144.027344 C 140.582031 146.488281 142.515625 148.378906 143.140625 148.757812 C 148.6875 152.136719 155.921875 150.375 159.300781 144.824219 L 179.1875 108.839844 C 179.515625 108.835938 179.839844 108.828125 180.160156 108.8125 L 180.191406 108.808594 C 181.589844 108.738281 190.929688 107.957031 190.929688 107.957031 C 191.417969 107.917969 191.898438 107.847656 192.378906 107.746094 C 194.167969 107.359375 198.816406 106.328125 201.242188 105.597656 C 201.792969 105.429688 202.1875 105.128906 202.445312 104.773438 C 203.507812 104.660156 204.40625 104.5625 205.003906 104.492188 C 206.378906 104.335938 206.726562 103.339844 206.253906 102.394531 C 206.886719 102.332031 207.445312 102.269531 207.894531 102.203125 C 210.546875 101.808594 210.269531 99.128906 207.71875 98.179688 Z M 207.71875 98.179688 " fill-opacity="1" fill-rule="nonzero"/><path fill="#f5c0a2" d="M 97.726562 348.234375 C 97.851562 349.910156 97.960938 351.28125 98.054688 352.410156 C 98.980469 352.8125 99.601562 354.144531 102.015625 354.144531 C 105.160156 354.144531 106.433594 351.433594 109.058594 353.128906 C 109.839844 351.417969 112.242188 350.410156 114.652344 350.453125 C 114.523438 349.621094 114.417969 348.894531 114.328125 348.234375 Z M 97.726562 348.234375 " fill-opacity="1" fill-rule="nonzero"/><path fill="#f5c0a2" d="M 96.257812 78.878906 C 96.621094 78.566406 96.976562 78.242188 97.304688 77.894531 C 97.71875 77.460938 98.085938 76.984375 98.4375 76.496094 C 97.808594 77.378906 97.078125 78.179688 96.257812 78.878906 Z M 96.257812 78.878906 " fill-opacity="1" fill-rule="nonzero"/><path fill="#7f56d9" d="M 148.300781 122.101562 L 137.824219 144.808594 C 137.316406 145.339844 136.476562 145.355469 135.949219 144.84375 L 125.011719 134.261719 C 124.578125 133.839844 124.503906 133.199219 124.765625 132.699219 L 116.484375 124.613281 L 111.441406 182.550781 C 111.070312 185.097656 110.609375 187.453125 108.039062 187.546875 C 86.863281 188.324219 66.109375 185.726562 45.777344 179.75 C 43.304688 179.023438 41.714844 176.628906 41.984375 174.070312 C 42.011719 173.816406 42.027344 173.550781 42.050781 173.292969 C 45.4375 171.957031 48.210938 169.152344 49.355469 165.398438 L 51.59375 144.386719 C 52.460938 144.011719 53.34375 143.632812 53.34375 143.632812 C 53.496094 143.582031 53.648438 143.511719 53.792969 143.429688 L 58.429688 139.972656 C 61.433594 137.667969 59.5 135.566406 58.089844 135.921875 C 58.914062 135.453125 59.59375 135.054688 59.847656 134.875 C 60.675781 134.289062 61.980469 133.398438 61.503906 131.863281 C 61.253906 131.058594 60.597656 130.714844 59.882812 130.609375 C 61.191406 129.695312 61.238281 128.277344 60.972656 127.734375 C 60.488281 126.746094 59.910156 126.65625 58.738281 126.796875 C 57.6875 126.925781 52.46875 127.535156 51.386719 127.660156 C 51.261719 127.675781 51.179688 127.6875 51.175781 127.6875 C 50.980469 127.699219 50.78125 127.726562 50.585938 127.78125 L 49.902344 127.988281 C 49.5625 127.753906 49.199219 127.554688 48.820312 127.382812 L 50.152344 126.449219 C 50.332031 126.4375 50.535156 126.421875 50.742188 126.40625 C 50.800781 126.402344 50.859375 126.398438 50.917969 126.394531 C 51.089844 126.382812 51.269531 126.371094 51.457031 126.355469 C 51.503906 126.351562 51.550781 126.347656 51.597656 126.347656 C 51.8125 126.332031 52.03125 126.3125 52.253906 126.296875 C 52.339844 126.292969 52.425781 126.285156 52.515625 126.28125 C 52.683594 126.265625 52.851562 126.253906 53.023438 126.242188 C 53.121094 126.234375 53.21875 126.226562 53.320312 126.21875 C 53.457031 126.207031 53.59375 126.195312 53.730469 126.1875 C 53.839844 126.175781 53.949219 126.167969 54.054688 126.160156 C 54.816406 126.097656 55.53125 126.035156 56.089844 125.976562 C 58.433594 125.738281 59.152344 124.171875 59.164062 123.460938 C 59.183594 122.359375 58.339844 122.261719 57.226562 121.929688 L 55.121094 121.652344 L 49.902344 120.964844 C 49.1875 120.886719 48.488281 121.003906 47.898438 121.28125 C 47.878906 121.289062 47.863281 121.300781 47.84375 121.308594 C 47.710938 121.375 47.585938 121.449219 47.464844 121.53125 L 40.320312 125.449219 C 40.09375 125.609375 39.890625 125.796875 39.714844 126 C 39.195312 126.613281 38.914062 127.402344 38.949219 128.226562 C 38.949219 128.226562 38.949219 128.226562 38.949219 128.230469 L 36.863281 138.808594 L 25.972656 157.703125 L 27.007812 142.457031 C 27.039062 141.871094 27.449219 141.390625 27.992188 141.246094 L 29.839844 105.390625 C 30.238281 101.324219 32.417969 97.871094 35.523438 95.707031 C 35.792969 95.394531 36.128906 95.136719 36.53125 94.96875 C 40.589844 93.28125 46.578125 90.179688 55.042969 87.695312 C 55.042969 87.695312 59.8125 86.761719 67.46875 85.992188 L 67.195312 88.355469 C 66.492188 94.71875 70.855469 100.550781 77.625 101.28125 C 84.394531 102.011719 90.453125 97.441406 91.152344 91.078125 L 91.339844 85.054688 C 94.3125 85.125 97.378906 85.273438 100.503906 85.515625 C 107.089844 86.289062 111.648438 87.277344 115.601562 88.714844 C 117.730469 89.289062 119.75 90.394531 121.441406 92.039062 L 143.738281 116.246094 C 144.242188 116.03125 144.839844 116.140625 145.230469 116.554688 L 148.308594 120.285156 C 148.789062 120.796875 148.785156 121.597656 148.300781 122.101562 Z M 316.304688 358.238281 L 316.304688 354.726562 C 316.304688 353.878906 316.179688 353.066406 315.964844 352.289062 L 298.464844 351.824219 C 298.207031 352.589844 298.042969 353.398438 298 354.242188 L 297.921875 355.710938 C 297.25 363.492188 297.386719 369.128906 297.386719 374.765625 L 329.453125 374.765625 C 329.585938 368.457031 316.304688 364.382812 316.304688 358.238281 Z M 72.058594 352.722656 C 71.804688 352.550781 71.601562 352.484375 71.40625 352.519531 C 70.285156 352.722656 69.152344 352.710938 68.160156 352.164062 C 64.234375 350.003906 55.023438 349.242188 53.050781 353.824219 C 51.425781 357.601562 49.652344 360.226562 47.214844 364.050781 C 44.988281 367.53125 44.242188 370.378906 44.253906 372.703125 C 44.257812 373.847656 45.214844 374.765625 46.359375 374.765625 L 74.472656 374.765625 C 75.621094 374.765625 76.578125 373.847656 76.582031 372.703125 C 76.59375 366.332031 74.105469 360.320312 73.195312 356.339844 C 72.804688 354.640625 72.722656 353.179688 72.058594 352.722656 Z M 133.117188 363.667969 C 126.464844 360.707031 122.042969 357.667969 120.074219 353.503906 C 118.003906 349.121094 110.558594 349.847656 109.058594 353.125 C 106.433594 351.433594 105.160156 354.140625 102.015625 354.140625 C 98.871094 354.140625 98.765625 351.875 97.074219 352.359375 C 94.488281 353.097656 94.410156 363.761719 94.410156 372.824219 C 94.410156 374.015625 95.378906 374.976562 96.570312 374.976562 L 136.863281 374.976562 C 138.152344 374.976562 139.160156 373.859375 139.011719 372.578125 C 138.695312 369.878906 137.484375 365.613281 133.117188 363.667969 Z M 235.921875 349.324219 C 235.035156 350.472656 234.296875 351.835938 233.789062 353.429688 C 233.789062 353.429688 232.980469 355.578125 231.472656 358.238281 C 229.40625 362.429688 221.410156 365.691406 217.046875 367.800781 C 211.65625 370.402344 212.59375 374.765625 212.59375 374.765625 L 251.699219 374.765625 C 253.15625 366.6875 251.445312 363.589844 252.460938 354.371094 C 252.816406 352.929688 252.867188 351.648438 252.691406 350.519531 Z M 339.023438 187.003906 C 339.042969 187.011719 339.058594 187.019531 339.074219 187.027344 C 339.335938 186.832031 339.324219 186.84375 339.558594 186.667969 C 339.554688 186.664062 339.550781 186.664062 339.546875 186.660156 C 339.371094 186.773438 339.199219 186.886719 339.023438 187.003906 Z M 371.707031 150.617188 C 371.253906 150.132812 370.757812 149.710938 370.230469 149.351562 L 369.542969 148.890625 L 336.164062 125.421875 C 335.394531 124.460938 334.289062 123.667969 333.054688 123.203125 C 328.152344 121.34375 323.742188 119.871094 319.21875 118.910156 L 317.597656 108.949219 C 317.863281 112.925781 312.929688 116.757812 308.933594 117.667969 C 307.703125 117.628906 306.441406 117.628906 305.132812 117.664062 C 302.089844 117.027344 300.863281 114.902344 300.371094 111.847656 C 300.347656 111.84375 300.324219 111.835938 300.300781 111.832031 L 300.789062 117.917969 C 296.601562 118.277344 291.953125 118.996094 286.605469 120.121094 C 286.304688 120.1875 286.015625 120.265625 285.734375 120.355469 C 281.425781 121.480469 278.191406 125.335938 278.066406 130.011719 C 277.96875 133.574219 278.097656 165.820312 278.238281 172.8125 C 278.238281 172.8125 275.691406 197.847656 274.484375 210.324219 C 277.867188 198.871094 282.515625 185.472656 290.003906 176.09375 C 289.460938 175.058594 287.890625 171.800781 286.664062 166.632812 C 290.289062 177.394531 296.089844 185.703125 305.53125 185.703125 C 321.820312 185.703125 328.375 166.960938 332.976562 147.648438 L 350.667969 158.996094 L 337.9375 174.710938 C 340.132812 175.585938 342.570312 177.273438 343.757812 178.695312 C 345.144531 180.359375 347.394531 183.222656 346.828125 185.605469 L 371.285156 162.964844 C 374.8125 159.671875 375 154.144531 371.707031 150.617188 Z M 371.707031 150.617188 " fill-opacity="1" fill-rule="evenodd"/><path fill="#293237" d="M 337.835938 79.261719 C 334.738281 84.390625 328.285156 86.253906 322.988281 83.730469 C 323.402344 86.496094 323.144531 89.359375 322.191406 92.066406 C 321.746094 90.289062 320.582031 88.929688 319.007812 88.632812 C 316.625 88.179688 316.035156 90.425781 315.742188 91.976562 L 315.308594 94.25 C 314.179688 93.019531 313.484375 91.425781 313.089844 89.902344 C 313.082031 89.878906 313.078125 89.859375 313.074219 89.839844 C 312.886719 89.105469 312.769531 88.386719 312.703125 87.734375 C 312.699219 87.675781 312.695312 87.621094 312.691406 87.5625 C 312.667969 87.316406 312.65625 87.078125 312.652344 86.855469 C 312.648438 86.785156 312.644531 86.714844 312.644531 86.648438 C 312.644531 86.386719 312.648438 86.144531 312.664062 85.929688 C 312.292969 85.929688 311.898438 85.925781 311.5 85.917969 C 311.464844 85.917969 311.429688 85.917969 311.394531 85.917969 C 311.007812 85.914062 310.605469 85.902344 310.195312 85.890625 C 310.140625 85.886719 310.09375 85.886719 310.039062 85.882812 C 309.636719 85.871094 309.21875 85.851562 308.796875 85.828125 C 308.738281 85.824219 308.675781 85.820312 308.617188 85.816406 C 308.195312 85.792969 307.765625 85.761719 307.332031 85.726562 C 307.269531 85.722656 307.210938 85.714844 307.152344 85.710938 C 306.710938 85.671875 306.269531 85.625 305.824219 85.574219 C 305.769531 85.566406 305.714844 85.558594 305.664062 85.550781 C 305.207031 85.496094 304.75 85.429688 304.292969 85.355469 C 304.253906 85.351562 304.214844 85.34375 304.179688 85.339844 C 303.703125 85.257812 303.230469 85.171875 302.757812 85.070312 C 302.746094 85.066406 302.734375 85.066406 302.722656 85.0625 C 301.753906 84.855469 300.792969 84.59375 299.871094 84.273438 C 299.847656 84.265625 299.828125 84.257812 299.804688 84.25 C 299.363281 84.097656 298.933594 83.925781 298.511719 83.738281 C 298.472656 83.722656 298.433594 83.707031 298.398438 83.691406 C 297.988281 83.507812 297.585938 83.308594 297.199219 83.09375 C 297.15625 83.070312 297.113281 83.046875 297.074219 83.023438 C 296.691406 82.808594 296.320312 82.574219 295.964844 82.324219 C 295.925781 82.296875 295.886719 82.265625 295.847656 82.238281 C 295.496094 81.984375 295.15625 81.710938 294.835938 81.417969 C 294.804688 81.390625 294.773438 81.363281 294.746094 81.335938 C 294.421875 81.035156 294.113281 80.714844 293.832031 80.375 C 293.8125 80.355469 293.796875 80.332031 293.78125 80.3125 C 293.1875 79.585938 292.6875 78.765625 292.304688 77.84375 C 292.089844 77.320312 291.910156 76.769531 291.769531 76.179688 C 297.210938 68.605469 307.617188 66.746094 315.34375 71.8125 L 318.046875 67.328125 C 321.34375 61.863281 328.445312 60.101562 333.910156 63.398438 C 339.371094 66.695312 341.128906 73.796875 337.835938 79.261719 Z M 47.882812 134.78125 C 47.917969 134.78125 47.953125 134.78125 47.988281 134.769531 L 52.351562 133.726562 L 58.289062 131.382812 C 58.527344 131.289062 58.640625 131.023438 58.546875 130.789062 C 58.453125 130.554688 58.1875 130.433594 57.953125 130.53125 L 52.078125 132.855469 L 47.777344 133.878906 C 47.53125 133.9375 47.378906 134.183594 47.4375 134.429688 C 47.488281 134.640625 47.675781 134.78125 47.882812 134.78125 Z M 27.984375 140.671875 L 35.742188 140.75 L 35.21875 141.660156 L 27.976562 141.589844 C 27.722656 141.585938 27.519531 141.378906 27.523438 141.125 C 27.523438 140.875 27.730469 140.671875 27.980469 140.671875 C 27.980469 140.671875 27.980469 140.671875 27.984375 140.671875 Z M 47.09375 139.332031 L 51.398438 138.308594 L 57.273438 135.980469 C 57.507812 135.886719 57.773438 136.003906 57.867188 136.238281 C 57.960938 136.476562 57.84375 136.742188 57.609375 136.832031 L 51.671875 139.179688 L 47.308594 140.222656 C 47.273438 140.230469 47.238281 140.234375 47.203125 140.234375 C 46.992188 140.234375 46.804688 140.09375 46.757812 139.882812 C 46.699219 139.636719 46.847656 139.390625 47.09375 139.332031 Z M 325.511719 142.863281 C 325.648438 142.648438 325.933594 142.585938 326.144531 142.722656 L 333.066406 147.164062 C 333.277344 147.300781 333.339844 147.582031 333.203125 147.796875 C 333.117188 147.933594 332.96875 148.007812 332.820312 148.007812 C 332.734375 148.007812 332.648438 147.984375 332.570312 147.933594 L 325.648438 143.496094 C 325.4375 143.359375 325.375 143.074219 325.511719 142.863281 Z M 38.878906 110.367188 L 40.253906 125.5 C 39.910156 125.757812 39.628906 126.070312 39.417969 126.421875 L 37.96875 110.449219 C 37.945312 110.199219 38.128906 109.972656 38.382812 109.953125 C 38.605469 109.929688 38.855469 110.113281 38.878906 110.367188 Z M 46.289062 107.136719 C 46.175781 106.328125 46.738281 105.667969 47.550781 105.65625 L 85.53125 105.203125 C 86.34375 105.195312 87.089844 105.839844 87.203125 106.648438 L 94.183594 156.574219 C 94.296875 157.382812 93.730469 158.046875 92.921875 158.054688 L 54.9375 158.507812 C 54.128906 158.519531 53.382812 157.871094 53.269531 157.0625 L 51.550781 144.785156 L 51.59375 144.382812 C 52.460938 144.011719 53.34375 143.632812 53.34375 143.632812 C 53.496094 143.578125 53.648438 143.511719 53.792969 143.429688 L 58.429688 139.96875 C 61.433594 137.667969 59.503906 135.566406 58.089844 135.921875 C 58.914062 135.453125 59.59375 135.054688 59.847656 134.875 C 60.675781 134.285156 61.980469 133.398438 61.503906 131.863281 C 61.253906 131.058594 60.597656 130.710938 59.882812 130.609375 C 61.191406 129.691406 61.238281 128.277344 60.972656 127.734375 C 60.488281 126.746094 59.910156 126.652344 58.738281 126.796875 C 57.570312 126.941406 51.195312 127.683594 51.175781 127.6875 C 50.980469 127.699219 50.78125 127.726562 50.585938 127.78125 L 49.902344 127.988281 C 49.660156 127.820312 49.40625 127.675781 49.140625 127.542969 L 49.09375 127.191406 L 50.152344 126.449219 C 51.800781 126.332031 54.53125 126.136719 56.089844 125.976562 C 58.433594 125.734375 59.152344 124.171875 59.164062 123.460938 C 59.183594 122.359375 58.339844 122.257812 57.226562 121.929688 L 49.902344 120.964844 C 49.320312 120.902344 48.757812 120.972656 48.246094 121.144531 Z M 70.578125 55.78125 C 72.941406 55.917969 72.582031 64.882812 72.582031 64.882812 C 72.519531 65.925781 71.644531 66.664062 70.667969 66.660156 C 72.882812 71.800781 75.917969 75.796875 78.648438 78.28125 C 79.371094 78.984375 80.179688 79.613281 81.050781 80.136719 C 81.339844 80.308594 81.632812 80.472656 81.933594 80.625 C 82.839844 81.078125 83.804688 81.429688 84.816406 81.664062 C 85.152344 81.738281 85.496094 81.804688 85.84375 81.855469 C 86.191406 81.910156 86.542969 81.949219 86.898438 81.972656 C 87.351562 82 87.796875 82.007812 88.242188 81.992188 C 89.566406 81.949219 90.851562 81.703125 92.054688 81.285156 C 94.066406 80.59375 95.863281 79.417969 97.304688 77.894531 C 97.878906 77.285156 98.398438 76.617188 98.851562 75.90625 C 99.980469 74.121094 100.695312 72.039062 100.847656 69.78125 L 101.40625 61.480469 C 100.042969 66.144531 97.632812 67.410156 91.4375 67.410156 C 82.457031 67.410156 77.015625 65.679688 75.351562 56.578125 C 78.921875 53.964844 75.703125 48.929688 78.875 44.636719 C 81.921875 45.652344 87.597656 45.671875 90.992188 45.324219 C 95.355469 44.878906 97.558594 44.449219 99.316406 43.3125 C 100.242188 44.695312 100.972656 46.246094 101.4375 47.945312 C 101.765625 49.140625 101.933594 50.371094 101.976562 51.582031 C 101.984375 51.515625 101.996094 51.441406 102 51.375 C 102.742188 41.085938 94.277344 34.277344 84.753906 34.277344 C 75.230469 34.277344 67.511719 41.199219 67.511719 51.375 C 67.511719 53.246094 67.660156 55.046875 67.902344 56.785156 C 68.667969 56.105469 69.59375 55.722656 70.578125 55.78125 Z M 90.832031 70.269531 C 93.605469 70.269531 97.046875 69.136719 97.046875 71.726562 C 97.046875 72.859375 96.527344 73.894531 95.660156 74.703125 C 94.273438 76 91.890625 75.011719 91.871094 73.109375 L 91.871094 73.078125 C 91.871094 73.066406 91.875 73.058594 91.875 73.050781 C 91.875 73.050781 89.792969 73.066406 89.792969 73.078125 C 89.792969 73.089844 89.792969 73.097656 89.792969 73.109375 C 89.777344 75.011719 87.394531 76 86.003906 74.703125 C 85.140625 73.894531 84.621094 72.859375 84.621094 71.726562 C 84.621094 69.136719 88.058594 70.269531 90.832031 70.269531 Z M 190.355469 95.007812 L 189.636719 95.007812 C 189.355469 95.007812 189.082031 95.011719 188.816406 95.011719 C 186.242188 95.011719 184.285156 94.90625 180.773438 93.734375 C 180.53125 93.65625 180.402344 93.398438 180.484375 93.15625 C 180.5625 92.917969 180.824219 92.789062 181.0625 92.867188 C 184.796875 94.113281 186.609375 94.105469 189.632812 94.09375 L 190.355469 94.089844 C 190.609375 94.089844 190.8125 94.296875 190.8125 94.546875 C 190.8125 94.800781 190.609375 95.007812 190.355469 95.007812 Z M 178.785156 108.929688 C 178.785156 109.183594 178.582031 109.386719 178.328125 109.386719 L 172.574219 109.386719 C 172.320312 109.386719 172.117188 109.183594 172.117188 108.929688 C 172.117188 108.675781 172.320312 108.472656 172.574219 108.472656 L 178.328125 108.472656 C 178.582031 108.472656 178.785156 108.675781 178.785156 108.929688 Z M 205.027344 97.644531 C 205.003906 97.882812 204.804688 98.0625 204.570312 98.0625 C 204.554688 98.0625 204.542969 98.058594 204.527344 98.058594 C 200.417969 97.671875 192.898438 97.25 190.925781 97.140625 C 190.964844 97.769531 191.003906 98.546875 191.019531 99.371094 L 202.832031 100.105469 C 203.082031 100.125 203.277344 100.339844 203.261719 100.59375 C 203.246094 100.835938 203.042969 101.023438 202.804688 101.023438 C 202.792969 101.023438 202.785156 101.023438 202.773438 101.019531 L 191.03125 100.289062 C 191.027344 100.910156 191.003906 101.53125 190.960938 102.117188 C 192.707031 102.308594 196.980469 102.039062 199.925781 101.546875 C 200.171875 101.503906 200.414062 101.675781 200.453125 101.921875 C 200.496094 102.171875 200.328125 102.410156 200.078125 102.449219 C 197.703125 102.847656 194.574219 103.09375 192.429688 103.09375 C 191.808594 103.09375 191.277344 103.070312 190.863281 103.027344 C 190.804688 103.433594 190.730469 103.808594 190.632812 104.125 C 190.574219 104.320312 190.390625 104.449219 190.195312 104.449219 C 190.148438 104.449219 190.105469 104.441406 190.0625 104.429688 C 189.820312 104.355469 189.683594 104.097656 189.757812 103.855469 C 190.464844 101.554688 189.902344 95.832031 189.898438 95.777344 C 189.871094 95.527344 190.054688 95.300781 190.308594 95.277344 C 190.546875 95.242188 190.78125 95.433594 190.808594 95.683594 C 190.8125 95.726562 190.832031 95.925781 190.855469 96.222656 C 192.628906 96.316406 200.398438 96.75 204.613281 97.148438 C 204.863281 97.171875 205.050781 97.394531 205.027344 97.644531 Z M 344.671875 212.660156 C 344.671875 221.59375 336.898438 303.800781 333.378906 340.582031 C 333.367188 340.582031 331.152344 352.691406 331.136719 352.691406 L 292.640625 351.671875 L 300.933594 269.328125 C 300.9375 269.328125 300.941406 269.328125 300.945312 269.328125 C 300.949219 269.328125 300.953125 269.328125 300.960938 269.328125 C 301.207031 269.328125 301.410156 269.132812 301.417969 268.886719 L 303.386719 205.40625 C 303.390625 205.292969 303.351562 205.179688 303.277344 205.09375 L 296.203125 196.84375 C 296.039062 196.652344 295.75 196.628906 295.558594 196.792969 C 295.367188 196.957031 295.34375 197.246094 295.507812 197.4375 L 302.464844 205.554688 L 300.5 268.855469 C 300.496094 269.066406 300.632812 269.238281 300.820312 269.300781 L 278.117188 340.601562 C 278.074219 340.589844 273.613281 352.011719 273.5625 352.011719 L 230.640625 348.945312 C 240.738281 314.359375 268.511719 231.320312 272.914062 215.753906 C 276.421875 203.363281 281.292969 187.007812 290.003906 176.097656 C 289.429688 175 287.695312 171.402344 286.445312 165.683594 C 285.074219 159.417969 284.074219 149.347656 287.085938 136.945312 C 287.144531 136.699219 287.390625 136.554688 287.636719 136.609375 C 287.882812 136.667969 288.035156 136.917969 287.976562 137.164062 C 285.007812 149.375 285.984375 159.285156 287.328125 165.445312 C 288.785156 172.125 290.96875 175.964844 290.992188 176 C 291.046875 176.097656 291.058594 176.207031 291.039062 176.308594 C 293.96875 181.066406 297.734375 184.4375 302.589844 185.40625 C 302.160156 183.140625 301.734375 180.996094 301.324219 178.945312 C 298.914062 166.859375 297.171875 158.125 299.292969 145.109375 C 300.886719 135.332031 304.960938 128.644531 305.597656 127.648438 L 305.171875 117.890625 C 305.160156 117.640625 305.355469 117.425781 305.609375 117.414062 C 305.859375 117.410156 306.074219 117.601562 306.085938 117.855469 L 306.519531 127.753906 C 306.519531 127.851562 306.496094 127.949219 306.441406 128.027344 C 306.394531 128.097656 301.886719 134.902344 300.195312 145.253906 C 298.101562 158.109375 299.832031 166.773438 302.222656 178.765625 C 302.640625 180.863281 303.078125 183.054688 303.515625 185.378906 C 303.527344 185.441406 303.523438 185.503906 303.511719 185.5625 C 304.167969 185.652344 304.835938 185.707031 305.53125 185.707031 C 315.726562 185.707031 322.105469 178.363281 326.582031 168.136719 C 329.421875 169.75 331.960938 171.828125 334.105469 174.265625 C 332.496094 174.601562 331.628906 175.441406 331.628906 175.441406 C 330.136719 176.523438 327.582031 178.558594 327.054688 178.925781 C 324.507812 180.703125 326.636719 183.164062 328.847656 181.957031 C 330.429688 181.09375 331.410156 180.882812 333.550781 179.828125 C 333.464844 179.648438 333.492188 179.429688 333.648438 179.289062 L 335.203125 177.886719 C 335.390625 177.714844 335.679688 177.730469 335.847656 177.917969 C 336.015625 178.105469 336.003906 178.394531 335.816406 178.566406 L 334.261719 179.96875 C 334.175781 180.046875 334.0625 180.085938 333.957031 180.085938 C 333.839844 180.085938 333.730469 180.039062 333.640625 179.953125 C 331.671875 182.011719 332.167969 182.039062 330.054688 184.132812 C 327.707031 186.460938 330.183594 189.164062 332.273438 187.480469 C 332.332031 187.433594 332.402344 187.378906 332.464844 187.328125 C 332.320312 187.144531 332.328125 186.878906 332.503906 186.710938 L 338.496094 181.027344 C 338.679688 180.855469 338.972656 180.863281 339.144531 181.046875 C 339.316406 181.230469 339.3125 181.519531 339.128906 181.695312 L 333.132812 187.378906 C 333.042969 187.460938 332.929688 187.503906 332.816406 187.503906 C 332.746094 187.503906 332.675781 187.480469 332.609375 187.449219 C 331.9375 189.105469 333.65625 190.632812 335.289062 189.5 C 335.820312 189.132812 336.480469 188.6875 337.207031 188.203125 C 337.136719 188.019531 337.1875 187.804688 337.355469 187.675781 L 341.691406 184.390625 C 341.890625 184.238281 342.179688 184.277344 342.332031 184.480469 C 342.484375 184.679688 342.445312 184.964844 342.242188 185.121094 L 337.90625 188.40625 C 337.824219 188.46875 337.726562 188.5 337.628906 188.5 C 337.613281 188.5 337.601562 188.492188 337.585938 188.492188 C 336.992188 189.859375 338.40625 191.273438 339.828125 190.425781 C 340.242188 190.175781 341.078125 189.789062 342.011719 189.347656 C 344.269531 196.867188 344.671875 204.664062 344.671875 212.660156 Z M 143.605469 116.914062 C 143.765625 117.109375 143.738281 117.398438 143.546875 117.558594 L 125.367188 132.660156 C 125.28125 132.730469 125.175781 132.765625 125.074219 132.765625 C 124.941406 132.765625 124.8125 132.707031 124.722656 132.597656 C 124.558594 132.40625 124.585938 132.117188 124.78125 131.953125 L 142.960938 116.855469 C 143.152344 116.695312 143.441406 116.71875 143.605469 116.914062 Z M 114.992188 264.929688 L 116.644531 348.234375 L 95.097656 348.234375 C 90.917969 334.355469 81.207031 294.996094 85.945312 270.414062 L 77.488281 209.34375 L 77.609375 198.160156 L 85.078125 196.167969 C 85.320312 196.105469 85.46875 195.851562 85.402344 195.609375 C 85.335938 195.367188 85.089844 195.222656 84.839844 195.285156 L 77.039062 197.367188 C 76.839844 197.417969 76.703125 197.597656 76.699219 197.804688 L 76.492188 216.519531 C 76.488281 216.773438 76.691406 216.980469 76.945312 216.984375 L 74.160156 348.234375 L 51.777344 348.234375 C 50.171875 338.675781 47.144531 320.339844 45.691406 309.453125 C 43.664062 294.242188 46.667969 266.742188 46.667969 266.742188 L 43.75 211.761719 C 43.261719 201.671875 43.382812 189.773438 44.109375 178.917969 C 44.601562 179.285156 45.160156 179.570312 45.777344 179.75 C 66.109375 185.726562 86.863281 188.324219 108.039062 187.542969 C 108.214844 187.539062 108.382812 187.519531 108.542969 187.492188 Z M 45.394531 150.351562 C 43.597656 149.988281 41.878906 148.917969 41.210938 147.746094 C 41.085938 147.527344 41.164062 147.246094 41.382812 147.121094 C 41.601562 146.996094 41.882812 147.070312 42.007812 147.292969 C 42.46875 148.101562 43.84375 149.105469 45.578125 149.453125 C 46.695312 149.679688 48.34375 149.703125 49.847656 148.542969 C 50.050781 148.386719 50.335938 148.425781 50.492188 148.625 C 50.644531 148.828125 50.609375 149.113281 50.40625 149.269531 C 49.183594 150.210938 47.890625 150.492188 46.78125 150.492188 C 46.273438 150.492188 45.804688 150.433594 45.394531 150.351562 Z M 118.519531 108.449219 L 116.78125 124.589844 C 116.757812 124.824219 116.558594 125 116.328125 125 C 116.3125 125 116.296875 124.996094 116.277344 124.996094 C 116.027344 124.96875 115.84375 124.742188 115.871094 124.492188 L 117.609375 108.351562 C 117.636719 108.097656 117.859375 107.925781 118.113281 107.945312 C 118.363281 107.972656 118.546875 108.199219 118.519531 108.449219 Z M 118.519531 108.449219 " fill-opacity="1" fill-rule="evenodd"/></svg>