<svg xmlns="http://www.w3.org/2000/svg" xmlns:xlink="http://www.w3.org/1999/xlink" width="500" zoomAndPan="magnify" viewBox="0 0 375 374.999991" height="500" preserveAspectRatio="xMidYMid meet" version="1.0"><defs><filter x="0%" y="0%" width="100%" height="100%" id="44626cd7d6"><feColorMatrix values="0 0 0 0 1 0 0 0 0 1 0 0 0 0 1 0 0 0 1 0" color-interpolation-filters="sRGB"/></filter><mask id="bc07f0f361"><g filter="url(#44626cd7d6)"><rect x="-37.5" width="450" fill="#000000" y="-37.499999" height="449.999989" fill-opacity="0.2471"/></g></mask><clipPath id="d6e2c5c43e"><path d="M 0.160156 0.160156 L 157.839844 0.160156 L 157.839844 136.71875 L 0.160156 136.71875 Z M 0.160156 0.160156 " clip-rule="nonzero"/></clipPath><clipPath id="32491268a5"><rect x="0" width="158" y="0" height="137"/></clipPath><clipPath id="6eb602c9bf"><path d="M 0 37.5 L 375 37.5 L 375 337.5 L 0 337.5 Z M 0 37.5 " clip-rule="nonzero"/></clipPath></defs><path fill="#c3c3ff" d="M 362.972656 335.617188 L 12.042969 335.617188 C 6.316406 335.617188 1.675781 330.976562 1.675781 325.25 L 1.675781 67.566406 L 354.023438 50.875 C 359.75 50.875 373.339844 67.566406 373.339844 67.566406 L 373.339844 325.25 C 373.339844 330.976562 368.699219 335.617188 362.972656 335.617188 Z M 362.972656 335.617188 " fill-opacity="1" fill-rule="nonzero"/><path fill="#ff3131" d="M 137.898438 323.363281 L 128.96875 335.625 L 46.699219 335.625 L 54.929688 327.207031 C 58.519531 323.542969 63.429688 321.472656 68.566406 321.472656 L 141.824219 321.472656 C 139.3125 322.605469 137.898438 323.363281 137.898438 323.363281 Z M 325.136719 327.800781 C 321.519531 323.773438 316.359375 321.472656 310.949219 321.472656 L 226.023438 321.472656 C 231.472656 325.046875 236.683594 329.6875 241.449219 335.625 L 332.171875 335.625 Z M 325.136719 327.800781 " fill-opacity="1" fill-rule="nonzero"/><path fill="#7f56d9" d="M 150.730469 327.492188 C 150.730469 327.492188 145.804688 329.464844 141.179688 329.210938 C 137.058594 333.5625 124.507812 329.554688 115.566406 332.867188 C 106.617188 336.179688 77.890625 337.476562 69.734375 321.855469 C 61.578125 306.234375 68.9375 289.777344 75.054688 279.113281 C 81.164062 268.4375 80.191406 247.351562 86.667969 234.066406 C 93.144531 220.785156 99.582031 216.945312 103.039062 217.304688 C 103.039062 217.304688 113.316406 206.789062 119.972656 203.046875 C 119.972656 203.046875 120.371094 198.8125 124.050781 195.207031 C 127.730469 191.601562 130.925781 191.511719 137.109375 185.363281 C 143.292969 179.214844 150.339844 175.964844 156.699219 175.085938 C 163.0625 174.214844 183.421875 204.5 212.140625 173.414062 C 223.617188 173.640625 229.769531 183.910156 233.429688 187.3125 C 237.085938 190.714844 241.621094 192.539062 243.015625 198.480469 C 243.015625 198.480469 261.527344 208.511719 268.757812 216.128906 C 274.855469 213.632812 280.878906 224.765625 286.105469 240.785156 C 291.332031 256.804688 307.238281 283.617188 306.097656 306.339844 C 304.957031 329.058594 285.421875 335.617188 269.058594 335.617188 C 252.703125 335.617188 242.476562 334.058594 234.292969 333.609375 C 226.113281 333.152344 216.90625 331.71875 214.636719 326.585938 C 214.636719 326.585938 210.078125 324.464844 207.816406 323.015625 C 205.558594 321.5625 167.019531 311.832031 150.730469 327.492188 Z M 150.730469 327.492188 " fill-opacity="1" fill-rule="nonzero"/><path fill="#ee8454" d="M 170.046875 192.296875 C 170.046875 192.296875 215.191406 177.109375 203.429688 192.914062 C 191.667969 208.714844 187.589844 229.203125 187.589844 229.203125 C 181.953125 209.929688 170.046875 192.914062 170.046875 192.914062 " fill-opacity="1" fill-rule="nonzero"/><g mask="url(#bc07f0f361)"><g transform="matrix(1, 0, 0, 1, 110, 194)"><g clip-path="url(#32491268a5)"><g clip-path="url(#d6e2c5c43e)"><path fill="#350e07" d="M 16.398438 5.335938 L 24.589844 1.664062 C 24.589844 1.664062 42.453125 26.25 77.214844 40.230469 C 77.214844 40.230469 108.519531 24.660156 122.09375 1.003906 C 122.09375 1.003906 124.449219 -0.824219 132.074219 3.957031 C 132.074219 3.957031 113.378906 35.121094 77.3125 41.769531 C 49.269531 41.789062 16.398438 5.335938 16.398438 5.335938 Z M 6.660156 98.230469 C 1.878906 84.925781 9.410156 69.585938 7.753906 63.074219 C 8.015625 68.941406 -2.117188 89.65625 1.089844 97.511719 Z M 32.003906 134.878906 C 25.671875 126.355469 28.03125 111.964844 28.03125 111.964844 C 21.164062 125.859375 29.777344 136.234375 29.777344 136.234375 Z M 108.894531 136.234375 C 117.957031 121.910156 112.84375 108.800781 112.84375 108.800781 C 113.503906 127.332031 104.644531 132.59375 104.644531 132.59375 C 105.976562 135.042969 108.894531 136.234375 108.894531 136.234375 Z M 147.3125 63.394531 C 146.675781 63.71875 144.410156 71.167969 146.707031 79.300781 C 149 87.433594 150.242188 87.472656 149.742188 93.371094 L 157.53125 94.363281 C 157.71875 85.277344 145.597656 74.925781 147.3125 63.394531 Z M 147.3125 63.394531 " fill-opacity="1" fill-rule="nonzero"/></g></g></g></g><path fill="#350e07" d="M 142.875 161.929688 L 135.777344 153.046875 C 135.777344 153.046875 129.855469 148.570312 130.796875 140.601562 C 130.796875 140.601562 124.335938 138.183594 124.195312 131.089844 C 124.246094 129.410156 128.21875 129.679688 131.496094 111.898438 C 134.769531 94.121094 144.621094 82.019531 156.113281 84.132812 C 164 70.3125 186.707031 65.804688 201.816406 74.269531 C 216.929688 82.730469 223.40625 79.203125 225.25 78.648438 C 227.085938 78.085938 234.023438 81.457031 232.925781 91.96875 C 232.925781 91.96875 240.25 94.777344 238.226562 107.925781 C 238.226562 107.925781 243.542969 117.230469 237.335938 126.96875 C 240.753906 131.503906 234.304688 144.359375 240.609375 148.886719 C 239.996094 151.144531 234.679688 160.550781 216.75 164.148438 C 211.996094 165.101562 205.371094 166.03125 198.195312 166.878906 C 199.074219 167.140625 199.914062 167.492188 200.679688 168.003906 C 203.0625 169.613281 204.292969 172.582031 204.320312 175.460938 C 204.367188 179.425781 202.296875 183.28125 199.171875 185.714844 C 196.046875 188.152344 191.953125 189.203125 188.003906 188.925781 C 183.371094 188.601562 178.699219 186.292969 176.421875 182.246094 C 174.082031 178.113281 175.035156 171.894531 178.863281 168.894531 C 165.429688 170.152344 154.222656 170.964844 154.222656 170.964844 C 145.972656 170.589844 142.875 161.929688 142.875 161.929688 Z M 201.847656 195.132812 C 197.46875 197.523438 192.269531 199.007812 186.082031 199.007812 C 180.707031 199.007812 176.066406 197.867188 172.058594 195.976562 C 173.015625 197.492188 174.261719 199.523438 175.640625 201.953125 C 180.859375 202.867188 191.886719 203.765625 200.320312 197.46875 C 200.8125 196.683594 201.324219 195.902344 201.847656 195.132812 Z M 234.621094 188.789062 C 231.15625 192.71875 229.140625 197.53125 226.097656 201.757812 C 222.835938 206.285156 218.789062 210.207031 214.769531 214.050781 C 206.847656 221.636719 198.273438 227.515625 188.28125 232.050781 C 188.039062 232.164062 188.210938 232.53125 188.460938 232.46875 C 198.855469 229.890625 207.792969 222.824219 215.632812 215.804688 C 223.699219 208.585938 232.582031 199.980469 235.019531 189.023438 C 235.0625 188.804688 234.785156 188.59375 234.621094 188.789062 Z M 236.300781 194.839844 C 235.902344 194.660156 235.566406 195.207031 235.957031 195.429688 C 239 197.191406 241.660156 199.488281 245.144531 200.339844 C 245.234375 200.363281 245.289062 200.257812 245.230469 200.191406 C 242.851562 197.425781 239.515625 196.332031 236.300781 194.839844 Z M 152.175781 193.9375 C 149.5625 191.511719 146.976562 188.226562 143.738281 186.660156 C 143.691406 186.636719 143.625 186.675781 143.648438 186.726562 C 145.011719 190.09375 148.324219 192.761719 150.941406 195.167969 C 154.007812 197.980469 157.28125 200.574219 160.910156 202.628906 C 161.046875 202.703125 161.171875 202.53125 161.066406 202.417969 C 158.25 199.457031 155.183594 196.726562 152.175781 193.9375 Z M 363.113281 39.007812 L 11.898438 39.007812 C 6.253906 39.007812 1.675781 43.585938 1.675781 49.230469 L 1.675781 67.566406 L 373.339844 67.566406 L 373.339844 49.230469 C 373.339844 43.585938 368.757812 39.007812 363.113281 39.007812 Z M 363.113281 39.007812 " fill-opacity="1" fill-rule="nonzero"/><path fill="#ee8454" d="M 224.425781 135.230469 C 224.785156 129.398438 221.503906 121.511719 221.503906 121.511719 C 213.9375 122.6875 208.121094 115.199219 208.121094 115.199219 C 199.027344 122.648438 186.707031 111.082031 186.707031 111.082031 C 180.992188 121.636719 164.335938 108.332031 164.335938 108.332031 C 164.335938 108.332031 162.621094 131.808594 147.90625 134.710938 C 125.417969 137.761719 137.003906 158.960938 147.90625 158.796875 C 147.90625 158.796875 154.132812 199.007812 186.097656 199.007812 C 218.0625 199.007812 223.917969 159.457031 223.917969 159.457031 C 239.898438 154.957031 238.226562 135.796875 224.425781 135.230469 Z M 188.078125 148.527344 C 188.152344 148.191406 188.722656 148.167969 188.773438 148.527344 C 189.058594 150.304688 189.390625 152.09375 189.972656 153.804688 C 190.402344 155.070312 191.570312 156.546875 191.667969 157.898438 C 191.816406 160.085938 189.765625 162.269531 188.273438 163.550781 C 188.203125 163.609375 188.070312 163.527344 188.136719 163.445312 C 188.878906 162.433594 190.101562 160.984375 190.429688 159.765625 C 191.015625 157.546875 189.816406 156.421875 188.886719 154.757812 C 187.785156 152.800781 187.597656 150.679688 188.078125 148.527344 Z M 169.75 156.171875 C 167.371094 156.171875 165.445312 153.601562 165.445312 150.4375 C 165.445312 147.273438 167.371094 144.703125 169.75 144.703125 C 172.125 144.703125 174.050781 147.269531 174.050781 150.4375 C 174.050781 153.609375 172.125 156.171875 169.75 156.171875 Z M 175.835938 138.519531 C 166.414062 134.660156 157.394531 142.664062 158.445312 139.613281 C 161.242188 131.511719 175.835938 132.273438 177.933594 134.9375 C 179.179688 136.527344 178.191406 139.367188 175.835938 138.519531 Z M 196.644531 176.609375 C 192.164062 188.160156 181.921875 185.445312 178.339844 178.191406 C 177.867188 177.230469 190.875 179.492188 193.519531 175.550781 C 194.847656 175.332031 195.851562 175.09375 196.496094 174.914062 C 197.027344 174.765625 198.421875 174.578125 198.292969 175.339844 C 198.175781 176.039062 197.238281 176.449219 196.644531 176.609375 Z M 202.027344 156.171875 C 199.652344 156.171875 197.726562 153.601562 197.726562 150.4375 C 197.726562 147.273438 199.652344 144.703125 202.027344 144.703125 C 204.402344 144.703125 206.332031 147.269531 206.332031 150.4375 C 206.332031 153.609375 204.402344 156.171875 202.027344 156.171875 Z M 210.207031 138.167969 C 206.40625 136.472656 199.957031 137.492188 197.726562 138.078125 C 195.492188 138.660156 193.765625 136.886719 193.617188 135.550781 C 193.496094 134.480469 194.5 132.546875 201.136719 132.273438 C 207.769531 132.003906 213.039062 138.59375 210.207031 138.167969 Z M 207.824219 323.015625 C 203.378906 324.320312 194.847656 327.703125 188.332031 321.578125 C 188.332031 321.578125 186.261719 322.664062 184.464844 323.015625 C 183.136719 328.078125 174.210938 326.628906 172.269531 325.566406 C 168.910156 325.25 160.4375 332.378906 150.730469 327.492188 C 145.542969 319.785156 150.730469 301.71875 150.730469 301.71875 C 156.847656 301.984375 166.519531 296.449219 175.160156 289.277344 C 178.054688 287.378906 186.34375 290.421875 186.34375 290.421875 C 190.769531 288.316406 205.925781 296.210938 209.320312 296.503906 C 213.910156 310.078125 207.824219 323.015625 207.824219 323.015625 Z M 207.824219 323.015625 " fill-opacity="1" fill-rule="nonzero"/><path fill="#c3c3ff" d="M 193.519531 175.550781 C 193.519531 176.71875 192.558594 178.609375 191.339844 179.074219 C 185.789062 180.984375 178.496094 178.511719 178.339844 178.191406 C 177.867188 177.230469 177.507812 176.1875 177.296875 175.085938 C 184.382812 176.519531 190.046875 176.121094 193.519531 175.550781 Z M 193.519531 175.550781 " fill-opacity="1" fill-rule="nonzero"/><path fill="#ff3131" d="M 233.445312 160.242188 C 231.511719 162.15625 229.015625 163.128906 226.96875 163.625 C 222.492188 202.523438 211.390625 226.554688 202.417969 245.984375 C 194.882812 262.304688 188.933594 275.191406 188.894531 291.390625 L 187.351562 291.382812 C 187.386719 274.847656 193.707031 261.171875 201.015625 245.332031 C 209.90625 226.089844 220.878906 202.304688 225.371094 163.9375 C 224.035156 164.140625 223.136719 164.140625 223.136719 164.140625 C 223.210938 163.691406 225.671875 151.171875 225.378906 137.84375 C 225.25 136.421875 225.160156 134.695312 225.117188 132.613281 C 224.605469 109.246094 209.578125 91.511719 185.152344 90.820312 C 160.730469 90.132812 143.28125 108.738281 144.121094 132.269531 C 144.246094 147.402344 148.804688 162.988281 148.933594 163.488281 C 148.933594 163.488281 146.097656 163.75 142.933594 162.859375 C 148.101562 188.863281 157.101562 204.523438 165.828125 219.6875 C 176.570312 238.371094 186.710938 256.007812 187.109375 290.410156 L 185.566406 290.421875 C 185.167969 256.429688 175.125 238.960938 164.488281 220.460938 C 155.601562 205.019531 146.429688 189.050781 141.25 162.273438 C 140.234375 161.847656 139.230469 161.292969 138.316406 160.535156 C 134 156.984375 132.09375 143.152344 133.558594 138.738281 C 134.335938 136.710938 135.8125 135.320312 137.417969 134.351562 C 137.605469 116.339844 144.304688 83.4375 183.285156 83.527344 C 230.378906 83.632812 231.804688 127.703125 231.765625 133.984375 C 233.535156 134.792969 235.230469 136.066406 236.234375 138.105469 C 238.070312 142.371094 237.425781 156.308594 233.445312 160.242188 Z M 30.925781 178.371094 C 21.824219 178.371094 14.449219 185.746094 14.449219 194.847656 C 14.449219 203.945312 21.824219 211.324219 30.925781 211.324219 C 40.027344 211.324219 47.402344 203.945312 47.402344 194.847656 C 47.402344 185.746094 40.027344 178.371094 30.925781 178.371094 Z M 30.925781 178.371094 " fill-opacity="1" fill-rule="nonzero"/><path fill="#7f56d9" d="M 47.402344 92.320312 C 47.402344 101.421875 40.027344 108.796875 30.925781 108.796875 C 21.824219 108.796875 14.449219 101.421875 14.449219 92.320312 C 14.449219 83.21875 21.824219 75.84375 30.925781 75.84375 C 40.027344 75.84375 47.402344 83.21875 47.402344 92.320312 Z M 30.925781 127.109375 C 21.824219 127.109375 14.449219 134.488281 14.449219 143.585938 C 14.449219 152.6875 21.824219 160.0625 30.925781 160.0625 C 40.027344 160.0625 47.402344 152.6875 47.402344 143.585938 C 47.402344 134.488281 40.027344 127.109375 30.925781 127.109375 Z M 363.992188 53.285156 L 366.554688 50.722656 C 367.320312 49.957031 367.320312 48.714844 366.554688 47.941406 C 365.789062 47.171875 364.546875 47.175781 363.773438 47.941406 L 361.210938 50.507812 L 358.648438 47.941406 C 357.882812 47.175781 356.636719 47.175781 355.867188 47.941406 C 355.101562 48.707031 355.101562 49.953125 355.867188 50.722656 L 358.429688 53.285156 L 355.867188 55.851562 C 355.101562 56.617188 355.101562 57.859375 355.867188 58.632812 C 356.628906 59.398438 357.875 59.398438 358.648438 58.632812 L 361.210938 56.066406 L 363.773438 58.632812 C 364.539062 59.398438 365.785156 59.398438 366.554688 58.632812 C 367.328125 57.867188 367.320312 56.621094 366.554688 55.851562 Z M 326.054688 53.347656 L 326.054688 53.226562 C 326.054688 51.996094 325.054688 51 323.828125 51 L 316.429688 51 C 315.199219 51 314.203125 51.996094 314.203125 53.226562 L 314.203125 53.347656 C 314.203125 54.578125 315.199219 55.574219 316.429688 55.574219 L 323.828125 55.574219 C 325.054688 55.566406 326.054688 54.578125 326.054688 53.347656 Z M 346.59375 49.492188 L 346.59375 57.085938 C 346.59375 58.265625 345.640625 59.214844 344.464844 59.214844 L 336.871094 59.214844 C 335.695312 59.214844 334.742188 58.265625 334.742188 57.085938 L 334.742188 49.492188 C 334.742188 48.316406 335.695312 47.363281 336.871094 47.363281 L 344.464844 47.363281 C 345.640625 47.363281 346.59375 48.316406 346.59375 49.492188 Z M 345.3125 51.699219 C 345.3125 51.210938 344.914062 50.8125 344.425781 50.8125 L 336.914062 50.8125 C 336.429688 50.8125 336.03125 51.210938 336.03125 51.699219 C 336.03125 52.183594 336.429688 52.582031 336.914062 52.582031 L 344.425781 52.582031 C 344.914062 52.582031 345.3125 52.183594 345.3125 51.699219 Z M 345.3125 51.699219 " fill-opacity="1" fill-rule="nonzero"/><g clip-path="url(#6eb602c9bf)"><path fill="#350e07" d="M 41.128906 92.273438 L 41.144531 96.398438 C 41.144531 97.027344 40.460938 97.417969 39.921875 97.101562 L 36.023438 94.816406 L 36.03125 96.21875 C 36.039062 97.433594 35.054688 98.414062 33.84375 98.414062 L 22.933594 98.453125 C 21.71875 98.460938 20.738281 97.476562 20.738281 96.261719 L 20.707031 88.414062 C 20.699219 87.199219 21.683594 86.21875 22.898438 86.21875 L 33.804688 86.179688 C 35.019531 86.171875 36 87.15625 36 88.371094 L 36.007812 89.769531 L 39.898438 87.460938 C 40.4375 87.140625 41.121094 87.53125 41.121094 88.160156 Z M 39.980469 199.726562 C 39.53125 199.480469 36.652344 197.835938 36.023438 197.460938 C 35.394531 197.085938 34.425781 198.46875 34.121094 198.878906 C 33.8125 199.292969 33.257812 199.996094 32.785156 199.777344 C 32.3125 199.5625 30.410156 198.609375 28.789062 196.988281 C 27.171875 195.371094 26.21875 193.46875 26 192.996094 C 25.785156 192.523438 26.488281 191.96875 26.898438 191.660156 C 27.3125 191.351562 28.683594 190.386719 28.316406 189.757812 C 27.941406 189.125 26.300781 186.25 26.054688 185.796875 C 25.804688 185.347656 24.792969 185.671875 24.402344 185.746094 C 24.023438 185.820312 23.46875 186.015625 23.105469 186.429688 C 22.746094 186.839844 21.367188 188.472656 21.683594 190.632812 C 21.992188 192.792969 22.679688 195.46875 26.503906 199.285156 C 30.324219 203.105469 32.996094 203.796875 35.152344 204.105469 C 37.3125 204.410156 38.945312 203.039062 39.359375 202.679688 C 39.769531 202.320312 39.964844 201.765625 40.042969 201.382812 C 40.117188 200.984375 40.429688 199.964844 39.980469 199.726562 Z M 30.925781 147.074219 C 33.339844 147.074219 35.296875 145.117188 35.296875 142.703125 L 35.296875 138.121094 C 35.296875 135.707031 33.339844 133.75 30.925781 133.75 C 28.511719 133.75 26.554688 135.707031 26.554688 138.121094 L 26.554688 142.703125 C 26.554688 145.117188 28.511719 147.074219 30.925781 147.074219 Z M 24.023438 142.34375 C 23.617188 142.34375 23.308594 142.703125 23.347656 143.101562 C 23.707031 146.71875 26.617188 149.597656 30.25 149.921875 L 30.25 152.050781 L 26.886719 152.050781 C 26.511719 152.050781 26.210938 152.351562 26.210938 152.726562 C 26.210938 153.101562 26.511719 153.398438 26.886719 153.398438 L 34.964844 153.398438 C 35.339844 153.398438 35.640625 153.101562 35.640625 152.726562 C 35.640625 152.351562 35.339844 152.050781 34.964844 152.050781 L 31.601562 152.050781 L 31.601562 149.921875 C 35.234375 149.597656 38.144531 146.71875 38.503906 143.101562 C 38.542969 142.695312 38.242188 142.34375 37.828125 142.34375 C 37.492188 142.34375 37.191406 142.589844 37.164062 142.925781 C 36.871094 146.113281 34.179688 148.617188 30.917969 148.617188 C 27.65625 148.617188 24.972656 146.113281 24.675781 142.925781 C 24.652344 142.589844 24.351562 142.34375 24.023438 142.34375 Z M 230.429688 134.5 C 231.839844 134.859375 233.429688 134.824219 234.726562 135.511719 C 234.792969 135.550781 234.898438 135.492188 234.867188 135.402344 C 233.953125 132.582031 228.953125 132.5 226.617188 132.6875 C 226.496094 132.695312 226.421875 132.867188 226.546875 132.933594 C 227.769531 133.59375 229.082031 134.15625 230.429688 134.5 Z M 134.695312 136.554688 C 136.40625 134.1875 140.507812 133.101562 143.300781 133.21875 C 143.382812 133.21875 143.390625 133.105469 143.324219 133.078125 C 141.429688 132.394531 139.636719 131.894531 137.710938 132.792969 C 136.136719 133.527344 135.042969 134.769531 134.132812 136.226562 C 133.902344 136.59375 134.457031 136.894531 134.695312 136.554688 Z M 134.675781 194.652344 C 134.578125 194.53125 134.398438 194.679688 134.464844 194.808594 C 139.726562 204.140625 149.253906 211.316406 157.710938 217.640625 C 162.230469 221.03125 166.914062 224.214844 171.773438 227.109375 C 176.628906 230.003906 181.644531 233.015625 187.207031 234.300781 C 187.269531 234.3125 187.335938 234.222656 187.273438 234.179688 C 183.152344 230.964844 178.382812 228.707031 173.910156 226.046875 C 169.238281 223.265625 164.679688 220.3125 160.273438 217.125 C 155.582031 213.738281 151.082031 210.085938 146.726562 206.269531 C 142.597656 202.664062 138.054688 198.96875 134.675781 194.652344 Z M 118.332031 204.488281 C 123.332031 202.417969 127.816406 199.027344 132.808594 196.824219 C 132.875 196.796875 132.824219 196.699219 132.761719 196.710938 C 127.679688 197.859375 121.546875 200.035156 118.191406 204.230469 C 118.101562 204.335938 118.175781 204.554688 118.332031 204.488281 Z M 109.359375 228.667969 C 108.585938 223.917969 107.207031 219.832031 103.773438 216.351562 C 103.191406 215.761719 102.09375 216.546875 102.597656 217.261719 C 105.09375 220.796875 107.71875 224.613281 109.089844 228.746094 C 109.148438 228.925781 109.390625 228.847656 109.359375 228.667969 Z M 116.34375 290.769531 C 115.371094 283.960938 116.128906 277.148438 117.523438 270.46875 C 118.617188 265.230469 119.164062 260.101562 117.410156 254.953125 C 117.363281 254.808594 117.148438 254.867188 117.183594 255.011719 C 118.992188 261.953125 115.957031 268.535156 114.808594 275.304688 C 113.878906 280.769531 114.457031 285.589844 116.15625 290.828125 C 116.195312 290.941406 116.359375 290.886719 116.34375 290.769531 Z M 138.023438 314.042969 C 137.875 309.320312 139.125 304.539062 140.117188 299.953125 C 140.136719 299.859375 140.019531 299.816406 139.972656 299.890625 C 134.351562 307.972656 135.753906 321.527344 141.839844 329.050781 C 142.027344 329.277344 142.3125 328.992188 142.214844 328.757812 C 140.160156 324.042969 138.191406 319.269531 138.023438 314.042969 Z M 150.597656 302.191406 C 149.824219 305.09375 146.039062 320.519531 150.722656 327.492188 C 151.300781 327.785156 151.878906 328.03125 152.449219 328.242188 C 149.660156 318.617188 150.445312 305.363281 150.671875 302.351562 C 150.714844 302.441406 150.769531 302.53125 150.8125 302.621094 C 150.859375 302.726562 151.054688 302.703125 151.066406 302.582031 C 151.757812 297.648438 146.628906 296.683594 142.957031 295.789062 C 140.410156 291.660156 134.539062 290.6875 130.011719 290.460938 C 126.164062 290.273438 122.417969 291.074219 118.617188 291.433594 C 114.066406 291.871094 109.679688 290.933594 105.339844 289.636719 C 105.140625 289.578125 104.988281 289.898438 105.191406 289.988281 C 110.976562 292.574219 117.335938 292.792969 123.601562 292.628906 C 127.09375 292.539062 130.730469 292.074219 134.203125 292.703125 C 137.148438 293.234375 139.644531 294.824219 142.164062 296.339844 C 142.164062 296.585938 142.28125 296.832031 142.574219 296.960938 C 145.664062 298.273438 148.933594 299.121094 150.597656 302.191406 Z M 228.84375 298.609375 C 224.929688 298.519531 220.976562 297.351562 217.222656 296.359375 C 214.636719 295.679688 211.824219 294.832031 209.15625 295.453125 C 208.480469 295.609375 208.480469 296.660156 209.15625 296.816406 C 209.214844 296.832031 209.277344 296.847656 209.335938 296.855469 C 210.152344 311.457031 207.402344 319.652344 205.152344 323.828125 C 206.144531 323.535156 207.050781 323.242188 207.824219 323.015625 C 207.824219 323.015625 213.789062 310.320312 209.441406 296.878906 C 212.875 297.671875 216.316406 298.339844 219.757812 299.1875 C 220.730469 299.425781 221.628906 299.597656 222.507812 299.703125 C 221.742188 308.183594 222.074219 320.265625 214.679688 326 C 214.300781 326.292969 214.785156 326.773438 215.152344 326.609375 C 219.300781 324.808594 221 320.632812 222.148438 316.53125 C 223.683594 311.046875 224.222656 305.289062 222.808594 299.734375 C 224.824219 299.9375 226.699219 299.710938 228.878906 298.804688 C 228.960938 298.757812 228.953125 298.617188 228.84375 298.609375 Z M 281.628906 288.878906 C 276.945312 286.78125 271.152344 287.335938 266.121094 287.320312 C 264.441406 287.3125 262.730469 287.289062 261.015625 287.304688 C 261.601562 283.675781 260.535156 279.996094 259 276.628906 C 257.441406 273.226562 256.488281 270.617188 256.382812 266.832031 C 256.324219 264.597656 256.609375 262.449219 256.234375 260.230469 C 256.226562 260.183594 256.15625 260.175781 256.136719 260.214844 C 254.1875 264.042969 254.710938 268.828125 255.859375 272.84375 C 256.601562 275.445312 257.835938 277.898438 258.460938 280.535156 C 259 282.828125 258.960938 285.09375 259.382812 287.335938 C 256.195312 287.433594 253.007812 287.746094 250.019531 288.738281 C 244.515625 290.558594 240.234375 293.789062 234.246094 294.269531 C 229.792969 294.628906 224.769531 293.945312 220.878906 296.601562 C 220.722656 296.707031 220.8125 296.984375 221.015625 296.921875 C 226.351562 295.3125 231.300781 296.023438 236.734375 295.511719 C 241.398438 295.070312 245.085938 292.46875 249.367188 290.878906 C 252.703125 289.644531 256.308594 289.335938 259.90625 289.304688 C 259.914062 289.335938 259.921875 289.367188 259.9375 289.398438 C 260.035156 289.660156 260.386719 289.667969 260.484375 289.398438 C 260.492188 289.367188 260.5 289.335938 260.511719 289.304688 C 262.402344 289.304688 264.285156 289.367188 266.121094 289.402344 C 271.128906 289.5 276.714844 290.601562 281.585938 289.222656 C 281.726562 289.195312 281.789062 288.945312 281.628906 288.878906 Z M 261.996094 284.703125 C 261.976562 284.785156 262.066406 284.855469 262.140625 284.816406 C 263.902344 283.894531 265.191406 282.082031 266.914062 281.007812 C 268.84375 279.808594 270.941406 278.902344 273.144531 278.347656 C 273.265625 278.316406 273.242188 278.105469 273.113281 278.121094 C 270.738281 278.316406 268.480469 278.925781 266.429688 280.175781 C 264.769531 281.179688 262.5 282.738281 261.996094 284.703125 Z M 225.265625 194.359375 C 226.914062 191.804688 227.917969 189.035156 228.511719 186.0625 C 228.632812 185.453125 227.695312 185.191406 227.574219 185.804688 C 226.996094 188.707031 226.113281 191.527344 225.101562 194.292969 C 225.070312 194.382812 225.214844 194.433594 225.265625 194.359375 Z M 260.242188 229.125 C 262.273438 224.433594 265.175781 220.011719 269 216.554688 C 269.367188 216.226562 268.871094 215.558594 268.46875 215.859375 C 264.007812 219.164062 261.015625 223.496094 260.0625 229.050781 C 260.046875 229.15625 260.199219 229.238281 260.242188 229.125 Z M 183.8125 333.714844 C 181.628906 333.023438 178.691406 330.347656 176.34375 330.574219 C 175.378906 330.664062 174.675781 331.53125 173.789062 331.804688 C 171.15625 332.597656 169.007812 331.398438 166.503906 331.414062 C 165.070312 331.421875 163.730469 331.988281 162.289062 332.132812 C 160.183594 332.34375 159.464844 331.34375 157.507812 331.089844 C 154.164062 330.65625 151.03125 332.371094 147.628906 331.621094 C 147.117188 331.511719 146.765625 332.222656 147.261719 332.492188 C 149.734375 333.863281 151.945312 332.851562 154.546875 332.3125 C 156.359375 331.9375 157.703125 332.117188 159.425781 332.941406 C 159.988281 333.210938 160.476562 333.765625 161.121094 333.902344 C 162.261719 334.132812 162.628906 333.660156 163.640625 333.445312 C 165.265625 333.105469 166.808594 332.484375 168.632812 332.648438 C 169.417969 332.71875 170.191406 333.121094 170.992188 333.167969 C 172.09375 333.234375 172.769531 333.015625 173.78125 332.6875 C 174.203125 332.460938 174.582031 332.191406 174.945312 331.886719 C 176.136719 331.953125 177.320312 332.011719 178.511719 332.082031 C 178.558594 332.199219 179.957031 333.121094 179.964844 333.121094 C 181.164062 333.828125 182.402344 334.035156 183.773438 334.097656 C 183.984375 334.113281 184.015625 333.78125 183.8125 333.714844 Z M 209.578125 330.972656 C 207.453125 330.339844 205.519531 330.035156 203.300781 330.289062 C 202.417969 330.394531 201.511719 330.558594 200.65625 330.796875 C 198.078125 331.527344 198.675781 331.796875 195.386719 331.089844 C 192.925781 330.566406 190.957031 330.511719 189.351562 332.679688 C 189.269531 332.792969 189.425781 332.917969 189.53125 332.859375 C 191.953125 331.457031 193.460938 331.898438 195.972656 332.695312 C 197.269531 333.101562 197.882812 333.195312 199.269531 332.890625 C 202.6875 332.140625 206.144531 331.898438 209.570312 331.1875 C 209.6875 331.164062 209.679688 331 209.578125 330.972656 Z M 193.519531 328.542969 C 193.75 328.558594 193.84375 328.105469 193.847656 327.402344 C 196.390625 327.671875 199.007812 327.417969 201.496094 327.867188 C 204.066406 328.324219 205.875 329.417969 208.46875 328.667969 C 208.59375 328.632812 208.625 328.398438 208.46875 328.378906 C 205.566406 327.964844 202.621094 327.164062 199.695312 327.011719 C 197.621094 326.90625 195.992188 327.246094 193.878906 326.804688 C 193.863281 326.804688 193.847656 326.796875 193.835938 326.789062 C 193.707031 324.261719 192.851562 319.882812 192.851562 319.882812 L 191.441406 316.707031 C 192.746094 315.492188 193.195312 312.949219 192.933594 311.34375 C 192.433594 308.292969 190.339844 305.796875 187.964844 303.75 C 188.21875 303.511719 188.460938 303.257812 188.640625 302.941406 C 188.839844 302.597656 189.125 302.082031 189.113281 301.667969 C 189.113281 301.601562 189.050781 301.5625 188.992188 301.578125 C 188.59375 301.667969 188.175781 302.082031 187.890625 302.363281 C 187.640625 302.613281 187.460938 302.898438 187.296875 303.195312 C 186.398438 302.460938 185.476562 301.789062 184.597656 301.164062 C 184.464844 301.066406 184.351562 301.261719 184.441406 301.375 C 185.214844 302.328125 186.113281 303.160156 187.019531 303.984375 C 187.058594 304.089844 187.148438 304.171875 187.253906 304.203125 C 188.273438 305.132812 189.277344 306.066406 190.09375 307.175781 C 192.46875 310.410156 191.816406 313.472656 189.597656 316.242188 C 189.488281 316.015625 189.367188 315.804688 189.230469 315.617188 C 188.578125 314.679688 187.636719 313.9375 186.75 313.234375 C 185.5 312.238281 182.828125 311.074219 182.914062 309.210938 C 182.914062 309.15625 182.835938 309.148438 182.824219 309.195312 C 182.574219 310.601562 183.796875 312.082031 184.613281 313.101562 C 186.636719 315.648438 191.539062 317.558594 188.121094 321.503906 C 188.101562 321.53125 188.09375 321.570312 188.09375 321.601562 C 187.726562 321.847656 187.28125 322.066406 186.734375 322.214844 L 187.058594 323.0625 C 187.058594 323.0625 188.648438 324.644531 190.265625 326.105469 C 190.265625 326.105469 190.257812 326.105469 190.257812 326.105469 C 189.035156 326.210938 189.117188 326.449219 188.113281 326.804688 C 187.84375 327.011719 187.574219 327.222656 187.304688 327.433594 C 185.414062 328.25 183.558594 328.363281 181.726562 327.777344 C 179.398438 327.730469 177.835938 327.835938 175.707031 328.894531 C 175.550781 328.976562 175.664062 329.246094 175.828125 329.1875 C 178.203125 328.371094 180.222656 328.382812 182.65625 328.886719 C 183.503906 329.058594 184.433594 329.570312 185.347656 329.449219 C 186.136719 329.34375 186.488281 329.097656 187.15625 328.707031 C 188.691406 327.824219 189.832031 327.222656 191.519531 327.199219 C 192.425781 327.957031 193.191406 328.519531 193.519531 328.542969 Z M 374.847656 49.375 L 374.847656 325.25 C 374.847656 331.804688 369.515625 337.125 362.972656 337.125 L 12.042969 337.125 C 5.5 337.125 0.167969 331.804688 0.167969 325.25 L 0.167969 49.375 C 0.167969 42.828125 5.5 37.5 12.042969 37.5 L 362.964844 37.5 C 369.515625 37.5 374.847656 42.828125 374.847656 49.375 Z M 371.832031 49.375 C 371.832031 44.488281 367.859375 40.511719 362.972656 40.511719 L 12.042969 40.511719 C 7.15625 40.511719 3.183594 44.488281 3.183594 49.375 L 3.183594 325.25 C 3.183594 330.136719 7.15625 334.113281 12.042969 334.113281 L 362.964844 334.113281 C 367.851562 334.113281 371.824219 330.136719 371.824219 325.25 L 371.824219 49.375 Z M 184 289.726562 C 187.171875 291.660156 192.058594 293.472656 193.886719 296.945312 C 195.707031 300.394531 194.089844 304.800781 191.585938 307.484375 C 191.421875 307.65625 191.675781 307.917969 191.847656 307.746094 C 194.492188 305.109375 196.660156 300.851562 195.460938 297.050781 C 193.992188 292.410156 188.300781 290.394531 184.042969 289.636719 C 183.984375 289.621094 183.945312 289.695312 184 289.726562 Z M 177.363281 317.378906 C 178.195312 318.570312 179.238281 319.230469 180.453125 320.003906 C 181.179688 320.46875 181.886719 320.957031 182.5 321.5625 C 183.101562 322.15625 183.40625 322.859375 183.894531 323.535156 C 184.15625 323.894531 184.859375 323.9375 184.957031 323.390625 C 185.632812 319.597656 179.765625 318.601562 177.449219 317.304688 C 177.386719 317.289062 177.328125 317.335938 177.363281 317.378906 Z M 167.425781 271.285156 L 174.464844 289.832031 C 174.464844 289.832031 176.066406 287.941406 180.84375 288.910156 C 180.339844 287.6875 174.621094 272.558594 173.183594 269.210938 C 171.742188 265.859375 166.464844 268.09375 167.425781 271.285156 Z M 167.425781 271.285156 " fill-opacity="1" fill-rule="nonzero"/></g></svg>