<svg xmlns="http://www.w3.org/2000/svg" xmlns:xlink="http://www.w3.org/1999/xlink" width="500" zoomAndPan="magnify" viewBox="0 0 375 374.999991" height="500" preserveAspectRatio="xMidYMid meet" version="1.0"><path fill="#7f56d9" d="M 38.078125 112.21875 C 30.9375 128.03125 20.371094 158.292969 24.617188 195.933594 C 30.066406 244.226562 57.050781 282.300781 83.300781 303.695312 C 170.402344 374.691406 329.847656 328.828125 350.964844 261.949219 C 354.796875 249.820312 353.71875 238.117188 352.390625 223.71875 C 348.175781 177.921875 325.972656 164.308594 311.042969 115.683594 C 297.453125 71.429688 310.851562 66.453125 298.144531 46.777344 C 270.582031 4.101562 191.015625 1.949219 136.265625 22.410156 C 115.238281 30.269531 64.210938 54.375 38.078125 112.21875 " fill-opacity="1" fill-rule="nonzero"/><path fill="#ffffff" d="M 346.886719 279.808594 L 76.820312 279.808594 C 73.5625 279.808594 70.925781 277.171875 70.925781 273.921875 L 70.925781 60.867188 C 70.925781 57.613281 73.5625 54.980469 76.820312 54.980469 L 346.886719 54.980469 C 350.144531 54.980469 352.78125 57.613281 352.78125 60.867188 L 352.78125 273.921875 C 352.78125 277.171875 350.144531 279.808594 346.886719 279.808594 " fill-opacity="1" fill-rule="nonzero"/><path fill="#7f56d9" d="M 83.902344 55.574219 C 77.074219 55.574219 71.523438 61.117188 71.523438 67.933594 L 71.523438 266.851562 C 71.523438 273.667969 77.074219 279.210938 83.902344 279.210938 L 339.808594 279.210938 C 346.632812 279.210938 352.1875 273.667969 352.1875 266.851562 L 352.1875 67.933594 C 352.1875 61.117188 346.632812 55.574219 339.808594 55.574219 Z M 339.808594 280.40625 L 83.902344 280.40625 C 76.417969 280.40625 70.328125 274.324219 70.328125 266.851562 L 70.328125 67.933594 C 70.328125 60.460938 76.417969 54.382812 83.902344 54.382812 L 339.808594 54.382812 C 347.289062 54.382812 353.378906 60.460938 353.378906 67.933594 L 353.378906 266.851562 C 353.378906 274.324219 347.289062 280.40625 339.808594 280.40625 " fill-opacity="1" fill-rule="nonzero"/><path fill="#7f56d9" d="M 327.296875 267.769531 L 94.820312 267.769531 C 88.421875 267.769531 83.234375 262.589844 83.234375 256.199219 L 83.234375 78.585938 C 83.234375 72.195312 88.421875 67.015625 94.820312 67.015625 L 327.296875 67.015625 C 333.695312 67.015625 338.882812 72.195312 338.882812 78.585938 L 338.882812 256.199219 C 338.882812 262.589844 333.695312 267.769531 327.296875 267.769531 " fill-opacity="1" fill-rule="nonzero"/><path fill="#5f4280" d="M 327.292969 268.367188 L 217.484375 268.367188 C 217.15625 268.367188 216.886719 268.097656 216.886719 267.769531 C 216.886719 267.441406 217.15625 267.175781 217.484375 267.175781 L 327.292969 267.175781 C 333.355469 267.175781 338.285156 262.25 338.285156 256.199219 L 338.285156 230.609375 C 338.285156 230.28125 338.550781 230.015625 338.882812 230.015625 C 339.210938 230.015625 339.476562 230.28125 339.476562 230.609375 L 339.476562 256.199219 C 339.476562 262.90625 334.011719 268.367188 327.292969 268.367188 " fill-opacity="1" fill-rule="nonzero"/><path fill="#5f4280" d="M 338.882812 199.097656 C 338.550781 199.097656 338.285156 198.832031 338.285156 198.503906 L 338.285156 78.589844 C 338.285156 72.535156 333.355469 67.613281 327.292969 67.613281 L 297.59375 67.613281 C 297.261719 67.613281 296.996094 67.347656 296.996094 67.015625 C 296.996094 66.6875 297.261719 66.421875 297.59375 66.421875 L 327.292969 66.421875 C 334.011719 66.421875 339.476562 71.878906 339.476562 78.589844 L 339.476562 198.503906 C 339.476562 198.832031 339.210938 199.097656 338.882812 199.097656 " fill-opacity="1" fill-rule="nonzero"/><path fill="#dbaff6" d="M 185.71875 174.003906 L 31.207031 174.003906 C 26.953125 174.003906 23.503906 170.5625 23.503906 166.316406 L 23.503906 48.265625 C 23.503906 44.019531 26.953125 40.574219 31.207031 40.574219 L 185.71875 40.574219 C 189.972656 40.574219 193.421875 44.019531 193.421875 48.265625 L 193.421875 166.316406 C 193.421875 170.5625 189.972656 174.003906 185.71875 174.003906 " fill-opacity="1" fill-rule="nonzero"/><path fill="#2b2b2b" d="M 185.71875 174.601562 L 168.71875 174.601562 C 168.386719 174.601562 168.121094 174.335938 168.121094 174.007812 C 168.121094 173.675781 168.386719 173.410156 168.71875 173.410156 L 185.71875 173.410156 C 189.636719 173.410156 192.824219 170.230469 192.824219 166.316406 L 192.824219 152.28125 C 192.824219 151.949219 193.09375 151.683594 193.421875 151.683594 C 193.75 151.683594 194.015625 151.949219 194.015625 152.28125 L 194.015625 166.316406 C 194.015625 170.886719 190.296875 174.601562 185.71875 174.601562 " fill-opacity="1" fill-rule="nonzero"/><path fill="#2b2b2b" d="M 23.503906 164.199219 C 23.175781 164.199219 22.910156 163.933594 22.910156 163.605469 L 22.910156 48.265625 C 22.910156 43.695312 26.628906 39.980469 31.207031 39.980469 L 185.71875 39.980469 C 190.296875 39.980469 194.019531 43.695312 194.019531 48.265625 L 194.019531 96.777344 C 194.019531 97.105469 193.75 97.371094 193.417969 97.371094 C 193.089844 97.371094 192.824219 97.105469 192.824219 96.777344 L 192.824219 48.265625 C 192.824219 44.355469 189.636719 41.167969 185.71875 41.167969 L 31.207031 41.167969 C 27.289062 41.167969 24.101562 44.355469 24.101562 48.265625 L 24.101562 163.605469 C 24.101562 163.933594 23.832031 164.199219 23.503906 164.199219 " fill-opacity="1" fill-rule="nonzero"/><path fill="#ffffff" d="M 176.867188 162.222656 C 176.867188 163.503906 175.828125 164.542969 174.546875 164.542969 L 168.066406 164.542969 C 166.785156 164.542969 165.742188 163.503906 165.742188 162.222656 C 165.742188 160.941406 166.785156 159.902344 168.066406 159.902344 L 174.546875 159.902344 C 175.828125 159.902344 176.867188 160.941406 176.867188 162.222656 " fill-opacity="1" fill-rule="nonzero"/><path fill="#7f56d9" d="M 176.867188 152.550781 C 176.867188 153.832031 175.828125 154.871094 174.546875 154.871094 L 162.46875 154.871094 C 161.183594 154.871094 160.144531 153.832031 160.144531 152.550781 C 160.144531 151.269531 161.183594 150.230469 162.46875 150.230469 L 174.546875 150.230469 C 175.828125 150.230469 176.867188 151.269531 176.867188 152.550781 " fill-opacity="1" fill-rule="nonzero"/><path fill="#5f4280" d="M 176.867188 141.285156 L 176.867188 144.480469 C 176.867188 144.878906 176.542969 145.203125 176.144531 145.203125 L 153.636719 145.203125 C 153.238281 145.203125 152.914062 144.878906 152.914062 144.480469 L 152.914062 141.285156 C 152.914062 140.886719 153.238281 140.558594 153.636719 140.558594 L 176.144531 140.558594 C 176.542969 140.558594 176.867188 140.886719 176.867188 141.285156 " fill-opacity="1" fill-rule="nonzero"/><path fill="#ffffff" d="M 64.316406 96.640625 C 63.84375 96.902344 63.570312 97.398438 63.605469 97.921875 C 63.71875 99.5625 63.125 103.625 61.835938 104.992188 C 58.316406 108.714844 61.125 114.429688 63.898438 115.5625 C 66.675781 116.699219 67.753906 116.75 68.011719 119.09375 C 68.269531 121.441406 68.792969 130.515625 69.664062 132.851562 C 70.53125 135.1875 72.347656 138.980469 73.285156 139.847656 C 74.222656 140.714844 76.371094 141.171875 74.972656 137.863281 C 73.570312 134.554688 72.722656 133 74.203125 131.117188 C 75.6875 129.234375 78.132812 124.890625 78.300781 123.222656 C 78.464844 121.554688 79.359375 120.5625 80.167969 120.355469 C 80.976562 120.144531 82.695312 119.53125 83.191406 118.9375 C 83.6875 118.339844 82.628906 116.691406 82.289062 115.230469 C 81.949219 113.765625 81.929688 112.882812 84.449219 111.671875 C 86.964844 110.460938 85.667969 107.148438 82.1875 106.320312 C 78.707031 105.492188 76.527344 103.660156 76.890625 101.796875 C 77.253906 99.929688 74.511719 100.167969 72.863281 99.308594 C 71.210938 98.453125 71.230469 97.070312 69.402344 96.4375 C 66.929688 95.582031 65.222656 96.132812 64.316406 96.640625 " fill-opacity="1" fill-rule="nonzero"/><path fill="#ffffff" d="M 77.4375 68.527344 C 77.875 66.953125 77.8125 64.804688 77.324219 64.023438 C 76.832031 63.25 75.386719 62 72.785156 63.996094 C 70.183594 65.996094 69.523438 66.003906 68.734375 64.546875 C 67.941406 63.089844 69.460938 59.246094 72.769531 59.199219 C 76.078125 59.148438 76.710938 57.964844 76.785156 57.082031 C 76.859375 56.199219 75.796875 55.238281 74.660156 55.058594 C 73.519531 54.878906 73.347656 55.566406 68.667969 57.59375 C 66.242188 58.644531 64.023438 58.71875 62.449219 58.546875 C 61.734375 58.472656 61.105469 58.03125 60.757812 57.378906 C 60.125 56.183594 59.078125 54.789062 56.9375 56.054688 C 54.125 57.722656 52.902344 60.253906 51.75 59.753906 C 50.597656 59.253906 50.273438 57.632812 49.757812 56.828125 C 49.238281 56.023438 44.6875 53.285156 41.515625 54.957031 C 38.347656 56.628906 33 59.589844 33.886719 60.980469 C 34.773438 62.371094 37.054688 62.40625 40.53125 61.621094 C 44.003906 60.828125 43.140625 63.5 43.585938 64.378906 C 44.035156 65.257812 45.039062 65.539062 45.15625 67.457031 C 45.269531 69.375 45.152344 70.410156 43.960938 71.316406 C 42.769531 72.21875 42.117188 73.527344 42.34375 75.324219 C 43.667969 85.847656 50.765625 91.296875 52.632812 91.933594 C 54.5 92.570312 55 92.5625 55.953125 93.65625 C 55.976562 93.683594 56 93.703125 56.027344 93.71875 C 57.515625 95.9375 58.953125 97.621094 59.597656 97.996094 C 61.226562 98.953125 61.421875 96.621094 61.378906 94.761719 C 61.335938 92.902344 60.597656 90.679688 59.605469 88.542969 C 58.609375 86.402344 58.578125 85.03125 58.839844 84.144531 C 59.105469 83.261719 60.230469 82.949219 61.007812 83.820312 C 61.785156 84.6875 63.621094 85.441406 64.480469 84.878906 C 65.539062 84.1875 65.058594 81.542969 65.417969 80.65625 C 65.773438 79.769531 67.839844 79.152344 68.648438 77.28125 C 69.453125 75.40625 72.761719 75.863281 74.585938 75.324219 C 76.855469 74.65625 78.230469 73.441406 78.441406 72.824219 C 79.109375 70.867188 77.003906 70.097656 77.4375 68.527344 " fill-opacity="1" fill-rule="nonzero"/><path fill="#ffffff" d="M 80.113281 54.839844 C 79.105469 55.269531 78.671875 56.492188 79.175781 57.503906 C 79.347656 57.851562 79.550781 58.160156 79.773438 58.328125 C 80.492188 58.867188 83.34375 59.148438 83.878906 60.285156 C 84.410156 61.425781 83.015625 67.183594 85.003906 68.191406 C 86.269531 68.835938 93.878906 65.609375 97.160156 62.339844 C 100.4375 59.070312 101.875 56.980469 99.941406 56.875 C 98.007812 56.765625 93.535156 57.535156 90.683594 57.253906 C 87.832031 56.972656 83.027344 54.710938 81.546875 54.570312 C 81.050781 54.527344 80.554688 54.652344 80.113281 54.839844 " fill-opacity="1" fill-rule="nonzero"/><path fill="#ffffff" d="M 179.988281 122.800781 C 179.492188 122.824219 177.757812 125.117188 177.339844 126.667969 C 176.917969 128.222656 176.847656 129.101562 177.449219 128.796875 C 178.054688 128.496094 179.167969 128.308594 180.179688 127.082031 C 180.816406 126.316406 180.761719 122.757812 179.988281 122.800781 " fill-opacity="1" fill-rule="nonzero"/><path fill="#ffffff" d="M 121.183594 81.691406 C 121.183594 81.691406 115.320312 83.128906 112.953125 81.515625 C 110.585938 79.898438 112.582031 77.320312 109.015625 77.222656 C 105.449219 77.125 98.726562 76.925781 96.8125 83.25 C 94.898438 89.574219 95.101562 92.417969 98.453125 95.066406 C 101.804688 97.71875 106.945312 94.644531 108.082031 96.425781 C 109.21875 98.207031 108.769531 99.375 109.175781 102.253906 C 110.375 110.808594 113.078125 119.507812 115.765625 120.746094 C 117.371094 121.484375 121.234375 120.066406 122.8125 117.042969 C 124.386719 114.023438 126.007812 112.238281 126.203125 109.5 C 126.355469 107.363281 124.054688 105.484375 126.332031 103.050781 C 128.605469 100.621094 131.878906 99.820312 131.839844 98.171875 C 131.800781 96.527344 130.695312 96.09375 129.316406 95.664062 C 127.933594 95.234375 124.4375 92.136719 124.660156 89.886719 C 124.882812 87.636719 125.574219 86.5 126.246094 87.203125 C 126.917969 87.910156 126.746094 90.058594 127.316406 91.007812 C 127.882812 91.949219 128.929688 94.796875 130.757812 93.695312 C 132.585938 92.597656 133.117188 91.875 134.199219 91.621094 C 135.285156 91.363281 135.757812 88.136719 134.863281 87.199219 C 133.96875 86.253906 133.109375 86.746094 132.546875 86.039062 C 131.984375 85.332031 130.964844 83.679688 132.71875 84.128906 C 134.476562 84.578125 133.523438 85.90625 136.589844 86.335938 C 139.652344 86.769531 142.648438 88.992188 143.574219 91.363281 C 144.5 93.734375 145.34375 97.179688 146.546875 97.28125 C 147.746094 97.382812 147.3125 92.621094 149.238281 91.039062 C 151.167969 89.460938 152.324219 87.539062 153.660156 88.828125 C 155 90.121094 157.257812 93.546875 158.699219 94.480469 C 160.136719 95.410156 163.324219 96.558594 162.730469 94.300781 C 162.132812 92.042969 159.457031 89.460938 160.960938 88.484375 C 162.464844 87.507812 166.328125 89.597656 167.152344 87.320312 C 167.972656 85.039062 166.707031 82.078125 165.359375 80.546875 C 164.015625 79.015625 164.511719 76.746094 165.949219 77.679688 C 167.386719 78.609375 169.308594 81.445312 170.285156 81.308594 C 171.265625 81.175781 169.257812 79.296875 170.292969 76.777344 C 171.324219 74.261719 172.382812 72.933594 170.707031 71.050781 C 169.027344 69.164062 166.050781 67.777344 167.34375 67.042969 C 168.636719 66.308594 170.285156 66.878906 171.808594 66.859375 C 173.335938 66.835938 173.386719 64.332031 174.167969 65.035156 C 174.945312 65.738281 174.832031 70.273438 176.808594 70.839844 C 178.785156 71.40625 176.621094 67.382812 178.113281 65.8125 C 179.605469 64.238281 181.292969 61.832031 180.074219 61.015625 C 178.855469 60.199219 174.734375 61.210938 173.511719 60.15625 C 172.285156 59.101562 170.199219 58.296875 166.28125 58.832031 C 162.367188 59.367188 156.285156 60.527344 153.527344 59.136719 C 150.769531 57.746094 152.054688 56.65625 148.761719 55.75 C 145.46875 54.84375 138.496094 55.304688 136.882812 56.164062 C 135.265625 57.019531 135.074219 58.21875 128.230469 59.507812 C 121.390625 60.804688 121.074219 56.515625 118.339844 56.199219 C 115.605469 55.878906 113.863281 55.90625 110.542969 58.578125 C 107.222656 61.25 105.398438 62.589844 106.933594 62.925781 C 108.464844 63.257812 108.695312 63.730469 111.078125 62.980469 C 113.460938 62.230469 113.757812 60.914062 114.636719 61.140625 C 115.511719 61.367188 116.410156 62.425781 114.15625 64.007812 C 111.902344 65.59375 111.429688 64.050781 110.023438 64.546875 C 108.617188 65.046875 109.300781 66.347656 108.121094 67.199219 C 106.941406 68.050781 106.792969 66.382812 105.195312 68.078125 C 103.597656 69.769531 103.628906 71.199219 102.996094 72.042969 C 102.359375 72.890625 101.003906 70.882812 100.167969 72.445312 C 99.332031 74.007812 100.035156 76.140625 101.554688 75.882812 C 103.078125 75.621094 104.4375 73.097656 106.613281 72.824219 C 108.789062 72.554688 110.496094 70.980469 110.648438 72.765625 C 110.796875 74.554688 110.84375 76.578125 111.710938 76.328125 C 112.578125 76.078125 112.175781 72.863281 112.941406 72.972656 C 113.707031 73.082031 114.636719 75.449219 116.179688 76.144531 C 117.71875 76.835938 119.566406 76.453125 121.003906 77.265625 C 122.4375 78.078125 124.574219 78.796875 121.183594 81.691406 " fill-opacity="1" fill-rule="nonzero"/><path fill="#ffffff" d="M 157.195312 121.480469 C 157.195312 121.480469 155.222656 114.890625 158.316406 113.667969 C 161.414062 112.445312 166.199219 111.195312 167.847656 109.261719 C 169.496094 107.324219 172.710938 105.65625 174.855469 108.417969 C 177 111.183594 180.324219 114.074219 179.59375 116.292969 C 178.863281 118.511719 172.578125 125.515625 171.019531 125.539062 C 169.457031 125.5625 168.320312 121.460938 166.496094 121.339844 C 164.671875 121.21875 159.929688 121.84375 158.773438 122.195312 C 157.554688 122.5625 157.195312 121.480469 157.195312 121.480469 " fill-opacity="1" fill-rule="nonzero"/><path fill="#5f4280" d="M 220.285156 53.152344 L 213.292969 53.152344 L 213.292969 45.414062 L 220.285156 45.414062 L 220.285156 53.152344 " fill-opacity="1" fill-rule="nonzero"/><path fill="#2b2b2b" d="M 213.890625 52.554688 L 219.6875 52.554688 L 219.6875 46.007812 L 213.890625 46.007812 Z M 220.285156 53.746094 L 213.296875 53.746094 C 212.964844 53.746094 212.699219 53.480469 212.699219 53.148438 L 212.699219 45.410156 C 212.699219 45.082031 212.964844 44.816406 213.296875 44.816406 L 220.285156 44.816406 C 220.617188 44.816406 220.882812 45.082031 220.882812 45.410156 L 220.882812 53.148438 C 220.882812 53.480469 220.617188 53.746094 220.285156 53.746094 " fill-opacity="1" fill-rule="nonzero"/><path fill="#5f4280" d="M 235.335938 28.765625 C 235.335938 38.992188 227.03125 47.285156 216.792969 47.285156 C 206.546875 47.285156 198.246094 38.992188 198.246094 28.765625 C 198.246094 18.535156 206.546875 10.242188 216.792969 10.242188 C 227.03125 10.242188 235.335938 18.535156 235.335938 28.765625 " fill-opacity="1" fill-rule="nonzero"/><path fill="#2b2b2b" d="M 216.792969 10.835938 C 206.894531 10.835938 198.84375 18.878906 198.84375 28.761719 C 198.84375 38.648438 206.894531 46.691406 216.792969 46.691406 C 226.6875 46.691406 234.738281 38.648438 234.738281 28.761719 C 234.738281 18.878906 226.6875 10.835938 216.792969 10.835938 Z M 216.792969 47.878906 C 206.234375 47.878906 197.652344 39.304688 197.652344 28.761719 C 197.652344 18.222656 206.234375 9.644531 216.792969 9.644531 C 227.347656 9.644531 235.933594 18.222656 235.933594 28.761719 C 235.933594 39.304688 227.347656 47.878906 216.792969 47.878906 " fill-opacity="1" fill-rule="nonzero"/><path fill="#dbaff6" d="M 226.265625 28.765625 C 226.265625 33.988281 222.023438 38.226562 216.792969 38.226562 C 211.558594 38.226562 207.316406 33.988281 207.316406 28.765625 C 207.316406 23.535156 211.558594 19.300781 216.792969 19.300781 C 222.023438 19.300781 226.265625 23.535156 226.265625 28.765625 " fill-opacity="1" fill-rule="nonzero"/><path fill="#2b2b2b" d="M 223.109375 28.761719 C 223.109375 32.246094 220.277344 35.074219 216.792969 35.074219 C 213.300781 35.074219 210.472656 32.246094 210.472656 28.761719 C 210.472656 25.277344 213.300781 22.453125 216.792969 22.453125 C 220.277344 22.453125 223.109375 25.277344 223.109375 28.761719 " fill-opacity="1" fill-rule="nonzero"/><path fill="#ffffff" d="M 220.015625 26.578125 C 220.015625 27.46875 219.292969 28.1875 218.402344 28.1875 C 217.511719 28.1875 216.792969 27.46875 216.792969 26.578125 C 216.792969 25.691406 217.511719 24.972656 218.402344 24.972656 C 219.292969 24.972656 220.015625 25.691406 220.015625 26.578125 " fill-opacity="1" fill-rule="nonzero"/><path fill="#5f4280" d="M 229.542969 55.011719 L 204.035156 55.011719 L 204.035156 52.25 C 204.035156 51.617188 204.550781 51.105469 205.183594 51.105469 L 228.398438 51.105469 C 229.027344 51.105469 229.542969 51.617188 229.542969 52.25 L 229.542969 55.011719 " fill-opacity="1" fill-rule="nonzero"/><path fill="#2b2b2b" d="M 204.632812 54.414062 L 228.949219 54.414062 L 228.949219 53.625 C 228.949219 52.5625 228.085938 51.699219 227.019531 51.699219 L 206.5625 51.699219 C 205.5 51.699219 204.632812 52.5625 204.632812 53.625 Z M 229.546875 55.605469 L 204.039062 55.605469 C 203.707031 55.605469 203.441406 55.339844 203.441406 55.011719 L 203.441406 53.625 C 203.441406 51.90625 204.839844 50.507812 206.5625 50.507812 L 227.019531 50.507812 C 228.742188 50.507812 230.140625 51.90625 230.140625 53.625 L 230.140625 55.011719 C 230.140625 55.339844 229.875 55.605469 229.546875 55.605469 " fill-opacity="1" fill-rule="nonzero"/><path fill="#5f4280" d="M 304.554688 267.144531 C 308.710938 255.882812 311.558594 247.210938 312.289062 242.902344 C 316.191406 219.824219 305.957031 189.457031 305.957031 189.457031 L 281.292969 187.507812 L 278.457031 192.308594 L 244.363281 191.753906 C 243.820312 192.785156 237.632812 227.625 239.410156 267.167969 L 304.554688 267.144531 " fill-opacity="1" fill-rule="nonzero"/><path fill="#7f56d9" d="M 262.945312 266.394531 C 262.890625 266.394531 262.835938 266.390625 262.78125 266.375 C 262.464844 266.28125 262.28125 265.953125 262.375 265.636719 L 270.300781 238.222656 C 270.390625 237.910156 270.722656 237.726562 271.039062 237.816406 C 271.355469 237.910156 271.539062 238.238281 271.445312 238.554688 L 263.519531 265.96875 C 263.441406 266.226562 263.203125 266.394531 262.945312 266.394531 " fill-opacity="1" fill-rule="nonzero"/><path fill="#ffffff" d="M 178.714844 77.296875 L 172.851562 71.667969 C 172.851562 71.667969 170.097656 73.832031 174.316406 78.925781 C 173.164062 78.964844 171.964844 79.039062 170.042969 79.175781 C 168.492188 79.285156 166.957031 78.882812 165.777344 77.835938 C 164.40625 76.625 162.699219 75.152344 162.066406 74.75 C 160.945312 74.042969 159.480469 72.925781 157.972656 72.945312 C 157.613281 72.949219 157.257812 73.019531 156.925781 73.121094 C 155.839844 73.460938 155.433594 74.789062 156.125 75.6875 L 160.265625 81.109375 C 162.449219 83.964844 165.457031 86.027344 168.855469 86.992188 L 174.273438 88.53125 C 177.367188 89.410156 179.636719 92.132812 180.023438 95.421875 L 185.613281 140.085938 C 186.203125 144.804688 190.804688 147.933594 195.417969 146.75 L 241.457031 136.113281 L 239.675781 108.246094 L 208.277344 123.902344 C 204.347656 125.714844 199.710938 123.765625 198.261719 119.691406 C 195.15625 110.960938 189.96875 96.710938 186.167969 87.976562 C 184.417969 83.960938 181.878906 80.335938 178.714844 77.296875 " fill-opacity="1" fill-rule="nonzero"/><path fill="#2b2b2b" d="M 158.007812 73.542969 C 158 73.542969 157.988281 73.542969 157.976562 73.542969 C 157.707031 73.546875 157.414062 73.597656 157.101562 73.691406 C 156.78125 73.792969 156.535156 74.039062 156.429688 74.363281 C 156.324219 74.699219 156.382812 75.050781 156.597656 75.328125 L 160.738281 80.746094 C 162.855469 83.523438 165.71875 85.484375 169.019531 86.421875 L 174.4375 87.960938 C 177.773438 88.910156 180.199219 91.8125 180.613281 95.355469 L 186.203125 140.011719 C 186.464844 142.09375 187.605469 143.960938 189.34375 145.140625 C 191.074219 146.316406 193.234375 146.695312 195.265625 146.175781 L 240.824219 135.648438 L 239.132812 109.183594 L 208.539062 124.4375 C 206.503906 125.378906 204.160156 125.417969 202.105469 124.554688 C 200.050781 123.691406 198.445312 121.992188 197.699219 119.890625 C 194.84375 111.875 189.484375 97.097656 185.621094 88.21875 C 183.902344 84.273438 181.4375 80.742188 178.300781 77.726562 L 172.898438 72.539062 C 172.449219 73.300781 171.980469 75.179688 174.773438 78.546875 C 174.917969 78.722656 174.949219 78.964844 174.859375 79.167969 C 174.765625 79.378906 174.5625 79.515625 174.335938 79.523438 C 173.207031 79.558594 172.019531 79.636719 170.082031 79.773438 C 168.273438 79.898438 166.605469 79.371094 165.378906 78.285156 C 162.851562 76.050781 162.019531 75.429688 161.75 75.257812 C 161.589844 75.15625 161.425781 75.046875 161.253906 74.9375 C 160.300781 74.3125 159.117188 73.542969 158.007812 73.542969 Z M 193.457031 147.597656 C 191.769531 147.597656 190.09375 147.09375 188.667969 146.125 C 186.652344 144.753906 185.324219 142.578125 185.019531 140.160156 L 179.429688 95.496094 C 179.070312 92.429688 176.980469 89.921875 174.109375 89.105469 L 168.691406 87.566406 C 165.144531 86.558594 162.066406 84.449219 159.789062 81.46875 L 155.648438 76.050781 C 155.203125 75.46875 155.070312 74.699219 155.296875 74 C 155.519531 73.296875 156.046875 72.773438 156.746094 72.554688 C 157.167969 72.425781 157.578125 72.355469 157.960938 72.351562 C 159.449219 72.332031 160.808594 73.222656 161.90625 73.941406 C 162.070312 74.050781 162.230469 74.152344 162.386719 74.25 C 162.921875 74.585938 164.195312 75.648438 166.171875 77.394531 C 167.15625 78.265625 168.515625 78.691406 170 78.582031 C 171.316406 78.492188 172.292969 78.425781 173.136719 78.382812 C 171.824219 76.558594 171.238281 74.894531 171.394531 73.429688 C 171.550781 71.972656 172.386719 71.277344 172.480469 71.203125 C 172.714844 71.015625 173.050781 71.035156 173.261719 71.238281 L 179.125 76.871094 C 182.378906 79.996094 184.933594 83.652344 186.714844 87.742188 C 190.589844 96.65625 195.964844 111.460938 198.820312 119.496094 C 199.453125 121.277344 200.820312 122.722656 202.570312 123.457031 C 204.316406 124.191406 206.304688 124.15625 208.023438 123.363281 L 239.40625 107.71875 C 239.585938 107.628906 239.796875 107.632812 239.96875 107.734375 C 240.144531 107.832031 240.253906 108.011719 240.265625 108.210938 L 242.046875 136.078125 C 242.070312 136.371094 241.871094 136.628906 241.585938 136.695312 L 195.550781 147.332031 C 194.859375 147.511719 194.15625 147.597656 193.457031 147.597656 " fill-opacity="1" fill-rule="nonzero"/><path fill="#2b2b2b" d="M 309.414062 123.980469 C 307.5 113.519531 303.554688 106.429688 290.101562 100.726562 C 282.738281 97.605469 273.753906 96.941406 260.179688 98.246094 C 250.246094 99.203125 224.886719 108.03125 214.789062 117.472656 C 214.140625 118.082031 227.582031 142.730469 227.582031 142.730469 L 235.730469 141.671875 L 233.953125 193.160156 C 233.851562 196.144531 235.605469 198.886719 238.367188 200.027344 C 244.828125 202.703125 259.714844 205.070312 292.1875 197.019531 C 292.1875 197.019531 306.675781 191.230469 311.664062 213.65625 C 311.664062 213.65625 322.023438 212.390625 321.90625 201.140625 C 321.824219 192.808594 313.644531 147.105469 309.414062 123.980469 " fill-opacity="1" fill-rule="nonzero"/><path fill="#7f56d9" d="M 299.125 145.714844 L 295.605469 145.714844 C 295.355469 145.714844 295.132812 145.558594 295.046875 145.328125 L 289.605469 130.714844 C 289.488281 130.410156 289.648438 130.066406 289.957031 129.953125 C 290.261719 129.839844 290.605469 129.992188 290.722656 130.300781 L 296.019531 144.523438 L 299.125 144.523438 C 299.453125 144.523438 299.71875 144.789062 299.71875 145.117188 C 299.71875 145.445312 299.453125 145.714844 299.125 145.714844 " fill-opacity="1" fill-rule="nonzero"/><path fill="#2b2b2b" d="M 302.789062 144.546875 C 302.789062 144.546875 326.792969 144.445312 326.800781 144.191406 C 326.828125 143.332031 317.871094 107.914062 284.585938 98.996094 L 302.789062 144.546875 " fill-opacity="1" fill-rule="nonzero"/><path fill="#ffffff" d="M 300.792969 144.421875 C 300.792969 144.421875 315.988281 182.21875 317.222656 184.828125 C 317.222656 184.828125 323.472656 198.441406 322.007812 204.726562 C 321.085938 208.695312 321.417969 216.359375 326.660156 221.492188 C 327.753906 222.566406 329.59375 221.503906 329.207031 220.023438 C 329.199219 220 329.191406 219.976562 329.183594 219.949219 C 328.585938 217.847656 327.351562 215.109375 327.351562 215.109375 C 327.351562 215.109375 330.589844 215.675781 333.535156 218.910156 C 336.480469 222.144531 342.882812 228.125 344.640625 226.761719 C 347.65625 224.429688 348.078125 212.515625 336.214844 202.90625 C 333.285156 200.53125 332.242188 198.839844 331.546875 195.601562 C 331.546875 195.601562 328.007812 173.257812 324.996094 159.128906 C 324.203125 155.402344 323.351562 151.53125 322.492188 144.066406 L 300.792969 144.421875 " fill-opacity="1" fill-rule="nonzero"/><path fill="#2b2b2b" d="M 327.355469 214.511719 C 327.386719 214.511719 327.421875 214.515625 327.457031 214.523438 C 327.59375 214.546875 330.929688 215.164062 333.976562 218.507812 C 338.300781 223.257812 343.308594 227.039062 344.273438 226.292969 C 345.011719 225.722656 345.808594 224.144531 345.839844 221.433594 C 345.867188 219.117188 345.222656 210.96875 335.839844 203.367188 C 332.835938 200.933594 331.695312 199.148438 330.964844 195.722656 C 330.925781 195.46875 327.386719 173.207031 324.414062 159.253906 L 324.328125 158.851562 C 323.5625 155.257812 322.769531 151.546875 321.960938 144.667969 L 301.667969 145.003906 C 303.875 150.492188 316.652344 182.21875 317.761719 184.574219 C 318.023438 185.144531 324.082031 198.453125 322.589844 204.859375 C 321.816406 208.1875 321.757812 215.859375 327.078125 221.066406 C 327.441406 221.429688 327.894531 221.371094 328.191406 221.199219 C 328.488281 221.027344 328.757812 220.667969 328.628906 220.171875 L 328.609375 220.109375 C 328.03125 218.074219 326.820312 215.378906 326.808594 215.351562 C 326.71875 215.152344 326.746094 214.917969 326.882812 214.742188 C 326.996094 214.597656 327.171875 214.511719 327.355469 214.511719 Z M 344.039062 227.535156 C 340.628906 227.535156 333.429688 219.679688 333.09375 219.3125 C 331.378906 217.433594 329.554688 216.492188 328.40625 216.050781 C 328.824219 217.054688 329.394531 218.523438 329.757812 219.789062 L 329.78125 219.867188 C 330.023438 220.796875 329.628906 221.746094 328.792969 222.230469 C 327.949219 222.714844 326.925781 222.589844 326.242188 221.917969 C 320.542969 216.335938 320.601562 208.144531 321.429688 204.589844 C 322.828125 198.574219 316.742188 185.210938 316.679688 185.078125 C 315.457031 182.484375 300.859375 146.191406 300.238281 144.644531 C 300.164062 144.460938 300.1875 144.257812 300.292969 144.09375 C 300.402344 143.929688 300.585938 143.832031 300.78125 143.828125 L 322.484375 143.472656 C 322.785156 143.464844 323.050781 143.695312 323.085938 144 C 323.910156 151.167969 324.714844 154.945312 325.496094 158.601562 L 325.578125 159.003906 C 328.558594 172.988281 332.105469 195.28125 332.140625 195.507812 C 332.804688 198.625 333.804688 200.183594 336.59375 202.445312 C 346.390625 210.382812 347.0625 218.996094 347.03125 221.445312 C 347.003906 224.109375 346.246094 226.273438 345.007812 227.234375 C 344.738281 227.441406 344.410156 227.535156 344.039062 227.535156 " fill-opacity="1" fill-rule="nonzero"/><path fill="#2b2b2b" d="M 274.953125 45.976562 C 279.980469 49.589844 277.425781 53.144531 284.136719 61.765625 C 289.070312 68.097656 292.992188 69.445312 293.160156 73.800781 C 293.3125 77.726562 290.285156 80.761719 288.289062 82.765625 C 279.214844 91.859375 265.847656 91.871094 257.648438 91.875 C 251.007812 91.882812 241.90625 91.890625 240.382812 87.839844 C 238.875 83.84375 246.496094 80.496094 246.636719 72.394531 C 246.75 65.878906 241.878906 64.390625 242.546875 58.574219 C 243.414062 51.050781 252.363281 46.632812 253.796875 45.925781 C 259.550781 43.085938 268.761719 41.527344 274.953125 45.976562 " fill-opacity="1" fill-rule="nonzero"/><path fill="#2b2b2b" d="M 269.414062 45.664062 C 269.414062 45.664062 265.382812 33.582031 275.796875 31.9375 C 286.210938 30.300781 282.480469 43.953125 276.175781 48.167969 C 269.878906 52.382812 269.414062 45.664062 269.414062 45.664062 " fill-opacity="1" fill-rule="nonzero"/><path fill="#ffffff" d="M 275.84375 97.601562 L 267.765625 76.636719 C 267.765625 76.636719 267.324219 75.449219 267.777344 74.992188 C 268.960938 73.804688 270.867188 71.394531 270.339844 68.628906 C 270.074219 67.238281 269.085938 65.210938 267.734375 65.152344 C 266.785156 65.109375 265.695312 66.046875 265.007812 67.664062 C 264.640625 68.519531 263.457031 68.632812 262.941406 67.855469 C 262.9375 67.847656 262.933594 67.839844 262.925781 67.828125 C 262.414062 67.058594 261.917969 66.191406 261.707031 65.457031 C 261.566406 64.972656 261.121094 64.636719 260.621094 64.628906 C 250.269531 64.433594 255.570312 52.015625 248.886719 53.796875 C 248.632812 53.863281 248.300781 54.097656 248.15625 54.316406 C 247.246094 55.683594 246.582031 56.300781 245.855469 57.671875 C 244.335938 60.554688 244.386719 67.328125 241.414062 70.300781 C 241.070312 70.644531 240.925781 71.152344 241.113281 71.601562 C 241.585938 72.742188 242.636719 72.890625 243.507812 73.355469 C 243.855469 73.546875 244.066406 73.914062 244.078125 74.3125 C 244.121094 75.953125 244.667969 79.75 244.875 82.667969 C 245.003906 84.492188 246.527344 85.894531 248.359375 85.894531 C 249.808594 85.894531 251.335938 85.722656 252.933594 85.363281 C 253.25 85.292969 253.578125 85.347656 253.847656 85.523438 C 255.074219 86.328125 256.328125 95.410156 256.929688 100.359375 C 257.183594 102.433594 258.785156 104.09375 260.851562 104.398438 C 261.515625 104.496094 264.410156 105.03125 267.011719 105.105469 C 275.199219 105.34375 276.992188 100.570312 275.84375 97.601562 " fill-opacity="1" fill-rule="nonzero"/><path fill="#2b2b2b" d="M 253.210938 84.738281 C 253.554688 84.738281 253.886719 84.835938 254.179688 85.027344 C 254.621094 85.320312 255.796875 86.09375 257.523438 100.289062 C 257.742188 102.097656 259.144531 103.542969 260.941406 103.808594 C 261.042969 103.824219 261.195312 103.847656 261.394531 103.878906 C 262.429688 104.050781 264.859375 104.449219 267.027344 104.511719 C 270.703125 104.609375 273.445312 103.660156 274.757812 101.8125 C 275.597656 100.625 275.796875 99.132812 275.289062 97.816406 L 267.207031 76.851562 C 267.109375 76.585938 266.667969 75.261719 267.355469 74.574219 C 268.453125 73.464844 270.230469 71.238281 269.753906 68.742188 C 269.488281 67.355469 268.582031 65.785156 267.710938 65.746094 C 267.695312 65.746094 267.6875 65.746094 267.675781 65.746094 C 267.089844 65.746094 266.1875 66.414062 265.554688 67.898438 C 265.300781 68.496094 264.734375 68.90625 264.082031 68.96875 C 263.429688 69.027344 262.804688 68.726562 262.445312 68.183594 C 262.441406 68.179688 262.421875 68.148438 262.417969 68.144531 C 261.769531 67.160156 261.332031 66.308594 261.132812 65.625 C 261.066406 65.394531 260.851562 65.230469 260.609375 65.222656 C 254.515625 65.109375 253.402344 60.910156 252.589844 57.84375 C 252.179688 56.273438 251.820312 54.921875 250.976562 54.433594 C 250.515625 54.167969 249.882812 54.148438 249.039062 54.371094 C 248.925781 54.402344 248.714844 54.550781 248.65625 54.644531 C 248.292969 55.1875 247.976562 55.605469 247.671875 56.007812 C 247.207031 56.621094 246.804688 57.152344 246.382812 57.953125 C 245.835938 58.984375 245.488281 60.648438 245.117188 62.414062 C 244.496094 65.390625 243.789062 68.769531 241.832031 70.722656 C 241.644531 70.914062 241.578125 71.167969 241.660156 71.375 C 241.925781 72.011719 242.441406 72.234375 243.089844 72.507812 C 243.316406 72.605469 243.554688 72.707031 243.789062 72.832031 C 244.320312 73.117188 244.660156 73.679688 244.675781 74.296875 C 244.695312 75.125 244.859375 76.589844 245.027344 78.140625 C 245.1875 79.582031 245.367188 81.21875 245.46875 82.625 C 245.570312 84.125 246.839844 85.300781 248.351562 85.300781 L 248.355469 85.300781 C 249.792969 85.296875 251.289062 85.125 252.804688 84.78125 C 252.9375 84.753906 253.074219 84.738281 253.210938 84.738281 Z M 267.601562 105.710938 C 267.402344 105.710938 267.199219 105.707031 266.992188 105.703125 C 264.742188 105.640625 262.261719 105.230469 261.199219 105.054688 C 261.011719 105.027344 260.863281 105 260.765625 104.988281 C 258.441406 104.644531 256.621094 102.769531 256.339844 100.433594 C 255.132812 90.511719 254.0625 86.464844 253.515625 86.015625 C 253.390625 85.933594 253.230469 85.90625 253.066406 85.945312 C 251.46875 86.304688 249.878906 86.488281 248.355469 86.488281 C 248.355469 86.488281 248.355469 86.488281 248.351562 86.488281 C 246.21875 86.488281 244.425781 84.832031 244.277344 82.710938 C 244.179688 81.324219 244 79.699219 243.84375 78.269531 C 243.660156 76.625 243.507812 75.207031 243.480469 74.328125 C 243.476562 74.136719 243.378906 73.964844 243.222656 73.882812 C 243.035156 73.78125 242.835938 73.695312 242.621094 73.605469 C 241.902344 73.300781 241.015625 72.921875 240.558594 71.832031 C 240.289062 71.179688 240.457031 70.414062 240.992188 69.882812 C 242.695312 68.175781 243.363281 64.984375 243.949219 62.167969 C 244.335938 60.320312 244.703125 58.578125 245.328125 57.398438 C 245.796875 56.507812 246.246094 55.917969 246.71875 55.289062 C 247.011719 54.902344 247.320312 54.496094 247.660156 53.984375 C 247.882812 53.648438 248.335938 53.324219 248.730469 53.21875 C 249.898438 52.910156 250.828125 52.96875 251.578125 53.402344 C 252.847656 54.140625 253.285156 55.789062 253.746094 57.539062 C 254.578125 60.683594 255.4375 63.9375 260.628906 64.03125 C 261.390625 64.046875 262.070312 64.566406 262.277344 65.292969 C 262.441406 65.855469 262.839844 66.617188 263.425781 67.503906 C 263.609375 67.78125 263.871094 67.789062 263.976562 67.78125 C 264.191406 67.757812 264.375 67.628906 264.457031 67.429688 C 265.238281 65.601562 266.523438 64.503906 267.761719 64.558594 C 269.527344 64.636719 270.640625 67.03125 270.925781 68.519531 C 271.503906 71.550781 269.464844 74.140625 268.199219 75.414062 C 268.128906 75.515625 268.171875 76.011719 268.324219 76.433594 L 276.402344 97.386719 C 277.054688 99.074219 276.804688 100.988281 275.730469 102.5 C 274.679688 103.984375 272.417969 105.710938 267.601562 105.710938 " fill-opacity="1" fill-rule="nonzero"/><path fill="#2b2b2b" d="M 252.933594 85.960938 C 252.65625 85.960938 252.40625 85.765625 252.347656 85.484375 C 252.28125 85.164062 252.488281 84.847656 252.8125 84.78125 C 257.628906 83.796875 260.640625 80.152344 260.667969 80.113281 C 260.875 79.859375 261.253906 79.820312 261.507812 80.027344 C 261.761719 80.234375 261.800781 80.609375 261.59375 80.863281 C 261.460938 81.027344 258.285156 84.875 253.054688 85.949219 C 253.011719 85.957031 252.972656 85.960938 252.933594 85.960938 " fill-opacity="1" fill-rule="nonzero"/><path fill="#5f4280" d="M 107.867188 172.617188 L 107.867188 186.925781 C 107.867188 207.433594 124.082031 224.058594 144.082031 224.058594 C 164.078125 224.058594 180.292969 240.679688 180.292969 261.1875 C 180.292969 263.015625 178.808594 264.496094 176.980469 264.496094 L 81.128906 264.496094 C 51.144531 264.496094 26.839844 239.574219 26.839844 208.832031 L 26.839844 170.753906 C 26.839844 158.523438 36.507812 148.613281 48.433594 148.613281 L 84.457031 148.613281 C 97.386719 148.613281 107.867188 159.359375 107.867188 172.617188 " fill-opacity="1" fill-rule="nonzero"/><path fill="#5f4280" d="M 96.8125 337.46875 L 105.5 337.46875 L 105.5 253.789062 L 96.8125 253.789062 L 96.8125 337.46875 " fill-opacity="1" fill-rule="nonzero"/><path fill="#5f4280" d="M 141.867188 336.082031 L 103.425781 332.710938 L 99.898438 332.710938 L 60.652344 336.082031 L 60.652344 338.753906 L 141.867188 338.753906 L 141.867188 336.082031 " fill-opacity="1" fill-rule="nonzero"/><path fill="#dbaff6" d="M 208.207031 224.316406 L 131.515625 224.316406 C 130.796875 224.316406 130.214844 223.734375 130.214844 223.015625 L 130.214844 220.0625 L 209.503906 220.0625 L 209.503906 223.015625 C 209.503906 223.734375 208.921875 224.316406 208.207031 224.316406 " fill-opacity="1" fill-rule="nonzero"/><path fill="#2b2b2b" d="M 130.8125 220.660156 L 130.8125 221.457031 C 130.8125 222.707031 131.828125 223.71875 133.074219 223.71875 L 206.644531 223.71875 C 207.890625 223.71875 208.910156 222.707031 208.910156 221.457031 L 208.910156 220.660156 Z M 206.644531 224.910156 L 133.074219 224.910156 C 131.167969 224.910156 129.617188 223.363281 129.617188 221.457031 L 129.617188 220.0625 C 129.617188 219.734375 129.886719 219.46875 130.214844 219.46875 L 209.503906 219.46875 C 209.832031 219.46875 210.101562 219.734375 210.101562 220.0625 L 210.101562 221.457031 C 210.101562 223.363281 208.550781 224.910156 206.644531 224.910156 " fill-opacity="1" fill-rule="nonzero"/><path fill="#dbaff6" d="M 209.507812 220.140625 L 164.136719 220.140625 L 177.558594 180.726562 C 178.421875 179.402344 179.925781 178.597656 181.539062 178.597656 L 219.890625 178.597656 C 221.632812 178.597656 222.753906 180.285156 222.183594 181.773438 C 221.960938 182.363281 209.507812 220.140625 209.507812 220.140625 " fill-opacity="1" fill-rule="nonzero"/><path fill="#2b2b2b" d="M 164.96875 219.546875 L 209.074219 219.546875 C 210.492188 215.238281 221.410156 182.132812 221.628906 181.5625 C 221.828125 181.042969 221.75 180.453125 221.425781 179.980469 C 221.078125 179.480469 220.519531 179.195312 219.890625 179.195312 L 181.539062 179.195312 C 180.140625 179.195312 178.863281 179.863281 178.097656 180.992188 Z M 209.507812 220.734375 L 164.136719 220.734375 C 163.945312 220.734375 163.761719 220.644531 163.652344 220.488281 C 163.539062 220.332031 163.507812 220.128906 163.574219 219.949219 L 176.992188 180.535156 C 177.011719 180.488281 177.03125 180.445312 177.058594 180.402344 C 178.039062 178.898438 179.710938 178 181.539062 178 L 219.890625 178 C 220.917969 178 221.835938 178.476562 222.40625 179.304688 C 222.953125 180.097656 223.078125 181.101562 222.742188 181.984375 C 222.535156 182.546875 214.363281 207.3125 210.074219 220.324219 C 209.992188 220.570312 209.761719 220.734375 209.507812 220.734375 " fill-opacity="1" fill-rule="nonzero"/><path fill="#ffffff" d="M 191.675781 200.28125 C 191.136719 202.070312 191.964844 203.90625 193.523438 204.375 C 195.082031 204.84375 196.785156 203.773438 197.324219 201.984375 C 197.867188 200.191406 197.039062 198.359375 195.480469 197.886719 C 193.917969 197.414062 192.21875 198.488281 191.675781 200.28125 " fill-opacity="1" fill-rule="nonzero"/><path fill="#ffffff" d="M 77.960938 259.445312 L 67.671875 266.316406 L 72.886719 272.464844 L 84.730469 266.691406 L 77.960938 259.445312 " fill-opacity="1" fill-rule="nonzero"/><path fill="#2b2b2b" d="M 68.558594 266.441406 L 73.039062 271.726562 L 83.746094 266.507812 L 77.871094 260.21875 Z M 72.886719 273.0625 C 72.714844 273.0625 72.546875 272.988281 72.429688 272.851562 L 67.21875 266.703125 C 67.109375 266.574219 67.058594 266.402344 67.082031 266.234375 C 67.105469 266.066406 67.199219 265.917969 67.34375 265.824219 L 77.628906 258.949219 C 77.871094 258.785156 78.195312 258.824219 78.394531 259.035156 L 85.167969 266.28125 C 85.292969 266.421875 85.351562 266.613281 85.316406 266.796875 C 85.28125 266.980469 85.160156 267.140625 84.992188 267.222656 L 73.148438 273 C 73.0625 273.039062 72.972656 273.0625 72.886719 273.0625 " fill-opacity="1" fill-rule="nonzero"/><path fill="#5f4280" d="M 69.441406 263.21875 C 67.890625 264.167969 65.050781 265.980469 62.71875 267.863281 C 61.253906 269.042969 60.929688 271.140625 61.933594 272.730469 C 64.769531 277.230469 71.820312 286.921875 79.023438 294.1875 C 79.515625 294.683594 80.695312 295.3125 82.257812 294.464844 C 87.617188 291.570312 81.894531 282.5 78.050781 270.847656 L 75.292969 270.539062 C 73.828125 270.375 72.601562 269.351562 72.183594 267.9375 L 70.964844 263.804688 C 70.773438 263.15625 70.019531 262.863281 69.441406 263.21875 " fill-opacity="1" fill-rule="nonzero"/><path fill="#2b2b2b" d="M 69.753906 263.726562 C 68.261719 264.640625 65.414062 266.453125 63.09375 268.324219 C 61.871094 269.3125 61.589844 271.070312 62.4375 272.414062 C 65.367188 277.054688 72.3125 286.570312 79.449219 293.769531 C 79.613281 293.9375 80.519531 294.730469 81.972656 293.945312 C 85.527344 292.023438 83.429688 286.675781 80.53125 279.273438 C 79.597656 276.886719 78.542969 274.195312 77.605469 271.394531 L 75.226562 271.128906 C 73.519531 270.941406 72.101562 269.753906 71.613281 268.105469 L 70.390625 263.972656 C 70.351562 263.84375 70.257812 263.738281 70.128906 263.691406 C 70.058594 263.664062 69.910156 263.628906 69.753906 263.726562 Z M 80.75 295.476562 C 79.828125 295.476562 79.070312 295.082031 78.601562 294.605469 C 71.398438 287.34375 64.386719 277.734375 61.429688 273.050781 C 60.257812 271.195312 60.648438 268.765625 62.34375 267.398438 C 64.71875 265.484375 67.613281 263.636719 69.128906 262.710938 C 69.5625 262.445312 70.082031 262.394531 70.558594 262.578125 C 71.035156 262.761719 71.390625 263.144531 71.535156 263.636719 L 72.757812 267.769531 C 73.105469 268.957031 74.128906 269.808594 75.359375 269.949219 L 78.496094 270.296875 L 78.617188 270.660156 C 79.574219 273.5625 80.671875 276.363281 81.640625 278.839844 C 84.648438 286.507812 87.023438 292.570312 82.542969 294.992188 C 81.902344 295.335938 81.296875 295.476562 80.75 295.476562 " fill-opacity="1" fill-rule="nonzero"/><path fill="#ffffff" d="M 63.070312 267.582031 C 63.070312 267.582031 62.832031 267.769531 62.71875 267.863281 C 61.253906 269.042969 60.929688 271.140625 61.933594 272.730469 C 64.769531 277.230469 71.820312 286.921875 79.023438 294.1875 C 79.515625 294.683594 80.695312 295.3125 82.257812 294.464844 C 82.738281 294.207031 83.4375 293.546875 83.4375 293.546875 L 82.949219 293.011719 C 76 285.398438 69.613281 277.285156 63.851562 268.738281 L 63.070312 267.582031 " fill-opacity="1" fill-rule="nonzero"/><path fill="#2b2b2b" d="M 62.941406 268.457031 C 61.847656 269.460938 61.625 271.128906 62.4375 272.414062 C 65.367188 277.054688 72.3125 286.570312 79.449219 293.769531 C 79.613281 293.9375 80.519531 294.730469 81.972656 293.945312 C 82.148438 293.851562 82.382812 293.671875 82.589844 293.5 L 82.507812 293.410156 C 75.5625 285.804688 69.117188 277.613281 63.355469 269.070312 Z M 80.75 295.476562 C 79.828125 295.476562 79.070312 295.082031 78.601562 294.605469 C 71.398438 287.34375 64.386719 277.734375 61.429688 273.050781 C 60.257812 271.195312 60.648438 268.765625 62.34375 267.398438 C 62.457031 267.304688 62.699219 267.113281 62.699219 267.113281 C 62.828125 267.011719 62.996094 266.96875 63.160156 266.992188 C 63.324219 267.019531 63.472656 267.109375 63.566406 267.25 L 64.34375 268.40625 C 70.074219 276.902344 76.484375 285.042969 83.390625 292.609375 L 83.878906 293.144531 C 84.097656 293.382812 84.085938 293.753906 83.847656 293.976562 C 83.769531 294.050781 83.074219 294.703125 82.542969 294.992188 C 81.902344 295.335938 81.296875 295.476562 80.75 295.476562 " fill-opacity="1" fill-rule="nonzero"/><path fill="#2b2b2b" d="M 79.921875 278.128906 C 79.90625 278.128906 79.890625 278.128906 79.875 278.128906 L 74.644531 277.71875 C 74.316406 277.691406 74.070312 277.402344 74.097656 277.078125 C 74.121094 276.75 74.414062 276.507812 74.738281 276.527344 L 79.96875 276.941406 C 80.296875 276.96875 80.539062 277.253906 80.515625 277.582031 C 80.488281 277.894531 80.230469 278.128906 79.921875 278.128906 " fill-opacity="1" fill-rule="nonzero"/><path fill="#2b2b2b" d="M 76.578125 281.742188 C 76.25 281.742188 75.984375 281.476562 75.984375 281.148438 C 75.980469 280.820312 76.25 280.554688 76.578125 280.550781 L 81.683594 280.535156 C 81.683594 280.535156 81.6875 280.535156 81.6875 280.535156 C 82.015625 280.535156 82.28125 280.804688 82.28125 281.132812 C 82.285156 281.460938 82.015625 281.726562 81.6875 281.730469 L 76.582031 281.742188 C 76.582031 281.742188 76.578125 281.742188 76.578125 281.742188 " fill-opacity="1" fill-rule="nonzero"/><path fill="#2b2b2b" d="M 151.371094 214.261719 C 155.59375 214.277344 169.917969 216.644531 170.335938 229.695312 C 170.476562 234.144531 174.058594 242.351562 147.269531 247.558594 C 115.328125 253.765625 91.574219 265.84375 86.21875 268.71875 C 85.441406 269.136719 84.527344 269.226562 83.679688 268.96875 C 81 268.148438 75.347656 265.867188 74.636719 261.03125 C 74.480469 259.949219 74.964844 258.867188 75.851562 258.226562 L 82.445312 253.453125 L 76.191406 250.125 C 69.054688 246.324219 63.414062 240.066406 60.851562 232.398438 C 58.558594 225.542969 57.421875 213.808594 57.421875 213.808594 L 151.371094 214.261719 " fill-opacity="1" fill-rule="nonzero"/><path fill="#ffffff" d="M 223.433594 339.046875 L 196.347656 245.640625 L 169.265625 339.046875 L 162.773438 339.046875 L 192.53125 233.648438 L 200.164062 233.636719 L 229.925781 339.046875 L 223.433594 339.046875 " fill-opacity="1" fill-rule="nonzero"/><path fill="#2b2b2b" d="M 223.878906 338.449219 L 229.136719 338.449219 L 199.710938 234.234375 L 192.980469 234.242188 L 163.5625 338.449219 L 168.816406 338.449219 L 196.347656 243.5 Z M 230.710938 339.640625 L 222.984375 339.640625 L 196.347656 247.78125 L 169.710938 339.640625 L 161.984375 339.640625 L 192.078125 233.054688 L 200.617188 233.039062 L 230.710938 339.640625 " fill-opacity="1" fill-rule="nonzero"/><path fill="#ffffff" d="M 156.15625 315.429688 C 157.179688 319.257812 157.4375 323.25 156.914062 327.175781 L 172.292969 324.621094 C 168.488281 323.203125 165.578125 320.074219 164.425781 316.1875 L 163.550781 313.21875 L 156.15625 315.429688 " fill-opacity="1" fill-rule="nonzero"/><path fill="#2b2b2b" d="M 156.875 315.835938 C 157.738281 319.324219 157.984375 322.890625 157.601562 326.457031 L 170.285156 324.351562 C 167.207031 322.644531 164.863281 319.765625 163.855469 316.355469 L 163.148438 313.960938 Z M 156.914062 327.773438 C 156.761719 327.773438 156.613281 327.714844 156.5 327.605469 C 156.363281 327.472656 156.300781 327.285156 156.324219 327.097656 C 156.839844 323.230469 156.585938 319.355469 155.582031 315.585938 C 155.496094 315.273438 155.675781 314.953125 155.984375 314.859375 L 163.378906 312.648438 C 163.53125 312.601562 163.695312 312.617188 163.835938 312.691406 C 163.972656 312.769531 164.078125 312.898438 164.121094 313.046875 L 165 316.015625 C 166.089844 319.707031 168.894531 322.714844 172.5 324.066406 C 172.753906 324.160156 172.910156 324.410156 172.886719 324.679688 C 172.859375 324.949219 172.65625 325.164062 172.390625 325.210938 L 157.011719 327.765625 C 156.980469 327.769531 156.949219 327.773438 156.914062 327.773438 " fill-opacity="1" fill-rule="nonzero"/><path fill="#5f4280" d="M 156.351562 322.257812 C 155.855469 324.167969 154.835938 329.539062 154.429688 332.765625 C 154.175781 334.792969 155.503906 336.675781 157.488281 337.160156 C 163.09375 338.542969 176.414062 338.203125 187.519531 338.460938 C 188.277344 338.480469 189.671875 338.082031 190.257812 336.246094 C 192.261719 329.953125 180.28125 328.308594 168.503906 322.09375 C 168.503906 322.09375 167.820312 322.667969 166.808594 323.214844 C 165.117188 324.128906 162.335938 324.046875 160.664062 323.097656 L 157.984375 321.574219 C 157.34375 321.210938 156.535156 321.550781 156.351562 322.257812 " fill-opacity="1" fill-rule="nonzero"/><path fill="#2b2b2b" d="M 156.351562 322.257812 L 156.355469 322.257812 Z M 157.429688 322.023438 C 157.363281 322.023438 157.292969 322.035156 157.226562 322.066406 C 157.078125 322.128906 156.96875 322.253906 156.929688 322.410156 C 156.425781 324.34375 155.410156 329.75 155.023438 332.839844 C 154.804688 334.558594 155.925781 336.167969 157.628906 336.585938 C 161.730469 337.59375 170.367188 337.671875 178.71875 337.746094 C 181.652344 337.769531 184.683594 337.800781 187.53125 337.863281 C 187.800781 337.882812 189.132812 337.8125 189.6875 336.066406 C 190.847656 332.429688 186.5625 330.5 178.894531 327.394531 C 175.722656 326.109375 172.140625 324.660156 168.566406 322.800781 C 168.253906 323.03125 167.738281 323.390625 167.097656 323.738281 C 165.253906 324.734375 162.238281 324.675781 160.371094 323.613281 L 157.6875 322.09375 C 157.605469 322.046875 157.519531 322.023438 157.429688 322.023438 Z M 187.566406 339.058594 C 187.546875 339.058594 187.527344 339.058594 187.503906 339.054688 C 184.664062 338.992188 181.636719 338.964844 178.707031 338.9375 C 169.898438 338.855469 161.582031 338.78125 157.34375 337.742188 C 155.054688 337.179688 153.550781 335.007812 153.839844 332.691406 C 154.246094 329.476562 155.257812 324.097656 155.773438 322.109375 C 155.90625 321.59375 156.269531 321.175781 156.761719 320.96875 C 157.257812 320.757812 157.808594 320.789062 158.277344 321.058594 L 160.960938 322.578125 C 162.484375 323.445312 165.035156 323.496094 166.527344 322.691406 C 167.464844 322.183594 168.113281 321.644531 168.117188 321.640625 L 168.425781 321.382812 L 168.78125 321.570312 C 172.414062 323.488281 176.097656 324.976562 179.34375 326.292969 C 186.625 329.238281 192.375 331.566406 190.824219 336.429688 C 190.203125 338.371094 188.699219 339.058594 187.566406 339.058594 " fill-opacity="1" fill-rule="nonzero"/><path fill="#ffffff" d="M 154.125 334.230469 C 154.117188 334.285156 154.109375 334.328125 154.105469 334.34375 C 153.851562 336.367188 155.8125 337.570312 157.679688 338.390625 C 163.335938 340.878906 186.253906 338.835938 186.253906 338.835938 C 186.253906 338.835938 189.328125 338.867188 190.144531 337.027344 C 190.265625 336.757812 190.320312 336.355469 190.347656 336.019531 C 190.378906 335.660156 190.339844 335.296875 190.253906 334.945312 L 190.050781 334.121094 C 186.933594 335.363281 172.890625 336.304688 162.703125 335.042969 C 158.429688 334.515625 155.953125 332.671875 154.527344 331.972656 C 154.527344 331.972656 154.328125 333.074219 154.125 334.230469 " fill-opacity="1" fill-rule="nonzero"/><path fill="#2b2b2b" d="M 154.710938 334.332031 L 154.699219 334.421875 C 154.53125 335.734375 155.527344 336.792969 157.921875 337.84375 C 163.375 340.246094 185.976562 338.265625 186.203125 338.242188 C 186.222656 338.242188 186.242188 338.242188 186.261719 338.242188 C 186.269531 338.242188 186.277344 338.242188 186.285156 338.242188 C 187.050781 338.242188 189.070312 337.984375 189.597656 336.785156 C 189.632812 336.710938 189.710938 336.484375 189.753906 335.972656 C 189.777344 335.6875 189.75 335.390625 189.675781 335.089844 L 189.625 334.886719 C 185.5 336.035156 172.292969 336.832031 162.632812 335.632812 C 159.050781 335.191406 156.714844 333.871094 155.167969 332.996094 C 155.101562 332.957031 155.035156 332.921875 154.972656 332.886719 C 154.898438 333.289062 154.804688 333.804688 154.710938 334.332031 Z M 169.421875 340.222656 C 164.414062 340.222656 159.675781 339.917969 157.441406 338.9375 C 155.605469 338.128906 153.199219 336.765625 153.515625 334.269531 C 153.519531 334.246094 153.527344 334.199219 153.539062 334.128906 C 153.539062 334.128906 153.539062 334.128906 153.539062 334.125 C 153.742188 332.96875 153.941406 331.863281 153.941406 331.863281 C 153.972656 331.679688 154.09375 331.523438 154.257812 331.4375 C 154.425781 331.355469 154.625 331.355469 154.792969 331.433594 C 155.078125 331.578125 155.390625 331.753906 155.753906 331.960938 C 157.21875 332.789062 159.433594 334.039062 162.777344 334.453125 C 172.859375 335.699219 186.769531 334.785156 189.832031 333.570312 C 189.992188 333.507812 190.171875 333.515625 190.324219 333.59375 C 190.476562 333.671875 190.589844 333.8125 190.628906 333.980469 L 190.835938 334.804688 C 190.9375 335.230469 190.976562 335.652344 190.941406 336.066406 C 190.902344 336.578125 190.816406 336.980469 190.691406 337.269531 C 189.765625 339.355469 186.652344 339.429688 186.28125 339.429688 C 185.507812 339.5 177.144531 340.222656 169.421875 340.222656 " fill-opacity="1" fill-rule="nonzero"/><path fill="#2b2b2b" d="M 169.78125 327.871094 C 169.605469 327.871094 169.429688 327.796875 169.3125 327.644531 C 169.105469 327.386719 169.152344 327.011719 169.410156 326.808594 L 172.722656 324.203125 C 172.984375 324 173.355469 324.042969 173.5625 324.300781 C 173.765625 324.5625 173.71875 324.933594 173.460938 325.136719 L 170.148438 327.746094 C 170.039062 327.832031 169.910156 327.871094 169.78125 327.871094 " fill-opacity="1" fill-rule="nonzero"/><path fill="#2b2b2b" d="M 174.285156 329.59375 C 174.109375 329.59375 173.933594 329.515625 173.816406 329.363281 C 173.613281 329.105469 173.664062 328.730469 173.921875 328.53125 L 176.820312 326.28125 C 177.082031 326.078125 177.457031 326.128906 177.65625 326.386719 C 177.859375 326.644531 177.8125 327.023438 177.550781 327.222656 L 174.652344 329.46875 C 174.546875 329.554688 174.414062 329.59375 174.285156 329.59375 " fill-opacity="1" fill-rule="nonzero"/><path fill="#2b2b2b" d="M 123.800781 234.644531 C 123.800781 234.644531 135.507812 237.21875 144.21875 243.214844 C 151.769531 248.410156 159.726562 258.351562 166.976562 310.4375 C 167.464844 313.933594 164.464844 316.4375 162.410156 316.914062 C 159.503906 317.589844 157.113281 317.324219 154.65625 315.738281 C 150.464844 313.035156 134.652344 272.96875 125.226562 264.46875 C 115.800781 255.96875 75.980469 254.152344 68.300781 243.332031 C 60.621094 232.511719 79.472656 232.511719 79.472656 232.511719 L 123.800781 234.644531 " fill-opacity="1" fill-rule="nonzero"/><path fill="#7f56d9" d="M 93.328125 266.429688 C 93.105469 266.429688 92.894531 266.304688 92.792969 266.097656 C 92.644531 265.804688 92.765625 265.445312 93.0625 265.300781 C 95.464844 264.109375 97.789062 262.882812 100.03125 261.699219 C 109.933594 256.472656 119.28125 251.539062 136.617188 248.519531 C 136.9375 248.460938 137.25 248.679688 137.304688 249 C 137.363281 249.324219 137.144531 249.632812 136.820312 249.691406 C 119.671875 252.675781 110.40625 257.570312 100.589844 262.75 C 98.339844 263.9375 96.007812 265.167969 93.589844 266.363281 C 93.507812 266.410156 93.414062 266.429688 93.328125 266.429688 " fill-opacity="1" fill-rule="nonzero"/><path fill="#5f4280" d="M 150.082031 171.890625 L 157.542969 171.890625 L 153.847656 197.195312 L 146.605469 197.195312 L 142.910156 171.890625 L 150.082031 171.890625 " fill-opacity="1" fill-rule="nonzero"/><path fill="#ffffff" d="M 40.742188 166.296875 C 42.726562 161.9375 47.996094 159.128906 52.09375 157.527344 C 54.925781 156.421875 57.929688 155.820312 60.96875 155.703125 L 71.714844 155.28125 C 75.777344 154.988281 80.554688 155.175781 85.777344 156.105469 C 92.710938 157.332031 98.933594 161.113281 103.355469 166.585938 C 105.355469 169.0625 107.121094 171.203125 107.261719 171.25 C 113.074219 179.394531 113.859375 180.832031 118.058594 183.871094 C 125.070312 188.949219 137.34375 184.808594 137.34375 184.808594 C 141.433594 184.195312 142.917969 187.246094 143.660156 188.941406 C 144.558594 190.976562 143.691406 193.457031 142.902344 195.054688 C 142.398438 196.074219 141.535156 196.871094 140.480469 197.296875 C 135.21875 199.441406 117.320312 206.117188 109.113281 201.472656 C 102.269531 197.597656 97.675781 189.519531 94.011719 185.550781 C 93.640625 185.148438 92.976562 185.445312 93.023438 185.988281 C 93.800781 194.90625 101.160156 205.496094 103.398438 208.535156 C 103.800781 209.078125 104.40625 209.429688 105.078125 209.507812 L 121.277344 211.347656 C 121.5 211.363281 121.742188 211.457031 121.980469 211.582031 C 123.042969 212.152344 123.734375 213.230469 123.894531 214.421875 C 124.148438 216.328125 123.988281 219.898438 123.402344 221.050781 L 122.847656 222.140625 C 122.398438 223.019531 121.5 223.582031 120.511719 223.597656 C 111.90625 223.738281 73.109375 223.75 62.574219 223.691406 C 52.9375 223.636719 49.070312 218.890625 43.925781 205.472656 C 41.882812 200.144531 35.457031 177.917969 40.742188 166.296875 " fill-opacity="1" fill-rule="nonzero"/><path fill="#2b2b2b" d="M 40.742188 166.296875 L 41.289062 166.539062 C 36.09375 177.964844 42.597656 200.335938 44.484375 205.261719 C 49.828125 219.210938 53.71875 223.042969 62.574219 223.09375 C 73.21875 223.15625 111.960938 223.140625 120.503906 223 C 121.273438 222.992188 121.964844 222.554688 122.316406 221.871094 L 122.871094 220.777344 C 123.378906 219.777344 123.550781 216.339844 123.304688 214.503906 C 123.164062 213.464844 122.566406 212.570312 121.699219 212.109375 C 121.449219 211.976562 121.300781 211.945312 121.234375 211.941406 L 105.011719 210.097656 C 104.179688 210.003906 103.417969 209.5625 102.917969 208.886719 C 100.65625 205.820312 93.21875 195.105469 92.429688 186.039062 C 92.386719 185.53125 92.660156 185.074219 93.121094 184.867188 C 93.585938 184.664062 94.105469 184.773438 94.449219 185.144531 C 95.523438 186.308594 96.683594 187.832031 97.914062 189.441406 C 100.910156 193.367188 104.640625 198.257812 109.40625 200.953125 C 117.367188 205.457031 135.03125 198.875 140.253906 196.75 C 141.175781 196.371094 141.929688 195.675781 142.367188 194.789062 C 143.144531 193.21875 143.90625 190.972656 143.117188 189.179688 C 142.175781 187.039062 140.769531 184.921875 137.484375 185.390625 C 136.476562 185.71875 124.726562 189.433594 117.710938 184.355469 C 113.859375 181.566406 112.816406 180.09375 108.414062 173.898438 C 107.925781 173.207031 107.394531 172.460938 106.8125 171.644531 C 106.460938 171.320312 105.605469 170.320312 102.890625 166.960938 C 98.5 161.527344 92.386719 157.882812 85.671875 156.691406 C 80.910156 155.847656 76.101562 155.566406 71.757812 155.875 L 60.992188 156.296875 C 57.964844 156.414062 55.042969 157.015625 52.3125 158.082031 C 48.332031 159.636719 43.1875 162.363281 41.289062 166.539062 Z M 82.226562 224.320312 C 73.84375 224.320312 66.394531 224.308594 62.570312 224.285156 C 52.21875 224.226562 48.28125 218.5 43.371094 205.6875 C 41.324219 200.34375 34.785156 177.960938 40.203125 166.046875 C 42.265625 161.507812 47.691406 158.605469 51.878906 156.972656 C 54.734375 155.855469 57.785156 155.230469 60.949219 155.105469 L 71.691406 154.683594 C 76.113281 154.367188 81.023438 154.65625 85.878906 155.515625 C 92.878906 156.757812 99.25 160.558594 103.820312 166.210938 C 106.574219 169.621094 107.34375 170.496094 107.554688 170.714844 L 107.628906 170.738281 L 107.75 170.902344 C 108.34375 171.738281 108.886719 172.503906 109.386719 173.207031 C 113.695312 179.277344 114.71875 180.71875 118.410156 183.386719 C 125.085938 188.226562 137.035156 184.285156 137.152344 184.242188 L 137.257812 184.21875 C 141.929688 183.523438 143.585938 187.285156 144.210938 188.699219 C 145.183594 190.914062 144.328125 193.519531 143.4375 195.316406 C 142.867188 196.464844 141.898438 197.367188 140.703125 197.851562 C 135.355469 200.027344 117.246094 206.761719 108.816406 201.992188 C 103.839844 199.171875 100.027344 194.175781 96.964844 190.164062 C 95.773438 188.601562 94.648438 187.128906 93.625 186.011719 C 94.425781 194.753906 101.671875 205.183594 103.878906 208.179688 C 104.179688 208.589844 104.644531 208.855469 105.148438 208.914062 L 121.34375 210.757812 C 121.609375 210.777344 121.917969 210.875 122.261719 211.058594 C 123.464844 211.703125 124.296875 212.929688 124.484375 214.34375 C 124.734375 216.222656 124.617188 219.976562 123.933594 221.320312 L 123.378906 222.410156 C 122.828125 223.488281 121.734375 224.171875 120.523438 224.195312 C 115.046875 224.28125 97.164062 224.320312 82.226562 224.320312 " fill-opacity="1" fill-rule="nonzero"/><path fill="#5f4280" d="M 127.605469 223.210938 L 146.40625 223.210938 L 146.40625 219.230469 C 146.40625 218.238281 145.601562 217.433594 144.605469 217.433594 L 129.40625 217.433594 C 128.414062 217.433594 127.605469 218.238281 127.605469 219.230469 L 127.605469 223.210938 " fill-opacity="1" fill-rule="nonzero"/><path fill="#ffffff" d="M 119.46875 215.175781 C 119.800781 214.527344 120.359375 214.011719 121.046875 213.765625 C 121.539062 213.589844 122.023438 213.355469 122.484375 213.109375 L 128.878906 209.726562 C 130.078125 209.140625 131.792969 210.503906 133.035156 210.914062 C 136.789062 212.144531 144.5625 215.039062 143.921875 217.761719 C 143.230469 220.699219 136.550781 219.308594 134.179688 218.71875 C 133.636719 218.582031 128.730469 220.355469 127.179688 220.472656 C 125.035156 220.632812 124.539062 220.089844 123.492188 219.539062 C 123.011719 219.289062 122.480469 219.175781 121.902344 219.175781 C 121.019531 219.167969 120.179688 218.796875 119.625 218.109375 L 119.613281 218.09375 C 119.003906 217.332031 118.898438 216.289062 119.34375 215.421875 L 119.46875 215.175781 " fill-opacity="1" fill-rule="nonzero"/><path fill="#2b2b2b" d="M 120 215.449219 L 119.871094 215.691406 C 119.535156 216.347656 119.617188 217.144531 120.078125 217.71875 C 120.515625 218.265625 121.179688 218.574219 121.90625 218.578125 C 122.601562 218.582031 123.226562 218.726562 123.769531 219.011719 C 123.941406 219.105469 124.101562 219.195312 124.253906 219.28125 C 124.984375 219.699219 125.511719 220 127.132812 219.878906 C 127.875 219.820312 129.636719 219.300781 131.050781 218.878906 C 133.332031 218.203125 133.953125 218.046875 134.324219 218.136719 C 138.277344 219.125 141.410156 219.242188 142.707031 218.453125 C 143.050781 218.246094 143.257812 217.972656 143.339844 217.625 C 143.703125 216.097656 139.582031 213.683594 132.851562 211.480469 C 132.4375 211.34375 132.007812 211.128906 131.554688 210.898438 C 130.691406 210.46875 129.714844 209.980469 129.144531 210.261719 L 122.761719 213.636719 C 122.183594 213.945312 121.699219 214.164062 121.246094 214.328125 C 120.714844 214.519531 120.269531 214.914062 120 215.449219 Z M 126.472656 221.09375 C 125.027344 221.09375 124.359375 220.714844 123.660156 220.316406 C 123.519531 220.234375 123.375 220.152344 123.214844 220.066406 C 122.835938 219.871094 122.40625 219.773438 121.898438 219.769531 C 120.808594 219.761719 119.8125 219.292969 119.160156 218.480469 C 118.394531 217.523438 118.261719 216.222656 118.8125 215.148438 L 118.9375 214.90625 C 119.347656 214.101562 120.023438 213.5 120.84375 213.207031 C 121.246094 213.0625 121.675781 212.867188 122.203125 212.585938 L 128.601562 209.199219 C 129.726562 208.648438 130.980469 209.28125 132.089844 209.835938 C 132.5 210.042969 132.890625 210.238281 133.222656 210.347656 C 141.265625 212.984375 145.0625 215.523438 144.503906 217.898438 C 144.347656 218.5625 143.949219 219.09375 143.328125 219.472656 C 141.167969 220.785156 136.625 219.9375 134.082031 219.304688 C 133.75 219.324219 132.445312 219.710938 131.390625 220.023438 C 129.769531 220.503906 128.09375 221 127.222656 221.066406 C 126.953125 221.085938 126.703125 221.09375 126.472656 221.09375 " fill-opacity="1" fill-rule="nonzero"/><path fill="#ffffff" d="M 155.726562 180.527344 C 152.898438 180.558594 151.90625 178.648438 150.109375 179.382812 C 148.546875 180.015625 144.03125 184.992188 139.238281 185.992188 C 137.792969 186.292969 136.707031 187.484375 136.519531 188.949219 C 136.410156 189.789062 136.402344 190.691406 136.65625 191.417969 C 137.328125 193.355469 137.53125 196.042969 145.570312 191.496094 C 145.570312 191.496094 146.988281 190.386719 150.949219 188.117188 C 150.949219 188.117188 151.445312 200.3125 159.335938 189.53125 C 160.761719 187.582031 161.234375 180.472656 155.726562 180.527344 " fill-opacity="1" fill-rule="nonzero"/><path fill="#2b2b2b" d="M 150.925781 179.808594 C 150.734375 179.808594 150.542969 179.847656 150.335938 179.933594 C 149.921875 180.101562 149.117188 180.75 148.183594 181.5 C 146.027344 183.238281 142.769531 185.863281 139.359375 186.574219 C 138.167969 186.824219 137.265625 187.808594 137.109375 189.023438 C 136.992188 189.9375 137.03125 190.675781 137.21875 191.222656 C 137.265625 191.355469 137.308594 191.488281 137.351562 191.621094 C 137.636719 192.507812 137.851562 193.0625 138.425781 193.285156 C 139.511719 193.703125 141.804688 192.9375 145.238281 191 C 145.496094 190.804688 147 189.691406 150.652344 187.601562 C 150.835938 187.496094 151.058594 187.496094 151.238281 187.597656 C 151.421875 187.695312 151.539062 187.886719 151.546875 188.09375 C 151.597656 189.308594 152.082031 192.871094 153.605469 193.335938 C 154.28125 193.539062 155.859375 193.269531 158.855469 189.179688 C 159.660156 188.078125 160.109375 185 159.078125 182.996094 C 158.429688 181.738281 157.292969 181.097656 155.730469 181.125 C 154.226562 181.15625 153.203125 180.660156 152.375 180.277344 C 151.765625 179.992188 151.34375 179.808594 150.925781 179.808594 Z M 139.113281 194.585938 C 138.691406 194.585938 138.320312 194.519531 137.992188 194.394531 C 136.851562 193.949219 136.5 192.863281 136.214844 191.988281 C 136.175781 191.859375 136.136719 191.734375 136.09375 191.613281 C 135.84375 190.890625 135.785156 189.96875 135.925781 188.871094 C 136.148438 187.15625 137.429688 185.761719 139.117188 185.410156 C 142.242188 184.757812 145.367188 182.238281 147.433594 180.574219 C 148.523438 179.699219 149.308594 179.0625 149.886719 178.828125 C 151.058594 178.355469 151.984375 178.78125 152.878906 179.195312 C 153.671875 179.5625 154.503906 179.957031 155.71875 179.933594 C 155.742188 179.933594 155.765625 179.933594 155.789062 179.933594 C 158.308594 179.933594 159.542969 181.300781 160.140625 182.453125 C 161.429688 184.957031 160.808594 188.527344 159.816406 189.882812 C 157.164062 193.507812 155.015625 195.007812 153.261719 194.472656 C 151.242188 193.859375 150.621094 190.746094 150.433594 189.105469 C 147.183594 191.003906 145.953125 191.953125 145.9375 191.964844 C 145.914062 191.984375 145.890625 192 145.863281 192.015625 C 142.78125 193.757812 140.625 194.585938 139.113281 194.585938 " fill-opacity="1" fill-rule="nonzero"/><path fill="#2b2b2b" d="M 98.175781 209.511719 C 98.152344 209.511719 98.125 209.511719 98.097656 209.507812 C 97.140625 209.378906 96.027344 209.269531 94.742188 209.140625 C 83.519531 208.015625 62.628906 205.925781 55.371094 183.824219 C 55.265625 183.511719 55.4375 183.175781 55.75 183.074219 C 56.0625 182.964844 56.398438 183.140625 56.5 183.453125 C 63.519531 204.816406 83.90625 206.859375 94.859375 207.953125 C 96.15625 208.085938 97.277344 208.195312 98.257812 208.328125 C 98.582031 208.371094 98.8125 208.671875 98.769531 208.996094 C 98.726562 209.296875 98.472656 209.511719 98.175781 209.511719 " fill-opacity="1" fill-rule="nonzero"/><path fill="#ffffff" d="M 147.015625 172.371094 C 146.757812 172.371094 146.519531 172.203125 146.441406 171.941406 L 142.863281 159.480469 L 136.570312 156.257812 C 136.28125 156.105469 136.164062 155.75 136.3125 155.457031 C 136.464844 155.164062 136.824219 155.046875 137.117188 155.195312 L 143.636719 158.539062 C 143.785156 158.617188 143.894531 158.746094 143.941406 158.90625 L 147.589844 171.609375 C 147.679688 171.929688 147.496094 172.257812 147.179688 172.347656 C 147.125 172.363281 147.070312 172.371094 147.015625 172.371094 " fill-opacity="1" fill-rule="nonzero"/><path fill="#5f4280" d="M 157.542969 171.890625 L 155.875 183.316406 C 155.863281 183.34375 155.851562 183.367188 155.839844 183.398438 C 155.617188 184.132812 154.753906 184.710938 154.21875 185.230469 C 153.515625 185.914062 152.816406 186.621094 152.160156 187.347656 C 151.539062 188.03125 150.851562 188.847656 150.546875 189.738281 C 150.273438 190.3125 150.285156 190.949219 150.519531 191.5 C 150.566406 191.859375 150.726562 192.199219 150.960938 192.496094 C 151.503906 193.777344 152.839844 194.707031 154.195312 194.832031 L 153.847656 197.195312 L 146.605469 197.195312 L 142.910156 171.890625 L 157.542969 171.890625 " fill-opacity="1" fill-rule="nonzero"/><path fill="#ffffff" d="M 138.886719 186.128906 C 138.886719 186.128906 144.15625 184.785156 145.546875 181.476562 C 147.199219 177.558594 150.808594 179.5625 150.386719 182.296875 C 149.949219 185.140625 148.957031 185.847656 147.277344 187.019531 C 145.621094 188.175781 144.941406 188.109375 144.941406 188.109375 L 138.886719 186.128906 " fill-opacity="1" fill-rule="nonzero"/><path fill="#2b2b2b" d="M 144.308594 189.117188 C 144.042969 189.117188 143.804688 188.941406 143.730469 188.671875 C 143.648438 188.355469 143.839844 188.03125 144.15625 187.945312 C 144.167969 187.941406 145.402344 187.605469 146.9375 186.53125 C 148.574219 185.390625 149.394531 184.8125 149.796875 182.203125 C 149.972656 181.066406 149.265625 180.15625 148.484375 179.9375 C 147.570312 179.679688 146.675781 180.339844 146.097656 181.707031 C 144.609375 185.25 139.261719 186.648438 139.03125 186.707031 C 138.714844 186.789062 138.390625 186.597656 138.308594 186.277344 C 138.226562 185.957031 138.417969 185.636719 138.738281 185.554688 C 138.785156 185.539062 143.738281 184.238281 144.996094 181.246094 C 145.976562 178.917969 147.613281 178.449219 148.808594 178.789062 C 150.296875 179.210938 151.226562 180.753906 150.976562 182.386719 C 150.496094 185.5 149.289062 186.339844 147.621094 187.507812 C 145.898438 188.710938 144.515625 189.082031 144.460938 189.097656 C 144.410156 189.113281 144.359375 189.117188 144.308594 189.117188 " fill-opacity="1" fill-rule="nonzero"/><path fill="#2b2b2b" d="M 151.113281 190.507812 C 150.832031 190.507812 150.582031 190.3125 150.527344 190.027344 C 149.914062 186.863281 153.953125 184.5 154.128906 184.398438 C 154.414062 184.234375 154.777344 184.335938 154.941406 184.617188 C 155.105469 184.902344 155.007812 185.265625 154.722656 185.429688 C 154.6875 185.453125 151.246094 187.472656 151.699219 189.796875 C 151.761719 190.125 151.550781 190.433594 151.226562 190.5 C 151.1875 190.507812 151.152344 190.507812 151.113281 190.507812 " fill-opacity="1" fill-rule="nonzero"/><path fill="#ffffff" d="M 77.15625 151.839844 C 77.316406 151.273438 77.820312 150.871094 78.40625 150.847656 L 82.796875 150.703125 C 83.359375 150.679688 83.835938 150.285156 83.964844 149.734375 L 85.152344 144.746094 L 87.128906 143.851562 C 87.28125 143.78125 87.351562 143.597656 87.289062 143.441406 L 85.734375 139.714844 C 85.273438 138.347656 85.289062 135.410156 84.570312 135.394531 C 84.570312 135.394531 71.164062 129.566406 68.25 136.230469 C 67.808594 137.234375 67.785156 138.378906 68.136719 139.421875 L 68.851562 141.546875 C 69.566406 143.667969 69.570312 146.007812 68.695312 148.078125 C 68.515625 148.511719 67.832031 149.910156 66.714844 151.59375 C 65.773438 153.011719 63.804688 154.480469 62.390625 155.425781 C 61.589844 155.960938 61.539062 157.117188 62.285156 157.71875 C 63.738281 158.890625 65.929688 160.53125 67.511719 161.167969 C 71.242188 162.671875 73.125 163.058594 75.03125 162.851562 C 76.882812 162.644531 77.9375 160.753906 77.296875 159.003906 C 75.96875 155.371094 77.15625 151.839844 77.15625 151.839844 " fill-opacity="1" fill-rule="nonzero"/><path fill="#2b2b2b" d="M 77.15625 151.839844 L 77.160156 151.839844 Z M 74.433594 133.625 C 71.957031 133.625 69.738281 134.320312 68.796875 136.46875 C 68.421875 137.324219 68.390625 138.300781 68.703125 139.230469 L 69.417969 141.355469 C 70.207031 143.707031 70.148438 146.175781 69.246094 148.308594 C 69.023438 148.835938 68.316406 150.265625 67.214844 151.921875 C 66.226562 153.40625 64.226562 154.914062 62.71875 155.921875 C 62.5 156.066406 62.363281 156.304688 62.351562 156.570312 C 62.339844 156.839844 62.453125 157.089844 62.660156 157.257812 C 64.769531 158.957031 66.570312 160.148438 67.734375 160.617188 C 71.289062 162.046875 73.113281 162.460938 74.964844 162.257812 C 75.632812 162.183594 76.195312 161.832031 76.546875 161.269531 C 76.921875 160.660156 76.992188 159.910156 76.734375 159.207031 C 75.378906 155.496094 76.492188 151.941406 76.585938 151.660156 C 76.824219 150.851562 77.542969 150.289062 78.382812 150.253906 L 82.777344 150.109375 C 83.066406 150.097656 83.316406 149.886719 83.386719 149.597656 L 84.570312 144.605469 C 84.613281 144.425781 84.734375 144.277344 84.90625 144.203125 L 86.632812 143.417969 L 85.183594 139.945312 C 85.179688 139.933594 85.175781 139.917969 85.167969 139.90625 C 84.976562 139.335938 84.867188 138.5625 84.757812 137.8125 C 84.667969 137.183594 84.535156 136.25 84.378906 135.957031 C 84.363281 135.953125 84.351562 135.945312 84.335938 135.9375 C 84.25 135.902344 78.921875 133.625 74.433594 133.625 Z M 74.078125 163.5 C 72.328125 163.5 70.433594 162.988281 67.289062 161.722656 C 65.664062 161.066406 63.46875 159.433594 61.914062 158.183594 C 61.40625 157.777344 61.132812 157.167969 61.160156 156.519531 C 61.191406 155.871094 61.515625 155.292969 62.058594 154.929688 C 63.472656 153.988281 65.339844 152.585938 66.21875 151.261719 C 67.3125 149.621094 67.980469 148.242188 68.148438 147.847656 C 68.933594 145.980469 68.984375 143.808594 68.285156 141.734375 L 67.570312 139.609375 C 67.164062 138.402344 67.210938 137.117188 67.703125 135.992188 C 70.726562 129.082031 83.441406 134.265625 84.722656 134.808594 C 85.554688 134.945312 85.726562 136.148438 85.941406 137.644531 C 86.039062 138.332031 86.140625 139.039062 86.292969 139.507812 L 87.839844 143.214844 C 88.027344 143.667969 87.824219 144.1875 87.375 144.390625 L 85.664062 145.164062 L 84.546875 149.871094 C 84.355469 150.679688 83.644531 151.265625 82.820312 151.300781 L 78.425781 151.445312 C 78.101562 151.457031 77.820312 151.679688 77.726562 152.003906 C 77.726562 152.011719 77.722656 152.019531 77.71875 152.027344 C 77.703125 152.074219 76.621094 155.421875 77.855469 158.800781 C 78.238281 159.847656 78.132812 160.976562 77.558594 161.898438 C 77.019531 162.765625 76.121094 163.328125 75.097656 163.441406 C 74.757812 163.480469 74.417969 163.5 74.078125 163.5 " fill-opacity="1" fill-rule="nonzero"/><path fill="#2b2b2b" d="M 88.296875 124.855469 C 85.152344 123.71875 88.195312 128.21875 77.386719 121.234375 C 73.082031 118.453125 73.828125 124.679688 72.710938 123.960938 C 68.578125 121.308594 68.722656 121.394531 66.34375 121.320312 C 64.765625 121.273438 63.015625 123.691406 62.691406 125.792969 C 62.261719 128.5625 64.753906 135.230469 66.699219 140.335938 C 67.703125 142.96875 71.371094 144.308594 73 141.214844 C 73.449219 140.359375 71.527344 137.652344 73.015625 136.542969 C 75.753906 134.5 75.816406 138.738281 77.933594 138.15625 C 79.96875 137.59375 80.886719 137.109375 83.1875 136.027344 C 85.96875 134.714844 88.691406 138.90625 91.3125 134.839844 C 92.675781 132.722656 92.605469 126.410156 88.296875 124.855469 " fill-opacity="1" fill-rule="nonzero"/><path fill="#ffffff" d="M 84.964844 338.292969 L 57.878906 244.875 L 30.796875 338.292969 L 24.304688 338.292969 L 54.0625 232.878906 L 61.695312 232.871094 L 91.457031 338.292969 L 84.964844 338.292969 " fill-opacity="1" fill-rule="nonzero"/><path fill="#2b2b2b" d="M 85.410156 337.695312 L 90.667969 337.695312 L 61.246094 233.464844 L 54.515625 233.472656 L 25.09375 337.695312 L 30.347656 337.695312 L 57.878906 242.730469 Z M 92.242188 338.886719 L 84.515625 338.886719 L 57.878906 247.011719 L 31.246094 338.886719 L 23.519531 338.886719 L 53.609375 232.285156 L 62.148438 232.273438 L 92.242188 338.886719 " fill-opacity="1" fill-rule="nonzero"/><path fill="#ffffff" d="M 24.246094 234.457031 L 230.519531 234.457031 L 230.519531 224.308594 L 24.246094 224.308594 L 24.246094 234.457031 " fill-opacity="1" fill-rule="nonzero"/><path fill="#2b2b2b" d="M 24.839844 233.863281 L 229.921875 233.863281 L 229.921875 224.902344 L 24.839844 224.902344 Z M 231.113281 235.054688 L 23.648438 235.054688 L 23.648438 223.710938 L 231.113281 223.710938 L 231.113281 235.054688 " fill-opacity="1" fill-rule="nonzero"/><path fill="#5f4280" d="M 84.757812 232.667969 C 84.425781 232.667969 84.160156 232.402344 84.160156 232.074219 L 84.160156 226.421875 C 84.160156 226.09375 84.425781 225.824219 84.757812 225.824219 C 85.085938 225.824219 85.351562 226.09375 85.351562 226.421875 L 85.351562 232.074219 C 85.351562 232.402344 85.085938 232.667969 84.757812 232.667969 " fill-opacity="1" fill-rule="nonzero"/></svg>