<svg xmlns="http://www.w3.org/2000/svg" xmlns:xlink="http://www.w3.org/1999/xlink" width="500" zoomAndPan="magnify" viewBox="0 0 375 374.999991" height="500" preserveAspectRatio="xMidYMid meet" version="1.0"><path fill="#7f56d9" d="M 89.511719 37.457031 C 159.746094 0.136719 253.835938 38.910156 302.863281 81.894531 C 316.875 94.171875 350.835938 124.808594 358.855469 173.90625 C 368.816406 234.894531 336.207031 308.816406 261.421875 340.4375 C 180.019531 374.851562 89.003906 342.234375 46.40625 289.289062 C 6.566406 239.773438 14.539062 181.464844 17.386719 160.636719 C 20.730469 136.199219 30.671875 68.726562 89.511719 37.457031 " fill-opacity="1" fill-rule="nonzero"/><path fill="#c3c3ff" d="M 244.238281 67.8125 C 244.238281 43.039062 264.34375 22.960938 289.140625 22.960938 C 313.933594 22.960938 334.039062 43.039062 334.039062 67.8125 C 334.039062 92.582031 313.933594 112.664062 289.140625 112.664062 C 264.34375 112.664062 244.238281 92.582031 244.238281 67.8125 " fill-opacity="1" fill-rule="nonzero"/><path fill="#ffffff" d="M 253.074219 67.8125 C 253.074219 47.917969 269.21875 31.789062 289.136719 31.789062 C 309.050781 31.789062 325.199219 47.917969 325.199219 67.8125 C 325.199219 87.707031 309.050781 103.835938 289.136719 103.835938 C 269.21875 103.835938 253.074219 87.707031 253.074219 67.8125 " fill-opacity="1" fill-rule="nonzero"/><path fill="#c3c3ff" d="M 261.398438 67.8125 C 261.398438 52.507812 273.816406 40.101562 289.140625 40.101562 C 304.460938 40.101562 316.878906 52.507812 316.878906 67.8125 C 316.878906 83.117188 304.460938 95.519531 289.140625 95.519531 C 273.816406 95.519531 261.398438 83.117188 261.398438 67.8125 " fill-opacity="1" fill-rule="nonzero"/><path fill="#ffffff" d="M 271.226562 67.808594 C 271.226562 57.929688 279.246094 49.917969 289.136719 49.917969 C 299.03125 49.917969 307.050781 57.929688 307.050781 67.808594 C 307.050781 77.695312 299.03125 85.703125 289.136719 85.703125 C 279.246094 85.703125 271.226562 77.695312 271.226562 67.808594 " fill-opacity="1" fill-rule="nonzero"/><path fill="#78299d" d="M 279.355469 67.8125 C 279.355469 62.414062 283.738281 58.039062 289.136719 58.039062 C 294.542969 58.039062 298.917969 62.414062 298.917969 67.8125 C 298.917969 73.210938 294.542969 77.582031 289.136719 77.582031 C 283.738281 77.582031 279.355469 73.210938 279.355469 67.8125 " fill-opacity="1" fill-rule="nonzero"/><path fill="#78299d" d="M 248.171875 50.0625 C 248.085938 50.0625 248 50.039062 247.914062 50.003906 C 247.597656 49.863281 247.457031 49.492188 247.601562 49.175781 C 252.234375 38.882812 260.484375 30.710938 270.820312 26.167969 C 271.136719 26.027344 271.507812 26.171875 271.644531 26.488281 C 271.785156 26.804688 271.640625 27.171875 271.324219 27.3125 C 261.269531 31.734375 253.25 39.679688 248.738281 49.691406 C 248.636719 49.921875 248.40625 50.0625 248.171875 50.0625 " fill-opacity="1" fill-rule="nonzero"/><path fill="#78299d" d="M 262.644531 76.675781 C 262.378906 76.675781 262.128906 76.507812 262.046875 76.238281 C 261.203125 73.519531 260.773438 70.683594 260.773438 67.8125 C 260.773438 67.46875 261.050781 67.1875 261.398438 67.1875 C 261.746094 67.1875 262.023438 67.46875 262.023438 67.8125 C 262.023438 70.558594 262.429688 73.269531 263.242188 75.867188 C 263.34375 76.199219 263.160156 76.546875 262.832031 76.648438 C 262.769531 76.667969 262.707031 76.675781 262.644531 76.675781 " fill-opacity="1" fill-rule="nonzero"/><path fill="#78299d" d="M 316.3125 62.851562 C 316.023438 62.851562 315.761719 62.644531 315.703125 62.351562 C 314.46875 56.332031 311.160156 50.84375 306.386719 46.910156 C 306.121094 46.691406 306.082031 46.296875 306.300781 46.03125 C 306.523438 45.765625 306.914062 45.726562 307.183594 45.945312 C 312.175781 50.0625 315.636719 55.800781 316.929688 62.101562 C 316.996094 62.441406 316.777344 62.769531 316.441406 62.839844 C 316.398438 62.847656 316.355469 62.851562 316.3125 62.851562 " fill-opacity="1" fill-rule="nonzero"/><path fill="#78299d" d="M 261.398438 68.4375 C 261.050781 68.4375 260.773438 68.15625 260.773438 67.8125 C 260.773438 52.1875 273.496094 39.476562 289.136719 39.476562 C 292.09375 39.476562 295 39.925781 297.789062 40.820312 C 298.117188 40.921875 298.300781 41.277344 298.195312 41.605469 C 298.089844 41.933594 297.738281 42.113281 297.410156 42.007812 C 294.746094 41.15625 291.960938 40.726562 289.136719 40.726562 C 274.1875 40.726562 262.023438 52.875 262.023438 67.8125 C 262.023438 68.15625 261.746094 68.4375 261.398438 68.4375 " fill-opacity="1" fill-rule="nonzero"/><path fill="#78299d" d="M 360.261719 82.601562 C 341.039062 86.699219 335.535156 69.480469 309.597656 82.601562 L 309.597656 49.796875 C 328.898438 43.863281 340.59375 52.757812 360.261719 49.796875 L 353.023438 66.042969 L 360.261719 82.601562 " fill-opacity="1" fill-rule="nonzero"/><path fill="#000000" d="M 308.976562 131.273438 L 308.105469 131.273438 C 307.417969 131.273438 306.855469 130.714844 306.855469 130.027344 L 306.855469 47.925781 C 306.855469 47.234375 307.417969 46.675781 308.105469 46.675781 L 308.976562 46.675781 C 309.664062 46.675781 310.226562 47.234375 310.226562 47.925781 L 310.226562 130.027344 C 310.226562 130.714844 309.664062 131.273438 308.976562 131.273438 " fill-opacity="1" fill-rule="nonzero"/><path fill="#ffffff" d="M 291.511719 361.9375 L 272.203125 361.9375 L 272.203125 124.777344 L 291.320312 123.429688 L 291.511719 361.9375 " fill-opacity="1" fill-rule="nonzero"/><path fill="#000000" d="M 272.828125 361.3125 L 290.890625 361.3125 L 290.699219 124.097656 L 272.828125 125.355469 Z M 291.515625 362.5625 L 272.203125 362.5625 C 271.855469 362.5625 271.578125 362.28125 271.578125 361.9375 L 271.578125 124.773438 C 271.578125 124.449219 271.832031 124.175781 272.160156 124.152344 L 291.28125 122.804688 C 291.449219 122.789062 291.621094 122.851562 291.75 122.96875 C 291.875 123.089844 291.949219 123.253906 291.949219 123.425781 L 292.140625 361.9375 C 292.140625 362.101562 292.074219 362.261719 291.957031 362.378906 C 291.84375 362.496094 291.683594 362.5625 291.515625 362.5625 " fill-opacity="1" fill-rule="nonzero"/><path fill="#c3c3ff" d="M 343.300781 361.9375 L 291.511719 361.9375 C 291.40625 361.9375 291.320312 361.816406 291.320312 361.667969 L 291.320312 123.707031 C 291.320312 123.554688 291.414062 123.433594 291.519531 123.4375 L 343.308594 126.167969 C 343.410156 126.175781 343.496094 126.292969 343.496094 126.441406 L 343.496094 361.667969 C 343.496094 361.816406 343.40625 361.9375 343.300781 361.9375 " fill-opacity="1" fill-rule="nonzero"/><path fill="#000000" d="M 291.945312 361.3125 L 342.871094 361.3125 L 342.871094 126.769531 L 291.945312 124.085938 Z M 343.300781 362.5625 L 291.515625 362.5625 C 291.054688 362.5625 290.699219 362.167969 290.699219 361.667969 L 290.699219 123.707031 C 290.699219 123.445312 290.800781 123.199219 290.976562 123.03125 C 291.136719 122.878906 291.34375 122.804688 291.554688 122.8125 L 343.339844 125.546875 C 343.777344 125.566406 344.121094 125.960938 344.121094 126.4375 L 344.121094 361.667969 C 344.121094 362.167969 343.761719 362.5625 343.300781 362.5625 " fill-opacity="1" fill-rule="nonzero"/><path fill="#7f56d9" d="M 326.304688 238.234375 C 325.957031 238.234375 325.675781 237.953125 325.675781 237.605469 L 325.675781 141.296875 C 325.675781 140.953125 325.957031 140.671875 326.304688 140.671875 C 326.648438 140.671875 326.925781 140.953125 326.925781 141.296875 L 326.925781 237.605469 C 326.925781 237.953125 326.648438 238.234375 326.304688 238.234375 " fill-opacity="1" fill-rule="nonzero"/><path fill="#7f56d9" d="M 309.921875 203.914062 C 309.574219 203.914062 309.292969 203.636719 309.292969 203.292969 L 309.292969 174.878906 C 309.292969 174.53125 309.574219 174.25 309.921875 174.25 C 310.265625 174.25 310.546875 174.53125 310.546875 174.878906 L 310.546875 203.292969 C 310.546875 203.636719 310.265625 203.914062 309.921875 203.914062 " fill-opacity="1" fill-rule="nonzero"/><path fill="#7f56d9" d="M 309.921875 301.339844 C 309.574219 301.339844 309.292969 301.058594 309.292969 300.714844 L 309.292969 251.6875 C 309.292969 251.339844 309.574219 251.0625 309.921875 251.0625 C 310.265625 251.0625 310.546875 251.339844 310.546875 251.6875 L 310.546875 300.714844 C 310.546875 301.058594 310.265625 301.339844 309.921875 301.339844 " fill-opacity="1" fill-rule="nonzero"/><path fill="#ffffff" d="M 226.390625 361.964844 L 207.164062 361.964844 L 207.164062 184.910156 L 226.285156 178.875 L 226.390625 361.964844 " fill-opacity="1" fill-rule="nonzero"/><path fill="#000000" d="M 207.792969 361.339844 L 225.765625 361.339844 L 225.660156 179.730469 L 207.792969 185.367188 Z M 226.390625 362.589844 L 207.164062 362.589844 C 206.820312 362.589844 206.539062 362.308594 206.539062 361.964844 L 206.539062 184.910156 C 206.539062 184.636719 206.71875 184.394531 206.976562 184.3125 L 226.097656 178.28125 C 226.285156 178.21875 226.496094 178.253906 226.65625 178.371094 C 226.816406 178.488281 226.910156 178.675781 226.910156 178.875 L 227.015625 361.964844 C 227.015625 362.128906 226.949219 362.289062 226.832031 362.40625 C 226.714844 362.523438 226.554688 362.589844 226.390625 362.589844 " fill-opacity="1" fill-rule="nonzero"/><path fill="#c3c3ff" d="M 278.261719 361.964844 L 226.480469 361.964844 C 226.371094 361.964844 226.285156 361.871094 226.285156 361.757812 L 226.285156 179.089844 C 226.285156 178.972656 226.378906 178.882812 226.484375 178.882812 L 278.273438 180.980469 C 278.375 180.984375 278.457031 181.078125 278.457031 181.1875 L 278.457031 361.757812 C 278.457031 361.871094 278.371094 361.964844 278.261719 361.964844 " fill-opacity="1" fill-rule="nonzero"/><path fill="#000000" d="M 226.910156 361.339844 L 277.832031 361.339844 L 277.832031 181.589844 L 226.910156 179.527344 Z M 278.265625 362.589844 L 226.480469 362.589844 C 226.03125 362.589844 225.660156 362.21875 225.660156 361.757812 L 225.660156 179.089844 C 225.660156 178.859375 225.753906 178.640625 225.917969 178.484375 C 226.074219 178.332031 226.292969 178.246094 226.511719 178.257812 L 278.296875 180.355469 C 278.738281 180.371094 279.085938 180.738281 279.085938 181.183594 L 279.085938 361.757812 C 279.085938 362.21875 278.71875 362.589844 278.265625 362.589844 " fill-opacity="1" fill-rule="nonzero"/><path fill="#7f56d9" d="M 252.382812 274.746094 C 252.039062 274.746094 251.757812 274.46875 251.757812 274.121094 L 251.757812 193.019531 C 251.757812 192.675781 252.039062 192.398438 252.382812 192.398438 C 252.730469 192.398438 253.007812 192.675781 253.007812 193.019531 L 253.007812 274.121094 C 253.007812 274.46875 252.730469 274.746094 252.382812 274.746094 " fill-opacity="1" fill-rule="nonzero"/><path fill="#7f56d9" d="M 238.710938 220.109375 C 238.367188 220.109375 238.085938 219.832031 238.085938 219.484375 L 238.085938 205.660156 C 238.085938 205.316406 238.367188 205.039062 238.710938 205.039062 C 239.054688 205.039062 239.335938 205.316406 239.335938 205.660156 L 239.335938 219.484375 C 239.335938 219.832031 239.054688 220.109375 238.710938 220.109375 " fill-opacity="1" fill-rule="nonzero"/><path fill="#7f56d9" d="M 238.710938 311.832031 C 238.367188 311.832031 238.085938 311.550781 238.085938 311.207031 L 238.085938 242.347656 C 238.085938 242.003906 238.367188 241.726562 238.710938 241.726562 C 239.054688 241.726562 239.335938 242.003906 239.335938 242.347656 L 239.335938 311.207031 C 239.335938 311.550781 239.054688 311.832031 238.710938 311.832031 " fill-opacity="1" fill-rule="nonzero"/><path fill="#7f56d9" d="M 266.054688 247.363281 C 265.710938 247.363281 265.429688 247.082031 265.429688 246.738281 L 265.429688 232.914062 C 265.429688 232.570312 265.710938 232.292969 266.054688 232.292969 C 266.398438 232.292969 266.679688 232.570312 266.679688 232.914062 L 266.679688 246.738281 C 266.679688 247.082031 266.398438 247.363281 266.054688 247.363281 " fill-opacity="1" fill-rule="nonzero"/><path fill="#ffffff" d="M 161.722656 361.964844 L 142.601562 361.964844 L 142.601562 260.203125 L 161.722656 256.015625 L 161.722656 361.964844 " fill-opacity="1" fill-rule="nonzero"/><path fill="#000000" d="M 143.226562 361.339844 L 161.097656 361.339844 L 161.097656 256.792969 L 143.226562 260.707031 Z M 161.722656 362.589844 L 142.601562 362.589844 C 142.257812 362.589844 141.976562 362.308594 141.976562 361.964844 L 141.976562 260.203125 C 141.976562 259.910156 142.179688 259.65625 142.46875 259.59375 L 161.589844 255.402344 C 161.773438 255.363281 161.964844 255.410156 162.113281 255.527344 C 162.261719 255.644531 162.347656 255.828125 162.347656 256.015625 L 162.347656 361.964844 C 162.347656 362.308594 162.066406 362.589844 161.722656 362.589844 " fill-opacity="1" fill-rule="nonzero"/><path fill="#c3c3ff" d="M 213.894531 361.964844 L 161.722656 361.964844 L 161.722656 256.238281 C 161.722656 256.117188 161.820312 256.019531 161.941406 256.023438 L 213.894531 257.761719 L 213.894531 361.964844 " fill-opacity="1" fill-rule="nonzero"/><path fill="#000000" d="M 162.347656 361.339844 L 213.269531 361.339844 L 213.269531 258.363281 L 162.347656 256.660156 Z M 214.519531 362.589844 L 161.097656 362.589844 L 161.097656 256.238281 C 161.097656 256.011719 161.191406 255.789062 161.351562 255.632812 C 161.515625 255.476562 161.734375 255.386719 161.964844 255.398438 L 214.519531 257.15625 L 214.519531 362.589844 " fill-opacity="1" fill-rule="nonzero"/><path fill="#7f56d9" d="M 175.589844 332.421875 C 175.246094 332.421875 174.964844 332.140625 174.964844 331.796875 L 174.964844 268.675781 C 174.964844 268.332031 175.246094 268.050781 175.589844 268.050781 C 175.9375 268.050781 176.214844 268.332031 176.214844 268.675781 L 176.214844 331.796875 C 176.214844 332.140625 175.9375 332.421875 175.589844 332.421875 " fill-opacity="1" fill-rule="nonzero"/><path fill="#7f56d9" d="M 202.933594 339.804688 C 202.589844 339.804688 202.308594 339.523438 202.308594 339.179688 L 202.308594 276.058594 C 202.308594 275.710938 202.589844 275.433594 202.933594 275.433594 C 203.277344 275.433594 203.558594 275.710938 203.558594 276.058594 L 203.558594 339.179688 C 203.558594 339.523438 203.277344 339.804688 202.933594 339.804688 " fill-opacity="1" fill-rule="nonzero"/><path fill="#7f56d9" d="M 189.261719 315.074219 C 188.917969 315.074219 188.636719 314.792969 188.636719 314.445312 L 188.636719 301.527344 C 188.636719 301.183594 188.917969 300.902344 189.261719 300.902344 C 189.609375 300.902344 189.886719 301.183594 189.886719 301.527344 L 189.886719 314.445312 C 189.886719 314.792969 189.609375 315.074219 189.261719 315.074219 " fill-opacity="1" fill-rule="nonzero"/><path fill="#ffffff" d="M 97.421875 361.964844 L 78.121094 361.964844 L 78.121094 311.492188 L 97.242188 307.726562 L 97.421875 361.964844 " fill-opacity="1" fill-rule="nonzero"/><path fill="#000000" d="M 78.746094 361.339844 L 96.796875 361.339844 L 96.617188 308.488281 L 78.746094 312.007812 Z M 97.421875 362.589844 L 78.121094 362.589844 C 77.777344 362.589844 77.496094 362.308594 77.496094 361.964844 L 77.496094 311.492188 C 77.496094 311.195312 77.707031 310.9375 78 310.882812 L 97.121094 307.117188 C 97.304688 307.078125 97.492188 307.128906 97.636719 307.246094 C 97.78125 307.363281 97.867188 307.539062 97.867188 307.726562 L 98.046875 361.964844 C 98.050781 362.128906 97.984375 362.289062 97.867188 362.40625 C 97.75 362.523438 97.589844 362.589844 97.421875 362.589844 " fill-opacity="1" fill-rule="nonzero"/><path fill="#c3c3ff" d="M 149.230469 361.964844 L 97.421875 361.964844 C 97.324219 361.964844 97.242188 361.882812 97.242188 361.78125 L 97.242188 307.914062 C 97.242188 307.8125 97.324219 307.730469 97.425781 307.730469 L 149.234375 308.574219 C 149.332031 308.578125 149.414062 308.660156 149.414062 308.757812 L 149.414062 361.78125 C 149.414062 361.882812 149.332031 361.964844 149.230469 361.964844 " fill-opacity="1" fill-rule="nonzero"/><path fill="#000000" d="M 97.867188 361.339844 L 148.789062 361.339844 L 148.789062 309.195312 L 97.867188 308.363281 Z M 149.230469 362.589844 L 97.421875 362.589844 C 96.976562 362.589844 96.617188 362.226562 96.617188 361.78125 L 96.617188 307.914062 C 96.617188 307.695312 96.699219 307.492188 96.855469 307.335938 C 97.011719 307.1875 97.21875 307.109375 97.4375 307.105469 L 149.246094 307.953125 C 149.683594 307.957031 150.039062 308.320312 150.039062 308.757812 L 150.039062 361.78125 C 150.039062 362.226562 149.675781 362.589844 149.230469 362.589844 " fill-opacity="1" fill-rule="nonzero"/><path fill="#7f56d9" d="M 133.644531 349.769531 C 133.300781 349.769531 133.019531 349.492188 133.019531 349.148438 L 133.019531 317.03125 C 133.019531 316.683594 133.300781 316.40625 133.644531 316.40625 C 133.992188 316.40625 134.269531 316.683594 134.269531 317.03125 L 134.269531 349.148438 C 134.269531 349.492188 133.992188 349.769531 133.644531 349.769531 " fill-opacity="1" fill-rule="nonzero"/><path fill="#7f56d9" d="M 117.265625 338.328125 C 116.917969 338.328125 116.640625 338.046875 116.640625 337.703125 L 116.640625 328.226562 C 116.640625 327.882812 116.917969 327.605469 117.265625 327.605469 C 117.609375 327.605469 117.890625 327.882812 117.890625 328.226562 L 117.890625 337.703125 C 117.890625 338.046875 117.609375 338.328125 117.265625 338.328125 " fill-opacity="1" fill-rule="nonzero"/><path fill="#ffffff" d="M 33.097656 361.964844 L 13.796875 361.964844 L 13.796875 335.53125 L 32.914062 332.3125 L 33.097656 361.964844 " fill-opacity="1" fill-rule="nonzero"/><path fill="#000000" d="M 14.421875 361.339844 L 32.46875 361.339844 L 32.292969 333.046875 L 14.421875 336.0625 Z M 33.097656 362.589844 L 13.796875 362.589844 C 13.449219 362.589844 13.167969 362.308594 13.167969 361.964844 L 13.167969 335.53125 C 13.167969 335.230469 13.390625 334.96875 13.691406 334.917969 L 32.8125 331.695312 C 32.992188 331.664062 33.175781 331.714844 33.316406 331.832031 C 33.457031 331.949219 33.539062 332.121094 33.542969 332.308594 L 33.722656 361.960938 C 33.722656 362.128906 33.660156 362.289062 33.542969 362.40625 C 33.421875 362.523438 33.265625 362.589844 33.097656 362.589844 " fill-opacity="1" fill-rule="nonzero"/><path fill="#c3c3ff" d="M 84.90625 361.964844 L 33.097656 361.964844 C 32.996094 361.964844 32.914062 361.917969 32.914062 361.863281 L 32.914062 332.410156 C 32.914062 332.355469 33 332.3125 33.101562 332.3125 L 84.910156 332.773438 C 85.007812 332.773438 85.089844 332.820312 85.089844 332.875 L 85.089844 361.863281 C 85.089844 361.917969 85.007812 361.964844 84.90625 361.964844 " fill-opacity="1" fill-rule="nonzero"/><path fill="#000000" d="M 33.542969 361.339844 L 84.460938 361.339844 L 84.460938 333.394531 L 33.542969 332.941406 Z M 84.90625 362.589844 L 33.097656 362.589844 C 32.644531 362.589844 32.289062 362.273438 32.289062 361.863281 L 32.289062 332.410156 C 32.289062 332.226562 32.363281 332.054688 32.496094 331.917969 C 32.648438 331.769531 32.871094 331.6875 33.105469 331.6875 L 84.914062 332.148438 C 85.371094 332.152344 85.714844 332.464844 85.714844 332.875 L 85.714844 361.863281 C 85.714844 362.273438 85.359375 362.589844 84.90625 362.589844 " fill-opacity="1" fill-rule="nonzero"/><path fill="#7f56d9" d="M 69.320312 355.582031 C 68.972656 355.582031 68.695312 355.300781 68.695312 354.957031 L 68.695312 337.398438 C 68.695312 337.050781 68.972656 336.773438 69.320312 336.773438 C 69.664062 336.773438 69.945312 337.050781 69.945312 337.398438 L 69.945312 354.957031 C 69.945312 355.300781 69.664062 355.582031 69.320312 355.582031 " fill-opacity="1" fill-rule="nonzero"/><path fill="#7f56d9" d="M 52.9375 349.324219 C 52.59375 349.324219 52.3125 349.042969 52.3125 348.699219 L 52.3125 343.519531 C 52.3125 343.175781 52.59375 342.894531 52.9375 342.894531 C 53.285156 342.894531 53.5625 343.175781 53.5625 343.519531 L 53.5625 348.699219 C 53.5625 349.042969 53.285156 349.324219 52.9375 349.324219 " fill-opacity="1" fill-rule="nonzero"/><path fill="#ffffff" d="M 89.964844 280.46875 L 88.074219 297.21875 L 95.207031 300.183594 L 97.832031 281.925781 L 89.964844 280.46875 " fill-opacity="1" fill-rule="nonzero"/><path fill="#000000" d="M 88.75 296.820312 L 94.703125 299.296875 L 97.128906 282.429688 L 90.511719 281.203125 Z M 95.207031 300.808594 C 95.125 300.808594 95.042969 300.792969 94.964844 300.761719 L 87.835938 297.796875 C 87.578125 297.6875 87.421875 297.425781 87.453125 297.148438 L 89.34375 280.398438 C 89.363281 280.226562 89.453125 280.070312 89.59375 279.96875 C 89.730469 279.863281 89.90625 279.824219 90.078125 279.855469 L 97.945312 281.308594 C 98.277344 281.371094 98.5 281.679688 98.453125 282.015625 L 95.824219 300.273438 C 95.796875 300.464844 95.683594 300.632812 95.515625 300.730469 C 95.417969 300.78125 95.3125 300.808594 95.207031 300.808594 " fill-opacity="1" fill-rule="nonzero"/><path fill="#c3c3ff" d="M 86.414062 295.636719 C 86.191406 297.222656 85.828125 300.167969 85.796875 302.8125 C 85.777344 304.46875 87.027344 305.867188 88.671875 306.078125 C 93.328125 306.675781 103.886719 307.328125 112.882812 306.511719 C 113.5 306.457031 114.589844 306.011719 114.890625 304.472656 C 115.910156 299.316406 106.929688 298.050781 97.082031 294.3125 C 96.695312 294.164062 96.257812 294.25 95.960938 294.539062 L 94.898438 295.566406 C 93.835938 296.59375 92.261719 296.886719 90.898438 296.304688 L 87.671875 294.929688 C 87.121094 294.695312 86.5 295.046875 86.414062 295.636719 " fill-opacity="1" fill-rule="nonzero"/><path fill="#000000" d="M 87.035156 295.726562 C 86.820312 297.246094 86.453125 300.195312 86.421875 302.820312 C 86.40625 304.152344 87.410156 305.289062 88.75 305.460938 C 93.550781 306.074219 103.925781 306.699219 112.828125 305.890625 C 113.023438 305.875 114.007812 305.71875 114.277344 304.351562 C 114.917969 301.105469 110.828125 299.59375 103.546875 297.207031 C 101.398438 296.503906 99.179688 295.777344 96.855469 294.894531 C 96.699219 294.835938 96.515625 294.871094 96.394531 294.984375 L 95.335938 296.011719 C 94.085938 297.21875 92.25 297.558594 90.65625 296.878906 L 87.425781 295.503906 C 87.3125 295.457031 87.222656 295.492188 87.175781 295.515625 C 87.128906 295.542969 87.050781 295.605469 87.035156 295.726562 Z M 103.511719 307.523438 C 97.449219 307.523438 91.796875 307.109375 88.59375 306.699219 C 86.621094 306.445312 85.148438 304.769531 85.171875 302.804688 C 85.203125 300.109375 85.574219 297.101562 85.796875 295.546875 C 85.863281 295.074219 86.140625 294.664062 86.5625 294.429688 C 86.980469 294.191406 87.472656 294.164062 87.914062 294.355469 L 91.144531 295.730469 C 92.277344 296.210938 93.578125 295.972656 94.464844 295.117188 L 95.527344 294.089844 C 95.992188 293.636719 96.691406 293.496094 97.300781 293.726562 C 99.597656 294.597656 101.800781 295.320312 103.9375 296.019531 C 110.894531 298.300781 116.390625 300.101562 115.503906 304.59375 C 115.164062 306.328125 113.910156 307.046875 112.941406 307.136719 C 109.875 307.414062 106.640625 307.523438 103.511719 307.523438 " fill-opacity="1" fill-rule="nonzero"/><path fill="#ffffff" d="M 85.804688 302.414062 C 85.804688 302.414062 85.800781 302.683594 85.796875 302.8125 C 85.777344 304.46875 87.027344 305.867188 88.671875 306.078125 C 93.328125 306.675781 103.886719 307.328125 112.882812 306.511719 C 113.5 306.457031 114.589844 306.011719 114.890625 304.472656 C 114.984375 304.003906 114.925781 303.15625 114.925781 303.15625 L 114.289062 303.183594 C 105.199219 303.632812 96.089844 303.417969 87.03125 302.535156 L 85.804688 302.414062 " fill-opacity="1" fill-rule="nonzero"/><path fill="#000000" d="M 86.433594 303.101562 C 86.554688 304.3125 87.503906 305.300781 88.75 305.460938 C 93.550781 306.074219 103.925781 306.699219 112.828125 305.890625 C 113.023438 305.875 114.007812 305.71875 114.277344 304.351562 C 114.304688 304.210938 114.316406 304.007812 114.320312 303.808594 C 105.230469 304.257812 96.027344 304.039062 86.96875 303.15625 Z M 103.511719 307.523438 C 97.449219 307.523438 91.796875 307.109375 88.59375 306.699219 C 86.621094 306.445312 85.148438 304.769531 85.171875 302.804688 L 85.179688 302.402344 C 85.183594 302.226562 85.257812 302.0625 85.390625 301.949219 C 85.519531 301.832031 85.691406 301.777344 85.867188 301.792969 L 87.09375 301.910156 C 96.089844 302.789062 105.230469 303.007812 114.257812 302.5625 L 114.894531 302.53125 C 115.234375 302.503906 115.527344 302.773438 115.550781 303.113281 C 115.558594 303.207031 115.613281 304.058594 115.503906 304.59375 C 115.164062 306.328125 113.910156 307.046875 112.941406 307.136719 C 109.875 307.414062 106.640625 307.523438 103.511719 307.523438 " fill-opacity="1" fill-rule="nonzero"/><path fill="#000000" d="M 99.339844 300.503906 C 99.179688 300.503906 99.019531 300.445312 98.894531 300.324219 C 98.652344 300.078125 98.652344 299.683594 98.894531 299.4375 L 102.351562 295.988281 C 102.597656 295.742188 102.992188 295.742188 103.234375 295.984375 C 103.480469 296.230469 103.480469 296.625 103.234375 296.871094 L 99.78125 300.324219 C 99.660156 300.445312 99.5 300.503906 99.339844 300.503906 " fill-opacity="1" fill-rule="nonzero"/><path fill="#000000" d="M 102.734375 300.863281 C 102.578125 300.863281 102.421875 300.808594 102.300781 300.6875 C 102.050781 300.449219 102.042969 300.054688 102.28125 299.804688 L 105.042969 296.941406 C 105.28125 296.691406 105.679688 296.683594 105.925781 296.921875 C 106.175781 297.160156 106.183594 297.558594 105.945312 297.804688 L 103.183594 300.671875 C 103.0625 300.796875 102.898438 300.863281 102.734375 300.863281 " fill-opacity="1" fill-rule="nonzero"/><path fill="#000000" d="M 115.863281 170.085938 C 115.863281 170.085938 111.523438 172.601562 109.828125 187.359375 C 108.132812 202.117188 108.699219 219.515625 96.902344 236.765625 C 87.476562 250.542969 88.308594 273.796875 86.9375 289.039062 C 86.871094 289.773438 87.4375 290.414062 88.175781 290.4375 L 97.210938 290.746094 C 97.785156 290.765625 98.304688 290.40625 98.480469 289.855469 C 100.09375 284.863281 108.125 260.769531 117.144531 246.796875 C 126.675781 232.03125 138.265625 193.707031 138.265625 193.707031 C 138.265625 193.707031 136.113281 184.019531 135.816406 174.734375 C 135.515625 165.449219 115.863281 170.085938 115.863281 170.085938 " fill-opacity="1" fill-rule="nonzero"/><path fill="#ffffff" d="M 169.0625 230.785156 L 165.25 247.203125 L 171.992188 250.972656 L 176.707031 233.132812 L 169.0625 230.785156 " fill-opacity="1" fill-rule="nonzero"/><path fill="#000000" d="M 165.96875 246.886719 L 171.59375 250.03125 L 175.949219 233.554688 L 169.519531 231.578125 Z M 171.992188 251.597656 C 171.886719 251.597656 171.78125 251.570312 171.6875 251.515625 L 164.945312 247.75 C 164.703125 247.613281 164.582031 247.332031 164.644531 247.0625 L 168.453125 230.640625 C 168.492188 230.472656 168.597656 230.328125 168.75 230.242188 C 168.898438 230.15625 169.078125 230.136719 169.246094 230.1875 L 176.890625 232.535156 C 177.210938 232.636719 177.398438 232.96875 177.3125 233.292969 L 172.597656 251.128906 C 172.550781 251.316406 172.417969 251.472656 172.238281 251.546875 C 172.160156 251.578125 172.078125 251.597656 171.992188 251.597656 " fill-opacity="1" fill-rule="nonzero"/><path fill="#c3c3ff" d="M 164.441406 246.234375 C 164.21875 247.824219 162.789062 250.832031 162.757812 253.472656 C 162.738281 255.132812 163.988281 256.53125 165.632812 256.742188 C 170.289062 257.335938 181.917969 257.925781 190.910156 257.113281 C 191.527344 257.054688 192.613281 256.605469 192.917969 255.070312 C 193.9375 249.914062 184.957031 248.648438 175.105469 244.90625 C 174.722656 244.761719 174.285156 244.847656 173.988281 245.136719 L 172.925781 246.164062 C 171.863281 247.191406 170.289062 247.480469 168.925781 246.902344 L 165.699219 245.527344 C 165.148438 245.289062 164.527344 245.644531 164.441406 246.234375 " fill-opacity="1" fill-rule="nonzero"/><path fill="#000000" d="M 165.0625 246.320312 C 164.972656 246.960938 164.71875 247.757812 164.425781 248.679688 C 163.96875 250.117188 163.402344 251.910156 163.386719 253.480469 C 163.371094 254.8125 164.371094 255.949219 165.710938 256.121094 C 169.929688 256.664062 181.636719 257.324219 190.855469 256.488281 C 191.050781 256.472656 192.035156 256.3125 192.304688 254.949219 C 192.945312 251.699219 188.855469 250.191406 181.574219 247.804688 C 179.425781 247.101562 177.203125 246.371094 174.886719 245.492188 C 174.726562 245.429688 174.542969 245.46875 174.421875 245.582031 L 173.359375 246.613281 C 172.113281 247.816406 170.277344 248.15625 168.683594 247.476562 L 165.449219 246.101562 C 165.339844 246.050781 165.246094 246.089844 165.203125 246.113281 C 165.15625 246.140625 165.078125 246.199219 165.0625 246.320312 Z M 180.828125 258.132812 C 174.738281 258.132812 168.816406 257.777344 165.554688 257.359375 C 163.582031 257.109375 162.109375 255.433594 162.132812 253.464844 C 162.152344 251.710938 162.75 249.820312 163.234375 248.300781 C 163.507812 247.433594 163.746094 246.683594 163.824219 246.148438 C 163.890625 245.667969 164.167969 245.261719 164.585938 245.023438 C 165.007812 244.789062 165.5 244.761719 165.941406 244.949219 L 169.171875 246.328125 C 170.304688 246.808594 171.609375 246.566406 172.492188 245.710938 L 173.550781 244.6875 C 174.023438 244.234375 174.71875 244.089844 175.332031 244.324219 C 177.621094 245.195312 179.828125 245.917969 181.964844 246.617188 C 188.921875 248.898438 194.417969 250.699219 193.535156 255.191406 C 193.1875 256.929688 191.933594 257.644531 190.96875 257.734375 C 187.839844 258.015625 184.304688 258.132812 180.828125 258.132812 " fill-opacity="1" fill-rule="nonzero"/><path fill="#ffffff" d="M 163.011719 252.964844 C 163.011719 252.964844 163.003906 253.234375 163.003906 253.363281 C 162.988281 255.019531 164.234375 256.417969 165.878906 256.628906 C 170.535156 257.226562 181.917969 257.925781 190.910156 257.113281 C 191.527344 257.054688 192.613281 256.605469 192.917969 255.070312 C 193.011719 254.601562 192.953125 253.75 192.953125 253.75 L 192.316406 253.785156 C 183.226562 254.230469 174.117188 254.011719 165.058594 253.132812 L 163.011719 252.964844 " fill-opacity="1" fill-rule="nonzero"/><path fill="#000000" d="M 163.640625 253.644531 C 163.753906 254.855469 164.710938 255.851562 165.960938 256.011719 C 170.035156 256.53125 181.484375 257.335938 190.855469 256.488281 C 191.050781 256.472656 192.035156 256.3125 192.304688 254.949219 C 192.332031 254.808594 192.34375 254.605469 192.34375 254.40625 C 183.257812 254.855469 174.054688 254.632812 164.996094 253.753906 Z M 181.691406 258.109375 C 174.945312 258.109375 168.625 257.613281 165.800781 257.25 C 163.828125 257 162.355469 255.324219 162.378906 253.355469 L 162.386719 252.953125 C 162.390625 252.78125 162.464844 252.617188 162.59375 252.5 C 162.722656 252.386719 162.890625 252.328125 163.0625 252.34375 L 165.109375 252.507812 C 174.117188 253.386719 183.253906 253.605469 192.285156 253.15625 L 192.925781 253.128906 C 193.265625 253.105469 193.554688 253.371094 193.578125 253.710938 C 193.585938 253.804688 193.636719 254.65625 193.535156 255.191406 C 193.1875 256.929688 191.933594 257.644531 190.96875 257.734375 C 187.984375 258.003906 184.792969 258.109375 181.691406 258.109375 " fill-opacity="1" fill-rule="nonzero"/><path fill="#000000" d="M 177.367188 251.101562 C 177.203125 251.101562 177.046875 251.042969 176.921875 250.917969 C 176.679688 250.675781 176.679688 250.277344 176.921875 250.035156 L 180.378906 246.582031 C 180.621094 246.339844 181.019531 246.339844 181.261719 246.582031 C 181.507812 246.824219 181.507812 247.222656 181.261719 247.464844 L 177.808594 250.917969 C 177.683594 251.042969 177.527344 251.101562 177.367188 251.101562 " fill-opacity="1" fill-rule="nonzero"/><path fill="#000000" d="M 180.761719 251.460938 C 180.601562 251.460938 180.445312 251.402344 180.328125 251.285156 C 180.078125 251.046875 180.070312 250.648438 180.308594 250.402344 L 183.070312 247.535156 C 183.308594 247.289062 183.707031 247.28125 183.953125 247.519531 C 184.203125 247.761719 184.210938 248.15625 183.96875 248.40625 L 181.210938 251.269531 C 181.085938 251.398438 180.921875 251.460938 180.761719 251.460938 " fill-opacity="1" fill-rule="nonzero"/><path fill="#000000" d="M 133.265625 196.308594 C 133.265625 196.308594 153.5625 194.714844 176.214844 182.5625 C 176.882812 182.203125 177.316406 183.3125 176.910156 183.953125 C 175.769531 185.753906 175.164062 188.457031 173.460938 193.070312 C 171.367188 198.746094 166.945312 228.117188 165.488281 237.261719 C 165.359375 238.085938 165.980469 238.839844 166.816406 238.863281 L 175.527344 239.148438 C 176.078125 239.167969 176.585938 238.859375 176.824219 238.363281 C 179.96875 231.824219 200.488281 180.347656 199.703125 170.761719 C 198.855469 160.398438 187.011719 161.089844 182.070312 160.773438 C 176.960938 160.445312 130.625 169.097656 130.625 169.097656 L 133.265625 196.308594 " fill-opacity="1" fill-rule="nonzero"/><path fill="#ffffff" d="M 71.53125 181.171875 C 72.234375 180.335938 73.140625 179.359375 73.921875 178.585938 C 74.933594 177.589844 78.300781 171.042969 78.300781 171.042969 L 84.191406 172.707031 C 84.191406 172.707031 81.4375 177.519531 82.097656 179.914062 C 82.714844 182.148438 83.199219 186.863281 79.929688 190.292969 C 79.554688 190.6875 78.730469 190.789062 78.445312 190.722656 C 77.59375 190.523438 77.574219 189.339844 77.992188 188.570312 L 79.175781 186.398438 C 79.277344 186.207031 79.121094 185.976562 78.90625 186.007812 C 78.023438 186.132812 76.078125 186.699219 74.042969 189.207031 C 72.480469 191.132812 69.378906 195.4375 68.335938 194.726562 C 66.472656 193.453125 67.691406 185.746094 71.53125 181.171875 " fill-opacity="1" fill-rule="nonzero"/><path fill="#000000" d="M 72.011719 181.574219 C 69.230469 184.882812 67.777344 190.113281 68.160156 192.921875 C 68.246094 193.53125 68.417969 193.980469 68.644531 194.175781 C 69.433594 194.050781 71.757812 191.09375 72.757812 189.816406 C 73.054688 189.445312 73.324219 189.101562 73.558594 188.8125 C 75.695312 186.175781 77.773438 185.535156 78.820312 185.390625 C 79.152344 185.34375 79.480469 185.484375 79.671875 185.761719 C 79.867188 186.039062 79.886719 186.398438 79.722656 186.695312 L 78.542969 188.867188 C 78.351562 189.21875 78.296875 189.699219 78.414062 189.960938 C 78.460938 190.0625 78.515625 190.097656 78.589844 190.113281 C 78.761719 190.140625 79.300781 190.042969 79.476562 189.859375 C 82.957031 186.207031 81.769531 181.074219 81.496094 180.082031 C 80.921875 178 82.492188 174.59375 83.269531 173.097656 L 78.621094 171.78125 C 77.792969 173.367188 75.285156 178.117188 74.363281 179.03125 C 73.585938 179.796875 72.683594 180.773438 72.011719 181.574219 Z M 68.6875 194.210938 L 68.691406 194.210938 Z M 68.597656 195.433594 C 68.378906 195.433594 68.175781 195.371094 67.980469 195.242188 C 67.421875 194.859375 67.066406 194.132812 66.921875 193.089844 C 66.503906 190.03125 67.960938 184.449219 71.050781 180.769531 C 71.757812 179.929688 72.667969 178.945312 73.484375 178.140625 C 74.167969 177.464844 76.460938 173.253906 77.742188 170.753906 C 77.878906 170.488281 78.183594 170.359375 78.46875 170.4375 L 84.359375 172.105469 C 84.542969 172.160156 84.695312 172.292969 84.769531 172.472656 C 84.839844 172.648438 84.828125 172.851562 84.734375 173.019531 C 84.003906 174.292969 82.214844 177.992188 82.699219 179.75 C 83.585938 182.953125 83.4375 187.515625 80.382812 190.722656 C 79.8125 191.320312 78.746094 191.433594 78.304688 191.332031 C 77.839844 191.222656 77.472656 190.917969 77.273438 190.472656 C 76.992188 189.847656 77.058594 188.984375 77.445312 188.273438 L 78.238281 186.808594 C 77.339844 187.105469 75.964844 187.832031 74.53125 189.597656 C 74.296875 189.882812 74.03125 190.222656 73.742188 190.589844 C 71.492188 193.453125 69.832031 195.433594 68.597656 195.433594 " fill-opacity="1" fill-rule="nonzero"/><path fill="#78299d" d="M 212.722656 107.210938 L 208.917969 100.800781 C 208.292969 99.746094 206.320312 99.425781 205.339844 100.15625 C 183.828125 116.175781 160.945312 109.640625 157.410156 108.800781 C 148.640625 106.714844 144.21875 106.394531 137.296875 105.972656 C 127.164062 105.359375 112.589844 111.210938 102.78125 121.011719 C 94.980469 128.804688 81.671875 154.085938 75.636719 171.648438 C 75.382812 172.382812 75.710938 173.195312 76.40625 173.554688 L 82.457031 176.695312 C 83.226562 177.09375 84.167969 176.800781 84.574219 176.039062 C 87.65625 170.238281 101.007812 146.1875 114.976562 138.246094 C 116.003906 137.664062 117.550781 138.28125 117.492188 139.457031 C 117.304688 143.15625 115.007812 156.855469 114.308594 169.554688 C 114.214844 171.230469 115.371094 172.714844 117.023438 173.019531 L 123.136719 174.152344 C 133.796875 176.632812 143.792969 173.871094 148.195312 172.300781 C 149.542969 171.820312 150.195312 170.523438 150.402344 169.105469 C 150.738281 166.757812 155.472656 147.933594 164.097656 135.484375 C 165.1875 133.914062 166.832031 132.832031 168.738281 132.71875 C 176.433594 132.269531 198.328125 129.199219 212.628906 109.183594 C 213.046875 108.597656 213.089844 107.828125 212.722656 107.210938 " fill-opacity="1" fill-rule="nonzero"/><path fill="#ffffff" d="M 207.484375 102.726562 C 207.402344 102.25 207.570312 101.765625 207.9375 101.453125 C 208.425781 101.039062 209.25 100.335938 210.441406 99.292969 C 212.546875 97.453125 215.179688 93.78125 217.476562 92.679688 C 219.769531 91.582031 228.089844 88.332031 229.421875 89.019531 C 230.75 89.710938 230.089844 91.273438 228.199219 92.179688 C 226.3125 93.085938 223.855469 94.015625 223.855469 94.015625 C 223.855469 94.015625 225.226562 93.9375 226.242188 95.523438 C 227.257812 97.109375 225.851562 97.75 226.445312 98.539062 C 227.203125 99.542969 226.980469 100.710938 226.378906 101.222656 C 225.003906 102.394531 223.339844 100.082031 222.097656 102.472656 C 221.234375 104.132812 219.195312 105.214844 215.0625 106.003906 C 213.953125 106.214844 212.894531 106.640625 211.9375 107.238281 C 211.542969 107.488281 211.039062 107.507812 210.632812 107.277344 C 209.644531 106.722656 207.933594 105.394531 207.484375 102.726562 " fill-opacity="1" fill-rule="nonzero"/><path fill="#000000" d="M 228.8125 89.527344 C 227.046875 89.527344 220.460938 91.941406 217.746094 93.242188 C 216.394531 93.890625 214.851562 95.570312 213.363281 97.195312 C 212.480469 98.160156 211.644531 99.070312 210.855469 99.761719 C 209.660156 100.804688 208.832031 101.511719 208.34375 101.929688 C 208.148438 102.097656 208.054688 102.355469 208.101562 102.621094 C 208.507812 105.035156 210.054688 106.234375 210.941406 106.730469 C 211.144531 106.847656 211.402344 106.839844 211.609375 106.710938 C 212.652344 106.058594 213.773438 105.613281 214.945312 105.390625 C 218.785156 104.65625 220.757812 103.699219 221.546875 102.183594 C 222.476562 100.390625 223.785156 100.664062 224.648438 100.84375 C 225.289062 100.976562 225.636719 101.03125 225.976562 100.746094 C 226.320312 100.453125 226.503906 99.648438 225.949219 98.910156 C 225.488281 98.308594 225.703125 97.710938 225.847656 97.316406 C 226.007812 96.867188 226.132812 96.507812 225.714844 95.859375 C 224.921875 94.617188 223.894531 94.636719 223.890625 94.636719 C 223.582031 94.65625 223.304688 94.445312 223.242188 94.144531 C 223.175781 93.84375 223.34375 93.539062 223.632812 93.429688 C 223.65625 93.421875 226.089844 92.496094 227.933594 91.613281 C 228.996094 91.101562 229.488281 90.4375 229.496094 90.035156 C 229.496094 89.960938 229.496094 89.761719 229.132812 89.574219 C 229.058594 89.542969 228.949219 89.527344 228.8125 89.527344 Z M 211.253906 108.0625 C 210.929688 108.0625 210.613281 107.980469 210.328125 107.820312 C 209.246094 107.210938 207.359375 105.753906 206.867188 102.832031 C 206.75 102.136719 207.003906 101.425781 207.535156 100.976562 C 208.023438 100.5625 208.84375 99.859375 210.03125 98.820312 C 210.769531 98.175781 211.582031 97.289062 212.441406 96.351562 C 214.011719 94.640625 215.632812 92.871094 217.203125 92.117188 C 217.304688 92.066406 227.75 87.453125 229.707031 88.464844 C 230.378906 88.8125 230.753906 89.390625 230.746094 90.054688 C 230.730469 91.042969 229.859375 92.074219 228.472656 92.742188 C 227.539062 93.1875 226.480469 93.636719 225.632812 93.980469 C 226.019531 94.25 226.417969 94.632812 226.773438 95.1875 C 227.519531 96.355469 227.222656 97.183594 227.023438 97.734375 C 226.898438 98.09375 226.910156 98.109375 226.945312 98.160156 C 227.914062 99.4375 227.617188 100.992188 226.785156 101.699219 C 225.96875 102.394531 225.058594 102.207031 224.394531 102.070312 C 223.566406 101.894531 223.148438 101.808594 222.652344 102.761719 C 221.671875 104.652344 219.4375 105.804688 215.179688 106.617188 C 214.164062 106.8125 213.183594 107.199219 212.269531 107.769531 C 211.957031 107.964844 211.605469 108.0625 211.253906 108.0625 " fill-opacity="1" fill-rule="nonzero"/><path fill="#ffffff" d="M 151.878906 88.601562 L 140.496094 107.441406 C 140.34375 107.65625 138.671875 107.597656 136.789062 107.789062 C 135.90625 107.878906 134.988281 108.011719 134.226562 108.136719 C 133.597656 108.238281 133.421875 109.050781 133.953125 109.402344 L 135.988281 110.75 C 140.257812 113.578125 145.332031 115.039062 150.441406 114.691406 C 151.859375 114.59375 153.222656 114.367188 154.429688 113.992188 L 158.792969 112.621094 C 159.445312 112.414062 159.441406 111.488281 158.785156 111.289062 L 153.234375 109.609375 L 157.917969 99.675781 L 151.878906 88.601562 " fill-opacity="1" fill-rule="nonzero"/><path fill="#000000" d="M 151.851562 89.855469 L 141.035156 107.765625 C 141.023438 107.777344 141.015625 107.792969 141.003906 107.804688 C 140.738281 108.175781 140.28125 108.199219 138.921875 108.265625 C 138.332031 108.296875 137.601562 108.332031 136.851562 108.410156 C 136.117188 108.484375 135.265625 108.597656 134.328125 108.75 C 134.308594 108.753906 134.277344 108.761719 134.269531 108.804688 C 134.257812 108.855469 134.285156 108.871094 134.296875 108.878906 L 136.335938 110.230469 C 140.570312 113.03125 145.566406 114.390625 150.398438 114.066406 C 151.824219 113.96875 153.121094 113.742188 154.246094 113.390625 L 158.605469 112.023438 C 158.625 112.015625 158.652344 112.007812 158.652344 111.953125 C 158.652344 111.902344 158.625 111.894531 158.601562 111.886719 L 153.054688 110.207031 C 152.878906 110.152344 152.734375 110.027344 152.664062 109.863281 C 152.589844 109.695312 152.59375 109.507812 152.667969 109.339844 L 157.21875 99.695312 Z M 148.980469 115.363281 C 144.355469 115.363281 139.671875 113.9375 135.644531 111.269531 L 133.609375 109.921875 C 133.152344 109.621094 132.929688 109.078125 133.046875 108.542969 C 133.160156 108.007812 133.585938 107.605469 134.128906 107.515625 C 135.089844 107.359375 135.964844 107.246094 136.726562 107.164062 C 137.507812 107.085938 138.257812 107.050781 138.859375 107.019531 C 139.316406 106.996094 139.824219 106.972656 140.074219 106.933594 L 151.339844 88.273438 C 151.457031 88.085938 151.667969 87.96875 151.890625 87.976562 C 152.117188 87.980469 152.320312 88.105469 152.425781 88.300781 L 158.46875 99.375 C 158.566406 99.546875 158.574219 99.757812 158.488281 99.9375 L 154.109375 109.222656 L 158.964844 110.691406 C 159.523438 110.859375 159.902344 111.363281 159.90625 111.949219 C 159.90625 112.53125 159.535156 113.039062 158.976562 113.214844 L 154.621094 114.585938 C 153.398438 114.964844 152.007812 115.210938 150.484375 115.3125 C 149.984375 115.347656 149.484375 115.363281 148.980469 115.363281 " fill-opacity="1" fill-rule="nonzero"/><path fill="#ffffff" d="M 156.957031 100.058594 C 157.554688 100.140625 158.171875 100.164062 158.800781 100.128906 L 159.925781 100.070312 C 159.925781 100.070312 166.367188 99.21875 167.402344 97.621094 C 168.433594 96.027344 166.25 90.230469 166.25 90.230469 C 167.246094 89.457031 167.46875 88.480469 167.257812 88.148438 C 167.042969 87.820312 165.609375 87.320312 165.023438 86.890625 C 164.550781 86.542969 163.488281 83.765625 163.027344 82.578125 C 163.027344 82.578125 162.183594 77.875 154.632812 78.484375 C 137.328125 79.886719 149.769531 95.882812 149.769531 95.882812 C 150.039062 96.195312 150.316406 96.492188 150.597656 96.773438 L 156.957031 100.058594 " fill-opacity="1" fill-rule="nonzero"/><path fill="#000000" d="M 158.257812 100.769531 C 157.28125 100.769531 156.324219 100.640625 155.398438 100.382812 C 155.066406 100.289062 154.871094 99.945312 154.964844 99.613281 C 155.058594 99.28125 155.402344 99.085938 155.734375 99.179688 C 156.710938 99.453125 157.730469 99.5625 158.769531 99.507812 L 159.867188 99.453125 C 162.425781 99.109375 166.273438 98.214844 166.875 97.285156 C 167.46875 96.367188 166.523438 92.738281 165.664062 90.453125 C 165.566406 90.199219 165.648438 89.90625 165.867188 89.738281 C 166.507812 89.242188 166.695312 88.703125 166.703125 88.492188 C 166.535156 88.375 166.140625 88.1875 165.867188 88.058594 C 165.421875 87.84375 164.960938 87.625 164.652344 87.398438 C 164.191406 87.058594 163.613281 85.855469 162.441406 82.804688 C 162.429688 82.765625 162.417969 82.730469 162.414062 82.691406 C 162.378906 82.527344 161.53125 78.554688 154.683594 79.109375 C 150.476562 79.449219 147.800781 80.648438 146.726562 82.664062 C 144.910156 86.085938 147.84375 91.273438 149.597656 94.371094 L 149.753906 94.652344 C 149.925781 94.953125 149.820312 95.332031 149.515625 95.5 C 149.21875 95.671875 148.835938 95.566406 148.664062 95.265625 L 148.507812 94.988281 C 146.628906 91.664062 143.484375 86.105469 145.625 82.078125 C 146.90625 79.660156 149.921875 78.242188 154.582031 77.863281 C 162.074219 77.257812 163.464844 81.75 163.628906 82.394531 C 164.773438 85.382812 165.230469 86.226562 165.414062 86.40625 C 165.609375 86.546875 166.03125 86.75 166.40625 86.929688 C 167.148438 87.285156 167.578125 87.5 167.78125 87.8125 C 168.15625 88.394531 167.9375 89.5 166.984375 90.421875 C 167.550781 92.003906 168.960938 96.363281 167.925781 97.960938 C 166.792969 99.714844 161.128906 100.542969 160.007812 100.691406 C 159.988281 100.695312 159.972656 100.695312 159.957031 100.699219 L 158.832031 100.753906 C 158.640625 100.765625 158.449219 100.769531 158.257812 100.769531 " fill-opacity="1" fill-rule="nonzero"/><path fill="#000000" d="M 151.101562 76.441406 C 152.988281 76.070312 155.136719 76.363281 156.054688 76.050781 C 157.539062 75.542969 157.503906 73.839844 159.59375 73.671875 C 161.433594 73.523438 163.140625 73.867188 164.066406 75.273438 C 164.222656 75.507812 164.359375 75.769531 164.46875 76.066406 C 165.914062 80.039062 163.914062 81.957031 163.027344 82.578125 C 163.027344 82.578125 157.425781 85.269531 156.457031 86.039062 C 155.554688 86.761719 154.488281 88.484375 155.070312 90.972656 C 155.144531 91.296875 154.988281 91.625 154.699219 91.789062 C 154.363281 91.976562 153.933594 91.882812 153.714844 91.5625 C 153.019531 90.5625 151.496094 88.621094 150.367188 89.070312 C 149.046875 89.59375 148.597656 92.902344 151.023438 93.71875 C 151.769531 93.96875 152.011719 94.945312 151.476562 95.519531 C 151.03125 96 150.347656 96.332031 149.320312 96.070312 C 149.320312 96.070312 143.292969 91.777344 142.578125 86.121094 C 141.867188 80.460938 148.589844 76.933594 151.101562 76.441406 " fill-opacity="1" fill-rule="nonzero"/><path fill="#000000" d="M 205.730469 36.425781 L 205.734375 36.425781 Z M 207.96875 35.882812 C 207.304688 35.882812 206.652344 36.195312 206.246094 36.78125 C 205.921875 37.242188 205.800781 37.796875 205.902344 38.351562 C 206 38.902344 206.308594 39.382812 206.769531 39.703125 C 207.71875 40.363281 209.027344 40.128906 209.691406 39.179688 C 210.011719 38.71875 210.132812 38.164062 210.035156 37.609375 C 209.9375 37.058594 209.628906 36.578125 209.167969 36.257812 C 208.804688 36.003906 208.382812 35.882812 207.96875 35.882812 Z M 207.960938 41.328125 C 207.28125 41.328125 206.621094 41.125 206.054688 40.730469 C 205.316406 40.21875 204.828125 39.449219 204.667969 38.570312 C 204.511719 37.691406 204.707031 36.800781 205.214844 36.066406 C 206.269531 34.550781 208.367188 34.179688 209.882812 35.234375 C 210.617188 35.746094 211.109375 36.511719 211.265625 37.390625 C 211.425781 38.273438 211.230469 39.160156 210.71875 39.894531 C 210.207031 40.628906 209.4375 41.121094 208.558594 41.277344 C 208.359375 41.3125 208.160156 41.328125 207.960938 41.328125 " fill-opacity="1" fill-rule="nonzero"/><path fill="#000000" d="M 228.191406 44.832031 C 228.015625 44.832031 227.839844 44.757812 227.71875 44.613281 C 227.492188 44.351562 227.523438 43.953125 227.785156 43.730469 L 229.808594 42.011719 C 230.070312 41.789062 230.464844 41.820312 230.6875 42.082031 C 230.914062 42.34375 230.878906 42.738281 230.617188 42.960938 L 228.597656 44.683594 C 228.480469 44.78125 228.335938 44.832031 228.191406 44.832031 " fill-opacity="1" fill-rule="nonzero"/><path fill="#000000" d="M 221.8125 50.265625 C 221.636719 50.265625 221.457031 50.191406 221.335938 50.046875 C 221.109375 49.785156 221.140625 49.390625 221.40625 49.164062 L 223.425781 47.445312 C 223.6875 47.222656 224.082031 47.25 224.304688 47.515625 C 224.53125 47.777344 224.5 48.171875 224.238281 48.398438 L 222.214844 50.117188 C 222.097656 50.21875 221.953125 50.265625 221.8125 50.265625 " fill-opacity="1" fill-rule="nonzero"/><path fill="#000000" d="M 224.152344 44.507812 C 223.976562 44.507812 223.800781 44.433594 223.675781 44.289062 L 221.953125 42.269531 C 221.730469 42.007812 221.761719 41.613281 222.023438 41.390625 C 222.289062 41.167969 222.683594 41.195312 222.90625 41.460938 L 224.628906 43.480469 C 224.851562 43.742188 224.820312 44.132812 224.558594 44.359375 C 224.441406 44.457031 224.296875 44.507812 224.152344 44.507812 " fill-opacity="1" fill-rule="nonzero"/><path fill="#000000" d="M 229.597656 50.886719 C 229.417969 50.886719 229.242188 50.808594 229.121094 50.664062 L 227.398438 48.648438 C 227.171875 48.382812 227.203125 47.992188 227.46875 47.765625 C 227.726562 47.542969 228.121094 47.574219 228.351562 47.835938 L 230.070312 49.855469 C 230.292969 50.117188 230.261719 50.511719 230 50.738281 C 229.882812 50.835938 229.738281 50.886719 229.597656 50.886719 " fill-opacity="1" fill-rule="nonzero"/><path fill="#000000" d="M 61.335938 284.160156 C 61 284.160156 60.722656 283.894531 60.710938 283.5625 L 60.613281 280.910156 C 60.597656 280.566406 60.867188 280.273438 61.210938 280.261719 C 61.570312 280.25 61.847656 280.519531 61.863281 280.863281 L 61.960938 283.511719 C 61.972656 283.859375 61.707031 284.148438 61.359375 284.160156 C 61.351562 284.160156 61.34375 284.160156 61.335938 284.160156 " fill-opacity="1" fill-rule="nonzero"/><path fill="#000000" d="M 61.652344 292.535156 C 61.316406 292.535156 61.039062 292.269531 61.027344 291.933594 L 60.925781 289.285156 C 60.914062 288.941406 61.183594 288.648438 61.527344 288.636719 C 61.886719 288.628906 62.164062 288.890625 62.175781 289.238281 L 62.277344 291.886719 C 62.292969 292.230469 62.019531 292.523438 61.675781 292.535156 C 61.667969 292.535156 61.660156 292.535156 61.652344 292.535156 " fill-opacity="1" fill-rule="nonzero"/><path fill="#000000" d="M 55.925781 287.230469 C 55.59375 287.230469 55.316406 286.964844 55.300781 286.628906 C 55.289062 286.285156 55.558594 285.996094 55.902344 285.980469 L 58.554688 285.882812 C 58.90625 285.871094 59.191406 286.140625 59.203125 286.484375 C 59.21875 286.828125 58.949219 287.117188 58.601562 287.128906 L 55.949219 287.230469 C 55.941406 287.230469 55.933594 287.230469 55.925781 287.230469 " fill-opacity="1" fill-rule="nonzero"/><path fill="#000000" d="M 64.308594 286.914062 C 63.976562 286.914062 63.699219 286.648438 63.683594 286.316406 C 63.671875 285.96875 63.941406 285.679688 64.285156 285.667969 L 66.9375 285.566406 C 67.292969 285.558594 67.574219 285.820312 67.585938 286.167969 C 67.601562 286.511719 67.332031 286.800781 66.984375 286.816406 L 64.332031 286.914062 C 64.324219 286.914062 64.316406 286.914062 64.308594 286.914062 " fill-opacity="1" fill-rule="nonzero"/><path fill="#000000" d="M 47.535156 247.65625 C 47.296875 247.65625 47.074219 247.523438 46.96875 247.292969 C 35.902344 223.226562 32.203125 196.613281 36.273438 170.332031 C 37.296875 163.714844 38.8125 157.140625 40.785156 150.792969 C 40.886719 150.464844 41.234375 150.277344 41.566406 150.382812 C 41.894531 150.484375 42.082031 150.832031 41.976562 151.164062 C 40.027344 157.453125 38.523438 163.964844 37.507812 170.523438 C 33.480469 196.5625 37.144531 222.929688 48.105469 246.773438 C 48.25 247.085938 48.109375 247.457031 47.796875 247.601562 C 47.710938 247.636719 47.625 247.65625 47.535156 247.65625 " fill-opacity="1" fill-rule="nonzero"/><path fill="#000000" d="M 49.113281 250.964844 C 48.882812 250.964844 48.660156 250.839844 48.550781 250.617188 C 48.011719 249.523438 47.476562 248.40625 46.96875 247.292969 C 46.824219 246.980469 46.960938 246.609375 47.273438 246.464844 C 47.585938 246.320312 47.960938 246.457031 48.105469 246.773438 C 48.609375 247.871094 49.136719 248.980469 49.671875 250.066406 C 49.824219 250.375 49.699219 250.75 49.386719 250.902344 C 49.300781 250.945312 49.203125 250.964844 49.113281 250.964844 " fill-opacity="1" fill-rule="nonzero"/><path fill="#000000" d="M 41.097656 263.832031 C 40.871094 263.832031 40.648438 263.707031 40.539062 263.492188 C 32.804688 248.402344 27.679688 232.195312 25.304688 215.328125 C 22.847656 197.875 23.410156 180.15625 26.980469 162.660156 C 27.046875 162.324219 27.378906 162.105469 27.71875 162.175781 C 28.054688 162.242188 28.273438 162.574219 28.207031 162.910156 C 21.265625 196.941406 26.042969 232.457031 41.652344 262.921875 C 41.8125 263.226562 41.6875 263.605469 41.382812 263.761719 C 41.289062 263.808594 41.191406 263.832031 41.097656 263.832031 " fill-opacity="1" fill-rule="nonzero"/><path fill="#000000" d="M 28.160156 154.128906 L 31.660156 155.542969 L 31.761719 151.3125 Z M 32.261719 157.082031 C 32.183594 157.082031 32.105469 157.070312 32.027344 157.039062 L 26.6875 154.882812 C 26.480469 154.796875 26.332031 154.609375 26.300781 154.386719 C 26.269531 154.167969 26.359375 153.945312 26.535156 153.8125 L 32.035156 149.515625 C 32.226562 149.367188 32.484375 149.339844 32.699219 149.445312 C 32.917969 149.558594 33.050781 149.78125 33.042969 150.023438 L 32.886719 156.472656 C 32.882812 156.679688 32.777344 156.871094 32.605469 156.980469 C 32.503906 157.050781 32.382812 157.082031 32.261719 157.082031 " fill-opacity="1" fill-rule="nonzero"/><path fill="#000000" d="M 215.535156 172.675781 C 215.347656 172.675781 215.15625 172.589844 215.035156 172.425781 C 214.828125 172.148438 214.886719 171.753906 215.164062 171.550781 L 233.394531 158.0625 C 233.671875 157.855469 234.0625 157.914062 234.269531 158.191406 C 234.472656 158.46875 234.414062 158.859375 234.136719 159.066406 L 215.910156 172.554688 C 215.796875 172.636719 215.667969 172.675781 215.535156 172.675781 " fill-opacity="1" fill-rule="nonzero"/><path fill="#000000" d="M 188.015625 148.933594 C 187.824219 148.933594 187.636719 148.847656 187.515625 148.679688 C 187.308594 148.402344 187.367188 148.011719 187.644531 147.804688 L 234.152344 113.390625 C 234.433594 113.1875 234.824219 113.246094 235.03125 113.519531 C 235.234375 113.800781 235.175781 114.191406 234.898438 114.394531 L 188.386719 148.8125 C 188.277344 148.894531 188.148438 148.933594 188.015625 148.933594 " fill-opacity="1" fill-rule="nonzero"/><path fill="#000000" d="M 220.90625 133.453125 C 220.714844 133.453125 220.527344 133.363281 220.402344 133.199219 C 220.199219 132.921875 220.253906 132.53125 220.53125 132.324219 L 244.996094 114.226562 C 245.273438 114.019531 245.664062 114.078125 245.871094 114.355469 C 246.074219 114.632812 246.015625 115.023438 245.738281 115.230469 L 221.277344 133.332031 C 221.164062 133.414062 221.03125 133.453125 220.90625 133.453125 " fill-opacity="1" fill-rule="nonzero"/><path fill="#000000" d="M 75.574219 176.480469 C 75.152344 176.480469 74.730469 176.402344 74.324219 176.246094 C 73.445312 175.902344 72.75 175.230469 72.371094 174.355469 C 71.597656 172.566406 72.402344 170.464844 74.160156 169.675781 C 74.476562 169.535156 74.847656 169.675781 74.988281 169.992188 C 75.128906 170.304688 74.988281 170.675781 74.671875 170.816406 C 73.535156 171.328125 73.015625 172.695312 73.519531 173.859375 C 73.765625 174.425781 74.210938 174.859375 74.777344 175.078125 C 75.332031 175.296875 75.933594 175.277344 76.476562 175.035156 C 77.613281 174.523438 78.132812 173.160156 77.628906 171.992188 C 77.492188 171.679688 77.636719 171.308594 77.953125 171.171875 C 78.273438 171.035156 78.640625 171.183594 78.777344 171.5 C 79.550781 173.289062 78.746094 175.386719 76.988281 176.175781 C 76.535156 176.378906 76.054688 176.480469 75.574219 176.480469 " fill-opacity="1" fill-rule="nonzero"/><path fill="#ffffff" d="M 108.707031 37.234375 C 114.914062 35.617188 121.261719 39.332031 122.882812 45.535156 C 124.503906 51.738281 120.785156 58.082031 114.574219 59.699219 C 108.363281 61.320312 102.015625 57.601562 100.398438 51.398438 C 98.777344 45.195312 102.496094 38.855469 108.707031 37.234375 Z M 88.476562 52.175781 L 89.617188 56.539062 L 94.542969 56.375 C 94.988281 57.339844 95.503906 58.253906 96.09375 59.105469 L 93.433594 63.25 L 96.605469 66.457031 L 100.792969 63.855469 C 101.648438 64.457031 102.554688 64.988281 103.503906 65.441406 L 103.273438 70.359375 L 107.625 71.558594 L 109.945312 67.21875 C 110.980469 67.3125 112.03125 67.316406 113.089844 67.234375 L 115.351562 71.609375 L 119.722656 70.46875 L 119.554688 65.546875 C 120.519531 65.101562 121.433594 64.585938 122.292969 63.996094 L 126.4375 66.652344 L 129.652344 63.484375 L 127.042969 59.304688 C 127.648438 58.449219 128.179688 57.539062 128.632812 56.597656 L 133.558594 56.828125 L 134.753906 52.476562 L 130.410156 50.164062 C 130.503906 49.128906 130.507812 48.078125 130.425781 47.019531 L 134.804688 44.757812 L 133.664062 40.394531 L 128.738281 40.558594 C 128.292969 39.597656 127.773438 38.679688 127.1875 37.828125 L 129.84375 33.683594 L 126.671875 30.476562 L 122.488281 33.078125 C 121.628906 32.476562 120.722656 31.945312 119.777344 31.492188 L 120.007812 26.574219 L 115.65625 25.378906 L 113.335938 29.71875 C 112.300781 29.625 111.25 29.621094 110.191406 29.703125 L 107.925781 25.328125 L 103.558594 26.464844 L 103.726562 31.386719 C 102.761719 31.832031 101.84375 32.351562 100.988281 32.933594 L 96.84375 30.28125 L 93.628906 33.449219 L 96.238281 37.628906 C 95.632812 38.488281 95.101562 39.394531 94.648438 40.339844 L 89.722656 40.109375 L 88.527344 44.457031 L 92.871094 46.773438 C 92.777344 47.804688 92.773438 48.859375 92.855469 49.914062 L 88.476562 52.175781 " fill-opacity="1" fill-rule="nonzero"/><path fill="#000000" d="M 110.777344 38.960938 C 104.914062 40.492188 101.386719 46.503906 102.917969 52.363281 C 104.449219 58.226562 110.46875 61.746094 116.332031 60.21875 C 122.199219 58.691406 125.722656 52.675781 124.195312 46.816406 C 123.453125 43.980469 121.648438 41.597656 119.113281 40.117188 C 116.582031 38.628906 113.621094 38.222656 110.777344 38.960938 Z M 113.558594 61.824219 C 108.121094 61.824219 103.144531 58.175781 101.707031 52.679688 C 100 46.152344 103.929688 39.457031 110.464844 37.753906 C 113.628906 36.929688 116.925781 37.386719 119.746094 39.035156 C 122.570312 40.6875 124.578125 43.339844 125.402344 46.5 C 126.230469 49.664062 125.773438 52.957031 124.121094 55.777344 C 122.46875 58.59375 119.8125 60.601562 116.648438 61.425781 C 115.617188 61.695312 114.578125 61.824219 113.558594 61.824219 Z M 115.003906 67.730469 C 115.238281 67.730469 115.453125 67.863281 115.558594 68.070312 L 117.59375 72 L 120.996094 71.113281 L 120.847656 66.691406 C 120.839844 66.4375 120.980469 66.207031 121.210938 66.101562 C 122.140625 65.671875 123.03125 65.167969 123.855469 64.605469 C 124.0625 64.464844 124.332031 64.460938 124.546875 64.59375 L 128.269531 66.980469 L 130.769531 64.515625 L 128.429688 60.757812 C 128.292969 60.542969 128.300781 60.273438 128.445312 60.066406 C 129.027344 59.242188 129.546875 58.359375 129.984375 57.449219 C 130.089844 57.226562 130.328125 57.085938 130.574219 57.09375 L 135.003906 57.300781 L 135.933594 53.917969 L 132.03125 51.835938 C 131.808594 51.71875 131.679688 51.480469 131.703125 51.230469 C 131.792969 50.238281 131.796875 49.214844 131.714844 48.191406 C 131.695312 47.941406 131.828125 47.703125 132.054688 47.589844 L 135.988281 45.554688 L 135.101562 42.160156 L 130.671875 42.308594 C 130.425781 42.3125 130.191406 42.175781 130.085938 41.945312 C 129.65625 41.011719 129.148438 40.121094 128.585938 39.300781 C 128.445312 39.09375 128.441406 38.824219 128.578125 38.613281 L 130.964844 34.890625 L 128.496094 32.394531 L 124.734375 34.734375 C 124.519531 34.867188 124.25 34.859375 124.042969 34.714844 C 123.214844 34.132812 122.335938 33.617188 121.421875 33.179688 C 121.195312 33.074219 121.058594 32.835938 121.070312 32.589844 L 121.273438 28.164062 L 117.886719 27.234375 L 115.804688 31.136719 C 115.683594 31.355469 115.445312 31.488281 115.195312 31.460938 C 114.203125 31.371094 113.179688 31.367188 112.15625 31.449219 C 111.902344 31.464844 111.667969 31.335938 111.550781 31.113281 L 109.515625 27.183594 L 106.117188 28.066406 L 106.265625 32.492188 C 106.273438 32.742188 106.128906 32.972656 105.902344 33.078125 C 104.96875 33.507812 104.078125 34.011719 103.257812 34.574219 C 103.050781 34.71875 102.777344 34.722656 102.566406 34.585938 L 98.839844 32.199219 L 96.339844 34.667969 L 98.683594 38.421875 C 98.816406 38.636719 98.808594 38.90625 98.664062 39.113281 C 98.082031 39.9375 97.566406 40.820312 97.128906 41.730469 C 97.019531 41.957031 96.78125 42.09375 96.535156 42.085938 L 92.109375 41.878906 L 91.175781 45.265625 L 95.082031 47.347656 C 95.300781 47.464844 95.429688 47.703125 95.410156 47.953125 C 95.320312 48.941406 95.3125 49.96875 95.394531 50.988281 C 95.414062 51.238281 95.28125 51.480469 95.058594 51.59375 L 91.121094 53.625 L 92.011719 57.023438 L 96.4375 56.871094 C 96.6875 56.867188 96.921875 57.007812 97.027344 57.238281 C 97.457031 58.167969 97.960938 59.054688 98.523438 59.878906 C 98.667969 60.085938 98.671875 60.355469 98.535156 60.570312 L 96.148438 64.289062 L 98.617188 66.789062 L 102.378906 64.449219 C 102.589844 64.316406 102.863281 64.324219 103.066406 64.46875 C 103.894531 65.046875 104.777344 65.5625 105.6875 66.003906 C 105.914062 66.109375 106.054688 66.339844 106.042969 66.59375 L 105.835938 71.015625 L 109.222656 71.945312 L 111.308594 68.046875 C 111.425781 67.824219 111.664062 67.695312 111.914062 67.71875 C 112.910156 67.808594 113.933594 67.8125 114.957031 67.734375 C 114.972656 67.730469 114.988281 67.730469 115.003906 67.730469 Z M 117.269531 73.355469 C 117.039062 73.355469 116.824219 73.230469 116.714844 73.019531 L 114.636719 69.007812 C 113.824219 69.054688 113.015625 69.050781 112.21875 68.996094 L 110.09375 72.976562 C 109.957031 73.234375 109.65625 73.359375 109.375 73.28125 L 105.023438 72.085938 C 104.742188 72.007812 104.550781 71.746094 104.5625 71.457031 L 104.773438 66.941406 C 104.054688 66.582031 103.359375 66.171875 102.691406 65.726562 L 98.851562 68.113281 C 98.605469 68.265625 98.28125 68.230469 98.078125 68.019531 L 94.90625 64.8125 C 94.699219 64.605469 94.667969 64.28125 94.824219 64.035156 L 97.261719 60.238281 C 96.824219 59.574219 96.425781 58.867188 96.070312 58.136719 L 91.550781 58.289062 C 91.253906 58.289062 91 58.101562 90.925781 57.820312 L 89.785156 53.457031 C 89.710938 53.175781 89.84375 52.878906 90.105469 52.746094 L 94.117188 50.671875 C 94.070312 49.859375 94.074219 49.050781 94.128906 48.253906 L 90.148438 46.132812 C 89.890625 45.996094 89.761719 45.695312 89.839844 45.414062 L 91.035156 41.066406 C 91.113281 40.785156 91.371094 40.59375 91.667969 40.609375 L 96.183594 40.820312 C 96.546875 40.101562 96.957031 39.402344 97.40625 38.738281 L 95.015625 34.902344 C 94.859375 34.65625 94.898438 34.332031 95.105469 34.128906 L 98.320312 30.960938 C 98.527344 30.757812 98.847656 30.722656 99.09375 30.878906 L 102.894531 33.3125 C 103.5625 32.878906 104.269531 32.476562 105 32.125 L 104.851562 27.613281 C 104.839844 27.320312 105.035156 27.058594 105.316406 26.984375 L 109.683594 25.847656 C 109.96875 25.773438 110.265625 25.90625 110.398438 26.164062 L 112.472656 30.175781 C 113.289062 30.128906 114.097656 30.132812 114.894531 30.183594 L 117.019531 26.207031 C 117.15625 25.949219 117.453125 25.820312 117.734375 25.898438 L 122.085938 27.09375 C 122.371094 27.171875 122.558594 27.433594 122.546875 27.726562 L 122.335938 32.238281 C 123.054688 32.601562 123.753906 33.007812 124.417969 33.457031 L 128.257812 31.066406 C 128.507812 30.914062 128.828125 30.953125 129.035156 31.160156 L 132.203125 34.371094 C 132.410156 34.578125 132.445312 34.898438 132.285156 35.144531 L 129.851562 38.941406 C 130.285156 39.609375 130.683594 40.3125 131.042969 41.042969 L 135.558594 40.894531 C 135.859375 40.882812 136.109375 41.078125 136.183594 41.359375 L 137.324219 45.722656 C 137.398438 46.007812 137.265625 46.304688 137.007812 46.4375 L 132.992188 48.511719 C 133.039062 49.324219 133.035156 50.132812 132.980469 50.925781 L 136.964844 53.050781 C 137.222656 53.1875 137.351562 53.484375 137.273438 53.765625 L 136.078125 58.117188 C 136 58.394531 135.738281 58.582031 135.445312 58.570312 L 130.925781 58.363281 C 130.5625 59.078125 130.15625 59.777344 129.707031 60.445312 L 132.097656 64.277344 C 132.25 64.527344 132.214844 64.847656 132.003906 65.054688 L 128.792969 68.222656 C 128.585938 68.425781 128.261719 68.460938 128.015625 68.304688 L 124.214844 65.867188 C 123.546875 66.304688 122.84375 66.703125 122.109375 67.058594 L 122.261719 71.570312 C 122.269531 71.863281 122.078125 72.121094 121.792969 72.195312 L 117.425781 73.335938 C 117.375 73.351562 117.320312 73.355469 117.269531 73.355469 " fill-opacity="1" fill-rule="nonzero"/><path fill="#c3c3ff" d="M 49.015625 69.996094 C 59.640625 67.226562 70.5 73.585938 73.273438 84.199219 C 76.046875 94.8125 69.679688 105.664062 59.054688 108.4375 C 48.429688 111.207031 37.570312 104.847656 34.796875 94.230469 C 32.023438 83.617188 38.386719 72.765625 49.015625 69.996094 Z M 14.394531 95.5625 L 16.347656 103.027344 L 24.777344 102.746094 C 25.539062 104.394531 26.425781 105.960938 27.429688 107.425781 L 22.882812 114.511719 L 28.308594 120.003906 L 35.472656 115.546875 C 36.941406 116.578125 38.492188 117.484375 40.109375 118.261719 L 39.71875 126.683594 L 47.164062 128.726562 L 51.132812 121.300781 C 52.902344 121.460938 54.703125 121.46875 56.515625 121.328125 L 60.386719 128.816406 L 67.863281 126.863281 L 67.582031 118.441406 C 69.230469 117.683594 70.796875 116.796875 72.261719 115.792969 L 79.355469 120.335938 L 84.851562 114.914062 L 80.390625 107.757812 C 81.425781 106.292969 82.335938 104.742188 83.109375 103.128906 L 91.539062 103.519531 L 93.585938 96.078125 L 86.152344 92.113281 C 86.3125 90.34375 86.320312 88.546875 86.179688 86.738281 L 93.671875 82.871094 L 91.722656 75.402344 L 83.292969 75.683594 C 82.53125 74.039062 81.644531 72.472656 80.640625 71.007812 L 85.1875 63.921875 L 79.761719 58.429688 L 72.597656 62.886719 C 71.128906 61.855469 69.578125 60.945312 67.960938 60.171875 L 68.351562 51.75 L 60.90625 49.707031 L 56.9375 57.128906 C 55.167969 56.96875 53.367188 56.964844 51.554688 57.105469 L 47.679688 49.617188 L 40.207031 51.566406 L 40.488281 59.988281 C 38.839844 60.75 37.273438 61.636719 35.808594 62.640625 L 28.714844 58.097656 L 23.214844 63.519531 L 27.675781 70.671875 C 26.644531 72.140625 25.734375 73.691406 24.960938 75.304688 L 16.53125 74.914062 L 14.480469 82.355469 L 21.917969 86.316406 C 21.757812 88.085938 21.75 89.882812 21.890625 91.691406 L 14.394531 95.5625 " fill-opacity="1" fill-rule="nonzero"/><path fill="#000000" d="M 52.449219 72.519531 C 42.175781 75.199219 35.996094 85.730469 38.679688 95.996094 C 39.976562 100.96875 43.136719 105.136719 47.574219 107.734375 C 52.015625 110.332031 57.199219 111.050781 62.175781 109.753906 C 67.152344 108.457031 71.328125 105.296875 73.929688 100.867188 C 76.53125 96.433594 77.246094 91.25 75.949219 86.28125 C 74.648438 81.304688 71.488281 77.136719 67.050781 74.539062 C 62.613281 71.941406 57.425781 71.222656 52.449219 72.519531 Z M 57.316406 111.625 C 48.210938 111.628906 39.871094 105.515625 37.46875 96.3125 C 34.613281 85.378906 41.191406 74.164062 52.132812 71.3125 C 57.4375 69.929688 62.957031 70.695312 67.683594 73.460938 C 72.410156 76.226562 75.773438 80.667969 77.15625 85.964844 C 78.542969 91.257812 77.777344 96.773438 75.007812 101.496094 C 72.238281 106.21875 67.792969 109.582031 62.492188 110.960938 C 60.761719 111.410156 59.027344 111.625 57.316406 111.625 Z M 59.792969 122.625 C 60.023438 122.625 60.238281 122.753906 60.347656 122.960938 L 63.992188 130.003906 L 70.5 128.308594 L 70.234375 120.382812 C 70.226562 120.132812 70.367188 119.902344 70.597656 119.792969 C 72.214844 119.050781 73.757812 118.175781 75.1875 117.199219 C 75.394531 117.054688 75.667969 117.050781 75.878906 117.1875 L 82.550781 121.460938 L 87.335938 116.742188 L 83.140625 110.011719 C 83.007812 109.796875 83.015625 109.527344 83.160156 109.320312 C 84.167969 107.886719 85.066406 106.355469 85.824219 104.777344 C 85.933594 104.550781 86.164062 104.414062 86.417969 104.421875 L 94.347656 104.792969 L 96.128906 98.316406 L 89.136719 94.585938 C 88.914062 94.46875 88.785156 94.230469 88.808594 93.980469 C 88.964844 92.257812 88.972656 90.484375 88.832031 88.707031 C 88.816406 88.457031 88.945312 88.222656 89.171875 88.105469 L 96.21875 84.464844 L 94.523438 77.964844 L 86.589844 78.230469 C 86.34375 78.238281 86.105469 78.09375 86 77.867188 C 85.253906 76.25 84.378906 74.707031 83.402344 73.28125 C 83.257812 73.074219 83.253906 72.800781 83.390625 72.589844 L 87.667969 65.925781 L 82.945312 61.144531 L 76.207031 65.335938 C 75.992188 65.46875 75.722656 65.460938 75.515625 65.316406 C 74.082031 64.308594 72.550781 63.414062 70.96875 62.65625 C 70.742188 62.546875 70.601562 62.3125 70.613281 62.0625 L 70.980469 54.140625 L 64.5 52.359375 L 60.765625 59.347656 C 60.648438 59.566406 60.410156 59.695312 60.160156 59.671875 C 58.4375 59.519531 56.660156 59.507812 54.882812 59.648438 C 54.632812 59.667969 54.394531 59.535156 54.277344 59.3125 L 50.632812 52.269531 L 44.128906 53.964844 L 44.394531 61.890625 C 44.402344 62.140625 44.257812 62.375 44.03125 62.480469 C 42.410156 63.226562 40.867188 64.101562 39.4375 65.074219 C 39.230469 65.21875 38.957031 65.222656 38.746094 65.089844 L 32.074219 60.8125 L 27.289062 65.53125 L 31.488281 72.261719 C 31.621094 72.476562 31.609375 72.75 31.464844 72.953125 C 30.457031 74.386719 29.5625 75.914062 28.800781 77.496094 C 28.691406 77.722656 28.457031 77.863281 28.207031 77.851562 L 20.277344 77.480469 L 18.496094 83.960938 L 25.488281 87.6875 C 25.710938 87.804688 25.839844 88.042969 25.816406 88.292969 C 25.660156 90.015625 25.652344 91.789062 25.792969 93.566406 C 25.8125 93.816406 25.679688 94.050781 25.457031 94.167969 L 18.40625 97.808594 L 20.105469 104.308594 L 28.035156 104.042969 C 28.292969 104.035156 28.519531 104.179688 28.625 104.40625 C 29.371094 106.023438 30.246094 107.566406 31.226562 108.992188 C 31.367188 109.199219 31.371094 109.472656 31.234375 109.683594 L 26.957031 116.347656 L 31.679688 121.128906 L 38.421875 116.9375 C 38.632812 116.804688 38.90625 116.8125 39.109375 116.957031 C 40.546875 117.964844 42.078125 118.859375 43.660156 119.621094 C 43.886719 119.726562 44.023438 119.960938 44.011719 120.210938 L 43.644531 128.132812 L 50.128906 129.914062 L 53.859375 122.929688 C 53.976562 122.707031 54.21875 122.578125 54.46875 122.601562 C 56.191406 122.753906 57.964844 122.765625 59.742188 122.625 C 59.761719 122.625 59.777344 122.625 59.792969 122.625 Z M 63.664062 131.359375 C 63.4375 131.359375 63.21875 131.234375 63.109375 131.023438 L 59.425781 123.902344 C 57.859375 124.003906 56.296875 123.996094 54.769531 123.878906 L 50.996094 130.941406 C 50.859375 131.199219 50.558594 131.328125 50.277344 131.253906 L 42.832031 129.203125 C 42.546875 129.128906 42.359375 128.867188 42.371094 128.574219 L 42.742188 120.5625 C 41.355469 119.878906 40.011719 119.089844 38.730469 118.214844 L 31.917969 122.453125 C 31.671875 122.609375 31.347656 122.570312 31.144531 122.363281 L 25.714844 116.871094 C 25.511719 116.664062 25.476562 116.339844 25.636719 116.09375 L 29.960938 109.355469 C 29.109375 108.082031 28.339844 106.722656 27.664062 105.304688 L 19.644531 105.574219 C 19.34375 105.585938 19.09375 105.390625 19.019531 105.105469 L 17.070312 97.640625 C 16.996094 97.359375 17.128906 97.0625 17.386719 96.929688 L 24.515625 93.246094 C 24.410156 91.683594 24.417969 90.121094 24.539062 88.597656 L 17.464844 84.824219 C 17.207031 84.691406 17.078125 84.390625 17.15625 84.109375 L 19.207031 76.667969 C 19.28125 76.386719 19.542969 76.195312 19.835938 76.210938 L 27.855469 76.582031 C 28.542969 75.195312 29.332031 73.851562 30.207031 72.574219 L 25.964844 65.769531 C 25.808594 65.519531 25.847656 65.199219 26.054688 64.992188 L 31.550781 59.574219 C 31.761719 59.367188 32.082031 59.332031 32.328125 59.492188 L 39.078125 63.8125 C 40.351562 62.964844 41.710938 62.195312 43.128906 61.519531 L 42.859375 53.507812 C 42.851562 53.21875 43.042969 52.957031 43.328125 52.882812 L 50.800781 50.9375 C 51.082031 50.859375 51.378906 50.992188 51.515625 51.253906 L 55.199219 58.375 C 56.765625 58.269531 58.328125 58.277344 59.855469 58.394531 L 63.628906 51.332031 C 63.769531 51.074219 64.066406 50.945312 64.347656 51.023438 L 71.796875 53.070312 C 72.078125 53.148438 72.269531 53.410156 72.253906 53.699219 L 71.882812 61.710938 C 73.269531 62.398438 74.617188 63.183594 75.894531 64.058594 L 82.707031 59.820312 C 82.957031 59.667969 83.277344 59.703125 83.484375 59.914062 L 88.910156 65.402344 C 89.113281 65.609375 89.148438 65.933594 88.992188 66.179688 L 84.664062 72.917969 C 85.515625 74.191406 86.285156 75.550781 86.960938 76.96875 L 94.980469 76.699219 C 95.277344 76.6875 95.53125 76.882812 95.605469 77.164062 L 97.558594 84.632812 C 97.628906 84.914062 97.5 85.210938 97.238281 85.347656 L 90.109375 89.027344 C 90.214844 90.589844 90.207031 92.152344 90.089844 93.679688 L 97.160156 97.449219 C 97.417969 97.585938 97.546875 97.882812 97.46875 98.164062 L 95.421875 105.605469 C 95.34375 105.886719 95.082031 106.074219 94.789062 106.0625 L 86.769531 105.691406 C 86.082031 107.078125 85.296875 108.421875 84.417969 109.699219 L 88.664062 116.503906 C 88.816406 116.753906 88.777344 117.074219 88.570312 117.28125 L 83.074219 122.703125 C 82.867188 122.90625 82.542969 122.941406 82.296875 122.78125 L 75.550781 118.460938 C 74.273438 119.3125 72.914062 120.078125 71.496094 120.753906 L 71.765625 128.765625 C 71.773438 129.058594 71.582031 129.316406 71.296875 129.390625 L 63.824219 131.339844 C 63.773438 131.351562 63.71875 131.359375 63.664062 131.359375 " fill-opacity="1" fill-rule="nonzero"/><path fill="#78299d" d="M 340.554688 367.898438 L 255.078125 367.898438 C 249.945312 367.898438 246.109375 363.191406 247.140625 358.171875 L 260.109375 295.199219 C 261.203125 289.902344 265.867188 286.101562 271.277344 286.101562 L 344.597656 286.101562 L 340.554688 367.898438 " fill-opacity="1" fill-rule="nonzero"/><path fill="#000000" d="M 271.277344 286.726562 C 266.1875 286.726562 261.746094 290.339844 260.722656 295.324219 L 247.753906 358.300781 C 247.296875 360.507812 247.855469 362.777344 249.28125 364.523438 C 250.707031 366.269531 252.820312 367.273438 255.078125 367.273438 L 339.957031 367.273438 L 343.941406 286.726562 Z M 340.554688 368.523438 L 255.078125 368.523438 C 252.445312 368.523438 249.976562 367.351562 248.3125 365.3125 C 246.648438 363.273438 245.996094 360.625 246.527344 358.046875 L 259.496094 295.074219 C 260.640625 289.511719 265.59375 285.476562 271.277344 285.476562 L 344.597656 285.476562 C 344.769531 285.476562 344.929688 285.546875 345.054688 285.671875 C 345.167969 285.796875 345.230469 285.960938 345.222656 286.132812 L 341.179688 367.929688 C 341.164062 368.261719 340.890625 368.523438 340.554688 368.523438 " fill-opacity="1" fill-rule="nonzero"/><path fill="#c3c3ff" d="M 351.496094 367.898438 L 334.910156 367.898438 C 329.78125 367.898438 325.941406 363.191406 326.972656 358.171875 L 341.257812 288.8125 C 341.582031 287.234375 342.972656 286.101562 344.585938 286.101562 L 348.851562 286.101562 C 350.617188 286.101562 352.089844 287.457031 352.234375 289.21875 L 358.078125 360.765625 C 358.390625 364.609375 355.355469 367.898438 351.496094 367.898438 " fill-opacity="1" fill-rule="nonzero"/><path fill="#000000" d="M 344.582031 286.726562 C 343.277344 286.726562 342.132812 287.65625 341.871094 288.9375 L 327.585938 358.300781 C 327.132812 360.507812 327.6875 362.777344 329.117188 364.523438 C 330.542969 366.269531 332.65625 367.273438 334.910156 367.273438 L 351.5 367.273438 C 353.1875 367.273438 354.75 366.589844 355.894531 365.351562 C 357.035156 364.109375 357.59375 362.5 357.457031 360.820312 L 351.613281 289.269531 C 351.496094 287.84375 350.28125 286.726562 348.851562 286.726562 Z M 351.5 368.523438 L 334.910156 368.523438 C 332.277344 368.523438 329.808594 367.351562 328.148438 365.3125 C 326.484375 363.273438 325.832031 360.625 326.363281 358.046875 L 340.644531 288.683594 C 341.027344 286.824219 342.6875 285.476562 344.582031 285.476562 L 348.851562 285.476562 C 350.929688 285.476562 352.6875 287.097656 352.859375 289.167969 L 358.703125 360.71875 C 358.863281 362.722656 358.175781 364.71875 356.8125 366.195312 C 355.449219 367.675781 353.511719 368.523438 351.5 368.523438 " fill-opacity="1" fill-rule="nonzero"/><path fill="#000000" d="M 324.105469 319.785156 L 263.921875 319.785156 C 263.574219 319.785156 263.292969 319.503906 263.292969 319.160156 C 263.292969 318.8125 263.574219 318.535156 263.921875 318.535156 L 324.105469 318.535156 C 325.804688 318.535156 327.269531 317.378906 327.660156 315.726562 L 333.5625 290.847656 C 333.640625 290.507812 333.980469 290.300781 334.3125 290.382812 C 334.648438 290.460938 334.855469 290.796875 334.777344 291.132812 L 328.878906 316.011719 C 328.351562 318.234375 326.390625 319.785156 324.105469 319.785156 " fill-opacity="1" fill-rule="nonzero"/><path fill="#ffffff" d="M 303.078125 319.160156 L 301.203125 326.714844 C 300.898438 327.992188 299.757812 328.894531 298.441406 328.894531 L 285.1875 328.894531 C 283.742188 328.894531 282.699219 327.519531 283.085938 326.128906 L 285.027344 319.160156 L 303.078125 319.160156 " fill-opacity="1" fill-rule="nonzero"/><path fill="#000000" d="M 285.503906 319.785156 L 283.6875 326.296875 C 283.554688 326.769531 283.652344 327.265625 283.949219 327.65625 C 284.246094 328.046875 284.695312 328.269531 285.1875 328.269531 L 298.441406 328.269531 C 299.472656 328.269531 300.355469 327.570312 300.59375 326.570312 L 302.277344 319.785156 Z M 298.441406 329.519531 L 285.1875 329.519531 C 284.300781 329.519531 283.488281 329.117188 282.953125 328.410156 C 282.414062 327.707031 282.246094 326.8125 282.480469 325.960938 L 284.425781 318.992188 C 284.5 318.722656 284.746094 318.535156 285.027344 318.535156 L 303.078125 318.535156 C 303.269531 318.535156 303.449219 318.621094 303.570312 318.773438 C 303.6875 318.925781 303.730469 319.121094 303.683594 319.308594 L 301.808594 326.863281 C 301.441406 328.421875 300.054688 329.519531 298.441406 329.519531 " fill-opacity="1" fill-rule="nonzero"/><path fill="#ffffff" d="M 331.199219 285.679688 L 332.738281 277.792969 C 333.449219 272.84375 330.832031 270.085938 327.066406 270.085938 L 292.492188 270.085938 C 288.726562 270.085938 285.15625 274.027344 284.523438 277.792969 L 282.984375 285.679688 L 288.535156 285.679688 L 289.875 278.964844 C 290.371094 276.039062 292.160156 274.554688 295.09375 274.554688 L 324.203125 274.554688 C 327.140625 274.554688 327.480469 276.039062 326.988281 278.964844 L 325.648438 285.679688 L 331.199219 285.679688 " fill-opacity="1" fill-rule="nonzero"/><path fill="#000000" d="M 326.410156 285.054688 L 330.683594 285.054688 L 332.125 277.671875 C 332.445312 275.429688 332.046875 273.566406 330.964844 272.316406 C 330.050781 271.265625 328.703125 270.710938 327.0625 270.710938 L 292.492188 270.710938 C 288.976562 270.710938 285.710938 274.503906 285.140625 277.894531 L 283.742188 285.054688 L 288.019531 285.054688 L 289.261719 278.84375 C 289.804688 275.636719 291.820312 273.929688 295.09375 273.929688 L 324.207031 273.929688 C 325.625 273.929688 326.5625 274.253906 327.148438 274.945312 C 327.992188 275.941406 327.867188 277.519531 327.605469 279.070312 Z M 331.199219 286.304688 L 325.648438 286.304688 C 325.460938 286.304688 325.28125 286.21875 325.164062 286.078125 C 325.042969 285.933594 324.996094 285.742188 325.035156 285.558594 L 326.375 278.84375 C 326.65625 277.167969 326.601562 276.238281 326.191406 275.753906 C 325.867188 275.367188 325.21875 275.179688 324.207031 275.179688 L 295.09375 275.179688 C 292.4375 275.179688 290.933594 276.453125 290.492188 279.070312 L 289.148438 285.804688 C 289.085938 286.09375 288.832031 286.304688 288.53125 286.304688 L 282.980469 286.304688 C 282.792969 286.304688 282.617188 286.222656 282.496094 286.078125 C 282.378906 285.933594 282.332031 285.746094 282.367188 285.5625 L 283.910156 277.671875 C 284.5625 273.796875 288.25 269.460938 292.492188 269.460938 L 327.0625 269.460938 C 329.046875 269.460938 330.765625 270.183594 331.910156 271.5 C 333.234375 273.03125 333.738281 275.234375 333.359375 277.878906 L 331.8125 285.800781 C 331.753906 286.09375 331.496094 286.304688 331.199219 286.304688 " fill-opacity="1" fill-rule="nonzero"/><path fill="#c3c3ff" d="M 324.769531 268.78125 L 295.53125 268.78125 C 294.355469 268.78125 293.238281 269.730469 293.039062 270.910156 L 292.609375 273.460938 C 292.414062 274.636719 293.207031 275.589844 294.382812 275.589844 L 323.621094 275.589844 C 324.796875 275.589844 325.914062 274.636719 326.109375 273.460938 L 326.542969 270.910156 C 326.738281 269.730469 325.945312 268.78125 324.769531 268.78125 " fill-opacity="1" fill-rule="nonzero"/><path fill="#000000" d="M 295.535156 269.40625 C 294.664062 269.40625 293.804688 270.140625 293.65625 271.011719 L 293.226562 273.5625 C 293.160156 273.953125 293.246094 274.3125 293.46875 274.574219 C 293.683594 274.828125 294.007812 274.964844 294.386719 274.964844 L 323.621094 274.964844 C 324.488281 274.964844 325.347656 274.230469 325.496094 273.355469 L 325.925781 270.804688 C 325.988281 270.417969 325.90625 270.054688 325.683594 269.796875 C 325.46875 269.542969 325.144531 269.40625 324.769531 269.40625 Z M 323.621094 276.214844 L 294.386719 276.214844 C 293.632812 276.214844 292.96875 275.921875 292.515625 275.382812 C 292.050781 274.835938 291.867188 274.117188 291.992188 273.355469 L 292.421875 270.804688 C 292.675781 269.320312 294.039062 268.152344 295.535156 268.152344 L 324.769531 268.152344 C 325.519531 268.152344 326.183594 268.449219 326.636719 268.988281 C 327.101562 269.535156 327.285156 270.253906 327.15625 271.011719 L 326.726562 273.5625 C 326.480469 275.050781 325.109375 276.214844 323.621094 276.214844 " fill-opacity="1" fill-rule="nonzero"/><path fill="#7f56d9" d="M 334.753906 358.570312 C 334.535156 358.570312 334.324219 358.457031 334.207031 358.257812 C 334.039062 357.957031 334.144531 357.574219 334.441406 357.40625 L 345.585938 351.0625 L 345.585938 295.339844 C 345.585938 294.996094 345.867188 294.714844 346.210938 294.714844 C 346.558594 294.714844 346.835938 294.996094 346.835938 295.339844 L 346.835938 351.425781 C 346.835938 351.648438 346.714844 351.855469 346.519531 351.96875 L 335.0625 358.488281 C 334.964844 358.546875 334.859375 358.570312 334.753906 358.570312 " fill-opacity="1" fill-rule="nonzero"/></svg>