<svg width="187" height="36" viewBox="0 0 187 36" fill="none" xmlns="http://www.w3.org/2000/svg">
<path d="M59.5869 9.0923C62.2599 9.0923 64.3982 9.98265 66.1802 11.8227L66.2989 11.9414L68.6749 9.6265L68.6154 9.5078C66.4772 7.13355 63.2102 5.8277 59.4682 5.8277C52.1029 5.8277 46.6977 10.9324 46.6977 17.9958C46.6977 25.0592 52.0434 30.1637 59.4087 30.1637C63.1509 30.1637 66.4177 28.858 68.6154 26.4242L68.6749 26.3055L66.2989 23.9907L66.1802 24.1094C64.3982 25.9495 62.2004 26.8993 59.5869 26.8993C54.2412 26.8993 50.3804 23.1597 50.3804 17.9958C50.3804 12.8318 54.3007 9.0923 59.5869 9.0923ZM78.8319 27.0772C75.3274 27.0772 72.8922 24.5249 72.8922 20.9636C72.8922 17.3428 75.3274 14.8498 78.8319 14.8498C82.3364 14.8498 84.7717 17.3428 84.7717 20.9636C84.7717 24.5843 82.3364 27.0772 78.8319 27.0772ZM78.8319 11.7633C73.3079 11.7633 69.3282 15.6215 69.3282 20.9636C69.3282 26.3055 73.3079 30.1637 78.8319 30.1637C84.3559 30.1637 88.3354 26.3055 88.3354 20.9636C88.3354 15.6215 84.2964 11.7633 78.8319 11.7633ZM99.0272 27.0772C95.5227 27.0772 93.0279 24.5249 93.0279 20.9042C93.0279 17.2835 95.4632 14.7311 99.0272 14.7311C102.532 14.7311 104.967 17.2835 104.967 20.9042C104.967 24.5249 102.532 27.0772 99.0272 27.0772ZM104.967 14.2563C103.482 12.535 101.344 11.6446 98.7897 11.6446C93.3249 11.6446 89.5234 15.4434 89.5234 20.9042C89.5234 26.365 93.3249 30.1637 98.7897 30.1637C101.403 30.1637 103.66 29.1548 105.086 27.374V29.9263H108.471V4.64057H104.907L104.967 14.2563ZM119.876 14.7311C122.786 14.7311 124.984 16.6899 125.4 19.539H114.411C114.768 16.6899 116.906 14.7311 119.876 14.7311ZM119.876 11.7633C114.649 11.7633 110.907 15.6215 110.907 20.9636C110.907 26.365 114.827 30.1637 120.529 30.1637C123.499 30.1637 125.934 29.1548 127.597 27.2553L127.657 27.196L125.697 24.9404L125.578 25.0592C124.331 26.4242 122.667 27.1365 120.589 27.1365C117.262 27.1365 114.827 25.2373 114.352 22.21H128.607V22.0913C128.667 21.7945 128.667 21.3791 128.667 21.0823C128.726 15.5621 125.043 11.7633 119.876 11.7633ZM144.942 24.5843C143.872 26.187 142.209 27.0772 140.13 27.0772C136.507 27.0772 134.072 24.5843 134.072 20.9636C134.072 17.3428 136.567 14.8498 140.13 14.8498C142.209 14.8498 143.872 15.6809 144.942 17.3428L145.001 17.4615L147.733 15.7402L147.674 15.6215C146.248 13.1879 143.516 11.7633 140.19 11.7633C134.606 11.7633 130.508 15.6215 130.508 20.9636C130.508 26.3055 134.606 30.1637 140.19 30.1637C143.516 30.1637 146.248 28.7393 147.674 26.2463L147.733 26.1275L145.001 24.4656L144.942 24.5843ZM158.425 27.0772C154.92 27.0772 152.485 24.5249 152.485 20.9636C152.485 17.3428 154.92 14.8498 158.425 14.8498C161.929 14.8498 164.365 17.3428 164.365 20.9636C164.365 24.5843 161.929 27.0772 158.425 27.0772ZM158.425 11.7633C152.901 11.7633 148.921 15.6215 148.921 20.9636C148.921 26.3055 152.901 30.1637 158.425 30.1637C163.949 30.1637 167.929 26.3055 167.929 20.9636C167.929 15.6215 163.89 11.7633 158.425 11.7633ZM182.897 11.7633L176.838 25.6528L170.898 11.7633H167.275L175.056 29.5107L175.116 29.5702H178.561L186.342 11.7633H182.897ZM19.033 0C8.62012 0 0.138672 8.3916 0.138672 18.6294V18.7133L3.32972 20.5595H3.4137C5.4291 19.2168 7.86437 18.7133 10.2996 19.1329C11.9791 19.4685 13.5746 20.2238 14.8343 21.3986L15.4221 21.9021L15.758 21.2308C16.0939 20.5595 16.4298 19.972 16.7657 19.3846C16.9336 19.1329 17.1016 18.965 17.2695 18.7133L17.6054 18.2937L17.1856 17.958C15.4221 16.5315 13.3227 15.5245 11.0554 15.1049C8.87205 14.6853 6.68872 14.7692 4.67332 15.4405C6.18487 8.8112 12.0631 4.1119 19.033 4.1119C22.9798 4.1119 26.6747 5.62237 29.4459 8.3916C31.4614 10.3217 32.8049 12.7552 33.3927 15.4405C32.1332 15.021 30.7894 14.8532 29.4459 14.8532H29.1939C28.6902 14.8532 28.1862 14.937 27.5984 14.937H27.5144C27.3464 14.937 27.0947 15.021 26.9267 15.021C26.5907 15.1049 26.3389 15.1049 26.0029 15.1888L25.7509 15.2727C25.4992 15.3567 25.2472 15.4405 24.9952 15.5245H24.9112C24.3234 15.6923 23.8196 15.9441 23.2318 16.1958C22.9798 16.2797 22.7279 16.4475 22.476 16.6154H22.392C21.1324 17.3706 19.9567 18.2937 19.033 19.4685L18.949 19.6364C18.6971 19.972 18.5292 20.2238 18.3612 20.3916C18.1933 20.5595 18.1093 20.8112 17.9413 21.0629L17.8574 21.2308C17.6894 21.4825 17.6054 21.7343 17.5215 21.9021V21.986C17.2695 22.4895 17.0176 23.0769 16.8497 23.6643V23.7482C16.4298 25.091 16.1779 26.5175 16.1779 28.028V28.1957C16.1779 28.3637 16.1779 28.6155 16.1779 28.7833C16.1779 28.8673 16.1779 28.951 16.1779 29.035C16.1779 29.119 16.1779 29.2868 16.1779 29.3708V29.4545V29.6225C16.1779 29.7902 16.2618 30.042 16.2618 30.2097C16.6817 32.2237 17.6054 34.1538 19.033 35.916L19.117 36L19.201 35.916C19.7888 35.2448 21.1324 33.1468 21.3003 31.888C20.6285 30.6292 20.2926 29.2028 20.2926 27.8603C20.2926 23.1609 23.9875 19.2168 28.7742 18.965H29.1099C31.0414 18.8811 32.9729 19.4685 34.5684 20.5595H34.6524L37.8434 18.7133V18.6294C37.8434 13.6783 35.9119 8.97902 32.3012 5.45455C28.7742 1.93007 24.0715 0 19.033 0Z" fill="black" fill-opacity="0.4"/>
</svg>
