<svg width="153" height="58" viewBox="0 0 153 58" fill="none" xmlns="http://www.w3.org/2000/svg">
<path d="M0.768466 23V19.6761L8.5348 12.4851C9.19531 11.8459 9.74929 11.2706 10.1967 10.7592C10.6513 10.2479 10.9957 9.74716 11.2301 9.2571C11.4645 8.75994 11.5817 8.22372 11.5817 7.64844C11.5817 7.00923 11.4361 6.45881 11.1449 5.99716C10.8537 5.52841 10.456 5.16974 9.95171 4.92116C9.44744 4.66548 8.87571 4.53764 8.23651 4.53764C7.56889 4.53764 6.98651 4.67259 6.48935 4.94247C5.99219 5.21236 5.60866 5.59943 5.33878 6.10369C5.06889 6.60795 4.93395 7.2081 4.93395 7.90412H0.555398C0.555398 6.47656 0.878551 5.23722 1.52486 4.18608C2.17116 3.13494 3.0767 2.32173 4.24148 1.74645C5.40625 1.17116 6.74858 0.883522 8.26847 0.883522C9.83097 0.883522 11.1911 1.16051 12.3487 1.71449C13.5135 2.26136 14.419 3.02131 15.0653 3.99432C15.7116 4.96733 16.0348 6.08239 16.0348 7.33949C16.0348 8.16335 15.8714 8.97656 15.5447 9.77912C15.2251 10.5817 14.6534 11.473 13.8295 12.4531C13.0057 13.4261 11.8445 14.5945 10.3459 15.9581L7.16051 19.0795V19.2287H16.3224V23H0.768466ZM27.6337 23.2983C26.128 23.2983 24.7857 23.0213 23.6067 22.4673C22.4348 21.9134 21.5044 21.1499 20.8155 20.1768C20.1266 19.2038 19.7679 18.0888 19.7395 16.8317H24.214C24.2637 17.6768 24.6188 18.3622 25.2793 18.8878C25.9398 19.4134 26.7246 19.6761 27.6337 19.6761C28.3581 19.6761 28.9973 19.5163 29.5513 19.1967C30.1124 18.87 30.5492 18.419 30.8617 17.8438C31.1813 17.2614 31.3411 16.5937 31.3411 15.8409C31.3411 15.0739 31.1777 14.3991 30.851 13.8168C30.5314 13.2344 30.0875 12.7798 29.5194 12.4531C28.9512 12.1264 28.3013 11.9595 27.5698 11.9524C26.9306 11.9524 26.3091 12.0838 25.7054 12.3466C25.1088 12.6094 24.6436 12.968 24.3098 13.4226L20.2083 12.6875L21.2417 1.18182H34.5797V4.95312H25.0449L24.4803 10.4183H24.6081C24.9917 9.87855 25.5705 9.43111 26.3446 9.07599C27.1188 8.72088 27.9853 8.54332 28.9441 8.54332C30.258 8.54332 31.4299 8.85227 32.4597 9.47017C33.4895 10.0881 34.3027 10.9368 34.8993 12.0163C35.4959 13.0888 35.7907 14.3246 35.7836 15.7237C35.7907 17.1939 35.4498 18.5007 34.7608 19.6442C34.079 20.7805 33.1238 21.6754 31.8951 22.3288C30.6735 22.9751 29.253 23.2983 27.6337 23.2983ZM47.5556 23.4794C45.7232 23.4723 44.1465 23.0213 42.8255 22.1264C41.5115 21.2315 40.4995 19.9354 39.7892 18.2379C39.0861 16.5405 38.7381 14.4986 38.7452 12.1122C38.7452 9.73295 39.0968 7.70526 39.7999 6.02912C40.5101 4.35298 41.5222 3.07812 42.8361 2.20455C44.1571 1.32386 45.7303 0.883522 47.5556 0.883522C49.3809 0.883522 50.9505 1.32386 52.2644 2.20455C53.5854 3.08523 54.601 4.36364 55.3113 6.03977C56.0215 7.70881 56.373 9.73295 56.3659 12.1122C56.3659 14.5057 56.0108 16.5511 55.3006 18.2486C54.5975 19.946 53.589 21.2422 52.275 22.1371C50.9611 23.032 49.388 23.4794 47.5556 23.4794ZM47.5556 19.6548C48.8056 19.6548 49.8034 19.0263 50.5492 17.7692C51.2949 16.5121 51.6642 14.6264 51.6571 12.1122C51.6571 10.4574 51.4867 9.07955 51.1458 7.97869C50.812 6.87784 50.3361 6.05043 49.7182 5.49645C49.1074 4.94247 48.3865 4.66548 47.5556 4.66548C46.3127 4.66548 45.3184 5.28693 44.5726 6.52983C43.8269 7.77273 43.4505 9.63352 43.4434 12.1122C43.4434 13.7884 43.6103 15.1875 43.9441 16.3097C44.285 17.4247 44.7644 18.2628 45.3823 18.8239C46.0002 19.3778 46.7246 19.6548 47.5556 19.6548ZM66.1751 19.6761V4.59091H69.989V19.6761H66.1751ZM60.5394 14.0405V10.2266H75.6246V14.0405H60.5394Z" fill="#7F56D9"/>
<path d="M15.6548 44.5H13.9858C13.8615 43.8786 13.6366 43.3045 13.3111 42.7777C12.9915 42.245 12.589 41.7804 12.1037 41.3839C11.6184 40.9873 11.0679 40.6796 10.4524 40.4606C9.83688 40.2416 9.17105 40.1321 8.4549 40.1321C7.3067 40.1321 6.25912 40.431 5.31215 41.0288C4.37109 41.6265 3.61648 42.5054 3.0483 43.6655C2.48603 44.8196 2.2049 46.2341 2.2049 47.9091C2.2049 49.5959 2.48603 51.0163 3.0483 52.1705C3.61648 53.3246 4.37109 54.2005 5.31215 54.7983C6.25912 55.3902 7.3067 55.6861 8.4549 55.6861C9.17105 55.6861 9.83688 55.5766 10.4524 55.3576C11.0679 55.1386 11.6184 54.8338 12.1037 54.4432C12.589 54.0466 12.9915 53.582 13.3111 53.0494C13.6366 52.5167 13.8615 51.9396 13.9858 51.3182H15.6548C15.5069 52.1527 15.2287 52.931 14.8203 53.6531C14.4179 54.3692 13.9029 54.9966 13.2756 55.5352C12.6541 56.0737 11.938 56.494 11.1271 56.7958C10.3163 57.0977 9.42555 57.2486 8.4549 57.2486C6.92791 57.2486 5.57256 56.8668 4.38885 56.1033C3.20514 55.3339 2.27592 54.2508 1.60121 52.854C0.93241 51.4573 0.598011 49.8089 0.598011 47.9091C0.598011 46.0092 0.93241 44.3609 1.60121 42.9641C2.27592 41.5674 3.20514 40.4872 4.38885 39.7237C5.57256 38.9543 6.92791 38.5696 8.4549 38.5696C9.42555 38.5696 10.3163 38.7205 11.1271 39.0224C11.938 39.3183 12.6541 39.7385 13.2756 40.283C13.9029 40.8216 14.4179 41.449 14.8203 42.1651C15.2287 42.8813 15.5069 43.6596 15.6548 44.5ZM24.526 57.2841C23.3482 57.2841 22.3066 56.9852 21.401 56.3874C20.5014 55.7897 19.7971 54.964 19.2881 53.9105C18.7791 52.8511 18.5246 51.6289 18.5246 50.244C18.5246 48.8472 18.7791 47.6191 19.2881 46.5597C19.7971 45.4943 20.5014 44.6657 21.401 44.0739C22.3066 43.4761 23.3482 43.1772 24.526 43.1772C25.7038 43.1772 26.7425 43.4761 27.6421 44.0739C28.5418 44.6716 29.2461 45.5002 29.7551 46.5597C30.27 47.6191 30.5274 48.8472 30.5274 50.244C30.5274 51.6289 30.2729 52.8511 29.7639 53.9105C29.2549 54.964 28.5477 55.7897 27.6421 56.3874C26.7425 56.9852 25.7038 57.2841 24.526 57.2841ZM24.526 55.837C25.473 55.837 26.2749 55.5825 26.9319 55.0735C27.5889 54.5645 28.086 53.8868 28.4234 53.0405C28.7667 52.1941 28.9383 51.262 28.9383 50.244C28.9383 49.226 28.7667 48.2908 28.4234 47.4386C28.086 46.5863 27.5889 45.9027 26.9319 45.3878C26.2749 44.8729 25.473 44.6154 24.526 44.6154C23.585 44.6154 22.783 44.8729 22.1201 45.3878C21.4632 45.9027 20.963 46.5863 20.6198 47.4386C20.2824 48.2908 20.1137 49.226 20.1137 50.244C20.1137 51.262 20.2824 52.1941 20.6198 53.0405C20.963 53.8868 21.4632 54.5645 22.1201 55.0735C22.7771 55.5825 23.579 55.837 24.526 55.837ZM35.5767 38.8182V57H33.9964V38.8182H35.5767ZM41.3384 38.8182V57H39.7582V38.8182H41.3384ZM49.3285 57.3107C48.5058 57.3107 47.7541 57.1509 47.0735 56.8313C46.3929 56.5058 45.8513 56.0382 45.4489 55.4286C45.0464 54.8131 44.8452 54.0674 44.8452 53.1914C44.8452 52.5167 44.9724 51.9485 45.2269 51.4869C45.4814 51.0252 45.8424 50.6464 46.31 50.3505C46.7776 50.0546 47.331 49.8208 47.9702 49.6491C48.6094 49.4775 49.3137 49.3443 50.0831 49.2496C50.8466 49.1549 51.4917 49.0721 52.0185 49.0011C52.5511 48.93 52.9566 48.8176 53.2347 48.6637C53.5129 48.5098 53.652 48.2612 53.652 47.918V47.5984C53.652 46.6692 53.3738 45.9382 52.8175 45.4055C52.267 44.867 51.474 44.5977 50.4382 44.5977C49.4557 44.5977 48.6538 44.8137 48.0323 45.2457C47.4168 45.6778 46.9847 46.1868 46.7362 46.7727L45.2358 46.2312C45.5436 45.4854 45.9697 44.8906 46.5142 44.4467C47.0587 43.9969 47.6683 43.6744 48.343 43.479C49.0178 43.2778 49.7013 43.1772 50.3938 43.1772C50.9147 43.1772 51.4562 43.2453 52.0185 43.3814C52.5866 43.5175 53.1134 43.7543 53.5987 44.0916C54.084 44.4231 54.4776 44.8877 54.7795 45.4854C55.0813 46.0773 55.2322 46.829 55.2322 47.7404V57H53.652V54.8427H53.5543C53.3649 55.2451 53.0838 55.6358 52.7109 56.0146C52.3381 56.3933 51.8705 56.7041 51.3082 56.9467C50.746 57.1894 50.0861 57.3107 49.3285 57.3107ZM49.5415 55.8636C50.382 55.8636 51.11 55.6772 51.7255 55.3043C52.341 54.9315 52.8145 54.4373 53.146 53.8217C53.4833 53.2003 53.652 52.5167 53.652 51.771V49.8001C53.5336 49.9125 53.3353 50.0131 53.0572 50.1019C52.7849 50.1907 52.4683 50.2706 52.1072 50.3416C51.7521 50.4067 51.397 50.4629 51.0419 50.5103C50.6868 50.5576 50.3672 50.5991 50.0831 50.6346C49.3137 50.7293 48.6567 50.8772 48.1122 51.0785C47.5677 51.2797 47.1504 51.5579 46.8604 51.913C46.5704 52.2622 46.4254 52.712 46.4254 53.2624C46.4254 54.091 46.7214 54.7332 47.3132 55.1889C47.9051 55.6387 48.6478 55.8636 49.5415 55.8636ZM59.7644 57V38.8182H61.3535V45.9648H61.4956C61.6731 45.5565 61.9276 45.1362 62.2591 44.7042C62.5964 44.2721 63.0373 43.9111 63.5819 43.6211C64.1323 43.3252 64.8248 43.1772 65.6593 43.1772C66.7779 43.1772 67.7604 43.4731 68.6067 44.065C69.4531 44.6509 70.113 45.4736 70.5865 46.533C71.06 47.5865 71.2967 48.8146 71.2967 50.2173C71.2967 51.6259 71.06 52.86 70.5865 53.9194C70.1189 54.9788 69.4619 55.8045 68.6156 56.3963C67.7752 56.9882 66.7986 57.2841 65.6859 57.2841C64.8573 57.2841 64.1648 57.1361 63.6085 56.8402C63.0581 56.5443 62.6142 56.1803 62.2768 55.7482C61.9395 55.3103 61.679 54.8841 61.4956 54.4698H61.3002V57H59.7644ZM61.3269 50.1907C61.3269 51.2915 61.4896 52.2681 61.8152 53.1204C62.1466 53.9667 62.6201 54.6326 63.2356 55.1179C63.8571 55.5973 64.6087 55.837 65.4906 55.837C66.3961 55.837 67.1626 55.5884 67.79 55.0913C68.4173 54.5882 68.8938 53.9105 69.2193 53.0582C69.5448 52.206 69.7076 51.2501 69.7076 50.1907C69.7076 49.1431 69.5448 48.1991 69.2193 47.3587C68.8997 46.5182 68.4262 45.8524 67.7988 45.3612C67.1715 44.864 66.402 44.6154 65.4906 44.6154C64.6028 44.6154 63.8482 44.8551 63.2267 45.3345C62.6112 45.808 62.1407 46.465 61.8152 47.3054C61.4896 48.1399 61.3269 49.1017 61.3269 50.1907ZM80.068 57.2841C78.8902 57.2841 77.8485 56.9852 76.943 56.3874C76.0434 55.7897 75.3391 54.964 74.8301 53.9105C74.3211 52.8511 74.0666 51.6289 74.0666 50.244C74.0666 48.8472 74.3211 47.6191 74.8301 46.5597C75.3391 45.4943 76.0434 44.6657 76.943 44.0739C77.8485 43.4761 78.8902 43.1772 80.068 43.1772C81.2458 43.1772 82.2845 43.4761 83.1841 44.0739C84.0837 44.6716 84.7881 45.5002 85.2971 46.5597C85.812 47.6191 86.0694 48.8472 86.0694 50.244C86.0694 51.6289 85.8149 52.8511 85.3059 53.9105C84.7969 54.964 84.0897 55.7897 83.1841 56.3874C82.2845 56.9852 81.2458 57.2841 80.068 57.2841ZM80.068 55.837C81.015 55.837 81.8169 55.5825 82.4739 55.0735C83.1309 54.5645 83.628 53.8868 83.9654 53.0405C84.3087 52.1941 84.4803 51.262 84.4803 50.244C84.4803 49.226 84.3087 48.2908 83.9654 47.4386C83.628 46.5863 83.1309 45.9027 82.4739 45.3878C81.8169 44.8729 81.015 44.6154 80.068 44.6154C79.127 44.6154 78.325 44.8729 77.6621 45.3878C77.0051 45.9027 76.505 46.5863 76.1618 47.4386C75.8244 48.2908 75.6557 49.226 75.6557 50.244C75.6557 51.262 75.8244 52.1941 76.1618 53.0405C76.505 53.8868 77.0051 54.5645 77.6621 55.0735C78.3191 55.5825 79.121 55.837 80.068 55.837ZM89.5384 57V43.3636H91.0743V45.4588H91.1897C91.462 44.7723 91.9355 44.2189 92.6102 43.7987C93.2908 43.3725 94.0602 43.1594 94.9184 43.1594C95.0486 43.1594 95.1936 43.1624 95.3534 43.1683C95.5132 43.1742 95.6464 43.1802 95.7529 43.1861V44.793C95.6819 44.7811 95.5576 44.7634 95.3801 44.7397C95.2025 44.716 95.0102 44.7042 94.803 44.7042C94.0928 44.7042 93.4595 44.8551 92.9031 45.157C92.3527 45.4529 91.9177 45.8642 91.5981 46.391C91.2785 46.9177 91.1187 47.5185 91.1187 48.1932V57H89.5384ZM102.258 57.3107C101.435 57.3107 100.684 57.1509 100.003 56.8313C99.3226 56.5058 98.781 56.0382 98.3786 55.4286C97.9761 54.8131 97.7749 54.0674 97.7749 53.1914C97.7749 52.5167 97.9021 51.9485 98.1566 51.4869C98.4111 51.0252 98.7721 50.6464 99.2397 50.3505C99.7073 50.0546 100.261 49.8208 100.9 49.6491C101.539 49.4775 102.243 49.3443 103.013 49.2496C103.776 49.1549 104.421 49.0721 104.948 49.0011C105.481 48.93 105.886 48.8176 106.164 48.6637C106.443 48.5098 106.582 48.2612 106.582 47.918V47.5984C106.582 46.6692 106.304 45.9382 105.747 45.4055C105.197 44.867 104.404 44.5977 103.368 44.5977C102.385 44.5977 101.583 44.8137 100.962 45.2457C100.346 45.6778 99.9144 46.1868 99.6658 46.7727L98.1655 46.2312C98.4732 45.4854 98.8994 44.8906 99.4439 44.4467C99.9884 43.9969 100.598 43.6744 101.273 43.479C101.947 43.2778 102.631 43.1772 103.324 43.1772C103.844 43.1772 104.386 43.2453 104.948 43.3814C105.516 43.5175 106.043 43.7543 106.528 44.0916C107.014 44.4231 107.407 44.8877 107.709 45.4854C108.011 46.0773 108.162 46.829 108.162 47.7404V57H106.582V54.8427H106.484C106.295 55.2451 106.013 55.6358 105.641 56.0146C105.268 56.3933 104.8 56.7041 104.238 56.9467C103.676 57.1894 103.016 57.3107 102.258 57.3107ZM102.471 55.8636C103.312 55.8636 104.04 55.6772 104.655 55.3043C105.271 54.9315 105.744 54.4373 106.076 53.8217C106.413 53.2003 106.582 52.5167 106.582 51.771V49.8001C106.463 49.9125 106.265 50.0131 105.987 50.1019C105.715 50.1907 105.398 50.2706 105.037 50.3416C104.682 50.4067 104.327 50.4629 103.972 50.5103C103.616 50.5576 103.297 50.5991 103.013 50.6346C102.243 50.7293 101.586 50.8772 101.042 51.0785C100.497 51.2797 100.08 51.5579 99.7901 51.913C99.5001 52.2622 99.3551 52.712 99.3551 53.2624C99.3551 54.091 99.651 54.7332 100.243 55.1889C100.835 55.6387 101.578 55.8636 102.471 55.8636ZM117.737 43.3636V44.7397H111.229V43.3636H117.737ZM113.262 40.0966H114.851V53.44C114.851 54.0082 114.949 54.455 115.144 54.7805C115.34 55.1001 115.594 55.328 115.908 55.4641C116.222 55.5943 116.556 55.6594 116.911 55.6594C117.118 55.6594 117.296 55.6476 117.444 55.6239C117.592 55.5943 117.722 55.5647 117.834 55.5352L118.172 56.9645C118.018 57.0237 117.828 57.0769 117.604 57.1243C117.379 57.1776 117.1 57.2042 116.769 57.2042C116.189 57.2042 115.63 57.0769 115.091 56.8224C114.558 56.5679 114.12 56.1892 113.777 55.6861C113.434 55.183 113.262 54.5586 113.262 53.8129V40.0966ZM121.343 57V43.3636H122.932V57H121.343ZM122.151 41.0199C121.826 41.0199 121.547 40.9104 121.317 40.6914C121.086 40.4665 120.97 40.1972 120.97 39.8835C120.97 39.5698 121.086 39.3035 121.317 39.0845C121.547 38.8596 121.826 38.7472 122.151 38.7472C122.477 38.7472 122.755 38.8596 122.986 39.0845C123.217 39.3035 123.332 39.5698 123.332 39.8835C123.332 40.1972 123.217 40.4665 122.986 40.6914C122.755 40.9104 122.477 41.0199 122.151 41.0199ZM132.412 57.2841C131.234 57.2841 130.192 56.9852 129.287 56.3874C128.387 55.7897 127.683 54.964 127.174 53.9105C126.665 52.8511 126.41 51.6289 126.41 50.244C126.41 48.8472 126.665 47.6191 127.174 46.5597C127.683 45.4943 128.387 44.6657 129.287 44.0739C130.192 43.4761 131.234 43.1772 132.412 43.1772C133.59 43.1772 134.628 43.4761 135.528 44.0739C136.427 44.6716 137.132 45.5002 137.641 46.5597C138.156 47.6191 138.413 48.8472 138.413 50.244C138.413 51.6289 138.159 52.8511 137.65 53.9105C137.141 54.964 136.433 55.7897 135.528 56.3874C134.628 56.9852 133.59 57.2841 132.412 57.2841ZM132.412 55.837C133.359 55.837 134.161 55.5825 134.818 55.0735C135.475 54.5645 135.972 53.8868 136.309 53.0405C136.652 52.1941 136.824 51.262 136.824 50.244C136.824 49.226 136.652 48.2908 136.309 47.4386C135.972 46.5863 135.475 45.9027 134.818 45.3878C134.161 44.8729 133.359 44.6154 132.412 44.6154C131.471 44.6154 130.669 44.8729 130.006 45.3878C129.349 45.9027 128.849 46.5863 128.506 47.4386C128.168 48.2908 127.999 49.226 127.999 50.244C127.999 51.262 128.168 52.1941 128.506 53.0405C128.849 53.8868 129.349 54.5645 130.006 55.0735C130.663 55.5825 131.465 55.837 132.412 55.837ZM143.462 48.4773V57H141.882V43.3636H143.418V45.5032H143.56C143.88 44.8048 144.377 44.2455 145.052 43.8253C145.732 43.3991 146.573 43.1861 147.573 43.1861C148.49 43.1861 149.295 43.3784 149.988 43.7631C150.686 44.1419 151.228 44.7012 151.612 45.4411C152.003 46.1809 152.198 47.0894 152.198 48.1665V57H150.618V48.2642C150.618 47.1456 150.304 46.2608 149.677 45.6097C149.055 44.9587 148.221 44.6332 147.173 44.6332C146.457 44.6332 145.821 44.787 145.265 45.0948C144.708 45.4026 144.267 45.8465 143.942 46.4265C143.622 47.0006 143.462 47.6842 143.462 48.4773Z" fill="#101828"/>
</svg>
