<svg width="46" height="48" viewBox="0 0 46 48" fill="none" xmlns="http://www.w3.org/2000/svg">
<rect width="46" height="48" rx="10" fill="#E0EAFF"/>
<path d="M32 14.5H14C13.7239 14.5 13.5 14.7239 13.5 15V26H32.5V15C32.5 14.7239 32.2761 14.5 32 14.5Z" stroke="#4883FF"/>
<path d="M34.5 26.1176C34.7761 26.1176 35 25.8938 35 25.6176V14.5C34.9983 13.12 33.88 12.0017 32.5 12H13.5C12.12 12.0017 11.0017 13.12 11 14.5V28.5C11.0017 29.88 12.12 30.9983 13.5 31H19V33.2325L17.7225 34.0825C17.583 34.1756 17.4995 34.3323 17.5 34.5V35C17.5 35.5523 17.9477 36 18.5 36H27.5C28.0523 36 28.5 35.5523 28.5 35V34.5C28.5 34.3329 28.4165 34.1768 28.2775 34.084L27 33.2325V31.0882C27 30.8121 26.7761 30.5882 26.5 30.5882C26.2239 30.5882 26 30.8121 26 31.0882V33.5C26 33.6671 26.0835 33.8232 26.2225 33.916L27.5 34.7675V35H18.5V34.7675L19.7775 33.9175C19.917 33.8244 20.0005 33.6677 20 33.5V31H32.5C33.88 30.9983 34.9983 29.88 35 28.5V26C35 25.7239 34.7761 25.5 34.5 25.5H11.8824C11.6062 25.5 11.3824 25.7239 11.3824 26C11.3824 26.2761 11.6062 26.5 11.8824 26.5H34V28.5C34 29.3284 33.3284 30 32.5 30H13.5C12.6716 30 12 29.3284 12 28.5V14.5C12 13.6716 12.6716 13 13.5 13H32.5C33.3284 13 34 13.6716 34 14.5V25.6176C34 25.8938 34.2239 26.1176 34.5 26.1176Z" fill="#4883FF" stroke="#4883FF" stroke-width="0.4"/>
<path d="M20.8534 16.3523C20.6581 16.1571 20.3416 16.1571 20.1464 16.3523L17.1464 19.3523C16.9512 19.5476 16.9512 19.8641 17.1464 20.0593L20.1464 23.0593C20.3426 23.2488 20.6544 23.2461 20.8473 23.0532C21.0402 22.8604 21.0429 22.5485 20.8534 22.3523L18.2069 19.7058L20.8534 17.0593C21.0486 16.8641 21.0486 16.5476 20.8534 16.3523Z" fill="#4883FF"/>
<path d="M25.1463 23.0594C25.3416 23.2546 25.6581 23.2546 25.8533 23.0594L28.8533 20.0594C29.0485 19.8641 29.0485 19.5476 28.8533 19.3524L25.8533 16.3524C25.7278 16.2224 25.5419 16.1703 25.3671 16.216C25.1922 16.2618 25.0557 16.3983 25.01 16.5731C24.9642 16.7479 25.0163 16.9338 25.1463 17.0594L27.7928 19.7059L25.1463 22.3524C24.9511 22.5476 24.9511 22.8641 25.1463 23.0594Z" fill="#4883FF"/>
</svg>
