<svg width="18" height="18" viewBox="0 0 18 18" fill="none" xmlns="http://www.w3.org/2000/svg">
<path fill-rule="evenodd" clip-rule="evenodd" d="M0 3.51744C0 3.18029 0.273318 2.90697 0.610472 2.90697H16.8895C17.2267 2.90697 17.5 3.18029 17.5 3.51744C17.5 3.8546 17.2267 4.12792 16.8895 4.12792H0.610472C0.273318 4.12792 0 3.8546 0 3.51744Z" fill="#7D5AE2"/>
<path fill-rule="evenodd" clip-rule="evenodd" d="M3.54663 4.12792V12.7383C3.54663 14.6938 5.13187 16.2791 7.08737 16.2791H10.4128C12.3683 16.2791 13.9536 14.6938 13.9536 12.7383V4.12792H3.54663ZM2.32568 3.59884C2.32568 3.21673 2.63544 2.90697 3.01755 2.90697H14.4827C14.8648 2.90697 15.1745 3.21674 15.1745 3.59884V12.7383C15.1745 15.3681 13.0427 17.5 10.4128 17.5H7.08737C4.45756 17.5 2.32568 15.3681 2.32568 12.7383V3.59884Z" fill="#7D5AE2"/>
<path fill-rule="evenodd" clip-rule="evenodd" d="M6.42444 6.97674C6.76159 6.97674 7.03491 7.25006 7.03491 7.58721V12.2384C7.03491 12.5755 6.76159 12.8488 6.42444 12.8488C6.08728 12.8488 5.81396 12.5755 5.81396 12.2384V7.58721C5.81396 7.25006 6.08728 6.97674 6.42444 6.97674Z" fill="#7D5AE2"/>
<path fill-rule="evenodd" clip-rule="evenodd" d="M11.0753 6.97674C11.4125 6.97674 11.6858 7.25006 11.6858 7.58721V12.2384C11.6858 12.5755 11.4125 12.8488 11.0753 12.8488C10.7382 12.8488 10.4648 12.5755 10.4648 12.2384V7.58721C10.4648 7.25006 10.7382 6.97674 11.0753 6.97674Z" fill="#7D5AE2"/>
<path fill-rule="evenodd" clip-rule="evenodd" d="M6.88976 1.22094C6.32784 1.22094 5.87231 1.67647 5.87231 2.2384V3.51745C5.87231 3.8546 5.59899 4.12792 5.26184 4.12792C4.92468 4.12792 4.65137 3.8546 4.65137 3.51745V2.2384C4.65137 1.00216 5.65353 0 6.88976 0H10.6107C11.8469 0 12.849 1.00216 12.849 2.2384V3.51745C12.849 3.8546 12.5757 4.12792 12.2386 4.12792C11.9014 4.12792 11.6281 3.8546 11.6281 3.51745V2.2384C11.6281 1.67647 11.1726 1.22094 10.6107 1.22094H6.88976Z" fill="#7D5AE2"/>
</svg>
