
<svg width="32" height="32" viewBox="0 0 32 32" fill="none" xmlns="http://www.w3.org/2000/svg">
<g clip-path="url(#clip0_3_1001)">
<path d="M28.2709 21.2588H27.1872V20.3026H28.2709C29.0359 20.3026 29.6734 19.6651 29.6734 18.9001V12.2063C29.6734 10.9951 28.6534 9.97508 27.4422 9.97508H20.4297C19.2184 9.97508 18.1984 10.9951 18.1984 12.2063V18.9001C18.1984 19.6651 18.8359 20.3026 19.6009 20.3026H20.6847V21.2588H19.6009C18.2622 21.2588 17.2422 20.1751 17.2422 18.9001V12.2063C17.2422 10.4213 18.6447 9.01883 20.4297 9.01883H27.5059C29.2909 9.01883 30.6934 10.4213 30.6934 12.2063V18.9001C30.6934 20.2388 29.6097 21.2588 28.2709 21.2588ZM23.9359 7.99883C22.0234 7.99883 20.4297 6.40508 20.4297 4.49258C20.4297 2.58008 22.0234 0.986328 23.9359 0.986328C25.8484 0.986328 27.4422 2.58008 27.4422 4.49258C27.4422 6.40508 25.9122 7.99883 23.9359 7.99883ZM23.9359 2.00633C22.5334 2.00633 21.3859 3.15383 21.3859 4.55633C21.3859 5.95883 22.5334 7.10633 23.9359 7.10633C25.3384 7.10633 26.4859 5.95883 26.4859 4.55633C26.4859 3.15383 25.3384 2.00633 23.9359 2.00633Z" fill="#F5F5F4"/>
<path d="M25.594 30.6937C24.9565 30.6937 24.3827 30.3749 24.0002 29.9287C23.6177 30.3749 23.044 30.6937 22.4065 30.6937C21.259 30.6937 20.3027 29.7374 20.3027 28.5899V13.0349H21.259V28.5899C21.259 29.2274 21.769 29.7374 22.4065 29.7374C23.044 29.7374 23.4902 29.1637 23.4902 28.5899V20.8124H24.4465V28.5899C24.4465 29.2274 24.9565 29.7374 25.594 29.7374C26.2315 29.7374 26.7415 29.2274 26.7415 28.5899V13.0349H27.6977V28.5899C27.6977 29.7374 26.7415 30.6937 25.594 30.6937Z" fill="#F5F5F4"/>
<path d="M18.7086 24.0636H1.0498V4.04614H19.0273V5.00239H2.00605V23.1074H18.7086V24.0636Z" fill="#F5F5F4"/>
<path d="M15.5851 12.9712H4.62012V13.9274H15.5851V12.9712Z" fill="#F5F5F4"/>
<path d="M15.5851 16.2224H4.62012V17.1787H15.5851V16.2224Z" fill="#F5F5F4"/>
<path d="M15.5851 19.5374H4.62012V20.4936H15.5851V19.5374Z" fill="#F5F5F4"/>
</g>
<defs>
<clipPath id="clip0_3_1001">
<rect width="30.6" height="30.6" fill="white" transform="translate(0.540039 0.540039)"/>
</clipPath>
</defs>
</svg>
