<svg width="22" height="22" viewBox="0 0 22 22" fill="none" xmlns="http://www.w3.org/2000/svg">
<path fill-rule="evenodd" clip-rule="evenodd" d="M16.7751 17.2011L21.3375 11.8777C21.5554 11.6292 21.6668 11.3154 21.667 11C21.6671 10.7842 21.6151 10.5676 21.5094 10.3706C21.4625 10.2828 21.4051 10.1994 21.3375 10.1223L16.7751 4.79894C16.2959 4.23982 15.4542 4.17502 14.8951 4.65422C14.3359 5.13342 14.2711 5.97515 14.7503 6.53427L17.4349 9.6666L7.10869 9.6666C6.37231 9.6666 5.77536 10.2636 5.77536 10.9999C5.77536 11.7363 6.37231 12.3333 7.10869 12.3333L17.435 12.3333L14.7503 15.4658C14.2711 16.0249 14.3359 16.8666 14.8951 17.3458C15.4542 17.825 16.2959 17.7602 16.7751 17.2011ZM8.33366 2.99992C9.07004 2.99992 9.66699 3.59687 9.66699 4.33325L9.66699 6.33325C9.66699 7.06963 10.2639 7.66658 11.0003 7.66658C11.7367 7.66659 12.3337 7.06963 12.3337 6.33325L12.3337 4.33325C12.3337 2.12411 10.5428 0.333251 8.33366 0.333251L4.33366 0.333251C2.12452 0.333251 0.333658 2.12411 0.333658 4.33325L0.333657 17.6666C0.333657 19.8757 2.12452 21.6666 4.33366 21.6666L8.33366 21.6666C10.5428 21.6666 12.3337 19.8757 12.3337 17.6666L12.3337 15.6666C12.3337 14.9302 11.7367 14.3333 11.0003 14.3333C10.2639 14.3333 9.66699 14.9302 9.66699 15.6666L9.66699 17.6666C9.66699 18.403 9.07004 18.9999 8.33366 18.9999L4.33366 18.9999C3.59728 18.9999 3.00032 18.403 3.00032 17.6666L3.00032 4.33325C3.00032 3.59687 3.59728 2.99992 4.33366 2.99992L8.33366 2.99992Z" fill="#737791"/>
</svg>
