<svg width="32" height="32" viewBox="0 0 32 32" fill="none" xmlns="http://www.w3.org/2000/svg">
<path fill-rule="evenodd" clip-rule="evenodd" d="M21.7751 22.2011L26.3375 16.8777C26.5554 16.6292 26.6668 16.3154 26.667 16C26.6671 15.7842 26.6151 15.5676 26.5094 15.3706C26.4625 15.2828 26.4051 15.1994 26.3375 15.1223L21.7751 9.79894C21.2959 9.23982 20.4542 9.17502 19.8951 9.65422C19.3359 10.1334 19.2711 10.9751 19.7503 11.5343L22.4349 14.6666L12.1087 14.6666C11.3723 14.6666 10.7754 15.2636 10.7754 15.9999C10.7754 16.7363 11.3723 17.3333 12.1087 17.3333L22.435 17.3333L19.7503 20.4658C19.2711 21.0249 19.3359 21.8666 19.8951 22.3458C20.4542 22.825 21.2959 22.7602 21.7751 22.2011ZM13.3337 7.99992C14.07 7.99992 14.667 8.59687 14.667 9.33325L14.667 11.3333C14.667 12.0696 15.2639 12.6666 16.0003 12.6666C16.7367 12.6666 17.3337 12.0696 17.3337 11.3333L17.3337 9.33325C17.3337 7.12411 15.5428 5.33325 13.3337 5.33325L9.33366 5.33325C7.12452 5.33325 5.33366 7.12411 5.33366 9.33325L5.33366 22.6666C5.33366 24.8757 7.12452 26.6666 9.33366 26.6666L13.3337 26.6666C15.5428 26.6666 17.3337 24.8757 17.3337 22.6666L17.3337 20.6666C17.3337 19.9302 16.7367 19.3333 16.0003 19.3333C15.2639 19.3333 14.667 19.9302 14.667 20.6666L14.667 22.6666C14.667 23.403 14.07 23.9999 13.3337 23.9999L9.33366 23.9999C8.59728 23.9999 8.00032 23.403 8.00032 22.6666L8.00032 9.33325C8.00032 8.59687 8.59728 7.99992 9.33366 7.99992L13.3337 7.99992Z" fill="#737791"/>
</svg>