<svg width="34" height="32" viewBox="0 0 34 32" fill="none" xmlns="http://www.w3.org/2000/svg">
<path fill-rule="evenodd" clip-rule="evenodd" d="M15.614 11.4419C15.2865 11.7116 15.0236 12.1398 15.0236 12.8185C15.0236 13.4253 14.4926 13.9173 13.8375 13.9173C13.1824 13.9173 12.6514 13.4253 12.6514 12.8185C12.6514 11.5435 13.1792 10.5065 14.0379 9.79935C14.8747 9.11019 15.957 8.78918 17.0005 8.78918C18.0439 8.78918 19.1262 9.11019 19.963 9.7993C20.8217 10.5064 21.3496 11.5433 21.3496 12.8182C21.3496 13.7584 21.0875 14.4765 20.6318 15.0628C20.2788 15.5171 19.8158 15.867 19.4855 16.1167C19.4339 16.1557 19.3855 16.1922 19.3413 16.2264C18.9744 16.5096 18.7219 16.7373 18.536 17.0531C18.3541 17.3621 18.1866 17.844 18.1866 18.679C18.1866 19.2858 17.6555 19.7778 17.0005 19.7778C16.3454 19.7778 15.8144 19.2858 15.8144 18.679C15.8144 17.5603 16.0422 16.6991 16.4534 16.0007C16.8605 15.3092 17.3988 14.8653 17.8226 14.5381C17.8913 14.485 17.955 14.4362 18.0143 14.3909C18.355 14.13 18.5492 13.9812 18.7067 13.7786C18.8441 13.6019 18.9773 13.3432 18.9773 12.8182C18.9773 12.1397 18.7145 11.7115 18.387 11.4419C18.0377 11.1543 17.5385 10.9869 17.0005 10.9869C16.4625 10.9869 15.9632 11.1543 15.614 11.4419Z" fill="#737791"/>
<path d="M18.5819 21.6093C18.5819 22.4185 17.8739 23.0744 17.0004 23.0744C16.127 23.0744 15.4189 22.4185 15.4189 21.6093C15.4189 20.8001 16.127 20.1442 17.0004 20.1442C17.8739 20.1442 18.5819 20.8001 18.5819 21.6093Z" fill="#737791"/>
<path fill-rule="evenodd" clip-rule="evenodd" d="M0.00111838 8.42454C0.00130973 3.77179 4.0728 0.000359419 9.09505 0.000802786L24.9065 0.00219863C29.9287 0.00264199 33.9999 3.7748 33.9997 8.42754L33.9991 23.0757C33.9989 27.7284 29.9274 31.4999 24.9052 31.4994L9.09375 31.498C4.0715 31.4976 0.000324631 27.7254 0.000515976 23.0727L0.00111838 8.42454ZM9.09496 2.19851C5.38286 2.19818 2.3735 4.98576 2.37336 8.42475L2.37276 23.0729C2.37261 26.5119 5.38174 29.3 9.09384 29.3003L24.9053 29.3017C28.6174 29.302 31.6267 26.5145 31.6269 23.0755L31.6275 8.42733C31.6276 4.98835 28.6185 2.20023 24.9064 2.19991L9.09496 2.19851Z" fill="#737791"/>
</svg>