<svg width="33" height="31" viewBox="0 0 33 31" fill="none" xmlns="http://www.w3.org/2000/svg">
<path d="M16.4992 4.22109e-07C8.40755 -0.00100104 1.50982 5.65328 0.214297 13.3492C-1.08123 21.0451 3.60799 28.5103 11.2851 30.9737C12.1119 31.1171 12.4079 30.6279 12.4079 30.2073C12.4079 29.8296 12.3947 28.829 12.3898 27.4985C7.80076 28.4545 6.8317 25.3666 6.8317 25.3666C6.5296 24.4057 5.88013 23.5809 5.00107 23.0418C3.51275 22.0555 5.11517 22.0778 5.11517 22.0778C6.17465 22.2178 7.10712 22.8227 7.64036 23.7158C8.0917 24.5066 8.85211 25.0908 9.75262 25.3389C10.6531 25.5869 11.6192 25.4781 12.4361 25.0367C12.5128 24.2305 12.8851 23.477 13.4861 22.9112C9.82488 22.5112 5.97509 21.1473 5.97509 15.0558C5.95477 13.4803 6.56198 11.9572 7.67178 10.7999C7.16963 9.42851 7.22877 7.92427 7.83714 6.5934C7.83714 6.5934 9.22128 6.16478 12.3716 8.22024C15.0734 7.50641 17.9249 7.50641 20.6268 8.22024C23.7787 6.16319 25.1612 6.5934 25.1612 6.5934C25.7724 7.92364 25.8316 9.42893 25.3266 10.7999C26.4404 11.9571 27.0471 13.4842 27.0199 15.0622C27.0199 21.1696 23.1668 22.5112 19.4923 22.9048C20.285 23.6857 20.6915 24.7568 20.6086 25.8462C20.6086 27.9717 20.5887 29.6862 20.5887 30.2073C20.5887 30.6327 20.8831 31.1266 21.7248 30.9705C29.3987 28.5029 34.0829 21.0373 32.7847 13.3434C31.4865 5.64956 24.5891 -0.00178327 16.4992 4.22109e-07Z" fill="#98A2B3"/>
</svg>
