<svg width="48" height="48" viewBox="0 0 48 48" fill="none" xmlns="http://www.w3.org/2000/svg">
<rect width="48" height="48" rx="10" fill="#F4EBFF"/>
<path d="M11.4333 28.3083C11.1941 28.3083 11 28.1229 11 27.8945V13.2414C11 12.557 11.5833 12 12.3 12H35.7C36.4167 12 37 12.557 37 13.2414V17.3063C37 17.5347 36.8059 17.7201 36.5667 17.7201C36.3275 17.7201 36.1333 17.5347 36.1333 17.3063V13.2414C36.1333 13.0138 35.9383 12.8276 35.7 12.8276H12.3C12.0617 12.8276 11.8667 13.0138 11.8667 13.2414V27.8945C11.8667 28.1229 11.6725 28.3083 11.4333 28.3083Z" fill="#7F56D9" stroke="#7F56D9" stroke-width="0.6"/>
<path d="M23.9998 36H19.2331C18.9939 36 18.7998 35.8146 18.7998 35.5862C18.7998 35.3578 18.9939 35.1724 19.2331 35.1724H20.0998C20.8165 35.1724 21.3998 34.6154 21.3998 33.931V31.862C21.3998 31.6336 21.5939 31.4482 21.8331 31.4482C22.0723 31.4482 22.2665 31.6336 22.2665 31.862V33.931C22.2665 34.3969 22.1044 34.8264 21.8323 35.1724H23.9998C24.239 35.1724 24.4331 35.3578 24.4331 35.5862C24.4331 35.8146 24.239 36 23.9998 36Z" fill="#7F56D9" stroke="#7F56D9" stroke-width="0.6"/>
<path d="M25.0111 31.8621H12.3C11.5833 31.8621 11 31.3051 11 30.6207V28.1379C11 27.9095 11.1941 27.7241 11.4333 27.7241H25.0111C25.2503 27.7241 25.4444 27.9095 25.4444 28.1379C25.4444 28.3663 25.2503 28.5517 25.0111 28.5517H11.8667V30.6207C11.8667 30.8483 12.0617 31.0345 12.3 31.0345H25.0111C25.2503 31.0345 25.4444 31.2198 25.4444 31.4483C25.4444 31.6767 25.2503 31.8621 25.0111 31.8621Z" fill="#7F56D9" stroke="#7F56D9" stroke-width="0.6"/>
<path d="M28.7668 17.7932H33.1002C33.3394 17.7932 33.5335 17.6078 33.5335 17.3794C33.5335 17.151 33.3394 16.9656 33.1002 16.9656H28.7668C28.5276 16.9656 28.3335 17.151 28.3335 17.3794C28.3335 17.6078 28.5276 17.7932 28.7668 17.7932Z" fill="#7F56D9" stroke="#7F56D9" stroke-width="0.6"/>
<path d="M30.5002 34.3448H31.3669C31.6061 34.3448 31.8002 34.1594 31.8002 33.931C31.8002 33.7026 31.6061 33.5172 31.3669 33.5172H30.5002C30.261 33.5172 30.0669 33.7026 30.0669 33.931C30.0669 34.1594 30.261 34.3448 30.5002 34.3448Z" fill="#7F56D9" stroke="#7F56D9" stroke-width="0.6"/>
<path fill-rule="evenodd" clip-rule="evenodd" d="M27.0334 36H34.8334C36.0285 36 37 35.0722 37 33.931V17.3793C37 16.238 36.0285 15.3103 34.8334 15.3103H27.0334C25.8382 15.3103 24.8667 16.238 24.8667 17.3793V33.931C24.8667 35.0722 25.8382 36 27.0334 36ZM25.7334 17.3793C25.7334 16.6949 26.3166 16.1379 27.0334 16.1379H34.8334C35.5501 16.1379 36.1334 16.6949 36.1334 17.3793V33.931C36.1334 34.6154 35.5501 35.1724 34.8334 35.1724H27.0334C26.3166 35.1724 25.7334 34.6154 25.7334 33.931V17.3793Z" fill="#7F56D9"/>
<path d="M34.8334 35.7H27.0334V36.3H34.8334V35.7ZM36.7 33.931C36.7 34.8937 35.876 35.7 34.8334 35.7V36.3C36.181 36.3 37.3 35.2508 37.3 33.931H36.7ZM36.7 17.3793V33.931H37.3V17.3793H36.7ZM34.8334 15.6103C35.876 15.6103 36.7 16.4166 36.7 17.3793H37.3C37.3 16.0594 36.181 15.0103 34.8334 15.0103V15.6103ZM27.0334 15.6103H34.8334V15.0103H27.0334V15.6103ZM25.1667 17.3793C25.1667 16.4166 25.9907 15.6103 27.0334 15.6103V15.0103C25.6857 15.0103 24.5667 16.0594 24.5667 17.3793H25.1667ZM25.1667 33.931V17.3793H24.5667V33.931H25.1667ZM27.0334 35.7C25.9907 35.7 25.1667 34.8937 25.1667 33.931H24.5667C24.5667 35.2508 25.6857 36.3 27.0334 36.3V35.7ZM27.0334 15.8379C26.1641 15.8379 25.4334 16.5163 25.4334 17.3793H26.0334C26.0334 16.8734 26.4691 16.4379 27.0334 16.4379V15.8379ZM34.8334 15.8379H27.0334V16.4379H34.8334V15.8379ZM36.4334 17.3793C36.4334 16.5163 35.7026 15.8379 34.8334 15.8379V16.4379C35.3976 16.4379 35.8334 16.8734 35.8334 17.3793H36.4334ZM36.4334 33.931V17.3793H35.8334V33.931H36.4334ZM34.8334 35.4724C35.7026 35.4724 36.4334 34.794 36.4334 33.931H35.8334C35.8334 34.4368 35.3976 34.8724 34.8334 34.8724V35.4724ZM27.0334 35.4724H34.8334V34.8724H27.0334V35.4724ZM25.4334 33.931C25.4334 34.794 26.1641 35.4724 27.0334 35.4724V34.8724C26.4691 34.8724 26.0334 34.4368 26.0334 33.931H25.4334ZM25.4334 17.3793V33.931H26.0334V17.3793H25.4334Z" fill="#7F56D9"/>
</svg>
