<!DOCTYPE svg PUBLIC "-//W3C//DTD SVG 1.1//EN" "http://www.w3.org/Graphics/SVG/1.1/DTD/svg11.dtd">
<!-- Uploaded to: SVG Repo, www.svgrepo.com, Transformed by: SVG Repo Mixer Tools -->
<svg width="800px" height="800px" viewBox="0 0 24 24" fill="none" xmlns="http://www.w3.org/2000/svg">
<g id="SVGRepo_bgCarrier" stroke-width="0"/>
<g id="SVGRepo_tracerCarrier" stroke-linecap="round" stroke-linejoin="round"/>
<g id="SVGRepo_iconCarrier">
<path d="M4 4V16C4 18.2091 5.79086 20 8 20H20" stroke="#737791" stroke-linecap="round" stroke-linejoin="round"/>
<path d="M6.59869 14.5841C6.43397 14.8057 6.48012 15.1189 6.70176 15.2837C6.9234 15.4484 7.2366 15.4022 7.40131 15.1806L6.59869 14.5841ZM19.4779 4.85296C19.3967 4.58903 19.1169 4.4409 18.853 4.52211L14.552 5.8455C14.288 5.92671 14.1399 6.2065 14.2211 6.47043C14.3023 6.73436 14.5821 6.88249 14.846 6.80128L18.6692 5.62493L19.8455 9.44805C19.9267 9.71198 20.2065 9.8601 20.4704 9.7789C20.7344 9.69769 20.8825 9.41789 20.8013 9.15396L19.4779 4.85296ZM13.5434 12.4067L13.1671 12.7359L13.5434 12.4067ZM15.1797 12.2161L15.6216 12.45L15.1797 12.2161ZM7.40131 15.1806L10.6621 10.7929L9.85952 10.1964L6.59869 14.5841L7.40131 15.1806ZM11.4397 10.7619L13.1671 12.7359L13.9196 12.0774L12.1923 10.1034L11.4397 10.7619ZM15.6216 12.45L19.4419 5.23394L18.5581 4.76606L14.7378 11.9821L15.6216 12.45ZM13.1671 12.7359C13.8594 13.5272 15.1297 13.3792 15.6216 12.45L14.7378 11.9821C14.5739 12.2919 14.1504 12.3412 13.9196 12.0774L13.1671 12.7359ZM10.6621 10.7929C10.8522 10.5371 11.2299 10.522 11.4397 10.7619L12.1923 10.1034C11.5628 9.38385 10.4298 9.42903 9.85952 10.1964L10.6621 10.7929Z" fill="#737791"/>
</g>
</svg>