<svg width="24" height="25" viewBox="0 0 24 25" fill="none" xmlns="http://www.w3.org/2000/svg">
<path fill-rule="evenodd" clip-rule="evenodd" d="M5.25 12.5C5.25 12.0858 5.58579 11.75 6 11.75H18C18.4142 11.75 18.75 12.0858 18.75 12.5C18.75 12.9142 18.4142 13.25 18 13.25H6C5.58579 13.25 5.25 12.9142 5.25 12.5Z" fill="#141414"/>
<path fill-rule="evenodd" clip-rule="evenodd" d="M1.5 8C1.5 7.58579 1.83579 7.25 2.25 7.25H21.75C22.1642 7.25 22.5 7.58579 22.5 8C22.5 8.41421 22.1642 8.75 21.75 8.75H2.25C1.83579 8.75 1.5 8.41421 1.5 8Z" fill="#141414"/>
<path fill-rule="evenodd" clip-rule="evenodd" d="M9 17C9 16.5858 9.33579 16.25 9.75 16.25H14.25C14.6642 16.25 15 16.5858 15 17C15 17.4142 14.6642 17.75 14.25 17.75H9.75C9.33579 17.75 9 17.4142 9 17Z" fill="#141414"/>
</svg>
