<svg width="17" height="16" viewBox="0 0 17 16" fill="none" xmlns="http://www.w3.org/2000/svg">
<path d="M2.388 8.10099L2.39039 8.11232C2.7302 9.72561 3.81746 11.1107 5.35621 11.8101L8.5 13.2391V11.5556H10.2778C12.7324 11.5556 14.7222 9.56571 14.7222 7.11111V6.22222C14.7222 3.76762 12.7324 1.77778 10.2778 1.77778H6.72222C4.26762 1.77778 2.27778 3.76762 2.27778 6.22222V7.11111C2.27778 7.44922 2.31521 7.77646 2.38546 8.08968L2.388 8.10099ZM10.2778 16L4.62056 13.4285C2.56033 12.4921 1.10557 10.6379 0.650781 8.47874C0.55208 8.03867 0.5 7.58097 0.5 7.11111V6.22222C0.5 2.78578 3.28578 0 6.72222 0H10.2778C13.7142 0 16.5 2.78578 16.5 6.22222V7.11111C16.5 10.5476 13.7142 13.3333 10.2778 13.3333V16Z" fill="#141414" fill-opacity="0.7"/>
</svg>
