<svg width="17" height="16" viewBox="0 0 17 16" fill="none" xmlns="http://www.w3.org/2000/svg">
<path fill-rule="evenodd" clip-rule="evenodd" d="M8.5 1C8.77614 1 9 1.22386 9 1.5V14.5C9 14.7761 8.77614 15 8.5 15C8.22386 15 8 14.7761 8 14.5V1.5C8 1.22386 8.22386 1 8.5 1Z" fill="#141414" fill-opacity="0.7"/>
<path fill-rule="evenodd" clip-rule="evenodd" d="M5.12868 3.37868C5.69129 2.81607 6.45435 2.5 7.25 2.5H9.5C9.89397 2.5 10.2841 2.5776 10.6481 2.72836C11.012 2.87913 11.3427 3.1001 11.6213 3.37868C11.8999 3.65726 12.1209 3.98797 12.2716 4.35195C12.4224 4.71593 12.5 5.10603 12.5 5.5C12.5 5.77614 12.2761 6 12 6C11.7239 6 11.5 5.77614 11.5 5.5C11.5 5.23736 11.4483 4.97728 11.3478 4.73463C11.2473 4.49198 11.0999 4.2715 10.9142 4.08579C10.7285 3.90007 10.508 3.75275 10.2654 3.65224C10.0227 3.55173 9.76264 3.5 9.5 3.5H7.25C6.71957 3.5 6.21086 3.71071 5.83579 4.08579C5.46071 4.46086 5.25 4.96957 5.25 5.5C5.25 6.03043 5.46071 6.53914 5.83579 6.91421C6.21086 7.28929 6.71957 7.5 7.25 7.5H10C10.7956 7.5 11.5587 7.81607 12.1213 8.37868C12.6839 8.94129 13 9.70435 13 10.5C13 11.2956 12.6839 12.0587 12.1213 12.6213C11.5587 13.1839 10.7956 13.5 10 13.5H7C6.20435 13.5 5.44129 13.1839 4.87868 12.6213C4.31607 12.0587 4 11.2956 4 10.5C4 10.2239 4.22386 10 4.5 10C4.77614 10 5 10.2239 5 10.5C5 11.0304 5.21071 11.5391 5.58579 11.9142C5.96086 12.2893 6.46957 12.5 7 12.5H10C10.5304 12.5 11.0391 12.2893 11.4142 11.9142C11.7893 11.5391 12 11.0304 12 10.5C12 9.96957 11.7893 9.46086 11.4142 9.08579C11.0391 8.71071 10.5304 8.5 10 8.5H7.25C6.45435 8.5 5.69129 8.18393 5.12868 7.62132C4.56607 7.05871 4.25 6.29565 4.25 5.5C4.25 4.70435 4.56607 3.94129 5.12868 3.37868Z" fill="#141414" fill-opacity="0.7"/>
</svg>
