<svg width="20" height="24" viewBox="0 0 20 24" fill="none" xmlns="http://www.w3.org/2000/svg">
<path d="M10 24C8.61929 24 7.5 22.9255 7.5 21.6H12.5C12.5 22.9255 11.3807 24 10 24ZM20 20.4H0V18L2.5 16.8V10.2C2.5 6.0456 4.27625 3.3516 7.5 2.616V0H11.25C10.4349 1.03672 9.9959 2.30114 10 3.6C9.99996 3.90165 10.0234 4.20289 10.07 4.5012H10C8.47482 4.40637 7.00376 5.06118 6.09375 6.24C5.31568 7.42147 4.93392 8.80366 5 10.2V18H15V10.2C15 9.9468 14.9913 9.7032 14.9738 9.48C15.8006 9.64397 16.6533 9.64683 17.4812 9.4884C17.495 9.7416 17.5 9.9828 17.5 10.2084V16.8L20 18V20.4ZM16.25 7.2C15.4947 7.20088 14.7569 6.98207 14.1337 6.5724C12.661 5.6059 12.1014 3.77713 12.7956 2.19949C13.4898 0.621844 15.2457 -0.267861 16.9943 0.0720448C18.7428 0.411951 19.9998 1.88736 20 3.6C20 5.58823 18.3211 7.2 16.25 7.2Z" fill="#7D5AE2"/>
</svg>
