<svg width="17" height="16" viewBox="0 0 17 16" fill="none" xmlns="http://www.w3.org/2000/svg">
<path fill-rule="evenodd" clip-rule="evenodd" d="M3.5 14.5C3.5 14.2239 3.72386 14 4 14H13C13.2761 14 13.5 14.2239 13.5 14.5C13.5 14.7761 13.2761 15 13 15H4C3.72386 15 3.5 14.7761 3.5 14.5Z" fill="#141414" fill-opacity="0.7"/>
<path fill-rule="evenodd" clip-rule="evenodd" d="M8.5 5C7.67157 5 7 5.67157 7 6.5C7 7.32843 7.67157 8 8.5 8C9.32843 8 10 7.32843 10 6.5C10 5.67157 9.32843 5 8.5 5ZM6 6.5C6 5.11929 7.11929 4 8.5 4C9.88071 4 11 5.11929 11 6.5C11 7.88071 9.88071 9 8.5 9C7.11929 9 6 7.88071 6 6.5Z" fill="#141414" fill-opacity="0.7"/>
<path fill-rule="evenodd" clip-rule="evenodd" d="M8.5 2C7.30653 2 6.16193 2.47411 5.31802 3.31802C4.47411 4.16193 4 5.30653 4 6.5C4 8.56997 5.15592 10.4548 6.3773 11.8594C6.98189 12.5547 7.58775 13.1152 8.04257 13.5018C8.22245 13.6547 8.37812 13.7799 8.5 13.875C8.62188 13.7799 8.77755 13.6547 8.95743 13.5018C9.41225 13.1152 10.0181 12.5547 10.6227 11.8594C11.8441 10.4548 13 8.56997 13 6.5C13 5.30653 12.5259 4.16193 11.682 3.31802C10.8381 2.47411 9.69347 2 8.5 2ZM8.5 14.5C8.21327 14.9096 8.21313 14.9095 8.21297 14.9094L8.21256 14.9091L8.21139 14.9083L8.20769 14.9057L8.19498 14.8966C8.18417 14.8889 8.16876 14.8778 8.14904 14.8634C8.10962 14.8347 8.05296 14.7927 7.98154 14.7381C7.83874 14.6289 7.63661 14.4692 7.39493 14.2638C6.91225 13.8535 6.26811 13.2578 5.6227 12.5156C4.34408 11.0452 3 8.93003 3 6.5C3 5.04131 3.57946 3.64236 4.61091 2.61091C5.64236 1.57946 7.04131 1 8.5 1C9.95869 1 11.3576 1.57946 12.3891 2.61091C13.4205 3.64236 14 5.04131 14 6.5C14 8.93003 12.6559 11.0452 11.3773 12.5156C10.7319 13.2578 10.0877 13.8535 9.60507 14.2638C9.36339 14.4692 9.16126 14.6289 9.01846 14.7381C8.94704 14.7927 8.89038 14.8347 8.85096 14.8634C8.83124 14.8778 8.81583 14.8889 8.80502 14.8966L8.79231 14.9057L8.78861 14.9083L8.78744 14.9091L8.78703 14.9094C8.78687 14.9095 8.78673 14.9096 8.5 14.5ZM8.5 14.5L8.78673 14.9096C8.61457 15.0301 8.38543 15.0301 8.21327 14.9096L8.5 14.5Z" fill="#141414" fill-opacity="0.7"/>
</svg>
