<svg width="48" height="48" viewBox="0 0 48 48" fill="none" xmlns="http://www.w3.org/2000/svg">
<rect width="47.7143" height="48" rx="10" fill="#FCE7F6"/>
<path d="M11.625 12C11.2798 12 11 12.2612 11 12.5834V34.9683C11 35.2543 11.1187 35.5274 11.3278 35.7225C11.5188 35.9008 11.7704 36 12.0317 36H36.0892C36.4344 36 36.7143 35.7388 36.7143 35.4166C36.7143 35.0944 36.4344 34.8333 36.0892 34.8333H14.2501C13.1455 34.8333 12.2501 33.9378 12.2501 32.8333V12.5834C12.2501 12.2612 11.9702 12 11.625 12Z" fill="#C11574"/>
<path fill-rule="evenodd" clip-rule="evenodd" d="M16.6251 27.1478C15.494 27.1357 14.5042 27.855 14.2395 28.8814C13.9747 29.9078 14.5054 30.9687 15.5185 31.4383C16.5315 31.908 17.7579 31.6616 18.4742 30.8445C19.1905 30.0274 19.2065 28.8567 18.5127 28.0229L21.4379 24.0209C21.6918 24.1013 21.9575 24.1446 22.2255 24.1493C22.9104 24.1552 23.5654 23.8877 24.0256 23.4142L26.6258 25.141C26.5858 25.3096 26.5649 25.4817 26.5633 25.6544C26.5633 26.8916 27.6379 27.8945 28.9635 27.8945C30.289 27.8945 31.3636 26.8916 31.3636 25.6544C31.3617 25.1475 31.1718 24.6569 30.8261 24.2659L33.6138 20.2873C34.7488 20.6213 35.9734 20.1198 36.4786 19.1141C36.9837 18.1084 36.6135 16.909 35.6124 16.3084C34.6113 15.7077 33.2885 15.8913 32.518 16.7377C31.7474 17.5842 31.767 18.8322 32.5637 19.6573L29.7885 23.5775C29.5128 23.4799 29.2208 23.4286 28.926 23.4259C28.2706 23.4255 27.6433 23.6741 27.1883 24.1143L24.5757 22.4108C24.5886 22.2594 24.5886 22.1072 24.5757 21.9558C24.6265 20.9435 23.9429 20.0254 22.9087 19.7169C21.8744 19.4085 20.7471 19.7865 20.1596 20.6388C19.5721 21.491 19.6709 22.6053 20.4004 23.3559L17.5127 27.3111C17.231 27.2033 16.9295 27.1478 16.6251 27.1478ZM34.3139 17.1021C34.949 17.1021 35.4639 17.5827 35.4639 18.1755C35.4639 18.7683 34.949 19.2489 34.3139 19.2489C33.6787 19.2489 33.1638 18.7683 33.1638 18.1755C33.1638 17.5827 33.6787 17.1021 34.3139 17.1021ZM30.076 25.6544C30.076 25.0615 29.5611 24.581 28.926 24.581C28.2908 24.581 27.7759 25.0615 27.7759 25.6544C27.7759 26.2472 28.2908 26.7278 28.926 26.7278C29.5611 26.7278 30.076 26.2472 30.076 25.6544ZM22.2254 20.8357C22.8606 20.8357 23.3755 21.3163 23.3755 21.9091C23.3755 22.5019 22.8606 22.9825 22.2254 22.9825C21.5903 22.9825 21.0754 22.5019 21.0754 21.9091C21.0754 21.3163 21.5903 20.8357 22.2254 20.8357ZM15.5604 29.7931C15.7368 30.1971 16.1577 30.4612 16.6251 30.4613C17.2507 30.4615 17.7616 29.995 17.7752 29.4113C17.7854 28.9751 17.5117 28.5766 17.0828 28.4031C16.654 28.2296 16.1553 28.3155 15.8211 28.6206C15.487 28.9257 15.384 29.3892 15.5604 29.7931Z" fill="#C11574"/>
</svg>
