<svg width="34" height="36" viewBox="0 0 34 36" fill="none" xmlns="http://www.w3.org/2000/svg">
<g filter="url(#filter0_d_31_669)">
<path d="M17 8.66663C18.4145 8.66663 19.7711 9.22853 20.7713 10.2287C21.7714 11.2289 22.3334 12.5855 22.3334 14C22.3334 15.4144 21.7714 16.771 20.7713 17.7712C19.7711 18.7714 18.4145 19.3333 17 19.3333C15.5855 19.3333 14.229 18.7714 13.2288 17.7712C12.2286 16.771 11.6667 15.4144 11.6667 14C11.6667 12.5855 12.2286 11.2289 13.2288 10.2287C14.229 9.22853 15.5855 8.66663 17 8.66663ZM17 11.3333C16.2928 11.3333 15.6145 11.6142 15.1144 12.1143C14.6143 12.6144 14.3334 13.2927 14.3334 14C14.3334 14.7072 14.6143 15.3855 15.1144 15.8856C15.6145 16.3857 16.2928 16.6666 17 16.6666C17.7073 16.6666 18.3855 16.3857 18.8856 15.8856C19.3857 15.3855 19.6667 14.7072 19.6667 14C19.6667 13.2927 19.3857 12.6144 18.8856 12.1143C18.3855 11.6142 17.7073 11.3333 17 11.3333ZM14.3334 27.3333C14 27.3333 13.72 27.0933 13.6667 26.7733L13.1734 23.24C12.3334 22.9066 11.6134 22.4533 10.92 21.92L7.60002 23.2666C7.30669 23.3733 6.94669 23.2666 6.78669 22.9733L4.12002 18.36C4.03841 18.2226 4.00964 18.0602 4.03909 17.9031C4.06854 17.7461 4.15419 17.6051 4.28002 17.5066L7.09335 15.2933L7.00002 14L7.09335 12.6666L4.28002 10.4933C4.15419 10.3948 4.06854 10.2539 4.03909 10.0968C4.00964 9.93974 4.03841 9.77734 4.12002 9.63996L6.78669 5.02663C6.94669 4.73329 7.30669 4.61329 7.60002 4.73329L10.92 6.06663C11.6134 5.54663 12.3334 5.09329 13.1734 4.75996L13.6667 1.22663C13.72 0.906626 14 0.666626 14.3334 0.666626H19.6667C20 0.666626 20.28 0.906626 20.3334 1.22663L20.8267 4.75996C21.6667 5.09329 22.3867 5.54663 23.08 6.06663L26.4 4.73329C26.6934 4.61329 27.0534 4.73329 27.2134 5.02663L29.88 9.63996C30.0534 9.93329 29.9734 10.2933 29.72 10.4933L26.9067 12.6666L27 14L26.9067 15.3333L29.72 17.5066C29.9734 17.7066 30.0534 18.0666 29.88 18.36L27.2134 22.9733C27.0534 23.2666 26.6934 23.3866 26.4 23.2666L23.08 21.9333C22.3867 22.4533 21.6667 22.9066 20.8267 23.24L20.3334 26.7733C20.28 27.0933 20 27.3333 19.6667 27.3333H14.3334ZM16 3.33329L15.5067 6.81329C13.9067 7.14663 12.4934 7.99996 11.4667 9.18663L8.25335 7.79996L7.25335 9.53329L10.0667 11.6C9.53335 13.1555 9.53335 14.8444 10.0667 16.4L7.24002 18.48L8.24002 20.2133L11.48 18.8266C12.5067 20 13.9067 20.8533 15.4934 21.1733L15.9867 24.6666H18.0134L18.5067 21.1866C20.0934 20.8533 21.4934 20 22.52 18.8266L25.76 20.2133L26.76 18.48L23.9334 16.4133C24.4667 14.8533 24.4667 13.16 23.9334 11.6L26.7467 9.53329L25.7467 7.79996L22.5333 9.18663C21.4856 7.97372 20.0645 7.14353 18.4934 6.82663L18 3.33329H16Z" fill="#737791"/>
</g>
<defs>
<filter id="filter0_d_31_669" x="0.027832" y="0.666626" width="33.9448" height="34.6666" filterUnits="userSpaceOnUse" color-interpolation-filters="sRGB">
<feFlood flood-opacity="0" result="BackgroundImageFix"/>
<feColorMatrix in="SourceAlpha" type="matrix" values="0 0 0 0 0 0 0 0 0 0 0 0 0 0 0 0 0 0 127 0" result="hardAlpha"/>
<feOffset dy="4"/>
<feGaussianBlur stdDeviation="2"/>
<feComposite in2="hardAlpha" operator="out"/>
<feColorMatrix type="matrix" values="0 0 0 0 0 0 0 0 0 0 0 0 0 0 0 0 0 0 0.25 0"/>
<feBlend mode="normal" in2="BackgroundImageFix" result="effect1_dropShadow_31_669"/>
<feBlend mode="normal" in="SourceGraphic" in2="effect1_dropShadow_31_669" result="shape"/>
</filter>
</defs>
</svg>
