<svg width="141" height="36" viewBox="0 0 141 36" fill="none" xmlns="http://www.w3.org/2000/svg">
<path fill-rule="evenodd" clip-rule="evenodd" d="M61.4574 23.8979V5.56477C61.4574 2.50325 58.9719 0 55.8924 0H5.95345C2.89192 0 0.388672 2.48524 0.388672 5.56477V23.8979C0.388672 26.9595 2.87391 29.4627 5.95345 29.4627H42.1154L51.9124 36L49.9494 29.4627H55.9284C58.9719 29.4447 61.4752 26.9595 61.4574 23.8979ZM10.9419 18.4232C11.2301 18.9275 11.6083 19.3237 12.0945 19.5758C12.5808 19.8459 13.103 19.972 13.6973 19.972C14.2916 19.972 14.8319 19.8279 15.3181 19.5578C15.8044 19.2696 16.2006 18.8734 16.4707 18.3692C16.7588 17.8469 16.9029 17.2706 16.9029 16.6043V8.37418C16.9029 8.24813 16.9389 8.15808 17.011 8.08605C17.083 8.014 17.1731 7.978 17.2991 7.978H19.2981C19.4242 7.978 19.5322 8.014 19.6043 8.08605C19.6403 8.12205 19.6763 8.17607 19.6943 8.2121C19.7123 8.26612 19.7303 8.32015 19.7123 8.37418V16.5863C19.7123 17.9009 19.4422 18.9995 18.9019 19.9C18.3616 20.7824 17.6413 21.4487 16.7408 21.8629C15.8404 22.2951 14.8139 22.4932 13.6973 22.4932C12.5808 22.4932 11.5723 22.2771 10.6538 21.8449C9.73535 21.4127 9.015 20.7464 8.47472 19.8639C7.93445 18.9815 7.66432 17.8829 7.66432 16.5683V8.37418C7.66432 8.26612 7.70032 8.17607 7.77237 8.10405C7.80837 8.06802 7.8444 8.03203 7.88042 8.014C7.91645 7.996 7.97047 7.978 8.0245 7.978H10.1315C10.2576 7.978 10.3657 8.014 10.4197 8.08605C10.4737 8.15808 10.5097 8.24813 10.5097 8.37418V16.6043C10.5097 17.3067 10.6538 17.919 10.9419 18.4232ZM21.6033 19.8459C21.6033 19.9 21.6213 19.972 21.6393 20.026C21.6753 20.098 21.7113 20.1701 21.7473 20.2421C22.1976 20.9445 22.8099 21.5028 23.5663 21.899C24.3226 22.2952 25.1871 22.4932 26.1417 22.4932C26.8979 22.4932 27.6362 22.3492 28.3387 22.0791C29.0409 21.7909 29.5992 21.3767 30.0494 20.8004C30.4817 20.2421 30.6979 19.5578 30.6979 18.7474C30.6979 17.901 30.4277 17.1266 29.8874 16.4602C29.3472 15.7759 28.5367 15.2896 27.4382 14.9475C27.2942 14.8935 27.1682 14.8574 27.0419 14.8214C26.9159 14.7854 26.8079 14.7494 26.7179 14.7314C26.1777 14.5873 25.7814 14.4612 25.5292 14.3532C25.2771 14.2451 25.061 14.1191 24.9169 13.975C24.7548 13.8129 24.6828 13.6148 24.6828 13.3447C24.6828 13.0025 24.8269 12.7324 25.115 12.5162C25.4032 12.3001 25.7994 12.1921 26.3037 12.1921C26.7899 12.1921 27.1862 12.2822 27.5102 12.4442C27.8344 12.6063 28.1404 12.8765 28.4467 13.2186C28.5547 13.3447 28.6449 13.4167 28.7529 13.4167C28.8249 13.4167 28.9149 13.3807 29.0049 13.2907L30.1394 12.3542C30.2657 12.2461 30.3377 12.1561 30.3377 12.066C30.3377 11.994 30.2837 11.886 30.1937 11.7419C29.7614 11.2016 29.2212 10.7334 28.5727 10.3732C27.9244 9.995 27.1502 9.8149 26.2317 9.8149C25.3852 9.8149 24.6468 9.977 23.9985 10.3191C23.3501 10.6613 22.8639 11.0936 22.5037 11.6338C22.1615 12.1741 21.9815 12.7143 21.9815 13.2726C21.9815 13.957 22.1075 14.5513 22.3777 15.0375C22.6478 15.5238 23.044 15.938 23.5843 16.2801C24.1245 16.6223 24.8269 16.9285 25.7094 17.1986C26.0874 17.3067 26.3217 17.3787 26.3757 17.3967C26.8079 17.5228 27.1319 17.6308 27.3302 17.7208C27.5462 17.8109 27.7084 17.919 27.8164 18.0811C27.9424 18.2431 27.9964 18.4592 27.9964 18.7474C27.9964 19.0175 27.8884 19.2696 27.6904 19.4858C27.4742 19.7019 27.2222 19.8639 26.8979 19.99C26.5917 20.098 26.2497 20.1701 25.9254 20.1701C25.3852 20.1701 24.9349 20.044 24.5748 19.7919C24.2146 19.5398 23.8724 19.1976 23.5663 18.7654C23.4582 18.6213 23.3501 18.5493 23.2241 18.5493C23.152 18.5493 23.08 18.5853 23.008 18.6213L21.7654 19.5037C21.6573 19.6118 21.6033 19.7198 21.6033 19.8459ZM41.9354 18.8194C42.0434 18.8194 42.1154 18.8554 42.1697 18.9455L43.1602 20.1521C43.2322 20.2601 43.2862 20.3502 43.2862 20.4402C43.2862 20.5483 43.2322 20.6383 43.1422 20.7284C42.4217 21.3587 41.7194 21.8089 40.9989 22.097C40.2967 22.3672 39.5222 22.5112 38.7119 22.5112C37.6132 22.5112 36.5687 22.2231 35.5962 21.6648C34.6237 21.0886 33.8494 20.3322 33.2732 19.3597C32.6969 18.3872 32.4087 17.3427 32.4087 16.2081C32.4087 15.0555 32.6789 13.993 33.2192 13.0385C33.7594 12.066 34.4977 11.3096 35.4522 10.7334C36.4067 10.1571 37.4692 9.88695 38.6397 9.88695C39.5942 9.88695 40.5307 10.121 41.4672 10.5893C42.4037 11.0575 43.1782 11.7599 43.7904 12.7143C44.4027 13.6688 44.7089 14.8394 44.7089 16.2261C44.7089 16.5323 44.6729 16.7664 44.6007 16.9104C44.5287 17.0545 44.4207 17.1446 44.3127 17.1626C44.1867 17.1986 43.9884 17.2166 43.7364 17.1986H35.0919C35.2182 17.7749 35.4702 18.2792 35.8124 18.7113C36.1547 19.1436 36.5867 19.4858 37.0909 19.7199C37.5952 19.954 38.1354 20.08 38.7119 20.08C39.1622 20.08 39.5402 20.026 39.8824 19.936C40.2067 19.8459 40.4767 19.7379 40.6929 19.6118C40.9449 19.4677 41.1792 19.3056 41.3952 19.1256L41.6834 18.9095C41.7734 18.8374 41.8634 18.8194 41.9354 18.8194ZM37.1632 12.5703C36.6949 12.8044 36.2987 13.1286 35.9564 13.5248C35.6142 13.9209 35.3622 14.3712 35.1822 14.8755H42.0434C41.7554 14.083 41.3052 13.4347 40.7109 12.9485C40.1164 12.4622 39.4142 12.2281 38.6397 12.2281C38.1354 12.2101 37.6312 12.3362 37.1632 12.5703ZM48.7069 9.977H47.3202C47.0679 9.977 46.9419 10.121 46.9419 10.3912V21.881C46.9419 22.1511 47.0679 22.2771 47.3202 22.2771H49.3012C49.5712 22.2771 49.6974 22.1511 49.6974 21.881V15.1456C49.6974 14.5333 49.8054 14.029 50.0394 13.6148C50.2737 13.2006 50.5617 12.8945 50.9399 12.6964C51.3002 12.4983 51.6964 12.3902 52.1104 12.3902C52.5247 12.3902 52.9029 12.4622 53.2632 12.6063C53.6232 12.7684 53.9654 12.9485 54.2897 13.1646C54.3977 13.2366 54.5057 13.2907 54.5957 13.2907C54.7039 13.2907 54.7759 13.2366 54.8659 13.1286L55.7664 11.8499C55.8384 11.7599 55.8744 11.6698 55.8744 11.5798C55.8744 11.4537 55.8024 11.3277 55.6584 11.1836C55.2982 10.8774 54.8299 10.5713 54.2537 10.2831C53.6954 9.995 53.0829 9.85093 52.4167 9.85093C51.8044 9.85093 51.2462 9.995 50.7419 10.2831C50.2377 10.5713 49.8234 10.9675 49.4992 11.4897L49.3012 10.4272C49.2652 10.2291 49.2112 10.103 49.1029 10.049C49.0129 9.995 48.8869 9.977 48.7069 9.977Z" fill="black" fill-opacity="0.4"/>
<path d="M65.0046 7.97803H75.3059C75.5579 7.97803 75.6842 8.1041 75.6842 8.35623V10.1751C75.6842 10.4273 75.5579 10.5713 75.3059 10.5713H71.5059V21.899C71.5059 22.1511 71.3799 22.2772 71.1276 22.2772H69.0566C68.8046 22.2772 68.6787 22.1511 68.6787 21.899V10.5533H64.9866C64.7346 10.5533 64.6084 10.4273 64.6084 10.1571V8.35623C64.6264 8.1041 64.7526 7.97803 65.0046 7.97803Z" fill="black" fill-opacity="0.4"/>
<path d="M84.8871 18.8197C84.9951 18.8197 85.0671 18.8557 85.1211 18.9457L86.1116 20.1524C86.1836 20.2604 86.2376 20.3504 86.2376 20.4405C86.2376 20.5485 86.1836 20.6386 86.0936 20.7286C85.3734 21.359 84.6709 21.8092 83.9506 22.0973C83.2301 22.3855 82.4739 22.5115 81.6634 22.5115C80.5649 22.5115 79.5204 22.2234 78.5479 21.6651C77.5754 21.0888 76.8011 20.3324 76.2246 19.36C75.6484 18.3875 75.3604 17.3429 75.3604 16.2084C75.3604 15.0558 75.6304 13.9933 76.1706 13.0388C76.7109 12.0663 77.4494 11.3099 78.4039 10.7336C79.3584 10.1574 80.4209 9.88721 81.5914 9.88721C82.5459 9.88721 83.5004 10.1213 84.4189 10.5896C85.3554 11.0578 86.1296 11.7602 86.7419 12.7146C87.3544 13.6691 87.6604 14.8397 87.6604 16.2264C87.6604 16.5325 87.6244 16.7667 87.5524 16.9107C87.4804 17.0548 87.3724 17.1448 87.2644 17.1629C87.1381 17.1989 86.9401 17.2169 86.6879 17.2169H78.0616C78.1876 17.7932 78.4399 18.2974 78.7821 18.7296C79.1241 19.1619 79.5564 19.504 80.0606 19.7381C80.5649 19.9723 81.1051 20.0983 81.6994 20.0983C82.1496 20.0983 82.5279 20.0443 82.8701 19.9543C83.1941 19.8642 83.4644 19.7562 83.6804 19.6301C83.9326 19.486 84.1666 19.3239 84.3829 19.1438L84.6709 18.9277C84.7069 18.8377 84.7971 18.8197 84.8871 18.8197ZM80.0966 12.5706C79.6284 12.8047 79.2321 13.1288 78.8901 13.525C78.5479 13.9212 78.2959 14.3715 78.1156 14.8757H84.9951C84.7069 14.0833 84.2569 13.435 83.6624 12.9487C83.0681 12.4625 82.3659 12.2284 81.5734 12.2284C81.0691 12.2104 80.5469 12.3364 80.0966 12.5706Z" fill="black" fill-opacity="0.4"/>
<path d="M88.4891 20.0259C88.4711 19.9718 88.4531 19.8998 88.4531 19.8458C88.4531 19.7197 88.5071 19.6117 88.6154 19.5036L89.8399 18.5671C89.8939 18.5131 89.9659 18.4771 90.0561 18.4951C90.1821 18.4951 90.3081 18.5671 90.3981 18.7112C90.7044 19.1434 91.0466 19.4856 91.4066 19.7377C91.7669 19.9898 92.2171 20.1159 92.7574 20.1159C93.0996 20.1159 93.4236 20.0619 93.7299 19.9358C94.0541 19.8098 94.3241 19.6477 94.5221 19.4316C94.7204 19.2155 94.8284 18.9633 94.8284 18.6932C94.8284 18.4051 94.7744 18.1889 94.6484 18.0269C94.5221 17.8648 94.3601 17.7567 94.1621 17.6667C93.9639 17.5766 93.6399 17.4686 93.2076 17.3425C93.1356 17.3245 92.9194 17.2705 92.5414 17.1444C91.6589 16.8743 90.9564 16.5681 90.4161 16.226C89.8759 15.8838 89.4796 15.4696 89.2096 14.9833C88.9394 14.4971 88.8134 13.9028 88.8134 13.2185C88.8134 12.6602 88.9934 12.1199 89.3356 11.5796C89.6779 11.0394 90.1821 10.6072 90.8304 10.265C91.4786 9.92282 92.2171 9.76074 93.0636 9.76074C93.9639 9.76074 94.7564 9.94082 95.4046 10.319C96.0531 10.6972 96.5934 11.1474 97.0256 11.6877C97.1336 11.8138 97.1696 11.9218 97.1696 12.0119C97.1696 12.1019 97.0976 12.21 96.9714 12.3L95.8369 13.2365C95.7289 13.3085 95.6569 13.3625 95.5849 13.3625C95.4946 13.3625 95.3866 13.2905 95.2786 13.1644C94.9904 12.8223 94.6664 12.5701 94.3421 12.39C94.0179 12.228 93.6039 12.1379 93.1356 12.1379C92.6314 12.1379 92.2351 12.246 91.9469 12.4621C91.6589 12.6782 91.5146 12.9483 91.5146 13.2905C91.5146 13.5606 91.5869 13.7587 91.7489 13.9208C91.9109 14.0829 92.1091 14.209 92.3611 14.299C92.6134 14.4071 93.0274 14.5151 93.5499 14.6772C93.6579 14.6952 93.7659 14.7312 93.8739 14.7672C93.9999 14.8033 94.1261 14.8393 94.2701 14.8933C95.3686 15.2175 96.1791 15.7217 96.7194 16.4061C97.2596 17.0904 97.5296 17.8468 97.5296 18.6932C97.5296 19.4856 97.3136 20.1699 96.8814 20.7462C96.4491 21.3045 95.8729 21.7367 95.1706 22.0249C94.4681 22.313 93.7299 22.4571 92.9734 22.4391C92.0189 22.4391 91.1546 22.241 90.3981 21.8448C89.6419 21.4486 89.0476 20.8903 88.5794 20.1879C88.5614 20.1699 88.5254 20.0979 88.4891 20.0259Z" fill="black" fill-opacity="0.4"/>
<path d="M104.138 10.0673C104.409 10.0673 104.553 10.2114 104.553 10.4815V12.0663C104.553 12.1924 104.517 12.3004 104.427 12.3725C104.337 12.4445 104.229 12.4805 104.102 12.4805H102.716V18.4775C102.716 18.9097 102.788 19.2519 102.95 19.522C103.112 19.7742 103.382 19.9182 103.76 19.9363L104.066 19.9543C104.283 19.9723 104.427 20.0263 104.481 20.1344C104.535 20.2424 104.571 20.3685 104.553 20.4945V21.8632C104.553 22.1874 104.301 22.3495 103.814 22.3495C103.058 22.3495 102.392 22.2054 101.815 21.9172C101.221 21.6291 100.771 21.2149 100.447 20.6746C100.122 20.1344 99.9604 19.504 99.9604 18.7837V12.4985H98.8439C98.7359 12.4985 98.6277 12.4625 98.5557 12.3905C98.4657 12.3184 98.4297 12.2104 98.4297 12.0843V10.5175C98.4297 10.3735 98.4657 10.2654 98.5557 10.1754C98.6277 10.1033 98.7359 10.0673 98.8439 10.0673H99.9604V8.05032C99.9604 7.90624 99.9784 7.81619 100.032 7.74417C100.086 7.67212 100.195 7.63612 100.339 7.58209L102.302 7.00579C102.338 6.98779 102.374 6.98779 102.41 6.98779C102.446 6.98779 102.5 7.00579 102.536 7.02379C102.572 7.04182 102.608 7.07784 102.626 7.11384C102.68 7.18589 102.698 7.29394 102.698 7.41999V10.0493L104.138 10.0673Z" fill="black" fill-opacity="0.4"/>
<path d="M107.182 5.58301H108.857C109.217 5.58301 109.397 5.78111 109.397 6.19533V7.88816C109.397 8.08626 109.361 8.23033 109.271 8.30238C109.181 8.37441 109.037 8.42843 108.857 8.42843H107.182C106.786 8.42843 106.588 8.24836 106.588 7.88816V6.19533C106.588 5.78111 106.786 5.58301 107.182 5.58301ZM106.786 10.0853C106.858 10.0132 106.948 9.97721 107.056 9.97721H109.091C109.199 9.97721 109.289 10.0132 109.361 10.0853C109.433 10.1573 109.469 10.2474 109.469 10.3734V21.8812C109.469 22.1333 109.343 22.2774 109.091 22.2774H107.056C106.804 22.2774 106.678 22.1513 106.678 21.8812V10.3734C106.678 10.2474 106.714 10.1573 106.786 10.0853Z" fill="black" fill-opacity="0.4"/>
<path d="M114.223 22.1693C114.115 22.2413 113.971 22.2773 113.845 22.2773H112.08C111.81 22.2773 111.666 22.1333 111.666 21.8631V10.3734C111.666 10.1032 111.81 9.95917 112.08 9.95917H113.377C113.503 9.95917 113.647 10.0132 113.737 10.1032C113.845 10.1933 113.917 10.3194 113.953 10.4454L114.115 11.8321C114.584 11.1658 115.142 10.6795 115.808 10.3554C116.475 10.0312 117.195 9.86914 117.933 9.86914C118.672 9.86914 119.392 10.0492 120.094 10.4274C120.797 10.8056 121.373 11.3819 121.841 12.1563C122.292 12.9307 122.526 13.9031 122.526 15.0557V21.8451C122.526 22.1153 122.4 22.2413 122.147 22.2413H120.22C119.95 22.2413 119.806 22.1153 119.806 21.8451V15.1458C119.806 14.6775 119.698 14.2453 119.464 13.8311C119.23 13.4169 118.906 13.0747 118.51 12.8226C118.095 12.5705 117.645 12.4444 117.141 12.4444C116.709 12.4444 116.277 12.5525 115.862 12.7866C115.43 13.0207 115.088 13.3449 114.818 13.7771C114.548 14.2093 114.404 14.7135 114.404 15.2718V21.8271C114.386 21.9892 114.332 22.0792 114.223 22.1693Z" fill="black" fill-opacity="0.4"/>
<path d="M135.889 23.4297C135.349 24.4022 134.628 25.1405 133.692 25.6448C132.755 26.149 131.675 26.3832 130.468 26.3832C129.658 26.3832 128.865 26.239 128.091 25.969C127.298 25.6987 126.632 25.3208 126.074 24.8524C125.966 24.7624 125.912 24.6723 125.912 24.5643C125.912 24.4922 125.948 24.4022 126.038 24.2761L126.848 23.1055C126.938 22.9795 127.046 22.9074 127.19 22.9074C127.298 22.9074 127.406 22.9435 127.532 23.0335C128.379 23.6278 129.423 23.9159 130.702 23.9159C131.35 23.9159 131.927 23.7719 132.431 23.4837C132.935 23.2136 133.349 22.7994 133.62 22.2951C133.908 21.7909 134.052 21.2146 134.052 20.5662V20.5303C133.511 21.1065 132.935 21.5388 132.341 21.8269C131.747 22.115 131.044 22.2591 130.252 22.2591C129.19 22.2591 128.181 22.007 127.262 21.4667C126.326 20.9444 125.588 20.2061 125.029 19.2696C124.471 18.3331 124.183 17.2706 124.201 16.082C124.201 14.9655 124.471 13.9209 125.029 12.9664C125.588 12.012 126.326 11.2376 127.262 10.6613C128.199 10.085 129.19 9.79688 130.252 9.79688C131.783 9.79688 133.098 10.3912 134.196 11.5618L134.358 10.4272C134.376 10.2471 134.43 10.121 134.502 10.049C134.574 9.97697 134.682 9.94095 134.826 9.94095H136.375C136.609 9.94095 136.735 10.085 136.735 10.3552V19.8099C136.681 21.2686 136.411 22.4572 135.889 23.4297ZM133.62 14.2271C133.295 13.6508 132.863 13.1826 132.305 12.8404C131.747 12.4982 131.134 12.3181 130.432 12.3181C129.712 12.3181 129.081 12.4982 128.523 12.8404C127.965 13.1826 127.55 13.6508 127.226 14.2451C126.92 14.8394 126.758 15.4697 126.758 16.1721C126.758 16.9104 126.92 17.5587 127.244 18.135C127.569 18.7113 128.019 19.1616 128.577 19.4857C129.135 19.8099 129.766 19.972 130.45 19.972C131.134 19.972 131.747 19.8099 132.287 19.4677C132.827 19.1255 133.259 18.6573 133.584 18.081C133.89 17.4867 134.052 16.8564 134.052 16.1721C134.088 15.4517 133.926 14.8034 133.62 14.2271Z" fill="black" fill-opacity="0.4"/>
<path d="M139.022 9.97705C138.247 9.97705 137.617 10.6074 137.617 11.3818C137.617 12.1562 138.247 12.7865 139.022 12.7865C139.796 12.7865 140.426 12.1562 140.426 11.3818C140.426 10.6254 139.796 9.97705 139.022 9.97705ZM139.022 12.4983C138.427 12.4983 137.923 11.9941 137.923 11.3818C137.923 10.7695 138.427 10.2652 139.022 10.2652C139.616 10.2652 140.12 10.7515 140.12 11.3818C140.12 11.9941 139.616 12.4983 139.022 12.4983Z" fill="black" fill-opacity="0.4"/>
<path d="M138.482 10.6254C138.482 10.6254 138.5 10.6074 138.518 10.6074H139.166C139.256 10.6074 139.346 10.6254 139.418 10.6794C139.49 10.7335 139.544 10.7875 139.598 10.8595C139.634 10.9316 139.67 11.0216 139.67 11.1117C139.67 11.2017 139.652 11.2737 139.598 11.3638C139.544 11.4358 139.49 11.5079 139.4 11.5439L139.688 12.1022V12.1202V12.1382H139.67H139.4C139.382 12.1382 139.382 12.1382 139.364 12.1382C139.364 12.1382 139.346 12.1202 139.346 12.1022L139.094 11.5979H138.788V12.0841C138.788 12.1202 138.77 12.1202 138.752 12.1202H138.536C138.5 12.1202 138.5 12.1022 138.5 12.0841V10.6254C138.464 10.6434 138.464 10.6254 138.482 10.6254ZM138.77 11.3638H139.094C139.148 11.3638 139.184 11.3458 139.22 11.3278C139.256 11.3098 139.292 11.2737 139.31 11.2377C139.328 11.2017 139.346 11.1657 139.346 11.1117C139.346 11.0756 139.328 11.0216 139.31 10.9856C139.292 10.9496 139.256 10.9136 139.22 10.8956C139.184 10.8775 139.148 10.8595 139.094 10.8595H138.77V11.3638Z" fill="black" fill-opacity="0.4"/>
</svg>
