
<svg width="36" height="36" viewBox="0 0 36 36" fill="none" xmlns="http://www.w3.org/2000/svg">
<path d="M20.7002 28.3499H14.4002L13.6502 26.3249H2.3252V7.0499C2.3252 6.1499 3.0752 5.3999 3.9752 5.3999H32.0252C32.9252 5.3999 33.6752 6.1499 33.6752 7.0499V26.3999H22.2002L20.7002 28.3499ZM15.2252 27.2249H20.1752L21.6752 25.1999H32.5502V7.0499C32.5502 6.7499 32.3252 6.5249 32.0252 6.5249H3.9752C3.6752 6.5249 3.4502 6.7499 3.4502 7.0499V25.2749H14.4752L15.2252 27.2249Z" fill="white"/>
<path d="M30.6004 30.6H5.40039C2.70039 30.6 0.525391 28.425 0.525391 25.725V25.125H14.4004L15.1504 27.15H20.1004L21.6004 25.125H35.4004V25.725C35.4754 28.425 33.2254 30.6 30.6004 30.6ZM1.72539 26.325C2.02539 28.125 3.52539 29.475 5.40039 29.475H30.5254C32.4004 29.475 33.9754 28.125 34.2004 26.325H22.2004L20.7004 28.35H14.4004L13.6504 26.325H1.72539Z" fill="white"/>
<path d="M12.525 9.375H6.75V14.4H12.525V9.375Z" fill="white"/>
<path d="M13.0504 14.9249H6.15039V8.7749H13.0504V14.9249ZM7.27539 13.7999H11.9254V9.8999H7.27539V13.7999Z" fill="white"/>
<path d="M12.525 17.325H6.75V22.3499H12.525V17.325Z" fill="white"/>
<path d="M13.0504 22.95H6.15039V16.8H13.0504V22.95ZM7.27539 21.825H11.9254V17.925H7.27539V21.825Z" fill="white"/>
<path d="M29.55 11.25H16.125V12.375H29.55V11.25Z" fill="white"/>
<path d="M29.55 19.2749H16.125V20.3999H29.55V19.2749Z" fill="white"/>
</svg>
